<svg width="104" height="32" viewBox="0 0 104 32" fill="none" xmlns="http://www.w3.org/2000/svg">
<path d="M27.4023 20.8099C27.4023 20.1346 27.5579 19.5288 27.8691 18.9926C28.1869 18.4563 28.6139 18.0392 29.1502 17.7413C29.6931 17.4367 30.2857 17.2844 30.9279 17.2844C31.6628 17.2844 32.3149 17.4665 32.8843 17.8306C33.4603 18.1881 33.8774 18.6979 34.1356 19.36H32.775C32.5963 18.9959 32.348 18.7244 32.0302 18.5457C31.7124 18.3669 31.345 18.2775 30.9279 18.2775C30.471 18.2775 30.0639 18.3801 29.7063 18.5854C29.3488 18.7906 29.0674 19.0853 28.8622 19.4693C28.6636 19.8533 28.5643 20.3001 28.5643 20.8099C28.5643 21.3197 28.6636 21.7666 28.8622 22.1506C29.0674 22.5346 29.3488 22.8326 29.7063 23.0444C30.0639 23.2497 30.471 23.3523 30.9279 23.3523C31.345 23.3523 31.7124 23.2629 32.0302 23.0841C32.348 22.9054 32.5963 22.6339 32.775 22.2698H34.1356C33.8774 22.9319 33.4603 23.4417 32.8843 23.7992C32.3149 24.1567 31.6628 24.3355 30.9279 24.3355C30.279 24.3355 29.6865 24.1865 29.1502 23.8886C28.6139 23.584 28.1869 23.1636 27.8691 22.6273C27.5579 22.091 27.4023 21.4853 27.4023 20.8099ZM39.6517 24.3454C39.0095 24.3454 38.4169 24.1964 37.874 23.8985C37.3377 23.5939 36.9107 23.1735 36.5929 22.6373C36.2817 22.0944 36.1261 21.4853 36.1261 20.8099C36.1261 20.1346 36.2817 19.5288 36.5929 18.9926C36.9107 18.4563 37.3377 18.0392 37.874 17.7413C38.4169 17.4367 39.0095 17.2844 39.6517 17.2844C40.3005 17.2844 40.893 17.4367 41.4293 17.7413C41.9722 18.0392 42.3993 18.4563 42.7104 18.9926C43.0216 19.5288 43.1772 20.1346 43.1772 20.8099C43.1772 21.4853 43.0216 22.0944 42.7104 22.6373C42.3993 23.1735 41.9722 23.5939 41.4293 23.8985C40.893 24.1964 40.3005 24.3454 39.6517 24.3454ZM39.6517 23.3622C40.1085 23.3622 40.5157 23.2596 40.8732 23.0544C41.2307 22.8425 41.5088 22.5446 41.7074 22.1606C41.9126 21.7699 42.0153 21.3197 42.0153 20.8099C42.0153 20.3001 41.9126 19.8533 41.7074 19.4693C41.5088 19.0853 41.2307 18.7906 40.8732 18.5854C40.5157 18.3801 40.1085 18.2775 39.6517 18.2775C39.1948 18.2775 38.7877 18.3801 38.4302 18.5854C38.0726 18.7906 37.7913 19.0853 37.586 19.4693C37.3874 19.8533 37.2881 20.3001 37.2881 20.8099C37.2881 21.3197 37.3874 21.7699 37.586 22.1606C37.7913 22.5446 38.0726 22.8425 38.4302 23.0544C38.7877 23.2596 39.1948 23.3622 39.6517 23.3622ZM52.6035 17.3738V24.2759H51.4714V19.5487L49.366 24.2759H48.5814L46.4661 19.5487V24.2759H45.334V17.3738H46.5555L48.9787 22.7862L51.3919 17.3738H52.6035ZM62.4037 17.3738V24.2759H61.2716V19.5487L59.1662 24.2759H58.3817L56.2663 19.5487V24.2759H55.1343V17.3738H56.3557L58.7789 22.7862L61.1921 17.3738H62.4037ZM66.0567 17.3738V21.7733C66.0567 22.2963 66.1924 22.6902 66.4639 22.955C66.7419 23.2199 67.1259 23.3523 67.6159 23.3523C68.1124 23.3523 68.4964 23.2199 68.7679 22.955C69.0459 22.6902 69.185 22.2963 69.185 21.7733V17.3738H70.3171V21.7534C70.3171 22.3162 70.1946 22.7928 69.9497 23.1835C69.7047 23.5741 69.377 23.8654 68.9665 24.0574C68.556 24.2494 68.1025 24.3454 67.6059 24.3454C67.1094 24.3454 66.6559 24.2494 66.2454 24.0574C65.8415 23.8654 65.5204 23.5741 65.2821 23.1835C65.0437 22.7928 64.9246 22.3162 64.9246 21.7534V17.3738H66.0567ZM78.5047 24.2759H77.3725L73.9662 19.1217V24.2759H72.8341V17.3639H73.9662L77.3725 22.5082V17.3639H78.5047V24.2759ZM82.1665 17.3738V24.2759H81.0343V17.3738H82.1665ZM89.1546 17.3738V18.2974H87.3174V24.2759H86.1852V18.2974H84.3381V17.3738H89.1546ZM96.4583 17.3738L94.1742 21.7733V24.2759H93.0421V21.7733L90.748 17.3738H92.0092L93.6081 20.7603L95.207 17.3738H96.4583Z" fill="#757087"/>
<path d="M29.8546 10.8646C30.0223 10.8911 30.1746 10.9595 30.3114 11.0698C30.4526 11.1802 30.563 11.317 30.6424 11.4803C30.7263 11.6436 30.7682 11.818 30.7682 12.0033C30.7682 12.2373 30.7086 12.4491 30.5895 12.6389C30.4703 12.8243 30.2959 12.9722 30.0664 13.0825C29.8413 13.1884 29.5743 13.2414 29.2653 13.2414H27.5439V8.62679H29.1991C29.5125 8.62679 29.7795 8.67975 30.0002 8.78568C30.2209 8.8872 30.3864 9.02623 30.4968 9.20279C30.6071 9.37934 30.6623 9.57796 30.6623 9.79865C30.6623 10.0723 30.5873 10.2996 30.4372 10.4806C30.2915 10.6571 30.0973 10.7851 29.8546 10.8646ZM28.1464 10.6196H29.1594C29.4419 10.6196 29.6604 10.5534 29.8148 10.421C29.9693 10.2886 30.0466 10.1054 30.0466 9.87148C30.0466 9.63754 29.9693 9.45437 29.8148 9.32196C29.6604 9.18954 29.4375 9.12334 29.1462 9.12334H28.1464V10.6196ZM29.2124 12.7449C29.5125 12.7449 29.7464 12.6742 29.9142 12.533C30.0819 12.3918 30.1657 12.1953 30.1657 11.9438C30.1657 11.6878 30.0775 11.4869 29.9009 11.3413C29.7244 11.1912 29.4882 11.1162 29.1925 11.1162H28.1464V12.7449H29.2124ZM32.2266 8.62679V11.5465C32.2266 11.957 32.326 12.2615 32.5246 12.4602C32.7276 12.6588 33.0079 12.7581 33.3654 12.7581C33.7185 12.7581 33.9944 12.6588 34.193 12.4602C34.396 12.2615 34.4975 11.957 34.4975 11.5465V8.62679H35.1V11.5399C35.1 11.9239 35.0228 12.2483 34.8683 12.5131C34.7138 12.7735 34.5042 12.9678 34.2393 13.0958C33.9789 13.2238 33.6854 13.2878 33.3588 13.2878C33.0322 13.2878 32.7364 13.2238 32.4716 13.0958C32.2112 12.9678 32.0038 12.7735 31.8493 12.5131C31.6992 12.2483 31.6242 11.9239 31.6242 11.5399V8.62679H32.2266ZM36.7406 8.62679V13.2414H36.1382V8.62679H36.7406ZM38.6017 12.7515H40.2172V13.2414H37.9992V8.62679H38.6017V12.7515ZM43.9289 8.62679V9.11672H42.671V13.2414H42.0685V9.11672H40.804V8.62679H43.9289ZM48.8125 10.8646C48.9802 10.8911 49.1325 10.9595 49.2694 11.0698C49.4106 11.1802 49.5209 11.317 49.6004 11.4803C49.6842 11.6436 49.7262 11.818 49.7262 12.0033C49.7262 12.2373 49.6666 12.4491 49.5474 12.6389C49.4282 12.8243 49.2539 12.9722 49.0244 13.0825C48.7993 13.1884 48.5322 13.2414 48.2233 13.2414H46.5019V8.62679H48.1571C48.4705 8.62679 48.7375 8.67975 48.9582 8.78568C49.1789 8.8872 49.3444 9.02623 49.4547 9.20279C49.5651 9.37934 49.6202 9.57796 49.6202 9.79865C49.6202 10.0723 49.5452 10.2996 49.3951 10.4806C49.2495 10.6571 49.0553 10.7851 48.8125 10.8646ZM47.1044 10.6196H48.1174C48.3998 10.6196 48.6183 10.5534 48.7728 10.421C48.9273 10.2886 49.0045 10.1054 49.0045 9.87148C49.0045 9.63754 48.9273 9.45437 48.7728 9.32196C48.6183 9.18954 48.3954 9.12334 48.1041 9.12334H47.1044V10.6196ZM48.1703 12.7449C48.4705 12.7449 48.7044 12.6742 48.8721 12.533C49.0398 12.3918 49.1237 12.1953 49.1237 11.9438C49.1237 11.6878 49.0354 11.4869 48.8589 11.3413C48.6823 11.1912 48.4462 11.1162 48.1505 11.1162H47.1044V12.7449H48.1703ZM53.76 8.62679L52.2571 11.5002V13.2414H51.6546V11.5002L50.1451 8.62679H50.8138L51.9526 10.9639L53.0913 8.62679H53.76ZM58.8024 8.62679V9.11672H57.5445V13.2414H56.942V9.11672H55.6775V8.62679H58.8024ZM63.0662 8.62679V13.2414H62.4637V11.1493H60.1133V13.2414H59.5108V8.62679H60.1133V10.6527H62.4637V8.62679H63.0662ZM64.6639 9.11672V10.6593H66.3456V11.1559H64.6639V12.7449H66.5442V13.2414H64.0615V8.62017H66.5442V9.11672H64.6639ZM72.5183 9.96416C72.3903 9.69492 72.2049 9.48748 71.9622 9.34182C71.7194 9.19175 71.4369 9.11672 71.1147 9.11672C70.7925 9.11672 70.5012 9.19175 70.2408 9.34182C69.9848 9.48748 69.7817 9.69934 69.6317 9.97741C69.486 10.2511 69.4132 10.5689 69.4132 10.9308C69.4132 11.2927 69.486 11.6105 69.6317 11.8842C69.7817 12.1578 69.9848 12.3697 70.2408 12.5198C70.5012 12.6654 70.7925 12.7382 71.1147 12.7382C71.5649 12.7382 71.9357 12.6036 72.227 12.3344C72.5183 12.0651 72.6882 11.701 72.7368 11.242H70.8962V10.752H73.379V11.2155C73.3437 11.5951 73.2245 11.9438 73.0215 12.2615C72.8184 12.5749 72.5514 12.8243 72.2204 13.0097C71.8893 13.1906 71.5208 13.2811 71.1147 13.2811C70.6866 13.2811 70.2959 13.1818 69.9428 12.9832C69.5897 12.7802 69.3095 12.4999 69.102 12.1424C68.899 11.7849 68.7975 11.381 68.7975 10.9308C68.7975 10.4806 68.899 10.0767 69.102 9.7192C69.3095 9.35727 69.5897 9.07699 69.9428 8.87837C70.2959 8.67534 70.6866 8.57382 71.1147 8.57382C71.6046 8.57382 72.0372 8.6952 72.4124 8.93796C72.7919 9.18072 73.0678 9.52279 73.2399 9.96416H72.5183ZM75.0761 8.62679V13.2414H74.4736V8.62679H75.0761ZM79.2411 8.62679V9.11672H77.9831V13.2414H77.3806V9.11672H76.1161V8.62679H79.2411ZM79.7906 10.9308C79.7906 10.4806 79.8921 10.0767 80.0951 9.7192C80.2982 9.35727 80.574 9.07479 80.9227 8.87175C81.2758 8.66872 81.6664 8.5672 82.0946 8.5672C82.5977 8.5672 83.0369 8.68858 83.4121 8.93134C83.7873 9.1741 84.0609 9.51837 84.2331 9.96416H83.5114C83.3834 9.6861 83.198 9.47203 82.9553 9.32196C82.7169 9.17189 82.43 9.09686 82.0946 9.09686C81.7724 9.09686 81.4833 9.17189 81.2273 9.32196C80.9713 9.47203 80.7704 9.6861 80.6248 9.96416C80.4791 10.2378 80.4063 10.56 80.4063 10.9308C80.4063 11.2971 80.4791 11.6193 80.6248 11.8974C80.7704 12.1711 80.9713 12.3829 81.2273 12.533C81.4833 12.6831 81.7724 12.7581 82.0946 12.7581C82.43 12.7581 82.7169 12.6853 82.9553 12.5396C83.198 12.3895 83.3834 12.1755 83.5114 11.8974H84.2331C84.0609 12.3388 83.7873 12.6809 83.4121 12.9236C83.0369 13.162 82.5977 13.2811 82.0946 13.2811C81.6664 13.2811 81.2758 13.1818 80.9227 12.9832C80.574 12.7802 80.2982 12.4999 80.0951 12.1424C79.8921 11.7849 79.7906 11.381 79.7906 10.9308ZM87.2554 13.2878C86.8273 13.2878 86.4366 13.1884 86.0835 12.9898C85.7304 12.7868 85.4502 12.5065 85.2427 12.149C85.0397 11.7871 84.9382 11.381 84.9382 10.9308C84.9382 10.4806 85.0397 10.0767 85.2427 9.7192C85.4502 9.35727 85.7304 9.07699 86.0835 8.87837C86.4366 8.67534 86.8273 8.57382 87.2554 8.57382C87.6879 8.57382 88.0808 8.67534 88.4339 8.87837C88.787 9.07699 89.065 9.35506 89.2681 9.71258C89.4711 10.0701 89.5726 10.4762 89.5726 10.9308C89.5726 11.3854 89.4711 11.7915 89.2681 12.149C89.065 12.5065 88.787 12.7868 88.4339 12.9898C88.0808 13.1884 87.6879 13.2878 87.2554 13.2878ZM87.2554 12.7647C87.5776 12.7647 87.8667 12.6897 88.1227 12.5396C88.3831 12.3895 88.5862 12.1755 88.7318 11.8974C88.8819 11.6193 88.9569 11.2971 88.9569 10.9308C88.9569 10.56 88.8819 10.2378 88.7318 9.96416C88.5862 9.6861 88.3853 9.47203 88.1293 9.32196C87.8733 9.17189 87.582 9.09686 87.2554 9.09686C86.9288 9.09686 86.6375 9.17189 86.3815 9.32196C86.1255 9.47203 85.9224 9.6861 85.7724 9.96416C85.6267 10.2378 85.5539 10.56 85.5539 10.9308C85.5539 11.2971 85.6267 11.6193 85.7724 11.8974C85.9224 12.1755 86.1255 12.3895 86.3815 12.5396C86.6419 12.6897 86.9332 12.7647 87.2554 12.7647ZM91.2019 8.62679V13.2414H90.5994V8.62679H91.2019ZM96.0885 13.2414H95.486L93.0628 9.56692V13.2414H92.4604V8.62017H93.0628L95.486 12.288V8.62017H96.0885V13.2414Z" fill="#757087"/>
<path fill-rule="evenodd" clip-rule="evenodd" d="M20.0915 19.9051C20.473 20.2095 20.7996 20.4716 21.0009 20.6362C21.0704 20.6931 21.1263 20.7645 21.1646 20.8453C21.2028 20.9261 21.2225 21.0144 21.2222 21.1036L21.216 23.8519C21.198 23.9577 21.1427 24.0538 21.0599 24.123C20.9771 24.1923 20.8722 24.2303 20.7637 24.2304H14.8164C10.3613 24.2304 6.6487 20.6256 6.68384 16.2203C6.70674 13.3851 8.23143 10.9042 10.5102 9.51616V6.82579C10.5102 6.72218 10.5317 6.61967 10.5734 6.5246C10.6151 6.42954 10.6761 6.34397 10.7526 6.27313C10.8291 6.20234 10.9195 6.14783 11.0182 6.11302C11.1169 6.0782 11.2217 6.06375 11.3263 6.07064C11.733 6.09674 12.0405 6.44863 12.0405 6.85161V8.7928C12.6585 8.57663 13.301 8.43649 13.9536 8.37553V6.82579C13.9536 6.72218 13.9751 6.61961 14.0168 6.5246C14.0585 6.42954 14.1195 6.34391 14.1961 6.27313C14.2726 6.20234 14.363 6.14783 14.4617 6.11302C14.5604 6.0782 14.6652 6.0638 14.7698 6.07064C15.1765 6.09674 15.4841 6.44863 15.4841 6.85161V8.37481C17.4207 8.55589 19.1576 9.41635 20.4468 10.713C20.6883 10.9557 20.9138 11.2134 21.122 11.4845C21.2819 11.6927 21.2459 11.8533 21.0259 11.9983L20.1348 12.7138C20.8439 13.7727 21.2224 15.0146 21.2228 16.2849C21.2255 17.5777 20.8306 18.8401 20.0915 19.9051ZM18.9148 18.9697C19.4358 18.1694 19.7132 17.2374 19.7132 16.2849C19.7132 15.3108 19.4148 14.3858 18.9223 13.6209L17.0662 15.0092C17.2799 15.3937 17.3935 15.8247 17.397 16.2635C17.4005 16.7023 17.2937 17.135 17.0862 17.5228L17.1457 17.5698C17.4062 17.7755 18.1404 18.3556 18.9148 18.9697ZM19.6924 22.7169L19.7006 21.606L15.9257 18.6487C15.5515 18.8361 15.1379 18.9337 14.7185 18.9333C13.2393 18.9333 12.0402 17.7476 12.0402 16.2848C12.0402 14.822 13.2393 13.6363 14.7185 13.6363C15.1315 13.6358 15.5389 13.7302 15.9087 13.9121L19.0327 11.482C17.8713 10.4139 16.4297 9.8526 14.7185 9.8526C13.7947 9.85194 12.8816 10.0466 12.0402 10.4235V12.8795C12.0402 12.9831 12.0186 13.0856 11.977 13.1807C11.9353 13.2758 11.8742 13.3613 11.7977 13.4321C11.7212 13.5029 11.6308 13.5574 11.5322 13.5922C11.4335 13.6271 11.3286 13.6415 11.2241 13.6347C10.8174 13.6086 10.5098 13.2567 10.5098 12.8536V11.3825C9.11352 12.5558 8.22381 14.3009 8.21421 16.2525C8.1965 19.8077 11.2035 22.7169 14.7989 22.7169H19.6924ZM15.6729 16.9154C15.799 16.7288 15.8664 16.5093 15.8664 16.2848C15.8664 15.9837 15.7454 15.695 15.5302 15.4821C15.3149 15.2693 15.0229 15.1497 14.7185 15.1497C14.4914 15.1497 14.2695 15.2162 14.0807 15.3409C13.892 15.4657 13.7448 15.643 13.6579 15.8504C13.5711 16.0578 13.5483 16.2861 13.5926 16.5063C13.6369 16.7265 13.7462 16.9287 13.9067 17.0875C14.0673 17.2463 14.2719 17.3543 14.4945 17.3981C14.7172 17.442 14.948 17.4195 15.1578 17.3335C15.3675 17.2476 15.5468 17.1021 15.6729 16.9154Z" fill="#757087"/>
<path d="M4.41383 1.0517H99.3104C101.167 1.0517 102.672 2.55695 102.672 4.41377V27.5862C102.672 29.443 101.167 30.9482 99.3104 30.9482H4.41383C2.55701 30.9482 1.05176 29.443 1.05176 27.5862V4.41377C1.05176 2.55695 2.55701 1.0517 4.41383 1.0517Z" stroke="#757087"/>
</svg>
