<svg width="78" height="13" viewBox="0 0 78 13" fill="none" xmlns="http://www.w3.org/2000/svg">
<path d="M6.89116 6.16079H12.7107C12.7107 6.75614 12.6809 7.30683 12.6363 7.798C12.5916 8.28916 12.4874 8.73567 12.3386 9.15241C12.1302 9.74776 11.8474 10.2687 11.4902 10.7301C11.133 11.1766 10.7014 11.5636 10.2251 11.8613C9.74884 12.1589 9.21302 12.3971 8.63256 12.5459C8.05209 12.7096 7.44186 12.784 6.80186 12.784C5.92372 12.784 5.12 12.6352 4.3907 12.3524C3.67628 12.0696 3.05116 11.6529 2.53023 11.1468C2.0093 10.611 1.60744 9.9859 1.32465 9.2566C1.04186 8.51242 0.893021 7.70869 0.893021 6.81567C0.893021 5.93753 1.02697 5.13381 1.30977 4.40451C1.59256 3.66032 2.0093 3.03521 2.51535 2.51428C3.05116 1.99335 3.67628 1.59148 4.42046 1.30869C5.16465 1.0259 5.98326 0.877067 6.89116 0.877067C8.06698 0.877067 9.09395 1.13009 9.98697 1.63614C10.88 2.14218 11.5795 2.93102 12.1005 4.00265L9.31721 5.14869C9.06418 4.52358 8.72186 4.09195 8.30512 3.82404C7.90326 3.55614 7.42697 3.42218 6.90604 3.42218C6.47441 3.42218 6.07255 3.51149 5.71535 3.67521C5.35814 3.83893 5.04558 4.06218 4.79256 4.37474C4.53953 4.67242 4.34605 5.04451 4.19721 5.46125C4.06326 5.89288 3.98884 6.36916 3.98884 6.89009C3.98884 7.36637 4.04837 7.81288 4.16744 8.21474C4.30139 8.6166 4.48 8.97381 4.73302 9.27149C4.98605 9.56916 5.2986 9.8073 5.65581 9.97102C6.0279 10.1347 6.45953 10.2092 6.93581 10.2092C7.2186 10.2092 7.50139 10.1794 7.7693 10.1199C8.03721 10.0454 8.27535 9.94125 8.48372 9.8073C8.70697 9.65846 8.88558 9.46497 9.01953 9.24172C9.15349 9.01846 9.25767 8.73567 9.30232 8.40823H6.89116V6.16079ZM27.1777 3.55614V12.784H24.0521V3.55614H21.5219V0.877067H29.7079V3.55614H27.1777ZM40.573 4.95521C39.8884 4.12172 39.0549 3.70497 38.0577 3.70497C37.6112 3.70497 37.2093 3.77939 36.8223 3.94311C36.4502 4.10683 36.1377 4.33009 35.8549 4.598C35.587 4.8659 35.3637 5.19335 35.2149 5.58032C35.066 5.9673 34.9916 6.36916 34.9916 6.81567C34.9916 7.26218 35.066 7.67893 35.2149 8.06591C35.3786 8.45288 35.587 8.78032 35.8549 9.06311C36.1377 9.3459 36.4651 9.56916 36.8372 9.718C37.2093 9.88172 37.6112 9.95614 38.0428 9.95614C38.9805 9.95614 39.8288 9.55428 40.573 8.75055V12.2333L40.2753 12.3375C39.8288 12.5013 39.4121 12.6054 39.0102 12.6799C38.6233 12.7543 38.2363 12.7989 37.8493 12.7989C37.0753 12.7989 36.3163 12.6501 35.6019 12.3673C34.8874 12.0696 34.2623 11.6529 33.7116 11.1171C33.1758 10.5813 32.7293 9.94125 32.4019 9.21195C32.0744 8.46776 31.9107 7.66404 31.9107 6.80079C31.9107 5.93753 32.0744 5.13381 32.387 4.41939C32.7144 3.69009 33.146 3.06497 33.6967 2.54404C34.2474 2.00823 34.8874 1.60637 35.6019 1.30869C36.3163 1.01102 37.0753 0.862183 37.8642 0.862183C38.3107 0.862183 38.7572 0.906834 39.1888 1.01102C39.6353 1.10032 40.0967 1.24916 40.573 1.44265V4.95521ZM46.7051 6.83056C46.7051 7.27707 46.7944 7.69381 46.9581 8.08079C47.1219 8.46776 47.36 8.79521 47.6428 9.078C47.9256 9.36079 48.2679 9.58404 48.6549 9.73288C49.0419 9.88172 49.4586 9.95614 49.8902 9.95614C50.3219 9.95614 50.7237 9.88172 51.1107 9.73288C51.4977 9.56916 51.84 9.3459 52.1377 9.078C52.4353 8.79521 52.6735 8.46776 52.8372 8.08079C53.0009 7.69381 53.0902 7.29195 53.0902 6.83056C53.0902 6.36916 53.0009 5.9673 52.8372 5.58032C52.6735 5.19335 52.4353 4.8659 52.1377 4.58311C51.8549 4.30032 51.5126 4.09195 51.1107 3.94311C50.7237 3.77939 50.3219 3.70497 49.8902 3.70497C49.4586 3.70497 49.0567 3.77939 48.6549 3.94311C48.2679 4.09195 47.9405 4.31521 47.6428 4.58311C47.36 4.8659 47.1219 5.19335 46.9581 5.58032C46.7944 5.9673 46.7051 6.38404 46.7051 6.83056ZM43.6391 6.83056C43.6391 5.99707 43.7879 5.20823 44.1005 4.49381C44.413 3.76451 44.8447 3.12451 45.3954 2.5887C45.946 2.05288 46.6009 1.62125 47.36 1.32358C48.1339 1.01102 48.9823 0.862183 49.8902 0.862183C50.7981 0.862183 51.6465 1.01102 52.4056 1.32358C53.1795 1.62125 53.8344 2.038 54.3851 2.5887C54.9507 3.12451 55.3823 3.76451 55.6949 4.49381C56.0074 5.20823 56.1563 5.99707 56.1563 6.83056C56.1563 7.66404 56.0074 8.45288 55.6949 9.18218C55.3823 9.8966 54.9507 10.5366 54.3851 11.0724C53.8344 11.6082 53.1795 12.0399 52.4056 12.3524C51.6316 12.6501 50.7981 12.7989 49.8902 12.7989C48.9674 12.7989 48.1191 12.6501 47.36 12.3524C46.6009 12.0399 45.946 11.6231 45.3954 11.0724C44.8447 10.5366 44.413 9.8966 44.1005 9.18218C43.7879 8.45288 43.6391 7.67893 43.6391 6.83056ZM62.3033 0.877067V12.784H59.1777V0.877067H62.3033ZM18.5451 0.877067V12.784H15.4195V0.877067H18.5451ZM65.5777 12.784V0.877067H68.5544L74.3591 8.15521V0.877067H77.4846V12.784H74.4781L68.7033 5.5059V12.784H65.5777Z" fill="#0E0333"/>
</svg>
