<svg width="750" height="566" viewBox="0 0 750 566" fill="none" xmlns="http://www.w3.org/2000/svg">
<path d="M725.747 341.913C735.955 341.913 744.231 333.637 744.231 323.428C744.231 313.22 735.955 304.944 725.747 304.944C715.538 304.944 707.262 313.22 707.262 323.428C707.262 333.637 715.538 341.913 725.747 341.913Z" fill="#F5F5F5" stroke="black" stroke-width="2" stroke-linejoin="round"/>
<path d="M725.747 341.913C735.955 341.913 744.231 333.637 744.231 323.428C744.231 313.22 735.955 304.944 725.747 304.944C715.538 304.944 707.262 313.22 707.262 323.428C707.262 333.637 715.538 341.913 725.747 341.913Z" fill="#F5F5F5" stroke="black" stroke-width="2" stroke-linejoin="round"/>
<path d="M725.747 341.913C735.955 341.913 744.231 333.637 744.231 323.428C744.231 313.22 735.955 304.944 725.747 304.944C715.538 304.944 707.262 313.22 707.262 323.428C707.262 333.637 715.538 341.913 725.747 341.913Z" fill="#F5F5F5" stroke="black" stroke-width="2" stroke-linejoin="round"/>
<path d="M639.305 311.321C644.011 306.83 651.751 307.002 654.099 313.069C655.52 316.743 656.205 320.66 656.113 324.598C656.021 328.536 655.154 332.417 653.562 336.02C651.97 339.623 649.684 342.876 646.833 345.595C643.984 348.315 640.626 350.446 636.953 351.868C633.28 353.289 629.362 353.974 625.425 353.882C621.487 353.79 617.605 352.923 614.004 351.33C608.054 348.701 608.243 340.961 612.949 336.47L626.127 323.896L639.305 311.321Z" fill="#F5F5F5" stroke="black" stroke-width="2" stroke-linejoin="round"/>
<path d="M639.305 311.321C644.011 306.83 651.751 307.002 654.099 313.069C655.52 316.743 656.205 320.66 656.113 324.598C656.021 328.536 655.154 332.417 653.562 336.02C651.97 339.623 649.684 342.876 646.833 345.595C643.984 348.315 640.626 350.446 636.953 351.868C633.28 353.289 629.362 353.974 625.425 353.882C621.487 353.79 617.605 352.923 614.004 351.33C608.054 348.701 608.243 340.961 612.949 336.47L626.127 323.896L639.305 311.321Z" fill="#F5F5F5" stroke="black" stroke-width="2" stroke-linejoin="round"/>
<path d="M639.305 311.321C644.011 306.83 651.751 307.002 654.099 313.069C655.52 316.743 656.205 320.66 656.113 324.598C656.021 328.536 655.154 332.417 653.562 336.02C651.97 339.623 649.684 342.876 646.833 345.595C643.984 348.315 640.626 350.446 636.953 351.868C633.28 353.289 629.362 353.974 625.425 353.882C621.487 353.79 617.605 352.923 614.004 351.33C608.054 348.701 608.243 340.961 612.949 336.47L626.127 323.896L639.305 311.321Z" fill="#F5F5F5" stroke="black" stroke-width="2" stroke-linejoin="round"/>
<path d="M639.305 311.321C644.011 306.83 651.751 307.002 654.099 313.069C655.52 316.743 656.205 320.66 656.113 324.598C656.021 328.536 655.154 332.417 653.562 336.02C651.97 339.623 649.684 342.876 646.833 345.595C643.984 348.315 640.626 350.446 636.953 351.868C633.28 353.289 629.362 353.974 625.425 353.882C621.487 353.79 617.605 352.923 614.004 351.33C608.054 348.701 608.243 340.961 612.949 336.47L626.127 323.896L639.305 311.321Z" fill="#F5F5F5" stroke="black" stroke-width="2" stroke-linejoin="round"/>
<path d="M639.305 311.321C644.011 306.83 651.751 307.002 654.099 313.069C655.52 316.743 656.205 320.66 656.113 324.598C656.021 328.536 655.154 332.417 653.562 336.02C651.97 339.623 649.684 342.876 646.833 345.595C643.984 348.315 640.626 350.446 636.953 351.868C633.28 353.289 629.362 353.974 625.425 353.882C621.487 353.79 617.605 352.923 614.004 351.33C608.054 348.701 608.243 340.961 612.949 336.47L626.127 323.896L639.305 311.321Z" fill="#F5F5F5" stroke="black" stroke-width="2" stroke-linejoin="round"/>
<path d="M639.305 311.321C644.011 306.83 651.751 307.002 654.099 313.069C655.52 316.743 656.205 320.66 656.113 324.598C656.021 328.536 655.154 332.417 653.562 336.02C651.97 339.623 649.684 342.876 646.833 345.595C643.984 348.315 640.626 350.446 636.953 351.868C633.28 353.289 629.362 353.974 625.425 353.882C621.487 353.79 617.605 352.923 614.004 351.33C608.054 348.701 608.243 340.961 612.949 336.47L626.127 323.896L639.305 311.321Z" fill="#F5F5F5" stroke="black" stroke-width="2" stroke-linejoin="round"/>
<path d="M591.936 175.574C599.064 179.689 608.179 177.247 612.294 170.119C616.41 162.991 613.967 153.877 606.839 149.761C599.711 145.646 590.597 148.088 586.481 155.216C582.366 162.344 584.808 171.459 591.936 175.574Z" fill="#F5F5F5" stroke="black" stroke-width="2" stroke-linejoin="round"/>
<path d="M591.936 175.574C599.064 179.689 608.179 177.247 612.294 170.119C616.41 162.991 613.967 153.877 606.839 149.761C599.711 145.646 590.597 148.088 586.481 155.216C582.366 162.344 584.808 171.459 591.936 175.574Z" fill="#F5F5F5" stroke="black" stroke-width="2" stroke-linejoin="round"/>
<path d="M591.936 175.574C599.064 179.689 608.179 177.247 612.294 170.119C616.41 162.991 613.967 153.877 606.839 149.761C599.711 145.646 590.597 148.088 586.481 155.216C582.366 162.344 584.808 171.459 591.936 175.574Z" fill="#F5F5F5" stroke="black" stroke-width="2" stroke-linejoin="round"/>
<path d="M647.798 439.237C657.796 445.009 657.796 459.44 647.798 465.212C637.8 470.984 625.303 463.769 625.303 452.224C625.303 440.68 637.8 433.465 647.798 439.237Z" fill="#F5F5F5" stroke="black" stroke-width="2" stroke-linejoin="round"/>
<path d="M647.798 439.237C657.796 445.009 657.796 459.44 647.798 465.212C637.8 470.984 625.303 463.769 625.303 452.224C625.303 440.68 637.8 433.465 647.798 439.237Z" fill="#F5F5F5" stroke="black" stroke-width="2" stroke-linejoin="round"/>
<path d="M647.798 439.237C657.796 445.009 657.796 459.44 647.798 465.212C637.8 470.984 625.303 463.769 625.303 452.224C625.303 440.68 637.8 433.465 647.798 439.237Z" fill="#F5F5F5" stroke="black" stroke-width="2" stroke-linejoin="round"/>
<path d="M655.293 443.564C661.96 447.413 661.96 457.036 655.293 460.885L640.303 469.539C633.636 473.388 625.303 468.577 625.303 460.879V443.57C625.303 435.872 633.636 431.061 640.303 434.91L655.293 443.564Z" fill="#F5F5F5" stroke="black" stroke-width="2" stroke-linejoin="round"/>
<path d="M50.4607 182.449V33.3633C50.4607 20.8792 40.3404 10.7588 27.8564 10.7588C15.3723 10.7588 5.25195 20.8792 5.25195 33.3631V182.449C5.25195 194.932 15.3723 205.053 27.8564 205.053C40.3404 205.053 50.4607 194.932 50.4607 182.449Z" fill="#F5F5F5" stroke="black" stroke-width="2" stroke-linejoin="round"/>
<path d="M18.3123 30.28C13.0153 35.577 13.0153 44.165 18.3123 49.462C23.6093 54.759 32.1974 54.759 37.4943 49.462C42.7913 44.165 42.7913 35.577 37.4943 30.28C32.1974 24.983 23.6093 24.983 18.3123 30.28Z" fill="#F5F5F5" stroke="black" stroke-width="2" stroke-linejoin="round"/>
<path d="M18.3123 30.28C13.0153 35.577 13.0153 44.165 18.3123 49.462C23.6093 54.759 32.1974 54.759 37.4943 49.462C42.7913 44.165 42.7913 35.577 37.4943 30.28C32.1974 24.983 23.6093 24.983 18.3123 30.28Z" fill="#F5F5F5" stroke="black" stroke-width="2" stroke-linejoin="round"/>
<path d="M18.3123 30.28C13.0153 35.577 13.0153 44.165 18.3123 49.462C23.6093 54.759 32.1974 54.759 37.4943 49.462C42.7913 44.165 42.7913 35.577 37.4943 30.28C32.1974 24.983 23.6093 24.983 18.3123 30.28Z" fill="#F5F5F5" stroke="black" stroke-width="2" stroke-linejoin="round"/>
<path d="M18.3123 30.28C13.0153 35.577 13.0153 44.165 18.3123 49.462C23.6093 54.759 32.1974 54.759 37.4943 49.462C42.7913 44.165 42.7913 35.577 37.4943 30.28C32.1974 24.983 23.6093 24.983 18.3123 30.28Z" fill="#F5F5F5" stroke="black" stroke-width="2" stroke-linejoin="round"/>
<path d="M27.9035 101.868C36.9845 101.868 44.3461 94.506 44.3461 85.425C44.3461 76.344 36.9845 68.9824 27.9035 68.9824C18.8225 68.9824 11.4609 76.344 11.4609 85.425C11.4609 94.506 18.8225 101.868 27.9035 101.868Z" fill="#F5F5F5" stroke="black" stroke-width="2" stroke-linejoin="round"/>
<path d="M27.9035 101.868C36.9845 101.868 44.3461 94.506 44.3461 85.425C44.3461 76.344 36.9845 68.9824 27.9035 68.9824C18.8225 68.9824 11.4609 76.344 11.4609 85.425C11.4609 94.506 18.8225 101.868 27.9035 101.868Z" fill="#F5F5F5" stroke="black" stroke-width="2" stroke-linejoin="round"/>
<path d="M27.9035 101.868C36.9845 101.868 44.3461 94.506 44.3461 85.425C44.3461 76.344 36.9845 68.9824 27.9035 68.9824C18.8225 68.9824 11.4609 76.344 11.4609 85.425C11.4609 94.506 18.8225 101.868 27.9035 101.868Z" fill="#F5F5F5" stroke="black" stroke-width="2" stroke-linejoin="round"/>
<path d="M32.014 121.122C37.4948 124.286 37.4946 132.197 32.0136 135.361C26.5329 138.525 19.6821 134.57 19.6821 128.241C19.6821 121.913 26.5332 117.957 32.014 121.122Z" fill="#F5F5F5" stroke="black" stroke-width="2" stroke-linejoin="round"/>
<path d="M32.014 121.122C37.4948 124.286 37.4946 132.197 32.0136 135.361C26.5329 138.525 19.6821 134.57 19.6821 128.241C19.6821 121.913 26.5332 117.957 32.014 121.122Z" fill="#F5F5F5" stroke="black" stroke-width="2" stroke-linejoin="round"/>
<path d="M32.014 121.122C37.4948 124.286 37.4946 132.197 32.0136 135.361C26.5329 138.525 19.6821 134.57 19.6821 128.241C19.6821 121.913 26.5332 117.957 32.014 121.122Z" fill="#F5F5F5" stroke="black" stroke-width="2" stroke-linejoin="round"/>
<path d="M32.014 121.122C37.4948 124.286 37.4946 132.197 32.0136 135.361C26.5329 138.525 19.6821 134.57 19.6821 128.241C19.6821 121.913 26.5332 117.957 32.014 121.122Z" fill="#F5F5F5" stroke="black" stroke-width="2" stroke-linejoin="round"/>
<path d="M27.9038 161.072C27.9038 157.506 30.9019 154.502 34.1961 155.868C36.1911 156.694 38.0037 157.904 39.5305 159.432C41.0574 160.958 42.2685 162.771 43.0949 164.766C43.9212 166.761 44.3464 168.899 44.3464 171.059C44.3464 173.217 43.9212 175.356 43.0949 177.35C42.2685 179.345 41.0574 181.158 39.5305 182.684C38.0037 184.212 36.1911 185.422 34.1961 186.25C30.9012 187.613 27.9038 184.61 27.9038 181.044V171.059V161.072Z" fill="#F5F5F5" stroke="black" stroke-width="2" stroke-linejoin="round"/>
<path d="M27.9038 161.072C27.9038 157.506 30.9019 154.502 34.1961 155.868C36.1911 156.694 38.0037 157.904 39.5305 159.432C41.0574 160.958 42.2685 162.771 43.0949 164.766C43.9212 166.761 44.3464 168.899 44.3464 171.059C44.3464 173.217 43.9212 175.356 43.0949 177.35C42.2685 179.345 41.0574 181.158 39.5305 182.684C38.0037 184.212 36.1911 185.422 34.1961 186.25C30.9012 187.613 27.9038 184.61 27.9038 181.044V171.059V161.072Z" fill="#F5F5F5" stroke="black" stroke-width="2" stroke-linejoin="round"/>
<path d="M27.9038 161.072C27.9038 157.506 30.9019 154.502 34.1961 155.868C36.1911 156.694 38.0037 157.904 39.5305 159.432C41.0574 160.958 42.2685 162.771 43.0949 164.766C43.9212 166.761 44.3464 168.899 44.3464 171.059C44.3464 173.217 43.9212 175.356 43.0949 177.35C42.2685 179.345 41.0574 181.158 39.5305 182.684C38.0037 184.212 36.1911 185.422 34.1961 186.25C30.9012 187.613 27.9038 184.61 27.9038 181.044V171.059V161.072Z" fill="#F5F5F5" stroke="black" stroke-width="2" stroke-linejoin="round"/>
<path d="M27.9038 161.072C27.9038 157.506 30.9019 154.502 34.1961 155.868C36.1911 156.694 38.0037 157.904 39.5305 159.432C41.0574 160.958 42.2685 162.771 43.0949 164.766C43.9212 166.761 44.3464 168.899 44.3464 171.059C44.3464 173.217 43.9212 175.356 43.0949 177.35C42.2685 179.345 41.0574 181.158 39.5305 182.684C38.0037 184.212 36.1911 185.422 34.1961 186.25C30.9012 187.613 27.9038 184.61 27.9038 181.044V171.059V161.072Z" fill="#F5F5F5" stroke="black" stroke-width="2" stroke-linejoin="round"/>
<path d="M27.9038 161.072C27.9038 157.506 30.9019 154.502 34.1961 155.868C36.1911 156.694 38.0037 157.904 39.5305 159.432C41.0574 160.958 42.2685 162.771 43.0949 164.766C43.9212 166.761 44.3464 168.899 44.3464 171.059C44.3464 173.217 43.9212 175.356 43.0949 177.35C42.2685 179.345 41.0574 181.158 39.5305 182.684C38.0037 184.212 36.1911 185.422 34.1961 186.25C30.9012 187.613 27.9038 184.61 27.9038 181.044V171.059V161.072Z" fill="#F5F5F5" stroke="black" stroke-width="2" stroke-linejoin="round"/>
<path d="M27.9038 161.072C27.9038 157.506 30.9019 154.502 34.1961 155.868C36.1911 156.694 38.0037 157.904 39.5305 159.432C41.0574 160.958 42.2685 162.771 43.0949 164.766C43.9212 166.761 44.3464 168.899 44.3464 171.059C44.3464 173.217 43.9212 175.356 43.0949 177.35C42.2685 179.345 41.0574 181.158 39.5305 182.684C38.0037 184.212 36.1911 185.422 34.1961 186.25C30.9012 187.613 27.9038 184.61 27.9038 181.044V171.059V161.072Z" fill="#F5F5F5" stroke="black" stroke-width="2" stroke-linejoin="round"/>
<path d="M702.571 541.434V389.04C702.571 376.279 712.915 365.935 725.676 365.935C738.437 365.935 748.781 376.279 748.781 389.04V541.434C748.781 554.194 738.437 564.539 725.676 564.539C712.915 564.539 702.571 554.194 702.571 541.434Z" fill="#F5F5F5" stroke="black" stroke-width="2" stroke-linejoin="round"/>
<path d="M702.571 541.434V389.04C702.571 376.279 712.915 365.935 725.676 365.935C738.437 365.935 748.781 376.279 748.781 389.04V541.434C748.781 554.194 738.437 564.539 725.676 564.539C712.915 564.539 702.571 554.194 702.571 541.434Z" fill="#F5F5F5" stroke="black" stroke-width="2" stroke-linejoin="round"/>
<path d="M702.571 541.434V389.04C702.571 376.279 712.915 365.935 725.676 365.935C738.437 365.935 748.781 376.279 748.781 389.04V541.434C748.781 554.194 738.437 564.539 725.676 564.539C712.915 564.539 702.571 554.194 702.571 541.434Z" fill="#F5F5F5" stroke="black" stroke-width="2" stroke-linejoin="round"/>
<path d="M702.571 541.434V389.04C702.571 376.279 712.915 365.935 725.676 365.935C738.437 365.935 748.781 376.279 748.781 389.04V541.434C748.781 554.194 738.437 564.539 725.676 564.539C712.915 564.539 702.571 554.194 702.571 541.434Z" fill="#F5F5F5" stroke="black" stroke-width="2" stroke-linejoin="round"/>
<path d="M742.323 392.889C742.323 402.172 734.798 409.697 725.516 409.697C716.233 409.697 708.709 402.172 708.709 392.889C708.709 383.607 716.233 376.082 725.516 376.082C734.798 376.082 742.323 383.607 742.323 392.889Z" fill="#F5F5F5" stroke="black" stroke-width="2" stroke-linejoin="round"/>
<path d="M742.323 392.889C742.323 402.172 734.798 409.697 725.516 409.697C716.233 409.697 708.709 402.172 708.709 392.889C708.709 383.607 716.233 376.082 725.516 376.082C734.798 376.082 742.323 383.607 742.323 392.889Z" fill="#F5F5F5" stroke="black" stroke-width="2" stroke-linejoin="round"/>
<path d="M742.323 392.889C742.323 402.172 734.798 409.697 725.516 409.697C716.233 409.697 708.709 402.172 708.709 392.889C708.709 383.607 716.233 376.082 725.516 376.082C734.798 376.082 742.323 383.607 742.323 392.889Z" fill="#F5F5F5" stroke="black" stroke-width="2" stroke-linejoin="round"/>
<path d="M732.793 437.066C729.558 431.464 721.472 431.464 718.238 437.066C715.003 442.669 719.046 449.671 725.515 449.671C731.984 449.671 736.027 442.668 732.793 437.066Z" fill="#F5F5F5" stroke="black" stroke-width="2" stroke-linejoin="round"/>
<path d="M732.793 437.066C729.558 431.464 721.472 431.464 718.238 437.066C715.003 442.669 719.046 449.671 725.515 449.671C731.984 449.671 736.027 442.668 732.793 437.066Z" fill="#F5F5F5" stroke="black" stroke-width="2" stroke-linejoin="round"/>
<path d="M732.793 437.066C729.558 431.464 721.472 431.464 718.238 437.066C715.003 442.669 719.046 449.671 725.515 449.671C731.984 449.671 736.027 442.668 732.793 437.066Z" fill="#F5F5F5" stroke="black" stroke-width="2" stroke-linejoin="round"/>
<path d="M732.793 437.066C729.558 431.464 721.472 431.464 718.238 437.066C715.003 442.669 719.046 449.671 725.515 449.671C731.984 449.671 736.027 442.668 732.793 437.066Z" fill="#F5F5F5" stroke="black" stroke-width="2" stroke-linejoin="round"/>
<path d="M725.515 479.44C725.515 475.795 722.451 472.725 719.083 474.119C717.044 474.965 715.193 476.202 713.632 477.763C712.071 479.324 710.833 481.177 709.988 483.216C709.144 485.255 708.709 487.442 708.709 489.648C708.709 491.855 709.144 494.041 709.988 496.08C710.833 498.119 712.071 499.972 713.632 501.533C715.193 503.094 717.044 504.331 719.083 505.175C722.45 506.572 725.515 503.501 725.515 499.855V489.648V479.44Z" fill="#F5F5F5" stroke="black" stroke-width="2" stroke-linejoin="round"/>
<path d="M725.515 479.44C725.515 475.795 722.451 472.725 719.083 474.119C717.044 474.965 715.193 476.202 713.632 477.763C712.071 479.324 710.833 481.177 709.988 483.216C709.144 485.255 708.709 487.442 708.709 489.648C708.709 491.855 709.144 494.041 709.988 496.08C710.833 498.119 712.071 499.972 713.632 501.533C715.193 503.094 717.044 504.331 719.083 505.175C722.45 506.572 725.515 503.501 725.515 499.855V489.648V479.44Z" fill="#F5F5F5" stroke="black" stroke-width="2" stroke-linejoin="round"/>
<path d="M725.515 479.44C725.515 475.795 722.451 472.725 719.083 474.119C717.044 474.965 715.193 476.202 713.632 477.763C712.071 479.324 710.833 481.177 709.988 483.216C709.144 485.255 708.709 487.442 708.709 489.648C708.709 491.855 709.144 494.041 709.988 496.08C710.833 498.119 712.071 499.972 713.632 501.533C715.193 503.094 717.044 504.331 719.083 505.175C722.45 506.572 725.515 503.501 725.515 499.855V489.648V479.44Z" fill="#F5F5F5" stroke="black" stroke-width="2" stroke-linejoin="round"/>
<path d="M725.515 479.44C725.515 475.795 722.451 472.725 719.083 474.119C717.044 474.965 715.193 476.202 713.632 477.763C712.071 479.324 710.833 481.177 709.988 483.216C709.144 485.255 708.709 487.442 708.709 489.648C708.709 491.855 709.144 494.041 709.988 496.08C710.833 498.119 712.071 499.972 713.632 501.533C715.193 503.094 717.044 504.331 719.083 505.175C722.45 506.572 725.515 503.501 725.515 499.855V489.648V479.44Z" fill="#F5F5F5" stroke="black" stroke-width="2" stroke-linejoin="round"/>
<path d="M725.515 479.44C725.515 475.795 722.451 472.725 719.083 474.119C717.044 474.965 715.193 476.202 713.632 477.763C712.071 479.324 710.833 481.177 709.988 483.216C709.144 485.255 708.709 487.442 708.709 489.648C708.709 491.855 709.144 494.041 709.988 496.08C710.833 498.119 712.071 499.972 713.632 501.533C715.193 503.094 717.044 504.331 719.083 505.175C722.45 506.572 725.515 503.501 725.515 499.855V489.648V479.44Z" fill="#F5F5F5" stroke="black" stroke-width="2" stroke-linejoin="round"/>
<path d="M725.515 554.834C716.233 554.834 708.708 547.309 708.708 538.027C708.708 528.744 716.233 521.219 725.515 521.219C734.797 521.219 742.322 528.744 742.322 538.027C742.322 547.309 734.797 554.834 725.515 554.834Z" fill="#F5F5F5" stroke="black" stroke-width="2" stroke-linejoin="round"/>
<path d="M725.515 554.834C716.233 554.834 708.708 547.309 708.708 538.027C708.708 528.744 716.233 521.219 725.515 521.219C734.797 521.219 742.322 528.744 742.322 538.027C742.322 547.309 734.797 554.834 725.515 554.834Z" fill="#F5F5F5" stroke="black" stroke-width="2" stroke-linejoin="round"/>
<path d="M725.515 554.834C716.233 554.834 708.708 547.309 708.708 538.027C708.708 528.744 716.233 521.219 725.515 521.219C734.797 521.219 742.322 528.744 742.322 538.027C742.322 547.309 734.797 554.834 725.515 554.834Z" fill="#F5F5F5" stroke="black" stroke-width="2" stroke-linejoin="round"/>
<path d="M725.515 554.834C716.233 554.834 708.708 547.309 708.708 538.027C708.708 528.744 716.233 521.219 725.515 521.219C734.797 521.219 742.322 528.744 742.322 538.027C742.322 547.309 734.797 554.834 725.515 554.834Z" fill="#F5F5F5" stroke="black" stroke-width="2" stroke-linejoin="round"/>
<path d="M725.515 554.834C716.233 554.834 708.708 547.309 708.708 538.027C708.708 528.744 716.233 521.219 725.515 521.219C734.797 521.219 742.322 528.744 742.322 538.027C742.322 547.309 734.797 554.834 725.515 554.834Z" fill="#F5F5F5" stroke="black" stroke-width="2" stroke-linejoin="round"/>
<path d="M119.889 198.285C137.505 198.285 151.785 184.004 151.785 166.388C151.785 148.772 137.505 134.492 119.889 134.492C102.273 134.492 87.9927 148.772 87.9927 166.388C87.9927 184.004 102.273 198.285 119.889 198.285Z" fill="#F5F5F5" stroke="black" stroke-width="2" stroke-linejoin="round"/>
<path d="M119.889 198.285C137.505 198.285 151.785 184.004 151.785 166.388C151.785 148.772 137.505 134.492 119.889 134.492C102.273 134.492 87.9927 148.772 87.9927 166.388C87.9927 184.004 102.273 198.285 119.889 198.285Z" fill="#F5F5F5" stroke="black" stroke-width="2" stroke-linejoin="round"/>
<path d="M119.889 198.285C137.505 198.285 151.785 184.004 151.785 166.388C151.785 148.772 137.505 134.492 119.889 134.492C102.273 134.492 87.9927 148.772 87.9927 166.388C87.9927 184.004 102.273 198.285 119.889 198.285Z" fill="#F5F5F5" stroke="black" stroke-width="2" stroke-linejoin="round"/>
<path d="M129.272 492.617C129.272 485.7 135.087 479.874 141.478 482.521C145.348 484.124 148.864 486.473 151.825 489.435C154.787 492.396 157.136 495.912 158.739 499.782C160.342 503.653 161.168 507.8 161.168 511.989C161.168 516.177 160.342 520.325 158.739 524.195C157.136 528.065 154.787 531.581 151.825 534.543C148.864 537.505 145.348 539.853 141.478 541.456C135.086 544.103 129.271 538.277 129.271 531.358L129.272 511.989V492.617Z" fill="#F5F5F5" stroke="black" stroke-width="2" stroke-linejoin="round"/>
<path d="M129.272 492.617C129.272 485.7 135.087 479.874 141.478 482.521C145.348 484.124 148.864 486.473 151.825 489.435C154.787 492.396 157.136 495.912 158.739 499.782C160.342 503.653 161.168 507.8 161.168 511.989C161.168 516.177 160.342 520.325 158.739 524.195C157.136 528.065 154.787 531.581 151.825 534.543C148.864 537.505 145.348 539.853 141.478 541.456C135.086 544.103 129.271 538.277 129.271 531.358L129.272 511.989V492.617Z" fill="#F5F5F5" stroke="black" stroke-width="2" stroke-linejoin="round"/>
<path d="M129.272 492.617C129.272 485.7 135.087 479.874 141.478 482.521C145.348 484.124 148.864 486.473 151.825 489.435C154.787 492.396 157.136 495.912 158.739 499.782C160.342 503.653 161.168 507.8 161.168 511.989C161.168 516.177 160.342 520.325 158.739 524.195C157.136 528.065 154.787 531.581 151.825 534.543C148.864 537.505 145.348 539.853 141.478 541.456C135.086 544.103 129.271 538.277 129.271 531.358L129.272 511.989V492.617Z" fill="#F5F5F5" stroke="black" stroke-width="2" stroke-linejoin="round"/>
<path d="M129.272 492.617C129.272 485.7 135.087 479.874 141.478 482.521C145.348 484.124 148.864 486.473 151.825 489.435C154.787 492.396 157.136 495.912 158.739 499.782C160.342 503.653 161.168 507.8 161.168 511.989C161.168 516.177 160.342 520.325 158.739 524.195C157.136 528.065 154.787 531.581 151.825 534.543C148.864 537.505 145.348 539.853 141.478 541.456C135.086 544.103 129.271 538.277 129.271 531.358L129.272 511.989V492.617Z" fill="#F5F5F5" stroke="black" stroke-width="2" stroke-linejoin="round"/>
<path d="M129.272 492.617C129.272 485.7 135.087 479.874 141.478 482.521C145.348 484.124 148.864 486.473 151.825 489.435C154.787 492.396 157.136 495.912 158.739 499.782C160.342 503.653 161.168 507.8 161.168 511.989C161.168 516.177 160.342 520.325 158.739 524.195C157.136 528.065 154.787 531.581 151.825 534.543C148.864 537.505 145.348 539.853 141.478 541.456C135.086 544.103 129.271 538.277 129.271 531.358L129.272 511.989V492.617Z" fill="#F5F5F5" stroke="black" stroke-width="2" stroke-linejoin="round"/>
<path d="M129.272 492.617C129.272 485.7 135.087 479.874 141.478 482.521C145.348 484.124 148.864 486.473 151.825 489.435C154.787 492.396 157.136 495.912 158.739 499.782C160.342 503.653 161.168 507.8 161.168 511.989C161.168 516.177 160.342 520.325 158.739 524.195C157.136 528.065 154.787 531.581 151.825 534.543C148.864 537.505 145.348 539.853 141.478 541.456C135.086 544.103 129.271 538.277 129.271 531.358L129.272 511.989V492.617Z" fill="#F5F5F5" stroke="black" stroke-width="2" stroke-linejoin="round"/>
<path d="M66.0981 401.119C66.0981 412.779 75.5501 422.231 87.2096 422.231C98.8692 422.231 108.321 412.779 108.321 401.119C108.321 389.46 98.8692 380.008 87.2096 380.008C75.5501 380.008 66.0981 389.46 66.0981 401.119Z" fill="#F5F5F5" stroke="black" stroke-width="2" stroke-linejoin="round"/>
<path d="M66.0981 401.119C66.0981 412.779 75.5501 422.231 87.2096 422.231C98.8692 422.231 108.321 412.779 108.321 401.119C108.321 389.46 98.8692 380.008 87.2096 380.008C75.5501 380.008 66.0981 389.46 66.0981 401.119Z" fill="#F5F5F5" stroke="black" stroke-width="2" stroke-linejoin="round"/>
<path d="M91.3211 380.008H83.0981C73.7093 380.008 66.0981 387.619 66.0981 397.008V405.231C66.0981 414.619 73.7093 422.231 83.0981 422.231H91.3211C100.71 422.231 108.321 414.619 108.321 405.231V397.008C108.321 387.619 100.71 380.008 91.3211 380.008Z" fill="#F5F5F5" stroke="black" stroke-width="2" stroke-linejoin="round"/>
<path d="M13.8115 289.772C19.9499 279.14 35.2962 279.14 41.4347 289.772C47.5731 300.405 39.9 313.695 27.6231 313.695C15.3461 313.695 7.67302 300.405 13.8115 289.772Z" fill="#F5F5F5" stroke="black" stroke-width="2" stroke-linejoin="round"/>
<path d="M13.8115 289.772C19.9499 279.14 35.2962 279.14 41.4347 289.772C47.5731 300.405 39.9 313.695 27.6231 313.695C15.3461 313.695 7.67302 300.405 13.8115 289.772Z" fill="#F5F5F5" stroke="black" stroke-width="2" stroke-linejoin="round"/>
<path d="M13.8115 289.772C19.9499 279.14 35.2962 279.14 41.4347 289.772C47.5731 300.405 39.9 313.695 27.6231 313.695C15.3461 313.695 7.67302 300.405 13.8115 289.772Z" fill="#F5F5F5" stroke="black" stroke-width="2" stroke-linejoin="round"/>
<path d="M19.8288 279.35C23.2929 273.35 31.9532 273.35 35.4173 279.35L47.452 300.195C50.916 306.195 46.5859 313.695 39.6577 313.695H15.5884C8.66021 313.695 4.33008 306.195 7.79416 300.195L19.8288 279.35Z" fill="#F5F5F5" stroke="black" stroke-width="2" stroke-linejoin="round"/>
<path d="M160.932 305.194C160.932 326.576 134.888 337.364 119.769 322.244C104.65 307.125 115.437 281.082 136.819 281.082C150.074 281.082 160.931 291.939 160.932 305.194Z" fill="#F5F5F5" stroke="black" stroke-width="2" stroke-linejoin="round"/>
<path d="M517.293 438.704C532.412 453.823 521.622 479.875 500.24 479.875C478.858 479.875 468.067 453.824 483.186 438.705C492.559 429.332 507.92 429.332 517.293 438.704Z" fill="#F5F5F5" stroke="black" stroke-width="2" stroke-linejoin="round"/>
<path d="M400.852 41.1622C415.971 56.2813 405.184 82.3254 383.802 82.3254C370.547 82.3254 359.689 71.4675 359.689 58.2126C359.689 36.831 385.733 26.0432 400.852 41.1622Z" fill="#F5F5F5" stroke="black" stroke-width="2" stroke-linejoin="round"/>
<path d="M202.102 404.579C211.475 413.952 211.475 429.314 202.103 438.687C186.983 453.806 160.931 443.015 160.931 421.633C160.931 400.252 186.983 389.46 202.102 404.579Z" fill="#F5F5F5" stroke="black" stroke-width="2" stroke-linejoin="round"/>
<path d="M202.102 404.579C211.475 413.952 211.475 429.314 202.103 438.687C186.983 453.806 160.931 443.015 160.931 421.633C160.931 400.252 186.983 389.46 202.102 404.579Z" fill="#F5F5F5" stroke="black" stroke-width="2" stroke-linejoin="round"/>
<path d="M202.102 404.579C211.475 413.952 211.475 429.314 202.103 438.687C186.983 453.806 160.931 443.015 160.931 421.633C160.931 400.252 186.983 389.46 202.102 404.579Z" fill="#F5F5F5" stroke="black" stroke-width="2" stroke-linejoin="round"/>
<path d="M202.102 404.579C211.475 413.952 211.475 429.314 202.103 438.687C186.983 453.806 160.931 443.015 160.931 421.633C160.931 400.252 186.983 389.46 202.102 404.579Z" fill="#F5F5F5" stroke="black" stroke-width="2" stroke-linejoin="round"/>
<path d="M202.102 404.579C211.475 413.952 211.475 429.314 202.103 438.687C186.983 453.806 160.931 443.015 160.931 421.633C160.931 400.252 186.983 389.46 202.102 404.579Z" fill="#F5F5F5" stroke="black" stroke-width="2" stroke-linejoin="round"/>
<path d="M202.102 404.579C211.475 413.952 211.475 429.314 202.103 438.687C186.983 453.806 160.931 443.015 160.931 421.633C160.931 400.252 186.983 389.46 202.102 404.579Z" fill="#F5F5F5" stroke="black" stroke-width="2" stroke-linejoin="round"/>
<path d="M236.211 438.687C251.329 453.807 240.538 479.859 219.157 479.859C197.775 479.859 186.984 453.807 202.103 438.687C211.475 429.315 226.838 429.315 236.211 438.687Z" fill="#F5F5F5" stroke="black" stroke-width="2" stroke-linejoin="round"/>
<path d="M359.689 58.217C359.689 71.4697 348.833 82.3279 335.58 82.3309C314.196 82.3358 303.403 56.2871 318.524 41.166C333.643 26.0466 359.689 36.8352 359.689 58.217Z" fill="#F5F5F5" stroke="black" stroke-width="2" stroke-linejoin="round"/>
<path d="M359.689 58.217C359.689 71.4697 348.833 82.3279 335.58 82.3309C314.196 82.3358 303.403 56.2871 318.524 41.166C333.643 26.0466 359.689 36.8352 359.689 58.217Z" fill="#F5F5F5" stroke="black" stroke-width="2" stroke-linejoin="round"/>
<path d="M558.466 421.65C558.466 443.031 532.414 453.823 517.294 438.704C507.922 429.331 507.922 413.969 517.294 404.596C532.413 389.477 558.466 400.268 558.466 421.65Z" fill="#F5F5F5" stroke="black" stroke-width="2" stroke-linejoin="round"/>
<path d="M558.466 421.65C558.466 443.031 532.414 453.823 517.294 438.704C507.922 429.331 507.922 413.969 517.294 404.596C532.413 389.477 558.466 400.268 558.466 421.65Z" fill="#F5F5F5" stroke="black" stroke-width="2" stroke-linejoin="round"/>
<path d="M558.466 421.65C558.466 443.031 532.414 453.823 517.294 438.704C507.922 429.331 507.922 413.969 517.294 404.596C532.413 389.477 558.466 400.268 558.466 421.65Z" fill="#F5F5F5" stroke="black" stroke-width="2" stroke-linejoin="round"/>
<path d="M558.466 421.65C558.466 443.031 532.414 453.823 517.294 438.704C507.922 429.331 507.922 413.969 517.294 404.596C532.413 389.477 558.466 400.268 558.466 421.65Z" fill="#F5F5F5" stroke="black" stroke-width="2" stroke-linejoin="round"/>
<path d="M558.466 421.65C558.466 443.031 532.414 453.823 517.294 438.704C507.922 429.331 507.922 413.969 517.294 404.596C532.413 389.477 558.466 400.268 558.466 421.65Z" fill="#F5F5F5" stroke="black" stroke-width="2" stroke-linejoin="round"/>
<path d="M558.466 421.65C558.466 443.031 532.414 453.823 517.294 438.704C507.922 429.331 507.922 413.969 517.294 404.596C532.413 389.477 558.466 400.268 558.466 421.65Z" fill="#F5F5F5" stroke="black" stroke-width="2" stroke-linejoin="round"/>
<path d="M558.466 140.549C558.466 161.93 532.414 172.721 517.295 157.603C507.922 148.23 507.922 132.867 517.295 123.495C532.414 108.376 558.466 119.167 558.466 140.549Z" fill="#F5F5F5" stroke="black" stroke-width="2" stroke-linejoin="round"/>
<path d="M500.24 82.3247C521.622 82.3247 532.412 108.377 517.293 123.496C507.92 132.868 492.559 132.868 483.186 123.495C468.067 108.376 478.858 82.3247 500.24 82.3247Z" fill="#F5F5F5" stroke="black" stroke-width="2" stroke-linejoin="round"/>
<path d="M202.09 123.502C211.462 132.874 211.462 148.226 202.09 157.598C186.971 172.718 160.931 161.932 160.931 140.55C160.931 119.168 186.971 108.382 202.09 123.502Z" fill="#F5F5F5" stroke="black" stroke-width="2" stroke-linejoin="round"/>
<path d="M219.138 82.343C240.52 82.343 251.305 108.382 236.186 123.501C226.814 132.874 211.462 132.874 202.09 123.501C186.97 108.382 197.756 82.343 219.138 82.343Z" fill="#F5F5F5" stroke="black" stroke-width="2" stroke-linejoin="round"/>
<path d="M383.824 479.862C405.203 479.866 415.985 505.905 400.868 521.022C385.749 536.141 359.708 525.355 359.708 503.973C359.708 490.716 370.567 479.859 383.824 479.862Z" fill="#F5F5F5" stroke="black" stroke-width="2" stroke-linejoin="round"/>
<path d="M383.824 479.862C405.203 479.866 415.985 505.905 400.868 521.022C385.749 536.141 359.708 525.355 359.708 503.973C359.708 490.716 370.567 479.859 383.824 479.862Z" fill="#F5F5F5" stroke="black" stroke-width="2" stroke-linejoin="round"/>
<path d="M160.933 256.97C160.933 270.224 150.075 281.082 136.82 281.082C115.439 281.082 104.651 255.038 119.77 239.919C134.889 224.8 160.933 235.588 160.933 256.97Z" fill="#F5F5F5" stroke="black" stroke-width="2" stroke-linejoin="round"/>
<path d="M160.933 256.97C160.933 270.224 150.075 281.082 136.82 281.082C115.439 281.082 104.651 255.038 119.77 239.919C134.889 224.8 160.933 235.588 160.933 256.97Z" fill="#F5F5F5" stroke="black" stroke-width="2" stroke-linejoin="round"/>
<path d="M359.706 503.969C359.706 525.351 333.663 536.139 318.544 521.02C303.424 505.9 314.212 479.857 335.594 479.857C348.849 479.857 359.706 490.715 359.706 503.969Z" fill="#F5F5F5" stroke="black" stroke-width="2" stroke-linejoin="round"/>
<path d="M483.269 404.68C492.642 414.052 492.642 429.248 483.27 438.621L449.048 472.844C444.545 477.346 438.439 479.875 432.071 479.874L383.701 479.863C370.448 479.86 359.706 469.115 359.706 455.863V339.059C359.706 317.677 385.557 306.969 400.677 322.088L483.269 404.68Z" fill="#F5F5F5" stroke="black" stroke-width="2" stroke-linejoin="round"/>
<path d="M483.269 404.68C492.642 414.052 492.642 429.248 483.27 438.621L449.048 472.844C444.545 477.346 438.439 479.875 432.071 479.874L383.701 479.863C370.448 479.86 359.706 469.115 359.706 455.863V339.059C359.706 317.677 385.557 306.969 400.677 322.088L483.269 404.68Z" fill="#F5F5F5" stroke="black" stroke-width="2" stroke-linejoin="round"/>
<path d="M359.677 281.09C359.683 281.096 359.683 281.107 359.677 281.114L236.127 404.664C226.754 414.036 211.559 414.036 202.186 404.664L167.961 370.44C163.46 365.939 160.931 359.834 160.931 353.469V305.085C160.931 291.83 171.676 281.085 184.931 281.085H359.665C359.669 281.085 359.673 281.087 359.677 281.09Z" fill="#F5F5F5" stroke="black" stroke-width="2" stroke-linejoin="round"/>
<path d="M359.677 281.09C359.683 281.096 359.683 281.107 359.677 281.114L236.127 404.664C226.754 414.036 211.559 414.036 202.186 404.664L167.961 370.44C163.46 365.939 160.931 359.834 160.931 353.469V305.085C160.931 291.83 171.676 281.085 184.931 281.085H359.665C359.669 281.085 359.673 281.087 359.677 281.09Z" fill="#F5F5F5" stroke="black" stroke-width="2" stroke-linejoin="round"/>
<path d="M318.701 240.111C333.82 255.231 323.112 281.082 301.731 281.082H184.931C171.676 281.082 160.931 270.337 160.931 257.082V208.696C160.931 202.331 163.46 196.226 167.961 191.726L202.167 157.519C211.54 148.146 226.736 148.146 236.108 157.519L318.701 240.111Z" fill="#F5F5F5" stroke="black" stroke-width="2" stroke-linejoin="round"/>
<path d="M318.701 240.111C333.82 255.231 323.112 281.082 301.731 281.082H184.931C171.676 281.082 160.931 270.337 160.931 257.082V208.696C160.931 202.331 163.46 196.226 167.961 191.726L202.167 157.519C211.54 148.146 226.736 148.146 236.108 157.519L318.701 240.111Z" fill="#F5F5F5" stroke="black" stroke-width="2" stroke-linejoin="round"/>
<path d="M483.269 123.578C492.642 132.951 492.642 148.147 483.269 157.519L400.66 240.129C385.54 255.248 359.689 244.54 359.689 223.158V106.325C359.689 93.0699 370.434 82.3247 383.689 82.3247H432.075C438.44 82.3247 444.545 84.8533 449.045 89.3541L483.269 123.578Z" fill="#F5F5F5" stroke="black" stroke-width="2" stroke-linejoin="round"/>
<path d="M483.269 123.578C492.642 132.951 492.642 148.147 483.269 157.519L400.66 240.129C385.54 255.248 359.689 244.54 359.689 223.158V106.325C359.689 93.0699 370.434 82.3247 383.689 82.3247H432.075C438.44 82.3247 444.545 84.8533 449.045 89.3541L483.269 123.578Z" fill="#F5F5F5" stroke="black" stroke-width="2" stroke-linejoin="round"/>
<path d="M335.684 82.3302C348.941 82.3272 359.689 93.0732 359.689 106.33V281.076C359.689 281.085 359.678 281.089 359.672 281.082L236.109 157.521C226.736 148.148 226.736 132.952 236.109 123.58L270.319 89.3704C274.819 84.871 280.921 82.3427 287.284 82.3412L335.684 82.3302Z" fill="#F5F5F5" stroke="black" stroke-width="2" stroke-linejoin="round"/>
<path d="M359.708 455.858C359.708 469.112 348.963 479.858 335.708 479.858H287.322C280.957 479.858 274.852 477.329 270.351 472.828L236.127 438.603C226.754 429.23 226.755 414.034 236.127 404.662L359.677 281.112C359.683 281.105 359.695 281.105 359.702 281.112C359.706 281.115 359.708 281.12 359.708 281.125V455.858Z" fill="#F5F5F5" stroke="black" stroke-width="2" stroke-linejoin="round"/>
<path d="M558.465 257.099C558.465 270.354 547.72 281.099 534.465 281.099H417.63C396.248 281.099 385.54 255.248 400.66 240.129L483.27 157.519C492.642 148.146 507.838 148.146 517.21 157.518L551.436 191.743C555.937 196.244 558.465 202.348 558.465 208.714V257.099Z" fill="#F5F5F5" stroke="black" stroke-width="2" stroke-linejoin="round"/>
<path d="M558.465 353.484C558.465 359.849 555.937 365.954 551.436 370.455L517.211 404.68C507.838 414.053 492.642 414.053 483.269 404.68L359.708 281.117C359.701 281.111 359.705 281.1 359.714 281.1H534.465C547.72 281.1 558.465 291.845 558.465 305.1V353.484Z" fill="#F5F5F5" stroke="black" stroke-width="2" stroke-linejoin="round"/>
<path d="M558.465 353.484C558.465 359.849 555.937 365.954 551.436 370.455L517.211 404.68C507.838 414.053 492.642 414.053 483.269 404.68L359.708 281.117C359.701 281.111 359.705 281.1 359.714 281.1H534.465C547.72 281.1 558.465 291.845 558.465 305.1V353.484Z" fill="#F5F5F5" stroke="black" stroke-width="2" stroke-linejoin="round"/>
<path d="M582.577 281.1C603.958 281.1 614.746 307.144 599.627 322.263C584.508 337.382 558.464 326.594 558.464 305.213C558.464 291.958 569.322 281.1 582.577 281.1Z" fill="#F5F5F5" stroke="black" stroke-width="2" stroke-linejoin="round"/>
<path d="M599.627 239.936C614.746 255.055 603.958 281.099 582.577 281.099C569.322 281.099 558.464 270.241 558.464 256.986C558.464 235.605 584.508 224.817 599.627 239.936Z" fill="#F5F5F5" stroke="black" stroke-width="2" stroke-linejoin="round"/>
<path d="M599.627 239.936C614.746 255.055 603.958 281.099 582.577 281.099C569.322 281.099 558.464 270.241 558.464 256.986C558.464 235.605 584.508 224.817 599.627 239.936Z" fill="#F5F5F5" stroke="black" stroke-width="2" stroke-linejoin="round"/>
<path d="M184.931 479.857C171.676 479.857 160.931 469.112 160.931 455.857V363.408V281.082V198.755V106.342C160.931 93.0871 171.676 82.3419 184.931 82.3419H277.346L359.689 82.3247H442.016H534.464C547.719 82.3247 558.464 93.0699 558.464 106.325V198.774V281.1V363.425V455.874C558.464 469.129 547.719 479.874 534.464 479.874H442.016L359.706 479.857H277.381H184.931Z" fill="#F5F5F5" stroke="black" stroke-width="2" stroke-miterlimit="10" stroke-linejoin="round"/>
<path d="M376.678 545.215C367.306 554.587 352.11 554.587 342.737 545.215L277.381 479.86L219.157 421.634L160.932 363.41L95.5762 298.054C86.2038 288.681 86.2039 273.485 95.5764 264.113L160.932 198.758L219.138 140.551L277.347 82.3442L342.719 16.9707C352.091 7.59805 367.287 7.5979 376.66 16.9704L442.016 82.3254L500.24 140.551L558.464 198.775L623.82 264.131C633.193 273.504 633.193 288.7 623.82 298.072L558.464 363.427L500.24 421.651L442.016 479.877L376.678 545.215Z" fill="#F5F5F5" stroke="black" stroke-width="2" stroke-miterlimit="10" stroke-linejoin="round"/>
<path d="M359.672 281.082L160.931 281.083H78.6055" fill="#F5F5F5"/>
<path d="M359.672 281.082L160.931 281.083H78.6055" stroke="black" stroke-width="2" stroke-miterlimit="10" stroke-linejoin="round"/>
<path d="M640.791 281.1H558.465H359.689" fill="#F5F5F5"/>
<path d="M640.791 281.1H558.465H359.689" stroke="black" stroke-width="2" stroke-miterlimit="10" stroke-linejoin="round"/>
<path d="M359.689 281.102V82.3254V0" fill="#F5F5F5"/>
<path d="M359.689 281.102V82.3254V0" stroke="black" stroke-width="2" stroke-miterlimit="10" stroke-linejoin="round"/>
<path d="M359.706 562.184V479.857V281.118" fill="#F5F5F5"/>
<path d="M359.706 562.184V479.857V281.118" stroke="black" stroke-width="2" stroke-miterlimit="10" stroke-linejoin="round"/>
<path d="M558.464 479.876L500.24 421.652L359.706 281.119L359.689 281.101L359.672 281.083L219.138 140.55L160.931 82.343" fill="#F5F5F5"/>
<path d="M558.464 479.876L500.24 421.652L359.706 281.119L359.689 281.101L359.672 281.083L219.138 140.55L160.931 82.343" stroke="black" stroke-width="2" stroke-miterlimit="10" stroke-linejoin="round"/>
<path d="M558.465 82.3247L500.24 140.549L359.689 281.1L219.157 421.632L160.931 479.857" fill="#F5F5F5"/>
<path d="M558.465 82.3247L500.24 140.549L359.689 281.1L219.157 421.632L160.931 479.857" stroke="black" stroke-width="2" stroke-miterlimit="10" stroke-linejoin="round"/>
<path d="M360.096 342.478C396.37 342.478 425.776 313.072 425.776 276.798C425.776 240.524 396.37 211.118 360.096 211.118C323.822 211.118 294.416 240.524 294.416 276.798C294.416 313.072 323.822 342.478 360.096 342.478Z" fill="#F5F5F5" stroke="black" stroke-width="2" stroke-linejoin="round"/>
<path d="M330.383 251.777C330.383 236.231 342.986 223.628 358.531 223.628C374.077 223.628 386.68 236.231 386.68 251.777V293.457C386.68 306.712 375.935 317.457 362.68 317.457H354.383C341.128 317.457 330.383 306.712 330.383 293.457V251.777Z" fill="#F5F5F5" stroke="black" stroke-width="2" stroke-linejoin="round"/>
<path d="M331.165 251.775C331.165 236.66 343.418 224.408 358.532 224.408C373.646 224.408 385.899 236.66 385.899 251.775V292.673C385.899 305.928 375.153 316.673 361.899 316.673H355.165C341.91 316.673 331.165 305.928 331.165 292.673V251.775Z" fill="#F5F5F5" stroke="black" stroke-width="2" stroke-linejoin="round"/>
<path d="M359.314 319.02C382.201 319.02 400.755 317.62 400.755 315.892C400.755 314.165 382.201 312.765 359.314 312.765C336.426 312.765 317.873 314.165 317.873 315.892C317.873 317.62 336.426 319.02 359.314 319.02Z" fill="#F5F5F5" stroke="black" stroke-width="2" stroke-linejoin="round"/>
<path d="M317.873 313.156C317.873 311.645 319.098 310.42 320.609 310.42H398.018C399.529 310.42 400.755 311.645 400.755 313.156C400.755 314.668 399.529 315.893 398.018 315.893H320.609C319.098 315.893 317.873 314.668 317.873 313.156Z" fill="#F5F5F5" stroke="black" stroke-width="2" stroke-linejoin="round"/>
<path d="M359.314 314.328C382.201 314.328 400.755 312.578 400.755 310.419C400.755 308.26 382.201 306.509 359.314 306.509C336.426 306.509 317.873 308.26 317.873 310.419C317.873 312.578 336.426 314.328 359.314 314.328Z" fill="#F5F5F5" stroke="black" stroke-width="2" stroke-linejoin="round"/>
<path d="M359.314 312.765C377.019 312.765 391.372 311.364 391.372 309.637C391.372 307.91 377.019 306.509 359.314 306.509C341.608 306.509 327.255 307.91 327.255 309.637C327.255 311.364 341.608 312.765 359.314 312.765Z" fill="#F5F5F5" stroke="black" stroke-width="2" stroke-linejoin="round"/>
<path d="M327.255 306.901C327.255 305.39 328.481 304.164 329.992 304.164H388.635C390.147 304.164 391.372 305.39 391.372 306.901C391.372 308.412 390.147 309.638 388.635 309.638H329.992C328.481 309.638 327.255 308.412 327.255 306.901Z" fill="#F5F5F5" stroke="black" stroke-width="2" stroke-linejoin="round"/>
<path d="M359.314 308.073C377.019 308.073 391.372 306.323 391.372 304.164C391.372 302.005 377.019 300.254 359.314 300.254C341.608 300.254 327.255 302.005 327.255 304.164C327.255 306.323 341.608 308.073 359.314 308.073Z" fill="#F5F5F5" stroke="black" stroke-width="2" stroke-linejoin="round"/>
<path d="M359.314 307.509C375.292 307.509 388.244 305.955 388.244 304.038C388.244 302.12 375.292 300.566 359.314 300.566C343.336 300.566 330.383 302.12 330.383 304.038C330.383 305.955 343.336 307.509 359.314 307.509Z" fill="#F5F5F5" stroke="black" stroke-width="2" stroke-linejoin="round"/>
<path d="M359.314 305.195C366.344 305.195 372.043 304.677 372.043 304.038C372.043 303.399 366.344 302.88 359.314 302.88C352.283 302.88 346.584 303.399 346.584 304.038C346.584 304.677 352.283 305.195 359.314 305.195Z" fill="#F5F5F5" stroke="black" stroke-width="2" stroke-linejoin="round"/>
<path d="M360.926 304.122C360.936 304.122 360.938 304.134 360.929 304.138C360.801 304.185 360.39 304.327 360.049 304.327C359.465 304.327 359.127 303.754 359.127 303.17V277.645C359.127 277.15 359.528 276.749 360.023 276.749C360.517 276.749 360.918 277.15 360.918 277.645V304.114C360.918 304.119 360.922 304.122 360.926 304.122Z" fill="#F5F5F5" stroke="black" stroke-width="2" stroke-linejoin="round"/>
<path d="M359.281 279.921C359.309 279.921 359.33 279.897 359.327 279.87L359.179 278.489C358.923 275.417 359.844 272.451 361.788 270.097C363.732 267.744 366.546 266.31 369.565 266.003C370.356 265.919 371.067 266.491 371.152 267.282C371.715 273.577 367.058 279.205 360.713 279.768L359.281 279.921ZM369.463 267.794C369.463 267.823 369.441 267.848 369.412 267.852C366.977 268.168 364.797 269.343 363.272 271.222C360.819 274.247 364.719 277.529 367.212 274.536C368.732 272.713 369.591 270.33 369.463 267.794Z" fill="#F5F5F5" stroke="black" stroke-width="2" stroke-linejoin="round"/>
<path d="M360.793 290.075C360.802 290.067 360.796 290.052 360.784 290.051L359.382 289.95C353.09 289.387 348.383 283.811 348.946 277.466C349.03 276.675 349.74 276.103 350.531 276.187C353.601 276.442 356.364 277.926 358.308 280.28C360.304 282.633 361.225 285.601 360.918 288.671L360.769 290.064C360.768 290.077 360.784 290.085 360.793 290.075ZM350.685 277.978C350.556 280.509 351.413 282.875 352.927 284.691C355.436 287.699 359.391 284.409 356.876 281.406C355.301 279.527 353.121 278.353 350.736 278.036C350.707 278.032 350.685 278.007 350.685 277.978Z" fill="#F5F5F5" stroke="black" stroke-width="2" stroke-linejoin="round"/>
<path d="M671.428 260.139C672.121 260.681 672.122 263.189 671.429 263.731C670.64 264.347 667.253 264.349 666.463 263.735C666.404 263.689 666.343 263.644 666.281 263.601C665.577 263.108 665.576 260.789 666.281 260.296C666.34 260.254 666.398 260.211 666.455 260.167C666.592 260.06 666.72 259.946 666.84 259.824C667.509 259.147 670.393 259.147 671.066 259.82C671.18 259.933 671.3 260.039 671.428 260.139Z" fill="#F5F5F5" stroke="black" stroke-width="2" stroke-linejoin="round"/>
<path d="M131.912 95.9363C132.605 96.4779 132.606 98.9857 131.913 99.528C131.124 100.144 127.737 100.147 126.947 99.5318C126.888 99.486 126.827 99.4415 126.765 99.3982C126.06 98.905 126.06 96.5858 126.765 96.0927C126.824 96.051 126.882 96.0082 126.939 95.9641C127.075 95.857 127.204 95.7428 127.324 95.6209C127.993 94.9439 130.877 94.9444 131.55 95.6169C131.663 95.73 131.784 95.8363 131.912 95.9363Z" fill="#F5F5F5" stroke="black" stroke-width="2" stroke-linejoin="round"/>
<path d="M600.945 412.183C600.667 412.968 598.415 413.726 597.719 413.268C596.928 412.745 595.903 409.704 596.217 408.809C596.24 408.743 596.262 408.675 596.282 408.606C596.512 407.826 598.596 407.125 599.251 407.609C599.306 407.649 599.362 407.689 599.419 407.726C599.556 407.817 599.698 407.898 599.844 407.969C600.653 408.365 601.523 410.955 601.123 411.762C601.056 411.898 600.996 412.038 600.945 412.183Z" fill="#F5F5F5" stroke="black" stroke-width="2" stroke-linejoin="round"/>
<path d="M109.715 382.042C109.202 382.698 106.824 382.699 106.311 382.042C105.727 381.294 105.724 378.088 106.307 377.339C106.351 377.283 106.393 377.226 106.434 377.166C106.902 376.499 109.099 376.499 109.566 377.166C109.605 377.223 109.646 377.277 109.688 377.331C109.789 377.461 109.897 377.583 110.013 377.697C110.653 378.33 110.653 381.063 110.017 381.7C109.91 381.807 109.809 381.921 109.715 382.042Z" fill="#F5F5F5" stroke="black" stroke-width="2" stroke-linejoin="round"/>
<path d="M324.362 200.838L326.633 199.693C331.14 197.64 337.07 200.838 339.849 206.863C342.628 212.89 341.239 219.421 336.698 221.474L334.224 222.821" fill="#F5F5F5"/>
<path d="M324.362 200.838L326.633 199.693C331.14 197.64 337.07 200.838 339.849 206.863C342.628 212.89 341.239 219.421 336.698 221.474L334.224 222.821" stroke="black" stroke-width="2" stroke-linejoin="round"/>
<path d="M324.362 200.838L326.633 199.693C331.14 197.64 337.07 200.838 339.849 206.863C342.628 212.89 341.239 219.421 336.698 221.474L334.224 222.821" fill="#F5F5F5"/>
<path d="M324.362 200.838L326.633 199.693C331.14 197.64 337.07 200.838 339.849 206.863C342.628 212.89 341.239 219.421 336.698 221.474L334.224 222.821" stroke="black" stroke-width="2" stroke-miterlimit="10" stroke-linecap="round" stroke-linejoin="round"/>
<path d="M334.608 222.844C339.133 220.77 340.537 214.154 337.745 208.066C334.952 201.978 329.023 198.724 324.5 200.797C319.976 202.873 318.572 209.489 321.363 215.577C324.154 221.665 330.084 224.919 334.608 222.844Z" fill="#F5F5F5" stroke="black" stroke-width="2" stroke-miterlimit="10" stroke-linejoin="round"/>
<path d="M297.978 273.662C307.237 272.689 313.902 263.896 312.865 254.019C311.828 244.142 303.482 236.923 294.223 237.896C284.964 238.867 278.297 247.662 279.334 257.539C280.371 267.416 288.718 274.635 297.978 273.662Z" fill="#F5F5F5" stroke="black" stroke-width="2" stroke-miterlimit="10" stroke-linejoin="round"/>
<path d="M294.607 274.519C303.866 273.547 310.532 264.752 309.494 254.876C308.457 244.999 300.111 237.781 290.852 238.752C281.592 239.725 274.926 248.519 275.963 258.396C277.001 268.272 285.347 275.491 294.607 274.519Z" fill="#F5F5F5" stroke="black" stroke-width="2" stroke-miterlimit="10" stroke-linejoin="round"/>
<path d="M436.316 232.568C437.354 222.674 430.657 213.862 421.357 212.884C412.057 211.909 403.675 219.138 402.636 229.032C401.596 238.928 408.294 247.74 417.594 248.718C426.896 249.693 435.276 242.464 436.316 232.568Z" fill="#F5F5F5" stroke="black" stroke-width="2" stroke-miterlimit="10" stroke-linejoin="round"/>
<path d="M439.692 233.433C440.732 223.539 434.034 214.725 424.734 213.75C415.433 212.774 407.052 220.003 406.012 229.898C404.974 239.793 411.672 248.605 420.972 249.581C430.272 250.559 438.654 243.328 439.692 233.433Z" fill="#F5F5F5" stroke="black" stroke-width="2" stroke-miterlimit="10" stroke-linejoin="round"/>
<path d="M380.151 145L375.72 142.735C366.923 138.673 355.349 145 349.926 156.921C344.504 168.842 347.214 181.76 356.078 185.823L360.906 188.488" fill="#F5F5F5"/>
<path d="M380.151 145L375.72 142.735C366.923 138.673 355.349 145 349.926 156.921C344.504 168.842 347.214 181.76 356.078 185.823L360.906 188.488" stroke="black" stroke-width="2" stroke-linejoin="round"/>
<path d="M380.151 145L375.72 142.735C366.923 138.673 355.349 145 349.926 156.921C344.504 168.842 347.214 181.76 356.078 185.823L360.906 188.488" fill="#F5F5F5"/>
<path d="M380.151 145L375.72 142.735C366.923 138.673 355.349 145 349.926 156.921C344.504 168.842 347.214 181.76 356.078 185.823L360.906 188.488" stroke="black" stroke-width="2" stroke-miterlimit="10" stroke-linecap="round" stroke-linejoin="round"/>
<path d="M386.292 173.792C391.741 161.91 389.001 148.996 380.172 144.949C371.344 140.9 359.77 147.251 354.322 159.133C348.873 171.014 351.615 183.928 360.443 187.977C369.27 192.024 380.844 185.674 386.292 173.792Z" fill="#F5F5F5" stroke="black" stroke-width="2" stroke-miterlimit="10" stroke-linejoin="round"/>
</svg>
