<svg width="33" height="33" viewBox="0 0 34 34" fill="none" xmlns="http://www.w3.org/2000/svg">
    <path
        d="M16.4735 5.5359C17.286 3.89947 19.607 3.86254 20.4712 5.47228L23.0865 10.3441C24.1623 12.3481 25.8461 13.9593 27.8956 14.9458L31.3521 16.6095C32.9776 17.3919 33.0675 19.6732 31.5087 20.5811L27.1633 23.1123C25.5748 24.0375 24.2502 25.3547 23.3159 26.9378L20.4243 31.8377C19.5367 33.3419 17.3483 33.3052 16.5116 31.7721L14.0438 27.2507C13.0713 25.469 11.6142 23.9989 9.84109 23.0108L5.52376 20.6046C3.9157 19.7084 4.00577 17.3657 5.67789 16.5956L9.10982 15.015C11.3391 13.9883 13.15 12.2297 14.2415 10.0314L16.4735 5.5359Z"
        stroke="#2B3330" stroke-width="1.5" />
    <circle cx="27.7659" cy="9.74495" r="1.1148" transform="rotate(-44.2663 27.7659 9.74495)" stroke="#2B3330"
        stroke-width="1.5" />
    <circle cx="8.7581" cy="27.3375" r="1.1148" transform="rotate(-44.2663 8.7581 27.3375)" stroke="#2B3330"
        stroke-width="1.5" />
    <circle cx="18.262" cy="18.6256" r="1.1148" transform="rotate(-44.2663 18.262 18.6256)" stroke="#2B3330"
        stroke-width="1.5" />
</svg>