<svg width="130" height="40" viewBox="0 0 130 40" fill="none" xmlns="http://www.w3.org/2000/svg">
<path d="M124.138 0.689651H5.51728C2.85108 0.689651 0.689697 2.85104 0.689697 5.51724V34.4828C0.689697 37.149 2.85108 39.3103 5.51728 39.3103H124.138C126.804 39.3103 128.966 37.149 128.966 34.4828V5.51724C128.966 2.85104 126.804 0.689651 124.138 0.689651Z" fill="white"/>
<path d="M34.2524 26.0124C34.2524 25.1683 34.4469 24.411 34.8359 23.7407C35.2331 23.0703 35.7669 22.549 36.4373 22.1765C37.1159 21.7959 37.8566 21.6055 38.6593 21.6055C39.578 21.6055 40.3931 21.8331 41.1049 22.2883C41.8249 22.7352 42.3462 23.3724 42.669 24.2H40.9683C40.7449 23.7448 40.4345 23.4055 40.0373 23.1821C39.64 22.9586 39.1807 22.8469 38.6593 22.8469C38.0883 22.8469 37.5793 22.9752 37.1324 23.2317C36.6855 23.4883 36.3338 23.8565 36.0773 24.3365C35.829 24.8165 35.7049 25.3752 35.7049 26.0124C35.7049 26.6497 35.829 27.2083 36.0773 27.6883C36.3338 28.1683 36.6855 28.5407 37.1324 28.8055C37.5793 29.0621 38.0883 29.1903 38.6593 29.1903C39.1807 29.1903 39.64 29.0786 40.0373 28.8552C40.4345 28.6317 40.7449 28.2924 40.9683 27.8372H42.669C42.3462 28.6648 41.8249 29.3021 41.1049 29.749C40.3931 30.1959 39.578 30.4193 38.6593 30.4193C37.8483 30.4193 37.1076 30.2331 36.4373 29.8607C35.7669 29.48 35.2331 28.9545 34.8359 28.2841C34.4469 27.6138 34.2524 26.8565 34.2524 26.0124ZM49.5641 30.4317C48.7613 30.4317 48.0206 30.2455 47.342 29.8731C46.6717 29.4924 46.1379 28.9669 45.7406 28.2965C45.3517 27.6179 45.1572 26.8565 45.1572 26.0124C45.1572 25.1683 45.3517 24.411 45.7406 23.7407C46.1379 23.0703 46.6717 22.549 47.342 22.1765C48.0206 21.7959 48.7613 21.6055 49.5641 21.6055C50.3751 21.6055 51.1158 21.7959 51.7862 22.1765C52.4648 22.549 52.9986 23.0703 53.3875 23.7407C53.7765 24.411 53.971 25.1683 53.971 26.0124C53.971 26.8565 53.7765 27.6179 53.3875 28.2965C52.9986 28.9669 52.4648 29.4924 51.7862 29.8731C51.1158 30.2455 50.3751 30.4317 49.5641 30.4317ZM49.5641 29.2028C50.1351 29.2028 50.6441 29.0745 51.091 28.8179C51.5379 28.5531 51.8855 28.1807 52.1338 27.7007C52.3903 27.2124 52.5186 26.6497 52.5186 26.0124C52.5186 25.3752 52.3903 24.8165 52.1338 24.3365C51.8855 23.8565 51.5379 23.4883 51.091 23.2317C50.6441 22.9752 50.1351 22.8469 49.5641 22.8469C48.9931 22.8469 48.4841 22.9752 48.0372 23.2317C47.5903 23.4883 47.2386 23.8565 46.982 24.3365C46.7338 24.8165 46.6096 25.3752 46.6096 26.0124C46.6096 26.6497 46.7338 27.2124 46.982 27.7007C47.2386 28.1807 47.5903 28.5531 48.0372 28.8179C48.4841 29.0745 48.9931 29.2028 49.5641 29.2028ZM65.7539 21.7172V30.3448H64.3387V24.4359L61.707 30.3448H60.7263L58.0822 24.4359V30.3448H56.667V21.7172H58.1939L61.2229 28.4828L64.2394 21.7172H65.7539ZM78.0042 21.7172V30.3448H76.589V24.4359L73.9573 30.3448H72.9766L70.3324 24.4359V30.3448H68.9174V21.7172H70.4442L73.4731 28.4828L76.4897 21.7172H78.0042ZM82.5704 21.7172V27.2166C82.5704 27.8703 82.74 28.3628 83.0793 28.6938C83.4269 29.0248 83.9069 29.1903 84.5193 29.1903C85.14 29.1903 85.62 29.0248 85.9593 28.6938C86.3069 28.3628 86.4807 27.8703 86.4807 27.2166V21.7172H87.8959V27.1917C87.8959 27.8952 87.7428 28.491 87.4366 28.9793C87.1304 29.4676 86.7207 29.8317 86.2076 30.0717C85.6945 30.3117 85.1276 30.4317 84.5069 30.4317C83.8862 30.4317 83.3193 30.3117 82.8062 30.0717C82.3014 29.8317 81.9 29.4676 81.6021 28.9793C81.3042 28.491 81.1552 27.8952 81.1552 27.1917V21.7172H82.5704ZM98.1304 30.3448H96.7152L92.4573 23.9021V30.3448H91.0421V21.7048H92.4573L96.7152 28.1352V21.7048H98.1304V30.3448ZM102.708 21.7172V30.3448H101.292V21.7172H102.708ZM111.443 21.7172V22.8717H109.146V30.3448H107.731V22.8717H105.422V21.7172H111.443ZM120.572 21.7172L117.717 27.2166V30.3448H116.302V27.2166L113.435 21.7172H115.011L117.01 25.9503L119.008 21.7172H120.572Z" fill="#757087"/>
<path d="M37.3187 13.5807C37.5284 13.6138 37.7187 13.6993 37.8897 13.8372C38.0663 13.9752 38.2042 14.1462 38.3035 14.3503C38.4084 14.5545 38.4608 14.7724 38.4608 15.0041C38.4608 15.2966 38.3863 15.5614 38.2373 15.7986C38.0884 16.0303 37.8704 16.2152 37.5835 16.3531C37.3021 16.4855 36.9684 16.5517 36.5821 16.5517H34.4304V10.7835H36.4994C36.8911 10.7835 37.2249 10.8497 37.5008 10.9821C37.7766 11.109 37.9835 11.2828 38.1215 11.5035C38.2594 11.7241 38.3284 11.9724 38.3284 12.2483C38.3284 12.5903 38.2346 12.8745 38.047 13.1007C37.8649 13.3214 37.6221 13.4814 37.3187 13.5807ZM35.1835 13.2745H36.4497C36.8028 13.2745 37.0759 13.1917 37.269 13.0262C37.4621 12.8607 37.5587 12.6317 37.5587 12.3393C37.5587 12.0469 37.4621 11.8179 37.269 11.6524C37.0759 11.4869 36.7973 11.4041 36.4332 11.4041H35.1835V13.2745ZM36.5159 15.931C36.8911 15.931 37.1835 15.8428 37.3932 15.6662C37.6028 15.4897 37.7077 15.2441 37.7077 14.9297C37.7077 14.6097 37.5973 14.3586 37.3766 14.1766C37.1559 13.989 36.8608 13.8952 36.4911 13.8952H35.1835V15.931H36.5159ZM40.2838 10.7835V14.4331C40.2838 14.9462 40.4079 15.3269 40.6562 15.5752C40.91 15.8235 41.2604 15.9476 41.7072 15.9476C42.1486 15.9476 42.4935 15.8235 42.7417 15.5752C42.9955 15.3269 43.1224 14.9462 43.1224 14.4331V10.7835H43.8755V14.4248C43.8755 14.9048 43.779 15.3103 43.5859 15.6414C43.3928 15.9669 43.1307 16.2097 42.7997 16.3697C42.4741 16.5297 42.1072 16.6097 41.699 16.6097C41.2907 16.6097 40.921 16.5297 40.59 16.3697C40.2645 16.2097 40.0052 15.9669 39.8121 15.6414C39.6245 15.3103 39.5307 14.9048 39.5307 14.4248V10.7835H40.2838ZM45.9263 10.7835V16.5517H45.1732V10.7835H45.9263ZM48.2526 15.9393H50.2719V16.5517H47.4995V10.7835H48.2526V15.9393ZM54.9117 10.7835V11.3959H53.3392V16.5517H52.5861V11.3959H51.0055V10.7835H54.9117ZM61.0161 13.5807C61.2258 13.6138 61.4161 13.6993 61.5872 13.8372C61.7637 13.9752 61.9017 14.1462 62.001 14.3503C62.1058 14.5545 62.1582 14.7724 62.1582 15.0041C62.1582 15.2966 62.0837 15.5614 61.9348 15.7986C61.7858 16.0303 61.5679 16.2152 61.281 16.3531C60.9996 16.4855 60.6658 16.5517 60.2796 16.5517H58.1279V10.7835H60.1968C60.5886 10.7835 60.9224 10.8497 61.1982 10.9821C61.4741 11.109 61.681 11.2828 61.8189 11.5035C61.9568 11.7241 62.0258 11.9724 62.0258 12.2483C62.0258 12.5903 61.932 12.8745 61.7444 13.1007C61.5624 13.3214 61.3196 13.4814 61.0161 13.5807ZM58.881 13.2745H60.1472C60.5003 13.2745 60.7734 13.1917 60.9665 13.0262C61.1596 12.8607 61.2561 12.6317 61.2561 12.3393C61.2561 12.0469 61.1596 11.8179 60.9665 11.6524C60.7734 11.4869 60.4948 11.4041 60.1306 11.4041H58.881V13.2745ZM60.2134 15.931C60.5886 15.931 60.881 15.8428 61.0906 15.6662C61.3003 15.4897 61.4051 15.2441 61.4051 14.9297C61.4051 14.6097 61.2948 14.3586 61.0741 14.1766C60.8534 13.989 60.5582 13.8952 60.1886 13.8952H58.881V15.931H60.2134ZM67.2005 10.7835L65.3219 14.3752V16.5517H64.5688V14.3752L62.6819 10.7835H63.5177L64.9412 13.7048L66.3646 10.7835H67.2005ZM73.5035 10.7835V11.3959H71.9311V16.5517H71.178V11.3959H69.5973V10.7835H73.5035ZM78.8332 10.7835V16.5517H78.0801V13.9366H75.1422V16.5517H74.389V10.7835H75.1422V13.3159H78.0801V10.7835H78.8332ZM80.8304 11.3959V13.3241H82.9325V13.9448H80.8304V15.931H83.1808V16.5517H80.0773V10.7752H83.1808V11.3959H80.8304ZM90.6484 12.4552C90.4884 12.1186 90.2566 11.8593 89.9532 11.6772C89.6497 11.4897 89.2966 11.3959 88.8939 11.3959C88.4911 11.3959 88.127 11.4897 87.8015 11.6772C87.4815 11.8593 87.2277 12.1241 87.0401 12.4717C86.858 12.8138 86.767 13.211 86.767 13.6635C86.767 14.1159 86.858 14.5131 87.0401 14.8552C87.2277 15.1972 87.4815 15.4621 87.8015 15.6497C88.127 15.8317 88.4911 15.9228 88.8939 15.9228C89.4566 15.9228 89.9201 15.7545 90.2842 15.4179C90.6484 15.0814 90.8608 14.6262 90.9215 14.0524H88.6208V13.44H91.7242V14.0193C91.6801 14.4938 91.5311 14.9297 91.2773 15.3269C91.0235 15.7186 90.6897 16.0303 90.2759 16.2621C89.8621 16.4883 89.4015 16.6014 88.8939 16.6014C88.3587 16.6014 87.8704 16.4772 87.4291 16.229C86.9877 15.9752 86.6373 15.6248 86.378 15.1779C86.1242 14.731 85.9973 14.2262 85.9973 13.6635C85.9973 13.1007 86.1242 12.5959 86.378 12.149C86.6373 11.6966 86.9877 11.3462 87.4291 11.0979C87.8704 10.8441 88.3587 10.7172 88.8939 10.7172C89.5063 10.7172 90.047 10.869 90.5159 11.1724C90.9904 11.4759 91.3353 11.9035 91.5504 12.4552H90.6484ZM93.8456 10.7835V16.5517H93.0925V10.7835H93.8456ZM99.0518 10.7835V11.3959H97.4794V16.5517H96.7263V11.3959H95.1456V10.7835H99.0518ZM99.7387 13.6635C99.7387 13.1007 99.8656 12.5959 100.119 12.149C100.373 11.6966 100.718 11.3435 101.154 11.0897C101.595 10.8359 102.084 10.709 102.619 10.709C103.248 10.709 103.797 10.8607 104.266 11.1641C104.735 11.4676 105.077 11.8979 105.292 12.4552H104.39C104.23 12.1076 103.998 11.84 103.695 11.6524C103.397 11.4648 103.038 11.371 102.619 11.371C102.216 11.371 101.855 11.4648 101.535 11.6524C101.215 11.84 100.964 12.1076 100.781 12.4552C100.599 12.7972 100.508 13.2 100.508 13.6635C100.508 14.1214 100.599 14.5241 100.781 14.8717C100.964 15.2138 101.215 15.4786 101.535 15.6662C101.855 15.8538 102.216 15.9476 102.619 15.9476C103.038 15.9476 103.397 15.8566 103.695 15.6745C103.998 15.4869 104.23 15.2193 104.39 14.8717H105.292C105.077 15.4235 104.735 15.851 104.266 16.1545C103.797 16.4524 103.248 16.6014 102.619 16.6014C102.084 16.6014 101.595 16.4772 101.154 16.229C100.718 15.9752 100.373 15.6248 100.119 15.1779C99.8656 14.731 99.7387 14.2262 99.7387 13.6635ZM109.07 16.6097C108.535 16.6097 108.046 16.4855 107.605 16.2372C107.164 15.9835 106.813 15.6331 106.554 15.1862C106.3 14.7338 106.173 14.2262 106.173 13.6635C106.173 13.1007 106.3 12.5959 106.554 12.149C106.813 11.6966 107.164 11.3462 107.605 11.0979C108.046 10.8441 108.535 10.7172 109.07 10.7172C109.61 10.7172 110.101 10.8441 110.543 11.0979C110.984 11.3462 111.332 11.6938 111.586 12.1407C111.839 12.5876 111.966 13.0952 111.966 13.6635C111.966 14.2317 111.839 14.7393 111.586 15.1862C111.332 15.6331 110.984 15.9835 110.543 16.2372C110.101 16.4855 109.61 16.6097 109.07 16.6097ZM109.07 15.9559C109.473 15.9559 109.834 15.8621 110.154 15.6745C110.479 15.4869 110.733 15.2193 110.915 14.8717C111.103 14.5241 111.197 14.1214 111.197 13.6635C111.197 13.2 111.103 12.7972 110.915 12.4552C110.733 12.1076 110.482 11.84 110.162 11.6524C109.842 11.4648 109.478 11.371 109.07 11.371C108.661 11.371 108.297 11.4648 107.977 11.6524C107.657 11.84 107.404 12.1076 107.216 12.4552C107.034 12.7972 106.943 13.2 106.943 13.6635C106.943 14.1214 107.034 14.5241 107.216 14.8717C107.404 15.2193 107.657 15.4869 107.977 15.6745C108.303 15.8621 108.667 15.9559 109.07 15.9559ZM114.003 10.7835V16.5517H113.25V10.7835H114.003ZM120.111 16.5517H119.358L116.329 11.9586V16.5517H115.576V10.7752H116.329L119.358 15.36V10.7752H120.111V16.5517Z" fill="#757087"/>
<path fill-rule="evenodd" clip-rule="evenodd" d="M25.1138 24.8814C25.5907 25.2619 25.999 25.5895 26.2506 25.7952C26.3375 25.8663 26.4073 25.9557 26.4552 26.0566C26.5031 26.1577 26.5277 26.2679 26.5273 26.3795L26.5196 29.8149C26.4971 29.9471 26.4279 30.0672 26.3244 30.1537C26.2209 30.2403 26.0898 30.2879 25.9542 30.2879H18.52C12.9511 30.2879 8.31038 25.782 8.35431 20.2753C8.38293 16.7314 10.2888 13.6302 13.1372 11.8952V8.53221C13.1372 8.40269 13.1641 8.27455 13.2162 8.15572C13.2684 8.0369 13.3446 7.92993 13.4402 7.84138C13.5359 7.7529 13.6489 7.68476 13.7722 7.64124C13.8956 7.59772 14.0267 7.57965 14.1573 7.58828C14.6658 7.6209 15.0502 8.06076 15.0502 8.56448V10.991C15.8227 10.7208 16.6258 10.5456 17.4415 10.4694V8.53221C17.4415 8.40269 17.4684 8.27448 17.5205 8.15572C17.5727 8.0369 17.6489 7.92986 17.7446 7.84138C17.8402 7.7529 17.9533 7.68476 18.0766 7.64124C18.2 7.59772 18.3311 7.57972 18.4618 7.58828C18.9702 7.6209 19.3546 8.06076 19.3546 8.56448V10.4685C21.7753 10.6948 23.9465 11.7704 25.558 13.3912C25.8598 13.6946 26.1418 14.0167 26.402 14.3557C26.6019 14.6159 26.5569 14.8166 26.2819 14.9979L25.168 15.8922C26.0544 17.2158 26.5275 18.7683 26.528 20.3561C26.5313 21.9721 26.0378 23.5501 25.1138 24.8814ZM23.643 23.7121C24.2943 22.7117 24.641 21.5468 24.641 20.3561C24.641 19.1384 24.268 17.9823 23.6524 17.0261L21.3323 18.7614C21.5993 19.2421 21.7414 19.7809 21.7458 20.3293C21.7501 20.8778 21.6166 21.4187 21.3572 21.9034L21.4316 21.9623C21.7572 22.2194 22.675 22.9444 23.643 23.7121ZM24.6151 28.3961L24.6252 27.0074L19.9066 23.3108C19.4389 23.5451 18.9219 23.667 18.3976 23.6666C16.5487 23.6666 15.0498 22.1845 15.0498 20.356C15.0498 18.5274 16.5487 17.0453 18.3976 17.0453C18.9138 17.0448 19.4231 17.1628 19.8853 17.3901L23.7904 14.3525C22.3387 13.0174 20.5366 12.3157 18.3976 12.3157C17.2429 12.3149 16.1015 12.5582 15.0498 13.0294V16.0994C15.0498 16.2289 15.0228 16.357 14.9707 16.4759C14.9186 16.5947 14.8423 16.7017 14.7467 16.7901C14.6511 16.8786 14.538 16.9468 14.4147 16.9903C14.2913 17.0339 14.1603 17.0519 14.0296 17.0433C13.5212 17.0107 13.1368 16.5708 13.1368 16.067V14.2281C11.3914 15.6948 10.2793 17.8761 10.2673 20.3156C10.2451 24.7596 14.0038 28.3961 18.4981 28.3961H24.6151ZM19.5907 21.1443C19.7483 20.911 19.8325 20.6366 19.8325 20.356C19.8325 19.9797 19.6813 19.6188 19.4122 19.3526C19.1431 19.0866 18.7782 18.937 18.3976 18.937C18.1138 18.937 17.8364 19.0203 17.6004 19.1761C17.3645 19.3321 17.1805 19.5537 17.0719 19.813C16.9633 20.0723 16.9349 20.3576 16.9902 20.6328C17.0456 20.9081 17.1823 21.1609 17.3829 21.3593C17.5836 21.5578 17.8393 21.6929 18.1176 21.7477C18.396 21.8024 18.6845 21.7743 18.9467 21.6669C19.2089 21.5595 19.433 21.3777 19.5907 21.1443Z" fill="#757087"/>
<path d="M5.51728 1.18965H124.138C126.528 1.18965 128.466 3.12718 128.466 5.51724V34.4828C128.466 36.8728 126.528 38.8103 124.138 38.8103H5.51728C3.12722 38.8103 1.1897 36.8728 1.1897 34.4828V5.51724C1.1897 3.12718 3.12722 1.18965 5.51728 1.18965Z" stroke="#757087"/>
</svg>
