<svg width="27" height="32" viewBox="0 0 27 32" fill="none" xmlns="http://www.w3.org/2000/svg">
<path d="M25.8683 17.7777C25.8683 19.551 25.4675 21.2305 24.7511 22.7321L23.1923 21.761L22.4619 21.306C22.9319 20.2244 23.1923 19.031 23.1923 17.7777C23.1923 16.5244 22.9319 15.331 22.4619 14.2494L23.1923 13.7944L24.7511 12.8232C25.4675 14.3249 25.8683 16.0044 25.8683 17.7777Z" fill="#146C76"/>
<path d="M23.1926 21.7611L22.4622 21.3061L19.6607 19.5617C19.4974 19.46 19.4177 19.2644 19.4645 19.0783C19.5687 18.6622 19.6245 18.2267 19.6245 17.7783C19.6245 17.33 19.5693 16.8944 19.4645 16.4783C19.4177 16.2917 19.4974 16.0967 19.6607 15.995L22.4622 14.2506L24.7514 12.8244L26.323 11.8456C26.7294 11.5922 26.8649 11.0628 26.6241 10.6494C26.5438 10.5111 26.4607 10.375 26.376 10.24C26.1385 9.86222 25.8837 9.49611 25.6127 9.14333C23.0465 5.80167 19.0257 3.62722 14.4932 3.55833C14.3705 3.55667 14.2718 3.45833 14.2718 3.33611V1.33333C14.2718 0.597222 13.6725 0 12.9338 0C12.1951 0 11.5958 0.597222 11.5958 1.33333V3.62389C11.5958 3.73 11.5205 3.82056 11.4162 3.84167C10.6614 3.99444 9.92769 4.20667 9.22132 4.47333C9.07581 4.52833 8.91971 4.42111 8.91971 4.26556V1.33333C8.91971 0.597222 8.32039 0 7.58168 0C6.84298 0 6.24365 0.597222 6.24365 1.33333V5.78556C6.24365 5.93111 6.17118 6.06667 6.05187 6.15056C2.40351 8.71667 0.0162465 12.945 7.86174e-05 17.7294C-0.0261244 25.5783 6.50123 32 14.3778 32H24.9766C25.4695 32 25.8686 31.6022 25.8686 31.1111V24.0439C25.8686 23.6606 25.6707 23.3044 25.3446 23.1017L24.7514 22.7322L23.1926 21.7611ZM22.7466 29.3333H14.3755C7.9909 29.3333 2.67056 24.1283 2.67669 17.7667C2.67948 14.59 3.96901 11.7139 6.05354 9.62667C6.12379 9.55611 6.24477 9.60556 6.24477 9.705V11.1111C6.24477 11.8472 6.84409 12.4444 7.5828 12.4444C8.3215 12.4444 8.92083 11.8472 8.92083 11.1111V7.79833C8.92083 7.62889 9.01783 7.47333 9.17059 7.39889C10.7104 6.64556 12.4421 6.22222 14.2729 6.22222C17.7507 6.22222 20.8711 7.74778 22.9963 10.1639C23.1775 10.37 23.1301 10.6889 22.8971 10.8344L21.0428 11.9894L18.5095 13.5672C18.1956 13.7628 17.7936 13.7439 17.4981 13.5217C16.5944 12.84 15.4666 12.4383 14.2439 12.445C11.3443 12.4606 8.96375 14.8094 8.92138 17.6989C8.8779 20.6806 11.2908 23.1117 14.2729 23.1117C15.4866 23.1117 16.6056 22.7094 17.5032 22.0306C17.7964 21.8089 18.1973 21.7944 18.5095 21.9889L21.0428 23.5667L22.9311 24.7428C23.0939 24.8444 23.1931 25.0222 23.1931 25.2139V28.8894C23.1931 29.135 22.9935 29.3339 22.7471 29.3339L22.7466 29.3333ZM16.9468 17.6844V17.8711C16.93 18.355 16.784 18.8061 16.542 19.1911C16.2939 19.5867 15.9438 19.9128 15.529 20.1328C15.1544 20.3317 14.7268 20.4444 14.2724 20.4444C12.7944 20.4444 11.5963 19.2506 11.5963 17.7778C11.5963 16.305 12.7944 15.1111 14.2724 15.1111C14.7268 15.1111 15.1544 15.2239 15.529 15.4228C15.9438 15.6428 16.2939 15.9689 16.542 16.3644C16.784 16.7494 16.93 17.2006 16.9468 17.6844Z" fill="#130C03"/>
</svg>
