<svg width="800" height="800" viewBox="0 0 800 800" fill="none" xmlns="http://www.w3.org/2000/svg">
<g clip-path="url(#clip0_238_16178)">
<rect width="800" height="800" fill="#2D2D2D"/>
<g filter="url(#filter0_f_238_16178)">
<path d="M876 299.632C876 564.379 661.544 779 397 779C132.456 779 -82 564.379 -82 299.632C-82 34.8838 132.456 -49 397 -49C661.544 -49 876 34.8838 876 299.632Z" fill="#3C2987"/>
</g>
<g filter="url(#filter1_f_238_16178)">
<path d="M595.113 652.831C595.113 874.573 415.356 1054.33 193.614 1054.33C-28.1287 1054.33 118.613 665.073 118.613 443.331C118.613 221.588 -28.1287 251.331 193.614 251.331C415.356 251.331 595.113 431.088 595.113 652.831Z" fill="#BEBBF3"/>
</g>
<g filter="url(#filter2_f_238_16178)">
<path d="M1265.5 617.5C1265.5 839.242 1033.24 1244 811.5 1244C589.758 1244 410 1064.24 410 842.5C410 620.758 532.258 313 754 313C975.742 313 1265.5 395.758 1265.5 617.5Z" fill="#9BC8E7"/>
</g>
</g>
<defs>
<filter id="filter0_f_238_16178" x="-282" y="-249" width="1358" height="1228" filterUnits="userSpaceOnUse" color-interpolation-filters="sRGB">
<feFlood flood-opacity="0" result="BackgroundImageFix"/>
<feBlend mode="normal" in="SourceGraphic" in2="BackgroundImageFix" result="shape"/>
<feGaussianBlur stdDeviation="100" result="effect1_foregroundBlur_238_16178"/>
</filter>
<filter id="filter1_f_238_16178" x="-129" y="50" width="924.114" height="1204.33" filterUnits="userSpaceOnUse" color-interpolation-filters="sRGB">
<feFlood flood-opacity="0" result="BackgroundImageFix"/>
<feBlend mode="normal" in="SourceGraphic" in2="BackgroundImageFix" result="shape"/>
<feGaussianBlur stdDeviation="100" result="effect1_foregroundBlur_238_16178"/>
</filter>
<filter id="filter2_f_238_16178" x="210" y="113" width="1255.5" height="1331" filterUnits="userSpaceOnUse" color-interpolation-filters="sRGB">
<feFlood flood-opacity="0" result="BackgroundImageFix"/>
<feBlend mode="normal" in="SourceGraphic" in2="BackgroundImageFix" result="shape"/>
<feGaussianBlur stdDeviation="100" result="effect1_foregroundBlur_238_16178"/>
</filter>
<clipPath id="clip0_238_16178">
<rect width="800" height="800" fill="white"/>
</clipPath>
</defs>
</svg>
