<svg width="21" height="20" viewBox="0 0 21 20" fill="none" xmlns="http://www.w3.org/2000/svg">
    <path d="M1.75195 1H3.75195L4.15195 3M5.75195 11H15.752L19.752 3H4.15195M5.75195 11L4.15195 3M5.75195 11L3.45906 13.2929C2.8291 13.9229 3.27526 15 4.16617 15H15.752M15.752 15C14.6474 15 13.752 15.8954 13.752 17C13.752 18.1046 14.6474 19 15.752 19C16.8565 19 17.752 18.1046 17.752 17C17.752 15.8954 16.8565 15 15.752 15ZM7.75195 17C7.75195 18.1046 6.85652 19 5.75195 19C4.64738 19 3.75195 18.1046 3.75195 17C3.75195 15.8954 4.64738 15 5.75195 15C6.85652 15 7.75195 15.8954 7.75195 17Z" stroke="white" stroke-width="2" stroke-linecap="round" stroke-linejoin="round"/>
</svg>
