<svg width="33" height="32" viewBox="0 0 33 32" fill="none" xmlns="http://www.w3.org/2000/svg">
<path d="M9.12486 28.1785C7.98309 28.1785 6.84771 28.0082 5.75621 27.6732C5.58928 27.6218 5.43743 27.5305 5.31387 27.407C5.19031 27.2836 5.09879 27.1318 5.04726 26.965C4.35302 24.6898 4.37751 22.2559 5.11739 19.9952C5.85726 17.7345 7.27649 15.757 9.18152 14.3325L10.9462 13.0172C12.0477 12.1959 13.0243 11.2193 13.8456 10.1179L15.1777 8.33018C16.5841 6.43749 18.5532 5.03831 20.8032 4.33296C23.0532 3.62761 25.4686 3.65225 27.7038 4.40339C27.8616 4.45635 28.005 4.54538 28.1225 4.66339C28.24 4.7814 28.3283 4.92513 28.3806 5.08324C29.1128 7.30184 29.1279 9.69472 28.4236 11.9223C27.7193 14.15 26.3314 16.0993 24.4569 17.4937L22.6095 18.8718C21.5039 19.6955 20.5239 20.6755 19.7002 21.7811L18.3902 23.5382C17.3131 24.9789 15.9148 26.1485 14.3063 26.9541C12.6979 27.7596 10.9237 28.1789 9.12486 28.1785ZM6.94059 25.7806C8.72983 26.2087 10.6053 26.1032 12.3353 25.4774C14.0653 24.8515 15.574 23.7326 16.6753 22.2588L17.9852 20.4979C18.9331 19.2259 20.0606 18.0982 21.3324 17.15L23.1806 15.7719C24.6205 14.7008 25.7066 13.223 26.2991 11.5291C26.8915 9.83519 26.9632 8.00267 26.5048 6.26764C24.7535 5.79412 22.9002 5.85885 21.1862 6.4534C19.4722 7.04795 17.9769 8.14479 16.895 9.60109L15.5621 11.3895C14.6175 12.6573 13.4935 13.781 12.2256 14.7253L10.4647 16.0406C8.98953 17.1419 7.86954 18.6514 7.24321 20.3825C6.61687 22.1136 6.51166 23.9904 6.94059 25.7806Z" fill="black"/>
<path d="M24.174 28.2052C22.44 28.2048 20.7301 27.7991 19.1808 27.0204C17.6316 26.2417 16.2858 25.1116 15.2509 23.7203L13.8728 21.8729C13.0486 20.7678 12.0686 19.7878 10.9635 18.9636L9.20642 17.6537C7.3014 16.2292 5.88216 14.2517 5.14229 11.991C4.40241 9.73026 4.37792 7.29634 5.07216 5.02119C5.12369 4.85432 5.21521 4.70259 5.33877 4.57917C5.46233 4.45574 5.61418 4.36436 5.78111 4.313C8.05626 3.61877 10.4902 3.64326 12.7509 4.38313C15.0116 5.12301 16.9891 6.54224 18.4136 8.44727L19.7289 10.2082C20.5497 11.31 21.5264 12.2866 22.6282 13.1075L24.4159 14.4397C26.309 15.8465 27.7083 17.8164 28.4134 20.0671C29.1185 22.3179 29.0932 24.734 28.3412 26.9695C28.2882 27.1274 28.1992 27.2708 28.0812 27.3882C27.9632 27.5057 27.8194 27.5941 27.6613 27.6463C26.536 28.0168 25.3587 28.2055 24.174 28.2052ZM6.9655 6.20253C6.53744 7.99177 6.64287 9.8672 7.26875 11.5972C7.89462 13.3272 9.01352 14.836 10.4873 15.9372L12.2443 17.2471C13.5165 18.1951 14.6443 19.3229 15.5923 20.5951L16.9704 22.4425C18.0415 23.8824 19.5191 24.9687 21.2131 25.5613C22.907 26.1539 24.7395 26.2257 26.4746 25.7675C26.9483 24.0161 26.8837 22.1627 26.2891 20.4485C25.6946 18.7343 24.5976 17.2389 23.1412 16.1569L21.3527 14.824C20.0851 13.8795 18.9615 12.7558 18.017 11.4883L16.7017 9.72356C15.6003 8.24966 14.0912 7.1307 12.3609 6.50496C10.6306 5.87921 8.75489 5.77407 6.9655 6.20253Z" fill="black"/>
<path d="M23.3966 22.0773C22.5977 22.0775 21.8013 21.9858 21.0233 21.804L19.2149 21.3806C17.5212 20.9871 15.7599 20.9871 14.0662 21.3806L12.2288 21.8094C10.0053 22.3282 7.67178 22.0802 5.60705 21.1057C3.54232 20.1311 1.86764 18.4872 0.854939 16.4409C0.781414 16.2928 0.743164 16.1297 0.743164 15.9644C0.743164 15.799 0.781414 15.6359 0.854939 15.4878C1.86847 13.4647 3.53375 11.842 5.5823 10.8811C7.63086 9.92025 9.9433 9.67727 12.1468 10.1913L14.0654 10.6392C15.7591 11.0327 17.5205 11.0327 19.2141 10.6392L21.0286 10.2158C23.2745 9.69153 25.6309 9.92708 27.7286 10.8855C29.8263 11.844 31.5469 13.4712 32.6206 15.5123C32.7011 15.6658 32.7432 15.8366 32.7432 16.0099C32.7432 16.1833 32.7011 16.354 32.6206 16.5076C31.7362 18.188 30.4096 19.5949 28.784 20.5765C27.1584 21.5581 25.2956 22.0771 23.3966 22.0773ZM16.6379 18.9468C17.6687 18.9463 18.6962 19.0639 19.7003 19.2974L21.5148 19.7208C23.2042 20.1151 24.9747 19.9691 26.5767 19.3033C28.1786 18.6375 29.5311 17.4855 30.4432 16.0099C29.531 14.5336 28.178 13.3812 26.5754 12.7154C24.9728 12.0495 23.2015 11.9039 21.5117 12.299L19.6972 12.7224C17.6837 13.1902 15.5898 13.1902 13.5762 12.7224L11.6576 12.2745C10.0127 11.8858 8.28639 12.0348 6.73239 12.6997C5.17839 13.3646 3.87859 14.5103 3.0239 15.9686C3.88321 17.4447 5.19327 18.6063 6.76161 19.2828C8.32995 19.9592 10.0739 20.1149 11.7373 19.7269L13.5747 19.2974C14.579 19.0639 15.6068 18.9462 16.6379 18.9468Z" fill="black"/>
<path d="M16.7337 32.0034C16.5612 32.0033 16.3912 31.9615 16.2383 31.8817C14.1732 30.8016 12.5103 29.086 11.495 26.9883C10.4798 24.8905 10.1662 22.5219 10.6004 20.2323L11.0215 18.012C11.2872 16.6179 11.2872 15.1861 11.0215 13.792L10.5958 11.5465C10.1703 9.27842 10.4979 6.93348 11.5287 4.86891C12.5596 2.80435 14.2371 1.13338 16.3057 0.110654C16.4532 0.0378655 16.6155 0 16.78 0C16.9445 0 17.1068 0.0378655 17.2543 0.110654C19.3028 1.13006 20.962 2.79096 21.9794 4.84047C22.9967 6.88997 23.3165 9.2158 22.8899 11.4638L22.4489 13.7897C22.1832 15.1838 22.1832 16.6156 22.4489 18.0097L22.87 20.23C23.3044 22.5198 22.9908 24.8885 21.9756 26.9864C20.9604 29.0843 19.2973 30.8001 17.2321 31.8802C17.0784 31.961 16.9073 32.0033 16.7337 32.0034ZM16.7743 2.28343C15.2606 3.15646 14.0554 4.47796 13.3251 6.0654C12.5948 7.65283 12.3755 9.42785 12.6974 11.1453L13.1231 13.3908C13.4393 15.0482 13.4393 16.7504 13.1231 18.4078L12.702 20.6281C12.3718 22.3714 12.5807 24.174 13.301 25.7955C14.0213 27.4171 15.2187 28.7806 16.7337 29.7043C18.2491 28.7811 19.447 27.4177 20.1675 25.796C20.888 24.1743 21.0968 22.3715 20.7661 20.6281L20.345 18.4078C20.0288 16.7504 20.0288 15.0482 20.345 13.3908L20.786 11.0657C21.1034 9.36686 20.8884 7.61149 20.1703 6.03953C19.4522 4.46757 18.2661 3.15576 16.7743 2.28343Z" fill="black"/>
</svg>
