<svg
    width="24"
    height="18"
    viewBox="0 0 24 18"
    fill="none"
    xmlns="http://www.w3.org/2000/svg"
    >
    <path
        d="M10.8001 14.7749C11.1751 14.7749 11.5126 15.0749 11.5126 15.4874C11.5126 15.8624 11.2126 16.1999 10.8001 16.1999C10.4251 16.1999 10.0876 15.8999 10.0876 15.4874C10.0876 15.0749 10.4251 14.7749 10.8001 14.7749ZM21.8251 10.4249C21.4501 10.4249 21.1126 10.1249 21.1126 9.71244C21.1126 9.33744 21.4126 8.99994 21.8251 8.99994C22.2001 8.99994 22.5376 9.29994 22.5376 9.71244C22.5376 10.0874 22.2001 10.4249 21.8251 10.4249ZM21.8251 7.53744C20.6251 7.53744 19.6501 8.51244 19.6501 9.71244C19.6501 9.93744 19.6876 10.1624 19.7626 10.3874L12.6001 14.2124C12.1876 13.6124 11.5126 13.2749 10.8001 13.2749C9.97505 13.2749 9.22505 13.7624 8.85005 14.4749L2.40005 11.0999C1.72505 10.7249 1.20005 9.63744 1.27505 8.58744C1.31255 8.06244 1.50005 7.64994 1.76255 7.49994C1.95005 7.38744 2.13755 7.42494 2.40005 7.53744L2.43755 7.57494C4.16255 8.47494 9.75005 11.3999 9.97505 11.5124C10.3501 11.6624 10.5376 11.7374 11.1751 11.4374L22.7251 5.43744C22.9126 5.36244 23.1001 5.21244 23.1001 4.94994C23.1001 4.61244 22.7626 4.46244 22.7626 4.46244C22.0876 4.16244 21.0751 3.67494 20.1001 3.22494C18.0001 2.24994 15.6001 1.12494 14.5501 0.562442C13.6501 0.0749418 12.9001 0.487442 12.7876 0.562442L12.5251 0.674942C7.76255 3.07494 1.46255 6.18744 1.08755 6.41244C0.450053 6.78744 0.0375525 7.57494 5.2521e-05 8.54994C-0.0749475 10.0874 0.712552 11.6999 1.83755 12.2624L8.66255 15.7874C8.81255 16.8374 9.75005 17.6624 10.8001 17.6624C12.0001 17.6624 12.9376 16.7249 12.9751 15.5249L20.4751 11.4749C20.8501 11.7749 21.3376 11.9249 21.8251 11.9249C23.0251 11.9249 24.0001 10.9499 24.0001 9.74994C24.0001 8.51244 23.0251 7.53744 21.8251 7.53744Z"
        fill="#0E0333"
    />
</svg>