<svg width="26" height="32" viewBox="0 0 26 32" fill="none" xmlns="http://www.w3.org/2000/svg">
    <path fill-rule="evenodd" clip-rule="evenodd" d="M21.4258 12.5673C22.4611 14.0184 23.0231 15.7806 23.0083 17.5575C23.0083 19.3049 22.4463 21.0522 21.4258 22.4738L23.5851 24.1175C24.9606 22.222 25.7148 19.912 25.7148 17.5723C25.7296 15.0994 24.9162 12.6709 23.4224 10.7163L22.1841 11.8325L21.4258 12.5673Z" fill="#02E2AC"/>
    <path fill-rule="evenodd" clip-rule="evenodd" d="M25.5078 25.5733L18.246 20.05C18.7637 19.3688 19.0595 18.5396 19.1038 17.6807C19.1334 16.8218 18.9116 15.9778 18.4531 15.2522L21.9287 12.1129L25.567 8.70708C25.8036 8.48496 25.8184 8.09995 25.5818 7.86303L25.0789 7.35956C22.4907 4.73855 19.0003 3.21333 15.3324 3.09486L15.3472 1.09579C15.362 0.962517 15.3472 0.829246 15.3176 0.695974C15.2732 0.562703 15.2141 0.444239 15.1254 0.340583C15.0366 0.236927 14.9331 0.162888 14.8 0.103656C14.6817 0.044424 14.5485 0.0148077 14.4154 0.0148077C14.2823 0.0148077 14.1492 0.044424 14.0309 0.103656C13.9126 0.162888 13.7943 0.236927 13.7055 0.340583C13.6168 0.444239 13.5428 0.562702 13.5133 0.681166C13.4689 0.814438 13.4541 0.947709 13.4837 1.08098L13.4689 3.13929C12.5963 3.22814 11.7237 3.39102 10.8807 3.64276L10.8955 1.08098C10.9102 0.947709 10.8955 0.814438 10.8659 0.681166C10.8215 0.547894 10.7623 0.429431 10.6736 0.325775C10.5849 0.222119 10.4813 0.148079 10.3482 0.0888475C10.2299 0.0296157 10.0968 0 9.9637 0C9.83059 0 9.69748 0.0296157 9.57916 0.0888475C9.46084 0.148079 9.34252 0.222119 9.25378 0.325775C9.16504 0.429431 9.09109 0.547894 9.06151 0.666358C9.01715 0.79963 9.00236 0.932902 9.03194 1.06617L8.98757 4.33873C6.00002 5.67145 3.5449 7.9963 2.05113 10.9135C0.557355 13.8306 0.0840806 17.1772 0.734834 20.3906C1.38559 23.6039 3.116 26.5062 5.63027 28.609C8.14455 30.7117 11.3096 31.8963 14.5781 31.9556L25.1529 32C25.4782 32 25.7445 31.7335 25.7445 31.4077V26.062C25.7445 25.8695 25.6557 25.6918 25.5078 25.5733ZM14.7852 29.379C12.1822 29.3642 9.65311 28.4905 7.59732 26.9061C5.54153 25.3068 4.06255 23.0708 3.39701 20.5534C2.73146 18.0361 2.92373 15.3559 3.91465 12.957C4.92036 10.5581 6.68035 8.54419 8.9432 7.24109L8.92841 11.1356C8.91362 11.2689 8.92841 11.4021 8.95799 11.5354C9.00236 11.6687 9.06152 11.7871 9.15026 11.8908C9.23899 11.9944 9.34252 12.0685 9.47563 12.1277C9.59395 12.1869 9.72706 12.2166 9.86017 12.2166C9.99328 12.2166 10.1264 12.1869 10.2447 12.1277C10.363 12.0685 10.4813 11.9944 10.5701 11.8908C10.6588 11.7871 10.7328 11.6687 10.7623 11.5502C10.8067 11.4169 10.8215 11.2837 10.7919 11.1504L10.8067 6.36742C12.1082 5.89357 13.4837 5.67145 14.8739 5.67145C17.4326 5.67145 19.9173 6.5155 21.9435 8.05553C22.0914 8.17399 22.1062 8.3813 21.9731 8.51458L16.4416 13.5937C15.9388 13.3864 15.3916 13.2679 14.8443 13.2679C14.238 13.2679 13.6316 13.3864 13.0696 13.6381C12.5075 13.8899 12.0195 14.2601 11.6202 14.7191C11.2208 15.1782 10.925 15.7261 10.7476 16.3036C10.5701 16.8959 10.5257 17.503 10.6144 18.1101C10.7032 18.7173 10.9102 19.2948 11.2356 19.813C11.561 20.3313 12.0047 20.7608 12.5075 21.1013C13.0252 21.4271 13.602 21.6492 14.2084 21.7381C14.8148 21.8269 15.4359 21.7825 16.0127 21.6048L23.0823 26.9801C23.1562 27.0393 23.2006 27.1282 23.2006 27.217L23.1858 29.1124C23.1858 29.2753 23.0527 29.4086 22.89 29.4086L14.7852 29.379ZM16.5156 17.5326C16.5156 17.8584 16.4121 18.1842 16.2346 18.4655C16.0423 18.7469 15.7909 18.9542 15.4803 19.0875C15.1697 19.2207 14.8296 19.2503 14.519 19.1763C14.2084 19.1023 13.8978 18.9542 13.6612 18.7173C13.4245 18.4803 13.2618 18.1842 13.2027 17.8584C13.1435 17.5326 13.1731 17.192 13.3062 16.8959C13.4393 16.5849 13.6464 16.3332 13.9274 16.1407C14.2084 15.963 14.5338 15.8593 14.8591 15.8593C15.3028 15.8593 15.7317 16.037 16.0423 16.3628C16.3381 16.659 16.5156 17.0736 16.5156 17.5326Z" fill="#0E0333"/>
</svg>