<svg width="26" height="32" viewBox="0 0 26 32" fill="none" xmlns="http://www.w3.org/2000/svg"><path fill-rule="evenodd" clip-rule="evenodd" d="M20.976 12.566a8.516 8.516 0 0 1 1.583 4.99 8.5 8.5 0 0 1-1.583 4.917l2.16 1.644a11.197 11.197 0 0 0 2.13-6.545 11.22 11.22 0 0 0-2.293-6.856l-1.239 1.116-.758.734Z" fill="#02E2AC"/><path fill-rule="evenodd" clip-rule="evenodd" d="m25.058 25.573-7.262-5.523c.518-.681.814-1.51.858-2.37a4.26 4.26 0 0 0-.65-2.428l3.475-3.14 3.638-3.405a.59.59 0 0 0 .015-.844l-.503-.503a14.353 14.353 0 0 0-9.746-4.265l.015-2c.014-.132 0-.266-.03-.399a1.034 1.034 0 0 0-.192-.355.881.881 0 0 0-.326-.237.863.863 0 0 0-.384-.09.862.862 0 0 0-.385.09 1.02 1.02 0 0 0-.325.237.877.877 0 0 0-.192.34.74.74 0 0 0-.03.4l-.015 2.058a14.03 14.03 0 0 0-2.588.504l.015-2.562a1.22 1.22 0 0 0-.03-.4 1.036 1.036 0 0 0-.192-.355.882.882 0 0 0-.325-.237A.862.862 0 0 0 9.514 0a.862.862 0 0 0-.385.089c-.118.06-.236.133-.325.237a.877.877 0 0 0-.192.34.74.74 0 0 0-.03.4L8.538 4.34A14.39 14.39 0 0 0 1.6 10.914 14.502 14.502 0 0 0 .285 20.39a14.468 14.468 0 0 0 4.896 8.218 14.375 14.375 0 0 0 8.947 3.347L24.703 32a.594.594 0 0 0 .592-.592v-5.346a.625.625 0 0 0-.237-.489ZM14.335 29.38a11.899 11.899 0 0 1-7.187-2.473 11.917 11.917 0 0 1-4.2-6.353 11.948 11.948 0 0 1 .517-7.596 11.897 11.897 0 0 1 5.028-5.716l-.014 3.895c-.015.133 0 .266.03.4.044.133.103.251.192.355a.882.882 0 0 0 .325.237.862.862 0 0 0 .77 0c.117-.06.236-.134.324-.237a.877.877 0 0 0 .193-.34.74.74 0 0 0 .03-.4l.014-4.784a11.865 11.865 0 0 1 4.067-.696c2.559 0 5.044.845 7.07 2.385a.303.303 0 0 1 .03.459l-5.532 5.079a4.218 4.218 0 0 0-1.597-.326 4.33 4.33 0 0 0-1.775.37 4.186 4.186 0 0 0-1.45 1.081 4.387 4.387 0 0 0-.872 1.585 4.154 4.154 0 0 0-.133 1.806 4.38 4.38 0 0 0 .62 1.703c.326.518.77.948 1.273 1.288a4.394 4.394 0 0 0 1.7.637 4.122 4.122 0 0 0 1.805-.133l7.07 5.375a.31.31 0 0 1 .118.237l-.015 1.895a.297.297 0 0 1-.296.297l-8.105-.03Zm1.73-11.846c0 .325-.103.651-.28.932a1.717 1.717 0 0 1-.754.622 1.548 1.548 0 0 1-.962.09 1.801 1.801 0 0 1-.858-.46 1.643 1.643 0 0 1-.355-1.821c.134-.311.34-.563.622-.755a1.76 1.76 0 0 1 .931-.282c.444 0 .873.178 1.184.504.295.296.473.71.473 1.17Z" fill="#fff"/></svg>