
    <svg
        width="21"
        height="20"
        viewBox="0 0 21 20"
        fill="none"
        xmlns="http://www.w3.org/2000/svg"
        >
        <path
            fillRule="evenodd"
            clipRule="evenodd"
            d="M10.3079 0C7.85995 0.0012701 5.49228 0.868282 3.62825 2.446C1.76421 4.02373 0.525362 6.20928 0.133215 8.61186C-0.258932 11.0144 0.221191 13.4774 1.48774 15.5603C2.7543 17.6432 4.72468 19.2102 7.04658 19.9812C7.55882 20.0762 7.75177 19.7588 7.75177 19.4888C7.75177 19.2189 7.74152 18.4362 7.73811 17.5805C4.86952 18.2002 4.26337 16.37 4.26337 16.37C3.79551 15.1816 3.11934 14.8692 3.11934 14.8692C2.18364 14.2342 3.18936 14.2461 3.18936 14.2461C4.22581 14.3191 4.7705 15.3038 4.7705 15.3038C5.68913 16.8708 7.18317 16.4175 7.77055 16.1527C7.86275 15.4888 8.13084 15.0372 8.42623 14.7809C6.13478 14.5228 3.72721 13.6434 3.72721 9.7147C3.71301 8.69582 4.09326 7.7105 4.78928 6.9626C4.68341 6.70453 4.32996 5.6621 4.89001 4.24615C4.89001 4.24615 5.75572 3.97111 7.72616 5.29708C9.41629 4.83751 11.1995 4.83751 12.8896 5.29708C14.8584 3.97111 15.7223 4.24615 15.7223 4.24615C16.2841 5.6587 15.9307 6.70114 15.8248 6.9626C16.523 7.71062 16.9041 8.69766 16.8886 9.71809C16.8886 13.6552 14.4759 14.5228 12.181 14.7758C12.5498 15.095 12.8794 15.718 12.8794 16.6756C12.8794 18.0474 12.8674 19.151 12.8674 19.4888C12.8674 19.7622 13.0535 20.0813 13.576 19.9812C15.8982 19.2101 17.8688 17.6428 19.1353 15.5595C20.4018 13.4763 20.8817 11.013 20.4891 8.61018C20.0965 6.20738 18.8571 4.02181 16.9924 2.44436C15.1277 0.866906 12.7595 0.000465046 10.3113 0H10.3079Z"
            fill="#0E0333"
        />
        <path
            d="M3.90089 14.7215C3.87869 14.7724 3.79674 14.7877 3.73014 14.7521C3.66355 14.7164 3.61404 14.6502 3.63794 14.5976C3.66185 14.5449 3.7421 14.5313 3.80869 14.567C3.87528 14.6026 3.9265 14.6706 3.90089 14.7215Z"
            fill="#0E0333"
        />
        <path
            d="M4.31972 15.185C4.28436 15.2027 4.2439 15.2076 4.20528 15.1989C4.16666 15.1903 4.13227 15.1685 4.10799 15.1374C4.0414 15.0661 4.02773 14.9676 4.07896 14.9235C4.13018 14.8794 4.22239 14.8997 4.28899 14.971C4.35558 15.0423 4.37094 15.1408 4.31972 15.185Z"
            fill="#0E0333"
        />
        <path
            d="M4.72613 15.774C4.66295 15.8181 4.55538 15.774 4.49561 15.6857C4.47909 15.6699 4.46595 15.6509 4.45697 15.6299C4.44799 15.6089 4.44336 15.5863 4.44336 15.5635C4.44336 15.5407 4.44799 15.5181 4.45697 15.4971C4.46595 15.4761 4.47909 15.4571 4.49561 15.4412C4.55879 15.3988 4.66637 15.4412 4.72613 15.5278C4.78589 15.6144 4.7876 15.7299 4.72613 15.774V15.774Z"
            fill="#0E0333"
        />
        <path
            d="M5.27694 16.3445C5.22059 16.4073 5.10619 16.3904 5.01228 16.3055C4.91837 16.2206 4.89617 16.1051 4.95251 16.044C5.00886 15.9829 5.12326 15.9999 5.22059 16.0831C5.31792 16.1662 5.3367 16.2834 5.27694 16.3445V16.3445Z"
            fill="#0E0333"
        />
    </svg>