<svg width="687" height="200" viewBox="0 0 687 200" fill="none" xmlns="http://www.w3.org/2000/svg">
<path d="M20.116 67H0.94C3.384 63.804 5.264 57.412 5.264 47.542V20.658C5.264 10.788 3.384 4.396 0.94 1.2H40.984L41.548 13.89H41.36C37.6 7.77999 30.926 2.234 23.688 2.234C18.894 2.234 15.416 5.242 15.416 10.882C15.416 16.992 19.364 22.444 30.268 22.444H37.036V33.818H36.942C30.55 27.708 25.85 23.666 21.338 21.88C19.458 21.034 17.484 20.658 15.792 20.564V47.542C15.792 57.318 17.672 63.71 20.116 67ZM41.2844 25.922V25.546L55.4784 19.248V48.106C55.4784 59.104 58.2044 63.616 64.5964 63.616C68.6384 63.616 71.9284 61.548 74.4664 58.916L74.6544 40.398C74.6544 32.314 72.4924 27.614 70.3304 25.922V25.546L84.5244 19.248V50.55C84.5244 59.574 86.8744 65.026 89.2244 67H74.3724L74.4664 60.796C71.4584 64.462 65.7244 67.752 60.1784 67.752C51.0604 67.752 45.6084 62.676 45.6084 49.328V40.398C45.6084 32.314 43.4464 27.614 41.2844 25.922ZM88.8829 26.58V26.204L103.077 19.248V26.204C106.085 22.256 110.221 19.248 115.861 19.248C124.133 19.248 127.329 23.854 129.867 36.356L133.157 52.336C134.943 61.454 137.669 65.12 140.019 67H125.261L119.433 36.638C117.835 28.272 116.049 23.384 111.443 23.196C107.777 23.008 105.427 24.982 103.077 27.52V50.55C103.077 59.574 105.145 65.026 107.495 67H92.6429L93.2069 40.68C93.3949 32.502 91.0449 28.272 88.8829 26.58ZM136.027 43.97C136.027 27.332 146.743 19.248 155.955 19.248C163.381 19.248 168.175 24.136 170.055 26.392V22.632C170.149 14.454 167.893 10.224 165.731 8.532V8.156L179.925 1.2V50.55C179.925 59.574 181.993 65.026 184.343 67H169.491L169.585 61.736C167.423 63.992 163.287 67.752 155.955 67.752C146.273 67.752 136.027 60.702 136.027 43.97ZM146.837 43.218C146.931 58.258 153.323 64.462 160.467 64.462C164.321 64.462 167.799 61.924 169.585 59.95L170.055 28.46C168.175 25.452 164.227 22.162 159.433 22.162C152.853 22.162 146.743 29.118 146.837 43.218ZM227.097 67L202.751 1.2H216.663C216.099 3.268 216.475 6.46399 217.603 9.566L234.147 54.216C237.531 47.448 240.539 40.116 242.701 32.596L231.045 1.2H244.957C244.393 3.268 244.769 6.46399 245.897 9.566L262.441 54.216C270.995 37.296 276.165 17.65 274.943 1.2H286.599C283.873 5.148 281.805 12.292 279.361 18.778C274.285 31.938 267.423 47.354 262.441 57.036V67H255.391L243.923 35.98C240.539 43.876 236.967 51.584 234.147 57.036V67H227.097ZM285.978 8.532V8.156L300.172 1.2V26.204C303.18 22.256 307.316 19.248 312.956 19.248C321.228 19.248 324.424 23.854 326.962 36.356L330.252 52.336C332.038 61.454 334.764 65.12 337.114 67H322.356L316.528 36.638C314.93 28.272 313.238 23.478 308.538 23.196C304.778 22.914 302.146 25.358 300.172 27.52V50.55C300.172 59.574 302.24 65.026 304.59 67H289.738L290.302 22.632C290.396 14.454 288.14 10.224 285.978 8.532ZM334.219 51.49C334.219 40.868 341.363 32.784 352.455 27.99C349.353 30.528 344.089 36.732 344.089 45.662C344.089 54.498 348.507 61.36 356.873 61.36C359.787 61.36 362.889 60.326 365.051 57.976C360.727 45.286 355.087 28.648 352.455 25.076C350.293 21.88 346.439 21.41 343.243 22.162L343.149 21.974C345.781 20.282 349.259 19.248 352.549 19.248C356.873 19.248 362.137 21.034 364.863 27.802C367.401 34.1 374.169 52.712 376.143 57.976C377.929 62.676 379.621 65.59 381.219 67H368.153L365.521 59.104C362.419 64.744 358.095 67.752 351.045 67.752C341.269 67.752 334.219 60.984 334.219 51.49ZM389.4 19.53H397.39V20.47H389.4V47.354C389.4 60.232 392.784 65.778 397.39 66.436V67C387.05 67 379.436 61.454 379.436 46.414V20.47H373.702V19.812C380 18.496 386.956 12.856 388.836 7.31H389.4V19.53ZM429.316 67H415.874C418.976 60.138 421.42 49.328 422.36 35.04L423.864 11.258L419.916 1.2H431.76L452.44 53.934L471.616 1.2H484.306C482.896 3.08 481.016 5.61799 479.7 8.25L481.956 47.542C482.52 57.318 484.306 62.958 486.374 67H468.044C470.958 62.582 471.71 54.686 471.334 47.542L469.548 16.804C466.634 21.504 462.686 29.118 459.772 37.108L452.44 57.318V67H445.672L424.898 13.89L423.582 33.442C422.454 50.644 426.402 61.36 429.316 67ZM485.967 51.49C485.967 40.868 493.111 32.784 504.203 27.99C501.101 30.528 495.837 36.732 495.837 45.662C495.837 54.498 500.255 61.36 508.621 61.36C511.535 61.36 514.637 60.326 516.799 57.976C512.475 45.286 506.835 28.648 504.203 25.076C502.041 21.88 498.187 21.41 494.991 22.162L494.897 21.974C497.529 20.282 501.007 19.248 504.297 19.248C508.621 19.248 513.885 21.034 516.611 27.802C519.149 34.1 525.917 52.712 527.891 57.976C529.677 62.676 531.369 65.59 532.967 67H519.901L517.269 59.104C514.167 64.744 509.843 67.752 502.793 67.752C493.017 67.752 485.967 60.984 485.967 51.49ZM541.148 19.53H549.138V20.47H541.148V47.354C541.148 60.232 544.532 65.778 549.138 66.436V67C538.798 67 531.184 61.454 531.184 46.414V20.47H525.45V19.812C531.748 18.496 538.704 12.856 540.584 7.31H541.148V19.53ZM561.299 19.53H569.289V20.47H561.299V47.354C561.299 60.232 564.683 65.778 569.289 66.436V67C558.949 67 551.335 61.454 551.335 46.414V20.47H545.601V19.812C551.899 18.496 558.855 12.856 560.735 7.31H561.299V19.53ZM614.545 44.252H614.733C614.545 56.848 604.581 67.752 591.421 67.752C577.979 67.752 567.263 57.412 567.263 43.688C567.263 29.4 578.261 19.248 591.609 19.248C601.667 19.248 610.315 25.64 610.315 37.202H577.415C577.321 38.33 577.227 39.458 577.227 40.586C577.227 51.678 585.781 59.104 596.121 59.104C605.991 59.104 613.135 53.088 614.545 44.252ZM591.891 20.376C584.559 20.376 578.919 26.956 577.509 36.262H587.661C597.343 36.262 600.727 32.878 600.727 27.52C600.727 23.478 597.155 20.376 591.891 20.376ZM613.664 26.392V26.016L627.858 19.248V37.39C629.738 26.392 636.036 20.47 647.128 19.248L644.872 29.964C637.54 28.742 627.952 32.502 627.858 41.714V50.55C627.858 59.574 629.926 65.026 632.276 67H617.424L617.988 40.492C618.176 32.22 615.826 28.084 613.664 26.392ZM685.101 53.934C685.289 62.958 676.641 67.752 667.147 67.752C659.251 67.752 653.047 66.342 649.193 65.026L648.253 48.952H648.441C654.175 60.796 661.507 66.248 667.711 66.436C673.915 66.53 677.863 63.804 677.581 58.916C677.393 54.216 671.565 51.772 665.079 48.576C655.679 43.876 648.911 40.304 648.629 32.22C648.441 23.196 656.525 18.966 667.335 19.248C673.445 19.342 678.145 20.846 681.341 22.35L682.093 36.732H681.905C678.333 27.52 672.505 21.128 664.891 20.564C659.815 20.188 655.773 22.726 655.961 26.862C656.149 31.656 660.755 34.288 669.215 38.142C678.333 42.466 684.819 46.32 685.101 53.934Z" fill="#ADEDE5"/>
<path d="M20.116 133H0.94C3.384 129.804 5.264 123.412 5.264 113.542V86.658C5.264 76.788 3.384 70.396 0.94 67.2H40.984L41.548 79.89H41.36C37.6 73.78 30.926 68.234 23.688 68.234C18.894 68.234 15.416 71.242 15.416 76.882C15.416 82.992 19.364 88.444 30.268 88.444H37.036V99.818H36.942C30.55 93.708 25.85 89.666 21.338 87.88C19.458 87.034 17.484 86.658 15.792 86.564V113.542C15.792 123.318 17.672 129.71 20.116 133ZM41.2844 91.922V91.546L55.4784 85.248V114.106C55.4784 125.104 58.2044 129.616 64.5964 129.616C68.6384 129.616 71.9284 127.548 74.4664 124.916L74.6544 106.398C74.6544 98.314 72.4924 93.614 70.3304 91.922V91.546L84.5244 85.248V116.55C84.5244 125.574 86.8744 131.026 89.2244 133H74.3724L74.4664 126.796C71.4584 130.462 65.7244 133.752 60.1784 133.752C51.0604 133.752 45.6084 128.676 45.6084 115.328V106.398C45.6084 98.314 43.4464 93.614 41.2844 91.922ZM88.8829 92.58V92.204L103.077 85.248V92.204C106.085 88.256 110.221 85.248 115.861 85.248C124.133 85.248 127.329 89.854 129.867 102.356L133.157 118.336C134.943 127.454 137.669 131.12 140.019 133H125.261L119.433 102.638C117.835 94.272 116.049 89.384 111.443 89.196C107.777 89.008 105.427 90.982 103.077 93.52V116.55C103.077 125.574 105.145 131.026 107.495 133H92.6429L93.2069 106.68C93.3949 98.502 91.0449 94.272 88.8829 92.58ZM136.027 109.97C136.027 93.332 146.743 85.248 155.955 85.248C163.381 85.248 168.175 90.136 170.055 92.392V88.632C170.149 80.454 167.893 76.224 165.731 74.532V74.156L179.925 67.2V116.55C179.925 125.574 181.993 131.026 184.343 133H169.491L169.585 127.736C167.423 129.992 163.287 133.752 155.955 133.752C146.273 133.752 136.027 126.702 136.027 109.97ZM146.837 109.218C146.931 124.258 153.323 130.462 160.467 130.462C164.321 130.462 167.799 127.924 169.585 125.95L170.055 94.46C168.175 91.452 164.227 88.162 159.433 88.162C152.853 88.162 146.743 95.118 146.837 109.218ZM227.097 133L202.751 67.2H216.663C216.099 69.268 216.475 72.464 217.603 75.566L234.147 120.216C237.531 113.448 240.539 106.116 242.701 98.596L231.045 67.2H244.957C244.393 69.268 244.769 72.464 245.897 75.566L262.441 120.216C270.995 103.296 276.165 83.65 274.943 67.2H286.599C283.873 71.148 281.805 78.292 279.361 84.778C274.285 97.938 267.423 113.354 262.441 123.036V133H255.391L243.923 101.98C240.539 109.876 236.967 117.584 234.147 123.036V133H227.097ZM285.978 74.532V74.156L300.172 67.2V92.204C303.18 88.256 307.316 85.248 312.956 85.248C321.228 85.248 324.424 89.854 326.962 102.356L330.252 118.336C332.038 127.454 334.764 131.12 337.114 133H322.356L316.528 102.638C314.93 94.272 313.238 89.478 308.538 89.196C304.778 88.914 302.146 91.358 300.172 93.52V116.55C300.172 125.574 302.24 131.026 304.59 133H289.738L290.302 88.632C290.396 80.454 288.14 76.224 285.978 74.532ZM334.219 117.49C334.219 106.868 341.363 98.784 352.455 93.99C349.353 96.528 344.089 102.732 344.089 111.662C344.089 120.498 348.507 127.36 356.873 127.36C359.787 127.36 362.889 126.326 365.051 123.976C360.727 111.286 355.087 94.648 352.455 91.076C350.293 87.88 346.439 87.41 343.243 88.162L343.149 87.974C345.781 86.282 349.259 85.248 352.549 85.248C356.873 85.248 362.137 87.034 364.863 93.802C367.401 100.1 374.169 118.712 376.143 123.976C377.929 128.676 379.621 131.59 381.219 133H368.153L365.521 125.104C362.419 130.744 358.095 133.752 351.045 133.752C341.269 133.752 334.219 126.984 334.219 117.49ZM389.4 85.53H397.39V86.47H389.4V113.354C389.4 126.232 392.784 131.778 397.39 132.436V133C387.05 133 379.436 127.454 379.436 112.414V86.47H373.702V85.812C380 84.496 386.956 78.856 388.836 73.31H389.4V85.53ZM429.316 133H415.874C418.976 126.138 421.42 115.328 422.36 101.04L423.864 77.258L419.916 67.2H431.76L452.44 119.934L471.616 67.2H484.306C482.896 69.08 481.016 71.618 479.7 74.25L481.956 113.542C482.52 123.318 484.306 128.958 486.374 133H468.044C470.958 128.582 471.71 120.686 471.334 113.542L469.548 82.804C466.634 87.504 462.686 95.118 459.772 103.108L452.44 123.318V133H445.672L424.898 79.89L423.582 99.442C422.454 116.644 426.402 127.36 429.316 133ZM485.967 117.49C485.967 106.868 493.111 98.784 504.203 93.99C501.101 96.528 495.837 102.732 495.837 111.662C495.837 120.498 500.255 127.36 508.621 127.36C511.535 127.36 514.637 126.326 516.799 123.976C512.475 111.286 506.835 94.648 504.203 91.076C502.041 87.88 498.187 87.41 494.991 88.162L494.897 87.974C497.529 86.282 501.007 85.248 504.297 85.248C508.621 85.248 513.885 87.034 516.611 93.802C519.149 100.1 525.917 118.712 527.891 123.976C529.677 128.676 531.369 131.59 532.967 133H519.901L517.269 125.104C514.167 130.744 509.843 133.752 502.793 133.752C493.017 133.752 485.967 126.984 485.967 117.49ZM541.148 85.53H549.138V86.47H541.148V113.354C541.148 126.232 544.532 131.778 549.138 132.436V133C538.798 133 531.184 127.454 531.184 112.414V86.47H525.45V85.812C531.748 84.496 538.704 78.856 540.584 73.31H541.148V85.53ZM561.299 85.53H569.289V86.47H561.299V113.354C561.299 126.232 564.683 131.778 569.289 132.436V133C558.949 133 551.335 127.454 551.335 112.414V86.47H545.601V85.812C551.899 84.496 558.855 78.856 560.735 73.31H561.299V85.53ZM614.545 110.252H614.733C614.545 122.848 604.581 133.752 591.421 133.752C577.979 133.752 567.263 123.412 567.263 109.688C567.263 95.4 578.261 85.248 591.609 85.248C601.667 85.248 610.315 91.64 610.315 103.202H577.415C577.321 104.33 577.227 105.458 577.227 106.586C577.227 117.678 585.781 125.104 596.121 125.104C605.991 125.104 613.135 119.088 614.545 110.252ZM591.891 86.376C584.559 86.376 578.919 92.956 577.509 102.262H587.661C597.343 102.262 600.727 98.878 600.727 93.52C600.727 89.478 597.155 86.376 591.891 86.376ZM613.664 92.392V92.016L627.858 85.248V103.39C629.738 92.392 636.036 86.47 647.128 85.248L644.872 95.964C637.54 94.742 627.952 98.502 627.858 107.714V116.55C627.858 125.574 629.926 131.026 632.276 133H617.424L617.988 106.492C618.176 98.22 615.826 94.084 613.664 92.392ZM685.101 119.934C685.289 128.958 676.641 133.752 667.147 133.752C659.251 133.752 653.047 132.342 649.193 131.026L648.253 114.952H648.441C654.175 126.796 661.507 132.248 667.711 132.436C673.915 132.53 677.863 129.804 677.581 124.916C677.393 120.216 671.565 117.772 665.079 114.576C655.679 109.876 648.911 106.304 648.629 98.22C648.441 89.196 656.525 84.966 667.335 85.248C673.445 85.342 678.145 86.846 681.341 88.35L682.093 102.732H681.905C678.333 93.52 672.505 87.128 664.891 86.564C659.815 86.188 655.773 88.726 655.961 92.862C656.149 97.656 660.755 100.288 669.215 104.142C678.333 108.466 684.819 112.32 685.101 119.934Z" fill="#00433B"/>
<path d="M20.116 199H0.94C3.384 195.804 5.264 189.412 5.264 179.542V152.658C5.264 142.788 3.384 136.396 0.94 133.2H40.984L41.548 145.89H41.36C37.6 139.78 30.926 134.234 23.688 134.234C18.894 134.234 15.416 137.242 15.416 142.882C15.416 148.992 19.364 154.444 30.268 154.444H37.036V165.818H36.942C30.55 159.708 25.85 155.666 21.338 153.88C19.458 153.034 17.484 152.658 15.792 152.564V179.542C15.792 189.318 17.672 195.71 20.116 199ZM41.2844 157.922V157.546L55.4784 151.248V180.106C55.4784 191.104 58.2044 195.616 64.5964 195.616C68.6384 195.616 71.9284 193.548 74.4664 190.916L74.6544 172.398C74.6544 164.314 72.4924 159.614 70.3304 157.922V157.546L84.5244 151.248V182.55C84.5244 191.574 86.8744 197.026 89.2244 199H74.3724L74.4664 192.796C71.4584 196.462 65.7244 199.752 60.1784 199.752C51.0604 199.752 45.6084 194.676 45.6084 181.328V172.398C45.6084 164.314 43.4464 159.614 41.2844 157.922ZM88.8829 158.58V158.204L103.077 151.248V158.204C106.085 154.256 110.221 151.248 115.861 151.248C124.133 151.248 127.329 155.854 129.867 168.356L133.157 184.336C134.943 193.454 137.669 197.12 140.019 199H125.261L119.433 168.638C117.835 160.272 116.049 155.384 111.443 155.196C107.777 155.008 105.427 156.982 103.077 159.52V182.55C103.077 191.574 105.145 197.026 107.495 199H92.6429L93.2069 172.68C93.3949 164.502 91.0449 160.272 88.8829 158.58ZM136.027 175.97C136.027 159.332 146.743 151.248 155.955 151.248C163.381 151.248 168.175 156.136 170.055 158.392V154.632C170.149 146.454 167.893 142.224 165.731 140.532V140.156L179.925 133.2V182.55C179.925 191.574 181.993 197.026 184.343 199H169.491L169.585 193.736C167.423 195.992 163.287 199.752 155.955 199.752C146.273 199.752 136.027 192.702 136.027 175.97ZM146.837 175.218C146.931 190.258 153.323 196.462 160.467 196.462C164.321 196.462 167.799 193.924 169.585 191.95L170.055 160.46C168.175 157.452 164.227 154.162 159.433 154.162C152.853 154.162 146.743 161.118 146.837 175.218ZM227.097 199L202.751 133.2H216.663C216.099 135.268 216.475 138.464 217.603 141.566L234.147 186.216C237.531 179.448 240.539 172.116 242.701 164.596L231.045 133.2H244.957C244.393 135.268 244.769 138.464 245.897 141.566L262.441 186.216C270.995 169.296 276.165 149.65 274.943 133.2H286.599C283.873 137.148 281.805 144.292 279.361 150.778C274.285 163.938 267.423 179.354 262.441 189.036V199H255.391L243.923 167.98C240.539 175.876 236.967 183.584 234.147 189.036V199H227.097ZM285.978 140.532V140.156L300.172 133.2V158.204C303.18 154.256 307.316 151.248 312.956 151.248C321.228 151.248 324.424 155.854 326.962 168.356L330.252 184.336C332.038 193.454 334.764 197.12 337.114 199H322.356L316.528 168.638C314.93 160.272 313.238 155.478 308.538 155.196C304.778 154.914 302.146 157.358 300.172 159.52V182.55C300.172 191.574 302.24 197.026 304.59 199H289.738L290.302 154.632C290.396 146.454 288.14 142.224 285.978 140.532ZM334.219 183.49C334.219 172.868 341.363 164.784 352.455 159.99C349.353 162.528 344.089 168.732 344.089 177.662C344.089 186.498 348.507 193.36 356.873 193.36C359.787 193.36 362.889 192.326 365.051 189.976C360.727 177.286 355.087 160.648 352.455 157.076C350.293 153.88 346.439 153.41 343.243 154.162L343.149 153.974C345.781 152.282 349.259 151.248 352.549 151.248C356.873 151.248 362.137 153.034 364.863 159.802C367.401 166.1 374.169 184.712 376.143 189.976C377.929 194.676 379.621 197.59 381.219 199H368.153L365.521 191.104C362.419 196.744 358.095 199.752 351.045 199.752C341.269 199.752 334.219 192.984 334.219 183.49ZM389.4 151.53H397.39V152.47H389.4V179.354C389.4 192.232 392.784 197.778 397.39 198.436V199C387.05 199 379.436 193.454 379.436 178.414V152.47H373.702V151.812C380 150.496 386.956 144.856 388.836 139.31H389.4V151.53ZM429.316 199H415.874C418.976 192.138 421.42 181.328 422.36 167.04L423.864 143.258L419.916 133.2H431.76L452.44 185.934L471.616 133.2H484.306C482.896 135.08 481.016 137.618 479.7 140.25L481.956 179.542C482.52 189.318 484.306 194.958 486.374 199H468.044C470.958 194.582 471.71 186.686 471.334 179.542L469.548 148.804C466.634 153.504 462.686 161.118 459.772 169.108L452.44 189.318V199H445.672L424.898 145.89L423.582 165.442C422.454 182.644 426.402 193.36 429.316 199ZM485.967 183.49C485.967 172.868 493.111 164.784 504.203 159.99C501.101 162.528 495.837 168.732 495.837 177.662C495.837 186.498 500.255 193.36 508.621 193.36C511.535 193.36 514.637 192.326 516.799 189.976C512.475 177.286 506.835 160.648 504.203 157.076C502.041 153.88 498.187 153.41 494.991 154.162L494.897 153.974C497.529 152.282 501.007 151.248 504.297 151.248C508.621 151.248 513.885 153.034 516.611 159.802C519.149 166.1 525.917 184.712 527.891 189.976C529.677 194.676 531.369 197.59 532.967 199H519.901L517.269 191.104C514.167 196.744 509.843 199.752 502.793 199.752C493.017 199.752 485.967 192.984 485.967 183.49ZM541.148 151.53H549.138V152.47H541.148V179.354C541.148 192.232 544.532 197.778 549.138 198.436V199C538.798 199 531.184 193.454 531.184 178.414V152.47H525.45V151.812C531.748 150.496 538.704 144.856 540.584 139.31H541.148V151.53ZM561.299 151.53H569.289V152.47H561.299V179.354C561.299 192.232 564.683 197.778 569.289 198.436V199C558.949 199 551.335 193.454 551.335 178.414V152.47H545.601V151.812C551.899 150.496 558.855 144.856 560.735 139.31H561.299V151.53ZM614.545 176.252H614.733C614.545 188.848 604.581 199.752 591.421 199.752C577.979 199.752 567.263 189.412 567.263 175.688C567.263 161.4 578.261 151.248 591.609 151.248C601.667 151.248 610.315 157.64 610.315 169.202H577.415C577.321 170.33 577.227 171.458 577.227 172.586C577.227 183.678 585.781 191.104 596.121 191.104C605.991 191.104 613.135 185.088 614.545 176.252ZM591.891 152.376C584.559 152.376 578.919 158.956 577.509 168.262H587.661C597.343 168.262 600.727 164.878 600.727 159.52C600.727 155.478 597.155 152.376 591.891 152.376ZM613.664 158.392V158.016L627.858 151.248V169.39C629.738 158.392 636.036 152.47 647.128 151.248L644.872 161.964C637.54 160.742 627.952 164.502 627.858 173.714V182.55C627.858 191.574 629.926 197.026 632.276 199H617.424L617.988 172.492C618.176 164.22 615.826 160.084 613.664 158.392ZM685.101 185.934C685.289 194.958 676.641 199.752 667.147 199.752C659.251 199.752 653.047 198.342 649.193 197.026L648.253 180.952H648.441C654.175 192.796 661.507 198.248 667.711 198.436C673.915 198.53 677.863 195.804 677.581 190.916C677.393 186.216 671.565 183.772 665.079 180.576C655.679 175.876 648.911 172.304 648.629 164.22C648.441 155.196 656.525 150.966 667.335 151.248C673.445 151.342 678.145 152.846 681.341 154.35L682.093 168.732H681.905C678.333 159.52 672.505 153.128 664.891 152.564C659.815 152.188 655.773 154.726 655.961 158.862C656.149 163.656 660.755 166.288 669.215 170.142C678.333 174.466 684.819 178.32 685.101 185.934Z" fill="#FFD9CD"/>
</svg>
