<svg width="24" height="24" viewBox="0 0 24 24" fill="none" xmlns="http://www.w3.org/2000/svg">
<path d="M11.6318 23.9046L1.85581 18.2605C1.63565 18.1333 1.5 17.8985 1.5 17.6441V6.35592C1.5 6.10152 1.63565 5.86668 1.85581 5.73948L11.6318 0.0954022C11.8519 -0.0318007 12.1232 -0.0318007 12.3434 0.0954022L22.1193 5.73948C22.3395 5.86668 22.4751 6.10152 22.4751 6.35592V17.6441C22.4751 17.8985 22.3395 18.1333 22.1193 18.2605L12.3434 23.9046C12.1232 24.0318 11.8519 24.0318 11.6318 23.9046ZM3.63488 17.2336L11.6318 21.8507C11.8519 21.9779 12.1232 21.9779 12.3434 21.8507L20.3403 17.2336C20.5604 17.1063 20.6961 16.8715 20.6961 16.6171V7.38333C20.6961 7.12893 20.5604 6.89409 20.3403 6.76689L12.3434 2.14978C12.1232 2.02257 11.8519 2.02257 11.6318 2.14978L3.63488 6.76689C3.41472 6.89409 3.27906 7.12893 3.27906 7.38333V16.6171C3.27906 16.8715 3.41472 17.1063 3.63488 17.2336Z" fill="url(#paint0_linear_493_2405)"/>
<path d="M11.6317 3.78302L5.04917 7.58354C4.82901 7.71074 4.69336 7.94558 4.69336 8.19998V15.3901C4.69336 15.8984 4.96467 16.3685 5.40498 16.6225L6.20556 17.0846C6.32432 17.1531 6.47242 17.0677 6.47242 16.9307V9.2274C6.47242 8.97299 6.60808 8.73815 6.82823 8.61095L11.6317 5.83783C11.8519 5.71063 12.1232 5.71063 12.3433 5.83783L17.1468 8.61095C17.367 8.73815 17.5026 8.97299 17.5026 9.2274V14.7741C17.5026 15.0285 17.367 15.2633 17.1468 15.3905L12.3433 18.1636C12.1232 18.2908 11.8519 18.2908 11.6317 18.1636L10.0305 17.2394C9.81039 17.1122 9.67473 16.8774 9.67473 16.623V11.0763C9.67473 10.8219 9.81039 10.587 10.0305 10.4598L11.6317 9.53562C11.8519 9.40841 12.1232 9.40841 12.3433 9.53562L13.9445 10.4598C14.1646 10.587 14.3003 10.8219 14.3003 11.0763V12.9252C14.3003 13.1796 14.1646 13.4144 13.9445 13.5416L13.1439 14.0037C13.0252 14.0722 12.877 13.9868 12.877 13.8498V12.7126V11.9107C12.877 11.6563 12.7414 11.4214 12.5212 11.2942L12.1654 11.0887C12.0551 11.0251 11.9199 11.0251 11.8096 11.0887L11.3648 11.3454C11.1998 11.4406 11.098 11.6171 11.098 11.8075V12.0001V15.8086C11.098 16.0639 11.235 16.2996 11.4565 16.4264L11.6281 16.5242C11.8479 16.6496 12.1178 16.6492 12.3371 16.5224L15.7235 14.5673C15.9437 14.44 16.0794 14.2052 16.0794 13.9508V10.0475C16.0794 9.79314 15.9437 9.5583 15.7235 9.4311L12.3433 7.47946C12.1232 7.35226 11.8519 7.35226 11.6317 7.47946L8.25148 9.4311C8.03133 9.5583 7.89567 9.79314 7.89567 10.0475V17.6481C7.89567 17.9025 8.03133 18.1374 8.25148 18.2646L11.6317 20.2162C11.8519 20.3434 12.1232 20.3434 12.3433 20.2162L18.9259 16.4157C19.146 16.2885 19.2817 16.0537 19.2817 15.7992V8.19865C19.2817 7.94425 19.146 7.70941 18.9259 7.5822L12.3433 3.78168C12.1232 3.65448 11.8519 3.65448 11.6317 3.78168V3.78302Z" fill="url(#paint1_linear_493_2405)"/>
<defs>
<linearGradient id="paint0_linear_493_2405" x1="5.97133" y1="0.5005" x2="16.8732" y2="23.6222" gradientUnits="userSpaceOnUse">
<stop stop-color="#4A47D3"/>
<stop offset="1" stop-color="#C1F6FF"/>
</linearGradient>
<linearGradient id="paint1_linear_493_2405" x1="7.80319" y1="4.03299" x2="15.3359" y2="20.0732" gradientUnits="userSpaceOnUse">
<stop stop-color="#4A47D3"/>
<stop offset="1" stop-color="#C1F6FF"/>
</linearGradient>
</defs>
</svg>