<svg width="20" height="30" viewBox="-1 -0 32 32" fill="none" xmlns="http://www.w3.org/2000/svg">
    <path d="M8.48324 22.3883C7.269 20.2854 7.27579 17.8162 8.27635 15.7947L3.48045 13.0271C3.36174 12.9593 3.2532 12.8813 3.13788 12.8066C3.07683 13.1797 3.03613 13.5562 3.03613 13.9463V25.0202C3.03613 28.8766 6.15991 32.0004 10.0163 32.0004C13.7336 32.0004 16.7658 29.0903 16.9761 25.4239C13.8354 26.6076 10.2096 25.3899 8.47646 22.3849L8.48324 22.3883Z"
          fill="#6F3FF5"/>
    <path d="M10.0242 6.96636C12.4527 6.96636 14.5861 8.20773 15.8377 10.0867L20.6335 7.31911C20.7523 7.25127 20.8744 7.19361 20.9965 7.13255C20.7048 6.89513 20.3961 6.67128 20.0603 6.47456L10.4686 0.935877C7.13109 -0.990622 2.86091 0.152388 0.934416 3.48985C-0.924249 6.70859 0.0797012 10.7888 3.14921 12.8035C3.69528 9.49319 6.56129 6.96297 10.0276 6.96297L10.0242 6.96636Z"
          fill="#FFCC00"/>
    <path d="M8.28058 15.794C8.87074 14.6035 9.80346 13.5656 11.0414 12.8533L15.8373 10.0823C14.5858 8.20329 12.449 6.96191 10.0239 6.96191C6.55758 6.96191 3.68818 9.49214 3.14551 12.8025C3.25743 12.8771 3.36936 12.9551 3.48807 13.0229L8.28397 15.7906L8.28058 15.794Z"
          fill="#8C65F7"/>
    <path d="M30.1675 9.86882C28.3088 6.65007 24.2727 5.47992 20.9929 7.1283C23.5875 9.25491 24.3439 13.0062 22.6107 16.0078C21.3965 18.1107 19.2563 19.3385 17.0008 19.4844V25.0196C17.0008 25.1553 16.9873 25.291 16.9805 25.4267C17.3332 25.2944 17.6826 25.1384 18.0183 24.945L27.6101 19.4063C30.9476 17.4798 32.094 13.2097 30.1641 9.87221L30.1675 9.86882Z"
          fill="#02E2AC"/>
    <path d="M17.0039 19.4851C15.6778 19.5699 14.3143 19.2782 13.0763 18.566L8.28042 15.7949C7.27647 17.8164 7.27308 20.289 8.48731 22.3884C10.2205 25.3901 13.8462 26.6111 16.987 25.4274C16.9938 25.2917 17.0073 25.1595 17.0073 25.0204V19.4851H17.0039Z"
          fill="#5BF1CD"/>
    <path d="M15.8369 10.0826C16.5729 11.1883 17.0037 12.5145 17.0037 13.9424V19.481C19.2558 19.3386 21.3993 18.1074 22.6136 16.0045C24.3467 13.0029 23.5904 9.255 20.9957 7.125C20.8736 7.18605 20.7515 7.24031 20.6328 7.31154L15.8369 10.0792V10.0826Z"
          fill="#FFDB4C"/>
    <path d="M15.837 10.084L11.0411 12.855C9.80316 13.5707 8.87043 14.6052 8.28027 15.7956L13.0762 18.5667C14.3142 19.2823 15.6776 19.5706 17.0038 19.4858V13.9472C17.0038 12.5192 16.573 11.1931 15.837 10.0874V10.084Z"
          fill="white"/>
</svg>
