<svg width="24" height="24" viewBox="0 0 24 24" fill="none" xmlns="http://www.w3.org/2000/svg">
<g clip-path="url(#clip0_719_30343)">
<path d="M11.6318 23.9046L1.85581 18.2605C1.63565 18.1333 1.5 17.8985 1.5 17.6441V6.35592C1.5 6.10152 1.63565 5.86668 1.85581 5.73948L11.6318 0.0954022C11.8519 -0.0318007 12.1232 -0.0318007 12.3434 0.0954022L22.1193 5.73948C22.3395 5.86668 22.4751 6.10152 22.4751 6.35592V17.6441C22.4751 17.8985 22.3395 18.1333 22.1193 18.2605L12.3434 23.9046C12.1232 24.0318 11.8519 24.0318 11.6318 23.9046ZM3.63487 17.2336L11.6318 21.8507C11.8519 21.9779 12.1232 21.9779 12.3434 21.8507L20.3403 17.2336C20.5604 17.1063 20.6961 16.8715 20.6961 16.6171V7.38333C20.6961 7.12893 20.5604 6.89409 20.3403 6.76689L12.3434 2.14978C12.1232 2.02257 11.8519 2.02257 11.6318 2.14978L3.63487 6.76689C3.41472 6.89409 3.27906 7.12893 3.27906 7.38333V16.6171C3.27906 16.8715 3.41472 17.1063 3.63487 17.2336Z" fill="url(#paint0_linear_719_30343)"/>
<path d="M11.6317 3.78296L5.04917 7.58348C4.82901 7.71068 4.69336 7.94552 4.69336 8.19992V15.39C4.69336 15.8984 4.96467 16.3685 5.40498 16.6224L6.20556 17.0846C6.32431 17.1531 6.47242 17.0677 6.47242 16.9307V9.22733C6.47242 8.97293 6.60808 8.73809 6.82823 8.61088L11.6317 5.83777C11.8519 5.71057 12.1232 5.71057 12.3433 5.83777L17.1468 8.61088C17.367 8.73809 17.5026 8.97293 17.5026 9.22733V14.774C17.5026 15.0284 17.367 15.2632 17.1468 15.3905L12.3433 18.1636C12.1232 18.2908 11.8519 18.2908 11.6317 18.1636L10.0305 17.2393C9.81039 17.1121 9.67473 16.8773 9.67473 16.6229V11.0762C9.67473 10.8218 9.81039 10.587 10.0305 10.4598L11.6317 9.53555C11.8519 9.40835 12.1232 9.40835 12.3433 9.53555L13.9445 10.4598C14.1646 10.587 14.3003 10.8218 14.3003 11.0762V12.9251C14.3003 13.1795 14.1646 13.4144 13.9445 13.5416L13.1439 14.0037C13.0252 14.0722 12.877 13.9868 12.877 13.8498V12.7125V11.9106C12.877 11.6562 12.7414 11.4214 12.5212 11.2942L12.1654 11.0887C12.0551 11.0251 11.9199 11.0251 11.8096 11.0887L11.3648 11.3453C11.1998 11.4405 11.098 11.6171 11.098 11.8074V12V15.8085C11.098 16.0638 11.235 16.2996 11.4565 16.4263L11.6281 16.5242C11.8479 16.6496 12.1178 16.6491 12.3371 16.5224L15.7235 14.5672C15.9437 14.44 16.0794 14.2052 16.0794 13.9507V10.0475C16.0794 9.79307 15.9437 9.55824 15.7235 9.43104L12.3433 7.4794C12.1232 7.3522 11.8519 7.3522 11.6317 7.4794L8.25148 9.43104C8.03132 9.55824 7.89567 9.79307 7.89567 10.0475V17.6481C7.89567 17.9025 8.03132 18.1373 8.25148 18.2645L11.6317 20.2162C11.8519 20.3434 12.1232 20.3434 12.3433 20.2162L18.9259 16.4156C19.146 16.2884 19.2817 16.0536 19.2817 15.7992V8.19859C19.2817 7.94419 19.146 7.70934 18.9259 7.58214L12.3433 3.78162C12.1232 3.65442 11.8519 3.65442 11.6317 3.78162V3.78296Z" fill="url(#paint1_linear_719_30343)"/>
</g>
<defs>
<linearGradient id="paint0_linear_719_30343" x1="5.97133" y1="0.5005" x2="16.8733" y2="23.6222" gradientUnits="userSpaceOnUse">
<stop stop-color="#666666"/>
<stop offset="1" stop-color="#E4E4E4"/>
</linearGradient>
<linearGradient id="paint1_linear_719_30343" x1="7.80319" y1="4.03293" x2="15.3359" y2="20.0731" gradientUnits="userSpaceOnUse">
<stop stop-color="#666666"/>
<stop offset="1" stop-color="#E4E4E4"/>
</linearGradient>
<clipPath id="clip0_719_30343">
<rect width="24" height="24" fill="white"/>
</clipPath>
</defs>
</svg>
