<svg width="126" height="26" viewBox="0 0 126 26" fill="none" xmlns="http://www.w3.org/2000/svg">
<path d="M11.6318 23.9046L1.85581 18.2605C1.63565 18.1333 1.5 17.8985 1.5 17.6441V6.35592C1.5 6.10152 1.63565 5.86668 1.85581 5.73948L11.6318 0.0954022C11.8519 -0.0318007 12.1232 -0.0318007 12.3434 0.0954022L22.1193 5.73948C22.3395 5.86668 22.4751 6.10152 22.4751 6.35592V17.6441C22.4751 17.8985 22.3395 18.1333 22.1193 18.2605L12.3434 23.9046C12.1232 24.0318 11.8519 24.0318 11.6318 23.9046ZM3.63488 17.2336L11.6318 21.8507C11.8519 21.9779 12.1232 21.9779 12.3434 21.8507L20.3403 17.2336C20.5604 17.1063 20.6961 16.8715 20.6961 16.6171V7.38333C20.6961 7.12893 20.5604 6.89409 20.3403 6.76689L12.3434 2.14978C12.1232 2.02257 11.8519 2.02257 11.6318 2.14978L3.63488 6.76689C3.41472 6.89409 3.27906 7.12893 3.27906 7.38333V16.6171C3.27906 16.8715 3.41472 17.1063 3.63488 17.2336Z" fill="url(#paint0_linear_677_25058)"/>
<path d="M11.6317 3.78302L5.04917 7.58354C4.82901 7.71074 4.69336 7.94558 4.69336 8.19998V15.3901C4.69336 15.8984 4.96467 16.3685 5.40498 16.6225L6.20556 17.0846C6.32432 17.1531 6.47242 17.0677 6.47242 16.9307V9.2274C6.47242 8.97299 6.60808 8.73815 6.82823 8.61095L11.6317 5.83783C11.8519 5.71063 12.1232 5.71063 12.3433 5.83783L17.1468 8.61095C17.367 8.73815 17.5026 8.97299 17.5026 9.2274V14.7741C17.5026 15.0285 17.367 15.2633 17.1468 15.3905L12.3433 18.1636C12.1232 18.2908 11.8519 18.2908 11.6317 18.1636L10.0305 17.2394C9.81039 17.1122 9.67473 16.8774 9.67473 16.623V11.0763C9.67473 10.8219 9.81039 10.587 10.0305 10.4598L11.6317 9.53562C11.8519 9.40841 12.1232 9.40841 12.3433 9.53562L13.9445 10.4598C14.1646 10.587 14.3003 10.8219 14.3003 11.0763V12.9252C14.3003 13.1796 14.1646 13.4144 13.9445 13.5416L13.1439 14.0037C13.0252 14.0722 12.877 13.9868 12.877 13.8498V12.7126V11.9107C12.877 11.6563 12.7414 11.4214 12.5212 11.2942L12.1654 11.0887C12.0551 11.0251 11.9199 11.0251 11.8096 11.0887L11.3648 11.3454C11.1998 11.4406 11.098 11.6171 11.098 11.8075V12.0001V15.8086C11.098 16.0639 11.235 16.2996 11.4565 16.4264L11.6281 16.5242C11.8479 16.6496 12.1178 16.6492 12.3371 16.5224L15.7235 14.5673C15.9437 14.44 16.0794 14.2052 16.0794 13.9508V10.0475C16.0794 9.79314 15.9437 9.5583 15.7235 9.4311L12.3433 7.47946C12.1232 7.35226 11.8519 7.35226 11.6317 7.47946L8.25148 9.4311C8.03133 9.5583 7.89567 9.79314 7.89567 10.0475V17.6481C7.89567 17.9025 8.03133 18.1374 8.25148 18.2646L11.6317 20.2162C11.8519 20.3434 12.1232 20.3434 12.3433 20.2162L18.9259 16.4157C19.146 16.2885 19.2817 16.0537 19.2817 15.7992V8.19865C19.2817 7.94425 19.146 7.70941 18.9259 7.5822L12.3433 3.78168C12.1232 3.65448 11.8519 3.65448 11.6317 3.78168V3.78302Z" fill="url(#paint1_linear_677_25058)"/>
<path d="M40.1899 1.37891C41.5521 1.37891 42.7185 1.89833 43.689 2.93719C44.6596 3.97604 45.1448 5.18375 45.1448 6.5586C45.1448 7.93345 44.6596 9.16259 43.689 10.1972C42.7185 11.2326 41.5521 11.7503 40.1899 11.7503H34.5882V19.3788H32.9443V1.37891H40.1899ZM40.0963 10.3557C41.0746 10.3557 41.912 9.98287 42.6094 9.2363C43.306 8.49059 43.6547 7.60517 43.6547 6.58174C43.6547 5.55832 43.3025 4.69518 42.5982 3.94518C41.8939 3.19518 41.06 2.82061 40.0972 2.82061H34.5882V10.3557H40.0954H40.0963Z" fill="black"/>
<path d="M50.2415 19.472C48.973 19.472 47.9182 19.1128 47.0765 18.3937C46.2348 17.6754 45.814 16.7651 45.814 15.6628C45.814 13.0537 47.6339 11.6274 51.2739 11.3857L54.7146 11.1748V10.6708C54.7146 9.61657 54.3977 8.81171 53.7638 8.25714C53.13 7.70258 52.2608 7.42486 51.1571 7.42486C50.1943 7.42486 49.4093 7.69658 48.8029 8.23914C48.1965 8.78257 47.8418 9.47171 47.7405 10.3074H46.1086C46.234 9.104 46.739 8.08315 47.6236 7.24315C48.5083 6.40315 49.7099 5.98315 51.2284 5.98315C52.7469 5.98315 54.037 6.41087 54.9328 7.26629C55.8295 8.12172 56.2769 9.27971 56.2769 10.7411L56.3001 16.1437C56.3001 16.8465 56.3723 17.3368 56.5174 17.6145C56.6626 17.8922 56.9108 18.0225 57.2629 18.0071V19.3785C57.0199 19.3785 56.7974 19.3554 56.5939 19.3082C55.5057 19.082 54.9104 18.4177 54.8091 17.3162C54.457 17.9257 53.8557 18.4374 53.0063 18.8514C52.1569 19.2654 51.2353 19.4728 50.2407 19.4728L50.2415 19.472ZM50.312 18.0071C51.4466 18.0071 52.4643 17.6634 53.3653 16.976C54.2654 16.2885 54.7155 15.4957 54.7155 14.5974V12.6054L51.2748 12.8514C49.8026 12.9448 48.7814 13.244 48.2103 13.748C47.6391 14.252 47.3531 14.8983 47.3531 15.6877C47.3531 16.3905 47.6546 16.9537 48.2575 17.3754C48.8604 17.7971 49.545 18.008 50.3128 18.008L50.312 18.0071Z" fill="black"/>
<path d="M63.6048 19.5895C62.0159 19.5895 60.7963 19.1773 59.9468 18.3536C59.0974 17.529 58.6413 16.6247 58.5786 15.6407H60.0937C60.1873 16.281 60.5729 16.8767 61.2506 17.4278C61.9274 17.979 62.7142 18.2541 63.6108 18.2541C64.5075 18.2541 65.2608 18.0098 65.8714 17.5221C66.4821 17.0336 66.787 16.4147 66.787 15.6647C66.787 14.9147 66.4821 14.3267 65.8714 13.9479C65.2608 13.569 64.3804 13.2819 63.2295 13.0864C61.9772 12.8756 60.9689 12.5199 60.2053 12.0202C59.4418 11.5204 59.0604 10.7353 59.0604 9.66473C59.0604 8.59416 59.5071 7.65903 60.3995 6.99903C61.2918 6.33903 62.3371 6.00903 63.5344 6.00903C64.9438 6.00903 66.0449 6.31332 66.8403 6.92274C67.6347 7.53217 68.0985 8.41931 68.2316 9.5833H66.787C66.6461 8.81788 66.2665 8.26674 65.6481 7.93074C65.0297 7.59474 64.4225 7.41903 63.8281 7.4036C63.0139 7.37274 62.3053 7.53217 61.7024 7.88445C61.0994 8.23588 60.798 8.75531 60.798 9.44273C60.798 10.1302 61.0814 10.6813 61.6491 11.001C62.2169 11.3216 63.0285 11.5633 64.0858 11.7279C67.0369 12.189 68.5125 13.4584 68.5125 15.5361C68.5125 16.6693 68.0427 17.6276 67.1031 18.4127C66.1634 19.1978 64.9971 19.5904 63.604 19.5904L63.6048 19.5895Z" fill="black"/>
<path d="M74.7601 19.5895C73.1712 19.5895 71.9515 19.1773 71.1021 18.3536C70.2527 17.529 69.7966 16.6247 69.7339 15.6407H71.249C71.3426 16.281 71.7282 16.8767 72.4059 17.4278C73.0827 17.979 73.8694 18.2541 74.7661 18.2541C75.6628 18.2541 76.416 18.0098 77.0267 17.5221C77.6374 17.0336 77.9423 16.4147 77.9423 15.6647C77.9423 14.9147 77.6374 14.3267 77.0267 13.9479C76.416 13.569 75.5357 13.2819 74.3848 13.0864C73.1325 12.8756 72.1242 12.5199 71.3606 12.0202C70.5971 11.5204 70.2157 10.7353 70.2157 9.66473C70.2157 8.59416 70.6623 7.65903 71.5547 6.99903C72.4471 6.33903 73.4924 6.00903 74.6897 6.00903C76.0991 6.00903 77.2002 6.31332 77.9955 6.92274C78.79 7.53217 79.2538 8.41931 79.3869 9.5833H77.9423C77.8014 8.81788 77.4218 8.26674 76.8034 7.93074C76.185 7.59474 75.5778 7.41903 74.9834 7.4036C74.1692 7.37274 73.4606 7.53217 72.8577 7.88445C72.2547 8.23588 71.9533 8.75531 71.9533 9.44273C71.9533 10.1302 72.2367 10.6813 72.8044 11.001C73.3721 11.3216 74.1838 11.5633 75.2411 11.7279C78.1922 12.189 79.6678 13.4584 79.6678 15.5361C79.6678 16.6693 79.198 17.6276 78.2583 18.4127C77.3187 19.1978 76.1524 19.5904 74.7592 19.5904L74.7601 19.5895Z" fill="black"/>
<path d="M88.1694 6.05481C89.9619 6.05481 91.416 6.68395 92.5317 7.94138C93.6474 9.19966 94.2048 10.7871 94.2048 12.7054C94.2048 14.6236 93.6371 16.2265 92.5025 17.5156C91.367 18.8048 89.8992 19.4493 88.099 19.4493C86.0952 19.4493 84.5406 18.6248 83.4369 16.9765V25.379H81.7578V6.18338H83.2488L83.4369 8.45652C84.4934 6.85538 86.0711 6.05396 88.1694 6.05396V6.05481ZM87.9349 17.9613C89.3126 17.9613 90.4266 17.4573 91.276 16.4493C92.1254 15.4413 92.5497 14.1959 92.5497 12.7114C92.5497 11.2268 92.1289 9.94965 91.2872 8.94937C90.4455 7.94909 89.328 7.44938 87.9349 7.44938C86.7995 7.44938 85.8272 7.82652 85.0173 8.57994C84.2074 9.33423 83.6809 10.3011 83.4378 11.4805V13.9294C83.68 15.1173 84.2074 16.0859 85.0173 16.8359C85.8272 17.5859 86.8003 17.9605 87.9349 17.9605V17.9613Z" fill="black"/>
<path d="M101.404 19.5426C99.5561 19.5426 98.0436 18.892 96.8652 17.5917C95.6868 16.2906 95.0977 14.68 95.0977 12.7574C95.0977 10.8349 95.6868 9.2226 96.8652 7.91803C98.0436 6.61346 99.5561 5.96118 101.404 5.96118C103.251 5.96118 104.786 6.61346 105.96 7.91803C107.134 9.2226 107.722 10.8357 107.722 12.7574C107.722 14.6791 107.134 16.2906 105.96 17.5917C104.786 18.8928 103.267 19.5426 101.404 19.5426ZM98.0514 16.4954C98.9008 17.5034 100.017 18.0074 101.398 18.0074C102.779 18.0074 103.894 17.5034 104.744 16.4954C105.593 15.4874 106.018 14.242 106.018 12.7574C106.018 11.2729 105.597 9.99574 104.755 8.99545C103.913 7.99517 102.796 7.49546 101.403 7.49546C100.01 7.49546 98.9094 7.99517 98.0565 8.99545C97.2028 9.99574 96.7768 11.2497 96.7768 12.7574C96.7768 14.2651 97.2011 15.4883 98.0505 16.4954H98.0514Z" fill="black"/>
<path d="M116.306 6.05489L116.283 7.4966C114.951 7.37146 113.83 7.69203 112.918 8.45746C112.006 9.22288 111.55 10.3209 111.55 11.7506V19.3791H109.812V6.18346H111.304L111.55 8.79688C111.73 8.39831 111.914 8.05889 112.102 7.77774C112.29 7.4966 112.56 7.20003 112.912 6.88718C113.264 6.57518 113.73 6.34975 114.31 6.21346C114.889 6.07718 115.554 6.02404 116.306 6.05489Z" fill="black"/>
<path d="M123.104 19.402C120.794 19.402 119.64 18.3048 119.64 16.1088L119.663 7.47231H117.643V6.13603H119.663V1.37891H121.342V6.13689H124.301V7.49631L121.272 7.47317V15.8757C121.272 16.1963 121.287 16.4517 121.319 16.6437C121.35 16.8348 121.419 17.038 121.524 17.2531C121.63 17.4683 121.816 17.6286 122.082 17.734C122.348 17.8394 122.688 17.8926 123.103 17.8926H124.5V19.4046H123.103L123.104 19.402Z" fill="black"/>
<defs>
<linearGradient id="paint0_linear_677_25058" x1="5.97133" y1="0.5005" x2="16.8732" y2="23.6222" gradientUnits="userSpaceOnUse">
<stop stop-color="#4A47D3"/>
<stop offset="1" stop-color="#C1F6FF"/>
</linearGradient>
<linearGradient id="paint1_linear_677_25058" x1="7.80319" y1="4.03299" x2="15.3359" y2="20.0732" gradientUnits="userSpaceOnUse">
<stop stop-color="#4A47D3"/>
<stop offset="1" stop-color="#C1F6FF"/>
</linearGradient>
</defs>
</svg>
