<svg width="25" height="23" viewBox="0 0 25 23" fill="none" xmlns="http://www.w3.org/2000/svg">
<path d="M0.219132 7.88108L0.105124 21.0679C0.095061 22.2319 1.47966 22.8461 2.33572 22.0573L6.40128 18.3113C6.44807 18.2682 6.50952 18.2445 6.57314 18.2451L14.999 18.3179C19.9261 18.3605 23.9549 14.4008 23.9975 9.47369C24.0401 4.54655 20.0804 0.517773 15.1533 0.475175L7.81873 0.411764C3.65757 0.375788 0.255107 3.71991 0.219132 7.88108Z" fill="white"/>
<path d="M11.3814 15.9111C11.7531 15.9127 12.1173 15.81 12.4296 15.6156C12.7419 15.4211 12.9889 15.1433 13.1406 14.816C13.1581 14.7796 13.1658 14.7396 13.1629 14.6996C13.16 14.6597 13.1466 14.6211 13.124 14.5874C13.1015 14.5538 13.0704 14.5262 13.0338 14.5073C12.9972 14.4884 12.9562 14.4788 12.9146 14.4794L9.86176 14.4649C9.82029 14.464 9.77928 14.4733 9.74256 14.4919C9.70585 14.5105 9.67461 14.5378 9.65179 14.5712C9.62896 14.6046 9.61529 14.643 9.61205 14.6829C9.60881 14.7228 9.6161 14.7628 9.63325 14.7993C9.78174 15.128 10.026 15.4081 10.3363 15.6054C10.6467 15.8028 11.0097 15.909 11.3814 15.9111Z" fill="#6F3FF5"/>
<path d="M16.0827 12.7133C15.8443 12.7122 15.616 12.6197 15.4482 12.4563C15.2804 12.2928 15.1867 12.0717 15.1878 11.8417L15.2028 8.6904C15.2065 7.8778 14.9293 7.08709 14.4151 6.4433C13.9009 5.79951 13.1791 5.33937 12.3636 5.13562C12.3347 4.91456 12.2233 4.71121 12.0502 4.56365C11.8771 4.4161 11.6542 4.33445 11.4233 4.33401C11.1924 4.33356 10.9692 4.41434 10.7956 4.56123C10.622 4.70811 10.5099 4.91103 10.4802 5.13198C9.75125 5.31212 9.09444 5.69759 8.59348 6.23925C8.09253 6.78091 7.7701 7.45426 7.6673 8.17348C7.66719 8.19537 7.66096 8.21664 7.6584 8.23852C7.65584 8.2604 7.65137 8.29766 7.64878 8.32723C7.64619 8.3568 7.64359 8.38638 7.641 8.41536C7.63841 8.44434 7.6377 8.46445 7.63636 8.4893C7.63612 8.53959 7.6322 8.58927 7.63134 8.64015L7.61628 11.805C7.61519 12.034 7.52035 12.2532 7.35243 12.4148C7.1845 12.5765 6.95711 12.6676 6.71983 12.6682C6.6641 12.6673 6.60874 12.677 6.55691 12.6968C6.50507 12.7165 6.45779 12.7459 6.41774 12.7833C6.3777 12.8207 6.34569 12.8653 6.32353 12.9147C6.30137 12.964 6.28951 13.0171 6.28861 13.0708L6.28859 13.0744C6.28808 13.1827 6.33217 13.2867 6.41116 13.3637C6.49015 13.4406 6.59758 13.4841 6.70981 13.4847L16.0788 13.5293C16.1882 13.5258 16.2919 13.4815 16.3682 13.4058C16.4444 13.3301 16.4873 13.2288 16.4878 13.1232C16.4883 13.0177 16.4464 12.916 16.3709 12.8396C16.2953 12.7631 16.1921 12.7179 16.0827 12.7133Z" fill="#6F3FF5"/>
<path d="M14.0846 4.50655C14.6024 4.61506 15.0714 4.87863 15.4246 5.25963C15.7778 5.64064 15.9972 6.11959 16.0514 6.62813C16.054 6.65557 16.0622 6.68223 16.0755 6.70659C16.0889 6.73095 16.1071 6.75251 16.1291 6.77002C16.1512 6.78754 16.1766 6.80066 16.2039 6.80863C16.2312 6.8166 16.2599 6.81925 16.2884 6.81645C16.3456 6.81092 16.3984 6.78392 16.4352 6.74126C16.4534 6.72002 16.467 6.69552 16.4753 6.66919C16.4836 6.64285 16.4864 6.61519 16.4836 6.5878C16.4243 5.98861 16.1682 5.4234 15.7527 4.97448C15.3372 4.52556 14.784 4.21639 14.1736 4.09198C14.1587 4.08904 14.1435 4.08752 14.1282 4.08744C14.0747 4.0878 14.0232 4.10722 13.9835 4.14199C13.9439 4.17676 13.919 4.22441 13.9136 4.27581C13.9082 4.3272 13.9227 4.3787 13.9543 4.42041C13.9858 4.46213 14.0322 4.49112 14.0846 4.50181L14.0846 4.50655Z" fill="#6F3FF5"/>
<path d="M14.3222 3.15476C15.1281 3.32295 15.8581 3.73272 16.4079 4.32548C16.9577 4.91824 17.2991 5.66361 17.3832 6.45499C17.3859 6.4824 17.3941 6.50903 17.4075 6.53335C17.4209 6.55767 17.4391 6.5792 17.4611 6.5967C17.4831 6.6142 17.5085 6.62732 17.5358 6.63532C17.5631 6.64332 17.5918 6.64604 17.6202 6.64331C17.6774 6.63779 17.7302 6.61079 17.767 6.56812C17.7852 6.54688 17.7988 6.52239 17.8071 6.49605C17.8154 6.46972 17.8182 6.44206 17.8154 6.41467C17.7255 5.53365 17.3472 4.70323 16.7352 4.04374C16.1233 3.38425 15.3095 2.92996 14.4118 2.7467C14.3968 2.74376 14.3816 2.74224 14.3664 2.74216C14.3128 2.74237 14.2612 2.76169 14.2214 2.79642C14.1817 2.83114 14.1567 2.8788 14.1512 2.93024C14.1457 2.98167 14.1602 3.03324 14.1917 3.07502C14.2233 3.1168 14.2697 3.14583 14.3222 3.15654L14.3222 3.15476Z" fill="#6F3FF5"/>
<path d="M8.65893 4.53013C8.71121 4.51898 8.75739 4.48959 8.78859 4.44761C8.81979 4.40562 8.83381 4.354 8.82796 4.30265C8.82211 4.25131 8.7968 4.20387 8.75689 4.16944C8.71699 4.13502 8.6653 4.11604 8.61176 4.11615C8.59651 4.11636 8.58132 4.11801 8.5664 4.12108C7.95811 4.2504 7.40831 4.56338 6.99682 5.01458C6.58532 5.46579 6.33354 6.03173 6.27802 6.63026C6.27545 6.65767 6.27851 6.68531 6.28705 6.71157C6.29558 6.73783 6.30941 6.76221 6.32774 6.78329C6.34595 6.80451 6.36839 6.82198 6.39373 6.83468C6.41906 6.84737 6.44679 6.85504 6.47525 6.85721C6.50368 6.85977 6.53236 6.85686 6.55962 6.84866C6.58689 6.84045 6.61219 6.82711 6.63408 6.80941C6.65596 6.7917 6.67399 6.76999 6.68711 6.74552C6.70024 6.72105 6.7082 6.69431 6.71055 6.66685C6.76075 6.15818 6.97615 5.67774 7.32602 5.29405C7.6759 4.91036 8.14237 4.64301 8.65893 4.53013Z" fill="#6F3FF5"/>
<path d="M8.40973 3.18027C8.46201 3.16912 8.50819 3.13973 8.53939 3.09775C8.57059 3.05576 8.58461 3.00414 8.57876 2.95279C8.57291 2.90145 8.5476 2.85401 8.50769 2.81959C8.46779 2.78516 8.4161 2.76618 8.36256 2.76629C8.34731 2.76647 8.33211 2.76812 8.3172 2.77122C7.42113 2.96222 6.61129 3.42353 6.00504 4.08828C5.3988 4.75304 5.02764 5.5867 4.94536 6.46846C4.94279 6.49587 4.94586 6.5235 4.95439 6.54977C4.96292 6.57603 4.97676 6.6004 4.99509 6.62149C5.0133 6.64271 5.03573 6.66018 5.06107 6.67288C5.08641 6.68557 5.11413 6.69323 5.1426 6.69541C5.17101 6.69789 5.19966 6.69493 5.22689 6.68669C5.25411 6.67846 5.27939 6.66511 5.30125 6.64742C5.32312 6.62973 5.34115 6.60804 5.3543 6.58361C5.36745 6.55918 5.37547 6.53248 5.37789 6.50505C5.4556 5.71339 5.79063 4.9656 6.33513 4.36849C6.87962 3.77138 7.60573 3.35551 8.40973 3.18027Z" fill="#6F3FF5"/>
</svg>
