<svg width="201" height="32" viewBox="0 0 201 32" fill="none" xmlns="http://www.w3.org/2000/svg">
<path d="M43.125 15.745H43.68C44.26 15.745 44.705 15.625 45.015 15.385C45.325 15.145 45.48 14.8 45.48 14.35C45.48 13.9 45.325 13.555 45.015 13.315C44.705 13.075 44.26 12.955 43.68 12.955H43.125V15.745ZM49.59 22H45.93L43.125 17.65V22H40.185V10.69H44.76C45.39 10.69 45.94 10.785 46.41 10.975C46.88 11.155 47.265 11.405 47.565 11.725C47.875 12.045 48.105 12.415 48.255 12.835C48.415 13.255 48.495 13.705 48.495 14.185C48.495 15.045 48.285 15.745 47.865 16.285C47.455 16.815 46.845 17.175 46.035 17.365L49.59 22ZM53.9297 16.345C53.9297 16.795 54.0147 17.21 54.1847 17.59C54.3547 17.97 54.5847 18.3 54.8747 18.58C55.1647 18.86 55.4997 19.08 55.8797 19.24C56.2697 19.39 56.6797 19.465 57.1097 19.465C57.5397 19.465 57.9447 19.39 58.3247 19.24C58.7147 19.08 59.0547 18.86 59.3447 18.58C59.6447 18.3 59.8797 17.97 60.0497 17.59C60.2197 17.21 60.3047 16.795 60.3047 16.345C60.3047 15.895 60.2197 15.48 60.0497 15.1C59.8797 14.72 59.6447 14.39 59.3447 14.11C59.0547 13.83 58.7147 13.615 58.3247 13.465C57.9447 13.305 57.5397 13.225 57.1097 13.225C56.6797 13.225 56.2697 13.305 55.8797 13.465C55.4997 13.615 55.1647 13.83 54.8747 14.11C54.5847 14.39 54.3547 14.72 54.1847 15.1C54.0147 15.48 53.9297 15.895 53.9297 16.345ZM50.8547 16.345C50.8547 15.505 51.0097 14.725 51.3197 14.005C51.6297 13.275 52.0597 12.64 52.6097 12.1C53.1597 11.56 53.8147 11.14 54.5747 10.84C55.3447 10.53 56.1897 10.375 57.1097 10.375C58.0197 10.375 58.8597 10.53 59.6297 10.84C60.3997 11.14 61.0597 11.56 61.6097 12.1C62.1697 12.64 62.6047 13.275 62.9147 14.005C63.2247 14.725 63.3797 15.505 63.3797 16.345C63.3797 17.185 63.2247 17.97 62.9147 18.7C62.6047 19.42 62.1697 20.05 61.6097 20.59C61.0597 21.13 60.3997 21.555 59.6297 21.865C58.8597 22.165 58.0197 22.315 57.1097 22.315C56.1897 22.315 55.3447 22.165 54.5747 21.865C53.8147 21.555 53.1597 21.13 52.6097 20.59C52.0597 20.05 51.6297 19.42 51.3197 18.7C51.0097 17.97 50.8547 17.185 50.8547 16.345ZM68.9268 10.69V16.84C68.9268 17.17 68.9368 17.51 68.9568 17.86C68.9868 18.2 69.0618 18.51 69.1818 18.79C69.3118 19.07 69.5118 19.3 69.7818 19.48C70.0518 19.65 70.4318 19.735 70.9218 19.735C71.4118 19.735 71.7868 19.65 72.0468 19.48C72.3168 19.3 72.5168 19.07 72.6468 18.79C72.7768 18.51 72.8518 18.2 72.8718 17.86C72.9018 17.51 72.9168 17.17 72.9168 16.84V10.69H75.8418V17.245C75.8418 19.005 75.4368 20.29 74.6268 21.1C73.8268 21.91 72.5918 22.315 70.9218 22.315C69.2518 22.315 68.0118 21.91 67.2018 21.1C66.3918 20.29 65.9868 19.005 65.9868 17.245V10.69H68.9268ZM78.9682 22V10.69H81.9082L87.3382 17.605V10.69H90.2632V22H87.3382L81.9082 15.085V22H78.9682ZM96.3252 19.51H97.0002C97.5102 19.51 97.9652 19.43 98.3652 19.27C98.7652 19.11 99.1002 18.89 99.3702 18.61C99.6502 18.33 99.8602 18 100 17.62C100.15 17.23 100.225 16.805 100.225 16.345C100.225 15.895 100.15 15.475 100 15.085C99.8502 14.695 99.6352 14.36 99.3552 14.08C99.0852 13.8 98.7502 13.58 98.3502 13.42C97.9502 13.26 97.5002 13.18 97.0002 13.18H96.3252V19.51ZM93.3852 10.69H97.7352C98.5052 10.69 99.2252 10.845 99.8952 11.155C100.575 11.465 101.165 11.88 101.665 12.4C102.175 12.91 102.575 13.51 102.865 14.2C103.155 14.88 103.3 15.595 103.3 16.345C103.3 17.085 103.155 17.8 102.865 18.49C102.585 19.17 102.19 19.77 101.68 20.29C101.18 20.81 100.59 21.225 99.9102 21.535C99.2402 21.845 98.5152 22 97.7352 22H93.3852V10.69ZM111.265 22L113.185 10.69H116.095L118.36 16.72L120.61 10.69H123.52L125.44 22H122.515L121.54 15.49L118.87 22H117.7L115.165 15.49L114.19 22H111.265ZM134.202 17.8L132.882 14.035L131.562 17.8H134.202ZM134.982 20.035H130.782L130.107 22H126.972L131.277 10.69H134.487L138.792 22H135.657L134.982 20.035ZM140.829 22V10.69H143.769L149.199 17.605V10.69H152.124V22H149.199L143.769 15.085V22H140.829ZM161.425 17.8L160.105 14.035L158.785 17.8H161.425ZM162.205 20.035H158.005L157.33 22H154.195L158.5 10.69H161.71L166.015 22H162.88L162.205 20.035ZM173.19 15.67H179.025C179.025 16.27 179 16.815 178.95 17.305C178.9 17.795 178.8 18.25 178.65 18.67C178.44 19.26 178.155 19.785 177.795 20.245C177.435 20.695 177.01 21.075 176.52 21.385C176.04 21.685 175.51 21.915 174.93 22.075C174.35 22.235 173.74 22.315 173.1 22.315C172.22 22.315 171.415 22.17 170.685 21.88C169.965 21.59 169.345 21.185 168.825 20.665C168.305 20.135 167.9 19.505 167.61 18.775C167.32 18.035 167.175 17.22 167.175 16.33C167.175 15.45 167.315 14.645 167.595 13.915C167.885 13.175 168.29 12.545 168.81 12.025C169.34 11.505 169.975 11.1 170.715 10.81C171.455 10.52 172.28 10.375 173.19 10.375C174.37 10.375 175.405 10.63 176.295 11.14C177.185 11.65 177.89 12.44 178.41 13.51L175.62 14.665C175.36 14.045 175.02 13.6 174.6 13.33C174.19 13.06 173.72 12.925 173.19 12.925C172.75 12.925 172.35 13.01 171.99 13.18C171.63 13.34 171.32 13.575 171.06 13.885C170.81 14.185 170.61 14.55 170.46 14.98C170.32 15.41 170.25 15.89 170.25 16.42C170.25 16.9 170.31 17.345 170.43 17.755C170.56 18.165 170.75 18.52 171 18.82C171.25 19.12 171.56 19.355 171.93 19.525C172.3 19.685 172.73 19.765 173.22 19.765C173.51 19.765 173.79 19.735 174.06 19.675C174.33 19.605 174.57 19.5 174.78 19.36C175 19.21 175.18 19.02 175.32 18.79C175.46 18.56 175.555 18.28 175.605 17.95H173.19V15.67ZM188.068 13.18H184.573V15.07H187.873V17.56H184.573V19.51H188.068V22H181.633V10.69H188.068V13.18ZM193.878 15.745H194.433C195.013 15.745 195.458 15.625 195.768 15.385C196.078 15.145 196.233 14.8 196.233 14.35C196.233 13.9 196.078 13.555 195.768 13.315C195.458 13.075 195.013 12.955 194.433 12.955H193.878V15.745ZM200.343 22H196.683L193.878 17.65V22H190.938V10.69H195.513C196.143 10.69 196.693 10.785 197.163 10.975C197.633 11.155 198.018 11.405 198.318 11.725C198.628 12.045 198.858 12.415 199.008 12.835C199.168 13.255 199.248 13.705 199.248 14.185C199.248 15.045 199.038 15.745 198.618 16.285C198.208 16.815 197.598 17.175 196.788 17.365L200.343 22Z" fill="white"/>
<circle cx="16" cy="16" r="16" fill="white"/>
<circle cx="16" cy="16" r="13" fill="#0E0333"/>
<circle cx="16" cy="16" r="8" fill="white"/>
<circle cx="24" cy="24" r="8" fill="#6F3FF5"/>
<circle cx="4" cy="4" r="4" fill="#FFCC00"/>
<circle cx="14" cy="14" r="2" fill="#02E2AC"/>
</svg>
