<svg width="22" height="18" viewBox="0 0 22 18" fill="none" xmlns="http://www.w3.org/2000/svg">
<g id="Grabber 2-20 1" clip-path="url(#clip0_244_6145)">
<path id="Vector" d="M1.45683 7.77664C7.14546 5.29287 10.9388 3.65542 12.8368 2.86428C18.2559 0.605433 19.382 0.213046 20.1159 0.200089C20.2773 0.19724 20.6383 0.237331 20.8721 0.427449C21.0695 0.587981 21.1238 0.804836 21.1498 0.957038C21.1758 1.10924 21.2081 1.45596 21.1824 1.72688C20.8888 4.81907 19.6181 12.323 18.9716 15.7863C18.6981 17.2518 18.1595 17.7431 17.638 17.7912C16.5048 17.8957 15.6443 17.0407 14.5468 16.3197C12.8293 15.1915 11.8591 14.4892 10.192 13.3882C8.26538 12.1159 9.51432 11.4166 10.6123 10.2737C10.8996 9.97466 15.8925 5.42349 15.9892 5.01063C16.0012 4.959 16.0125 4.76652 15.8984 4.66489C15.7843 4.56326 15.6159 4.59801 15.4943 4.62566C15.3221 4.66483 12.5784 6.48218 7.26336 10.0777C6.48458 10.6136 5.77919 10.8747 5.14718 10.8611C4.45044 10.846 3.11019 10.4663 2.11386 10.1417C0.891816 9.74361 -0.0794408 9.53313 0.00513392 8.85705C0.0491856 8.50491 0.533084 8.14477 1.45683 7.77664Z" fill="black"/>
</g>
<defs>
<clipPath id="clip0_244_6145">
<rect width="22" height="17.6" fill="white" transform="translate(0 0.199951)"/>
</clipPath>
</defs>
</svg>
