<svg width="100%" height="100%" viewBox="0 0 1280 671" fill="none" xmlns="http://www.w3.org/2000/svg">
<rect width="1280" height="671" fill="white"/>
<rect width="1280" height="671" fill="url(#paint0_linear_1583_57931)"/>
<path d="M498.358 320.384C498.973 321.491 498.604 322.722 497.498 323.337C496.391 323.952 495.162 323.583 494.547 322.476C493.933 321.368 494.301 320.138 495.408 319.523C496.514 319.031 497.866 319.4 498.358 320.384Z" fill="white"/>
<path d="M591.42 196.126C590.806 195.142 591.174 193.789 592.281 193.174C593.387 192.558 594.617 192.927 595.231 194.035C595.846 195.142 595.477 196.372 594.371 196.987C593.387 197.603 592.035 197.233 591.42 196.126Z" fill="white"/>
<path d="M660.876 207.077C661.49 208.184 661.122 209.414 660.015 210.029C658.909 210.645 657.679 210.276 657.065 209.168C656.45 208.184 656.819 206.831 657.925 206.216C658.909 205.723 660.261 206.093 660.876 207.077Z" fill="white"/>
<path d="M707.345 130.799C707.959 131.906 707.59 133.136 706.484 133.751C705.378 134.366 704.148 133.997 703.534 132.89C702.919 131.783 703.288 130.553 704.394 129.937C705.5 129.322 706.73 129.691 707.345 130.799Z" fill="white"/>
<path d="M723.079 390.759C723.694 391.743 723.325 393.097 722.218 393.712C721.112 394.327 719.883 393.958 719.268 392.85C718.653 391.743 719.022 390.513 720.128 389.898C721.235 389.283 722.587 389.652 723.079 390.759Z" fill="white"/>
<path d="M993.487 366.139C994.516 367.785 993.898 370.048 992.046 371.077C990.195 372.106 988.137 371.489 987.108 369.637C986.079 367.785 986.697 365.727 988.549 364.698C990.4 363.67 992.664 364.287 993.487 366.139Z" fill="white"/>
<path d="M992.854 551.968C993.413 552.862 993.077 554.09 992.072 554.649C991.067 555.208 989.95 554.872 989.391 553.867C988.832 552.862 989.168 551.745 990.173 551.186C991.178 550.628 992.407 550.963 992.854 551.968Z" fill="white"/>
<path d="M153.001 317.458C153.615 318.565 153.247 319.795 152.14 320.41C151.034 321.025 149.804 320.656 149.19 319.549C148.575 318.442 148.944 317.211 150.05 316.596C151.157 316.104 152.509 316.473 153.001 317.458Z" fill="white"/>
<path d="M246.063 193.198C245.448 192.214 245.817 190.861 246.923 190.246C248.03 189.631 249.259 190 249.874 191.107C250.488 192.214 250.12 193.445 249.013 194.06C248.03 194.675 246.678 194.306 246.063 193.198Z" fill="white"/>
<path d="M149.19 462.141C148.575 461.157 148.944 459.803 150.05 459.188C151.157 458.573 152.386 458.942 153.001 460.049C153.615 461.157 153.247 462.387 152.14 463.002C151.157 463.617 149.804 463.248 149.19 462.141Z" fill="white"/>
<path d="M315.518 204.149C316.133 205.256 315.764 206.486 314.658 207.101C313.551 207.716 312.322 207.347 311.707 206.24C311.093 205.256 311.462 203.902 312.568 203.287C313.551 202.795 314.904 203.164 315.518 204.149Z" fill="white"/>
<path d="M385.063 395.953C385.678 397.06 385.309 398.291 384.203 398.906C383.096 399.521 381.867 399.152 381.252 398.045C380.638 397.06 381.006 395.707 382.113 395.092C383.096 394.6 384.449 394.969 385.063 395.953Z" fill="white"/>
<path d="M361.987 127.871C362.602 128.978 362.233 130.208 361.127 130.824C360.02 131.439 358.791 131.07 358.176 129.962C357.561 128.855 357.93 127.625 359.037 127.01C360.143 126.395 361.372 126.764 361.987 127.871Z" fill="white"/>
<path d="M171.997 183.095C172.612 184.079 172.243 185.433 171.136 186.048C170.03 186.663 168.801 186.294 168.186 185.187C167.571 184.08 167.94 182.849 169.046 182.234C170.153 181.619 171.505 181.988 171.997 183.095Z" fill="white"/>
<path d="M783.417 457.242C784.031 458.35 783.663 459.58 782.556 460.195C781.45 460.81 780.22 460.441 779.606 459.334C778.991 458.227 779.36 456.996 780.466 456.381C781.573 455.889 782.925 456.258 783.417 457.242Z" fill="white"/>
<path d="M333.291 278.858C332.677 277.874 333.045 276.521 334.152 275.906C335.258 275.291 336.488 275.66 337.102 276.767C337.717 277.874 337.348 279.104 336.242 279.72C335.258 280.335 333.906 279.966 333.291 278.858Z" fill="white"/>
<path d="M245.731 357.08C246.346 358.187 245.977 359.418 244.871 360.033C243.764 360.648 242.535 360.279 241.92 359.172C241.306 358.187 241.674 356.834 242.781 356.219C243.764 355.727 245.117 356.096 245.731 357.08Z" fill="white"/>
<path d="M923.501 189.56C924.115 190.668 923.747 191.898 922.64 192.513C921.534 193.128 920.304 192.759 919.69 191.652C919.075 190.545 919.444 189.314 920.55 188.699C921.657 188.084 922.886 188.453 923.501 189.56Z" fill="white"/>
<path d="M317.044 476.054C317.658 477.161 317.29 478.391 316.183 479.006C315.077 479.622 313.847 479.253 313.233 478.145C312.618 477.038 312.987 475.808 314.093 475.193C315.2 474.577 316.429 474.947 317.044 476.054Z" fill="white"/>
<path d="M1008.14 527.616C1008.75 528.6 1008.38 529.953 1007.28 530.569C1006.17 531.184 1004.94 530.815 1004.33 529.707C1003.71 528.6 1004.08 527.37 1005.19 526.755C1006.29 526.139 1007.65 526.509 1008.14 527.616Z" fill="white"/>
<path d="M256.643 76.3858C257.258 77.4931 256.889 78.7234 255.783 79.3386C254.676 79.9537 253.447 79.5846 252.832 78.4773C252.218 77.3701 252.586 76.1398 253.693 75.5246C254.799 75.0325 256.152 75.4016 256.643 76.3858Z" fill="white"/>
<path d="M990.467 117.267C989.852 116.283 990.221 114.929 991.328 114.314C992.434 113.699 993.663 114.068 994.278 115.175C994.893 116.283 994.524 117.513 993.418 118.128C992.434 118.743 991.082 118.374 990.467 117.267Z" fill="white"/>
<path d="M1059.93 128.216C1060.54 129.323 1060.17 130.554 1059.07 131.169C1057.96 131.784 1056.73 131.415 1056.12 130.308C1055.5 129.323 1055.87 127.97 1056.98 127.355C1057.96 126.863 1059.31 127.232 1059.93 128.216Z" fill="white"/>
<path d="M1106.4 51.9385C1107.01 53.0458 1106.64 54.2761 1105.54 54.8912C1104.43 55.5064 1103.2 55.1373 1102.59 54.03C1101.97 52.9228 1102.34 51.6925 1103.45 51.0773C1104.55 50.4622 1105.78 50.8313 1106.4 51.9385Z" fill="white"/>
<path d="M1122.13 311.899C1122.75 312.883 1122.38 314.237 1121.27 314.852C1120.16 315.467 1118.94 315.098 1118.32 313.99C1117.71 312.883 1118.07 311.653 1119.18 311.038C1120.29 310.423 1121.64 310.792 1122.13 311.899Z" fill="white"/>
<path d="M439.708 243.251C440.322 244.358 439.954 245.589 438.847 246.204C437.741 246.819 436.511 246.45 435.897 245.342C435.282 244.235 435.651 243.005 436.757 242.39C437.864 241.898 439.216 242.267 439.708 243.251Z" fill="white"/>
<path d="M532.77 118.992C532.155 118.008 532.524 116.655 533.63 116.04C534.737 115.425 535.966 115.794 536.581 116.901C537.196 118.008 536.827 119.238 535.72 119.854C534.737 120.469 533.385 120.1 532.77 118.992Z" fill="white"/>
<path d="M602.231 129.942C602.846 131.049 602.477 132.28 601.371 132.895C600.264 133.51 599.035 133.141 598.42 132.033C597.806 131.049 598.174 129.696 599.281 129.081C600.264 128.589 601.617 128.958 602.231 129.942Z" fill="white"/>
<path d="M648.698 53.6644C649.313 54.7716 648.944 56.0019 647.837 56.6171C646.731 57.2322 645.502 56.8631 644.887 55.7559C644.272 54.6486 644.641 53.4183 645.748 52.8032C646.854 52.188 648.083 52.5571 648.698 53.6644Z" fill="white"/>
<path d="M664.434 313.625C665.049 314.609 664.68 315.962 663.574 316.577C662.467 317.193 661.238 316.823 660.623 315.716C660.009 314.609 660.377 313.379 661.484 312.763C662.59 312.148 663.943 312.517 664.434 313.625Z" fill="white"/>
<path d="M280.18 272.849C280.18 276.291 277.39 279.018 274.016 279.018C270.577 279.018 267.787 276.226 267.787 272.849C267.787 269.408 270.577 266.681 274.016 266.681C277.455 266.616 280.18 269.408 280.18 272.849Z" fill="#D8FFF6"/>
<path d="M267.723 272.848C267.723 276.289 270.578 279.146 274.017 279.146C275.963 279.146 277.715 278.237 278.883 276.809C278.494 276.874 278.104 276.874 277.715 276.874C273.303 276.874 269.67 273.237 269.67 268.822C269.67 268.627 269.67 268.497 269.67 268.303C268.437 269.471 267.723 271.095 267.723 272.848Z" fill="#CBFFF1"/>
<path d="M274.016 266.29C270.447 266.29 267.528 269.211 267.528 272.783C267.528 276.354 270.447 279.276 274.016 279.276C277.584 279.276 280.504 276.354 280.504 272.783C280.504 269.211 277.584 266.29 274.016 266.29ZM274.016 278.562C270.837 278.562 268.306 276.029 268.306 272.848C268.306 269.666 270.901 267.134 274.016 267.134C277.195 267.134 279.725 269.666 279.725 272.848C279.725 275.964 277.195 278.562 274.016 278.562Z" fill="white"/>
<path d="M866.172 104.747C867.895 107.194 868.84 110.142 868.84 113.312C868.84 121.543 862.115 128.273 853.89 128.273C851.112 128.273 848.444 127.494 846.221 126.104C841.887 123.49 838.941 118.707 838.941 113.312C838.941 105.081 845.666 98.3511 853.89 98.3511C858.892 98.3511 863.282 100.798 866.006 104.58H866.061C866.117 104.524 866.117 104.636 866.172 104.747Z" fill="#FFEEA9"/>
<path d="M850.556 124.546C850.778 124.49 850.945 124.379 851.167 124.268C851.834 124.212 852.446 124.101 853.057 123.934C852.89 123.934 852.723 123.878 852.668 123.823C855.002 122.544 858.114 120.263 860.726 116.982C865.339 111.253 866.006 107.805 865.95 106.192C866.172 106.248 866.395 106.248 866.617 106.192C866.617 106.304 866.617 106.415 866.617 106.526C866.561 108.417 865.617 111.921 861.282 117.371C859.003 120.263 856.614 122.21 854.502 123.545C861.504 121.543 866.839 115.592 868.006 108.306C868.562 109.863 868.84 111.532 868.84 113.256C868.84 121.543 862.115 128.272 853.835 128.272C851.056 128.272 848.444 127.493 846.166 126.159C847.666 125.658 849.111 124.935 850.556 124.546Z" fill="#FFE394"/>
<path d="M866.285 104.691C866.229 104.635 866.174 104.579 866.118 104.468C863.395 100.631 858.949 98.1836 853.892 98.1836C845.556 98.1836 838.831 104.969 838.831 113.311C838.831 118.817 841.777 123.6 846.167 126.27C848.445 127.66 851.057 128.439 853.892 128.439C862.228 128.439 869.008 121.654 869.008 113.311C869.008 110.086 868.007 107.138 866.285 104.691ZM853.892 127.716C851.502 127.716 849.279 127.16 847.278 126.103C846.945 125.936 846.611 125.714 846.278 125.547C844.555 124.49 843.11 123.044 841.943 121.376C841.777 121.153 841.665 120.931 841.499 120.708C840.22 118.539 839.442 115.981 839.442 113.256C839.442 105.302 845.889 98.851 853.836 98.851C856.003 98.851 858.06 99.3515 859.949 100.186C860.227 100.297 860.449 100.408 860.727 100.575C862.672 101.632 864.395 103.133 865.673 104.969C865.951 105.358 866.229 105.803 866.451 106.248C867.618 108.306 868.285 110.753 868.285 113.311C868.341 121.264 861.894 127.716 853.892 127.716Z" fill="white"/>
<path d="M841.498 121.432V120.765C841.554 120.765 848.723 120.487 855.225 112.033C861.672 103.69 859.949 100.298 859.949 100.242L860.56 99.9084C860.671 100.075 862.561 103.69 855.781 112.422C849.056 121.154 841.832 121.432 841.498 121.432Z" fill="white"/>
<path d="M866.508 106.249C866.452 108.14 865.507 111.699 861.117 117.15C855.615 123.991 849.78 125.659 847.335 126.104C846.668 126.215 846.223 126.215 846.168 126.215V125.548C846.168 125.548 846.223 125.548 846.335 125.548C847.502 125.437 854.337 124.547 860.561 116.76C866.341 109.475 865.952 105.915 865.674 104.97C865.619 104.803 865.563 104.747 865.563 104.747L866.119 104.469H866.174C866.174 104.469 866.23 104.58 866.286 104.692C866.397 104.914 866.508 105.47 866.508 106.249Z" fill="white"/>
<path d="M419.915 171.387C419.656 174.05 418.358 176.452 416.282 178.14C414.206 179.829 411.545 180.608 408.95 180.283C406.42 180.023 404.149 178.855 402.527 176.972C402.397 176.842 402.332 176.712 402.202 176.647C402.138 176.517 402.008 176.387 401.943 176.257C400.451 174.244 399.802 171.777 400.061 169.245C400.321 166.583 401.619 164.18 403.695 162.492C405.511 161.063 407.717 160.284 409.988 160.284C410.378 160.284 410.702 160.284 411.091 160.349C413.751 160.609 416.152 161.907 417.839 164.05C418.942 165.414 419.656 166.972 419.915 168.595C419.98 168.92 420.045 169.18 420.045 169.504C420.045 169.764 420.045 170.024 420.045 170.284C419.98 170.608 419.98 170.998 419.915 171.387Z" fill="#FFC2D1"/>
<path d="M399.931 170.479C399.931 172.557 400.645 174.569 401.878 176.258C401.943 176.388 402.072 176.517 402.137 176.647C402.202 176.777 402.332 176.907 402.462 176.972C404.084 178.855 406.355 180.024 408.885 180.283C411.545 180.543 414.14 179.829 416.217 178.141C418.098 176.647 419.331 174.569 419.785 172.167C419.136 173.271 418.228 174.31 417.19 175.154C414.854 177.037 411.999 177.881 409.08 177.556C406.29 177.232 403.824 175.933 402.008 173.855C401.878 173.725 401.748 173.595 401.683 173.466C401.553 173.336 401.489 173.206 401.359 173.076C400.775 172.232 400.256 171.388 399.931 170.479Z" fill="#FFB6CB"/>
<path d="M419.849 169.246C419.849 169.311 419.849 169.311 419.914 169.375C419.979 169.635 420.109 169.765 420.238 169.96C415.113 174.051 408.495 176.388 403.693 177.232C403.564 176.972 403.369 176.713 403.109 176.518C407.846 175.804 414.594 173.401 419.849 169.246Z" fill="#FFB6CB"/>
<path d="M420.693 168.856C420.628 168.531 420.628 168.207 420.563 167.947C420.238 166.648 419.719 165.415 419.006 164.311C418.876 164.051 418.681 163.856 418.487 163.662C416.735 161.454 414.14 159.896 411.155 159.571C408.3 159.246 405.445 160.09 403.239 161.908C400.969 163.726 399.606 166.324 399.282 169.181C399.217 169.635 399.217 170.09 399.217 170.479C399.217 170.739 399.217 170.999 399.217 171.258C399.347 173.077 399.995 174.765 400.969 176.323C401.163 176.583 401.358 176.843 401.553 177.102C403.369 179.375 405.965 180.738 408.819 181.063C409.209 181.063 409.598 181.128 409.987 181.128C412.453 181.128 414.788 180.284 416.735 178.726C417.838 177.817 418.746 176.713 419.46 175.479C420.109 174.245 420.563 172.882 420.693 171.453C420.822 170.544 420.758 169.7 420.693 168.856ZM419.914 171.388C419.655 174.051 418.357 176.453 416.281 178.141C414.205 179.829 411.544 180.609 408.949 180.284C406.419 180.024 404.148 178.855 402.526 176.972C402.396 176.843 402.331 176.713 402.201 176.648C402.137 176.518 402.007 176.388 401.942 176.258C400.45 174.245 399.801 171.778 400.06 169.246C400.32 166.583 401.617 164.181 403.694 162.493C405.51 161.064 407.716 160.285 409.987 160.285C410.376 160.285 410.701 160.285 411.09 160.35C413.75 160.61 416.151 161.908 417.838 164.051C418.941 165.415 419.655 166.973 419.914 168.596C419.979 168.921 420.044 169.181 420.044 169.505C420.044 169.765 420.044 170.025 420.044 170.285C419.979 170.609 419.979 170.999 419.914 171.388Z" fill="white"/>
<path d="M422.444 167.233C421.86 167.817 421.276 168.337 420.692 168.856C420.432 169.051 420.238 169.246 419.978 169.441C414.528 173.791 407.391 176.259 402.525 176.908C402.2 176.973 401.876 176.973 401.552 177.038C401.033 177.103 400.514 177.103 400.059 177.103H399.93C398.308 177.103 397.205 176.843 396.621 176.259C396.037 175.674 395.777 175.025 395.907 174.311C396.166 172.233 399.151 170.285 399.281 170.22L399.151 170.415L399.54 170.999C399.475 171.064 399.346 171.129 399.216 171.194C398.372 171.843 396.815 173.142 396.686 174.376C396.621 174.895 396.815 175.285 397.205 175.674C397.594 176.064 398.632 176.323 399.994 176.259C400.319 176.259 400.643 176.259 400.968 176.194C401.292 176.194 401.552 176.129 401.876 176.129C406.742 175.544 414.268 173.077 419.783 168.467C420.043 168.272 420.238 168.077 420.497 167.882C420.951 167.493 421.405 167.038 421.86 166.584C424.195 164.181 423.871 163.597 423.871 163.532C423.547 163.013 421.146 163.467 418.94 164.246C418.745 164.311 418.551 164.376 418.356 164.441L418.096 163.727C418.161 163.727 418.291 163.662 418.421 163.597C419.978 163.013 423.676 161.909 424.52 163.142C425.039 163.922 424.39 165.22 422.444 167.233Z" fill="white"/>
<rect x="257.355" y="334.76" width="333.281" height="272.64" fill="url(#paint1_linear_1583_57931)"/>
<rect x="258.588" y="335.993" width="330.816" height="270.175" stroke="white" stroke-width="2.4651"/>
<path d="M257.355 380.118L590.637 380.118" stroke="white" stroke-width="1.97208"/>
<circle cx="282.007" cy="357.439" r="6.90228" fill="#F9EEE1" stroke="white" stroke-width="1.97208"/>
<circle cx="304.685" cy="357.439" r="6.90228" fill="#FAEEE1" stroke="white" stroke-width="1.97208"/>
<circle cx="327.365" cy="357.439" r="6.90228" fill="#F9EFE2" stroke="white" stroke-width="1.97208"/>
<line x1="506.822" y1="513.727" x2="368.777" y2="513.727" stroke="white" stroke-width="1.97208"/>
<line x1="419.559" y1="528.517" x2="368.778" y2="528.517" stroke="white" stroke-width="1.97208"/>
<line x1="442.236" y1="528.517" x2="427.939" y2="528.517" stroke="white" stroke-width="1.97208"/>
<line x1="506.822" y1="528.517" x2="453.576" y2="528.517" stroke="white" stroke-width="1.97208"/>
<rect x="359.41" y="414.63" width="164.176" height="75.9251" fill="white"/>
<g filter="url(#filter0_b_1583_57931)">
<path d="M343.53 541.336C342.131 542.716 286.484 551.114 258.836 555.14V405.755L303.556 388.993C312.301 394.416 332.537 414.58 343.53 451.853C357.271 498.443 345.279 539.61 343.53 541.336Z" fill="url(#paint2_linear_1583_57931)"/>
</g>
<g filter="url(#filter1_b_1583_57931)">
<path d="M457.278 432.132C421.288 459.906 349.306 515.453 349.305 515.453L348.319 468.862L334.761 426.462L322.682 408.467L391.458 374.695L460.234 338.212L457.278 333.281L451.853 302.468L454.071 280.528L456.044 256.37L454.071 217.175L467.383 221.859L474.778 224.078L481.188 229.008L487.843 262.78L526.792 196.715L541.089 148.646L546.513 150.371L550.703 156.041L558.345 168.613L566.233 139.525L577.573 151.85L587.68 174.283L595.568 181.431L601.484 192.771L602.963 221.859L611.345 238.375L608.633 259.822L590.884 298.031L567.713 333.281L542.568 360.151L513.973 382.583L457.278 432.132Z" fill="url(#paint3_linear_1583_57931)"/>
</g>
<path d="M343.53 541.336C342.131 542.716 286.484 551.114 258.836 555.14V405.755L294.479 392.395C300.203 390.249 306.669 390.83 311.099 395.043C321.062 404.519 335.048 423.093 343.53 451.853C357.271 498.443 345.279 539.61 343.53 541.336Z" stroke="white" stroke-width="2.4651"/>
<path d="M586.348 172.465C593.993 177.42 607.775 193.288 601.741 217.117C594.199 246.903 578.608 279.208 571.761 279.725" stroke="white" stroke-width="2.4651"/>
<path d="M601.541 219.72C608.011 226.329 617.745 245.793 604.92 270.772C588.888 301.995 588.287 302.996 577.508 320.488C566.729 337.98 536.415 368.854 513.974 383.64C505.101 389.486 449.402 439.904 449.402 439.904L349.06 515.452" stroke="white" stroke-width="2.4651"/>
<path d="M523.93 248.27C541.197 255.192 575.449 272.679 574.321 287.253" stroke="white" stroke-width="2.4651"/>
<path d="M460.836 336.982C442.699 349.402 410.653 365.518 397.623 371.491L322.436 408.467M472.068 350.026C463.742 344.843 448.289 324.413 453.081 284.151C457.874 243.889 455.367 223.064 453.514 217.685C461.642 218.663 478.593 222.454 481.376 229.791C484.855 238.961 486.249 254.778 488.885 268.072C491.521 281.367 496.605 283.331 505.45 290.823C514.295 298.315 523.218 311.573 522.251 324.064" stroke="white" stroke-width="2.4651"/>
<path d="M488.106 262.907C499.834 244.441 525.874 201.504 530.846 185.971C535.819 170.438 539.124 153.449 540.155 146.897C546.253 149.289 558.159 157.82 556.999 172.811C555.548 191.549 543.093 239.15 531.114 251.837" stroke="white" stroke-width="2.4651"/>
<path d="M548.571 214.048L565.824 139.982C573.562 145.992 588.099 162.023 584.344 178.069C579.649 198.127 574.021 243.77 556.153 264.902" stroke="white" stroke-width="2.4651"/>
<rect width="333.281" height="272.64" transform="matrix(-1 0 0 1 974.607 297.592)" fill="url(#paint4_linear_1583_57931)"/>
<rect x="-1.23255" y="1.23255" width="330.816" height="270.175" transform="matrix(-1 0 0 1 972.142 297.592)" stroke="white" stroke-width="2.4651"/>
<path d="M974.607 342.949L641.326 342.949" stroke="white" stroke-width="1.97208"/>
<circle r="6.90228" transform="matrix(-1 0 0 1 949.957 320.271)" fill="#F9EEE1" stroke="white" stroke-width="1.97208"/>
<circle r="6.90228" transform="matrix(-1 0 0 1 927.278 320.271)" fill="#FAEEE1" stroke="white" stroke-width="1.97208"/>
<circle r="6.90228" transform="matrix(-1 0 0 1 904.598 320.271)" fill="#F9EFE2" stroke="white" stroke-width="1.97208"/>
<line x1="830.244" y1="370.746" x2="706.402" y2="370.746" stroke="white" stroke-width="3.09606"/>
<line x1="771.32" y1="398.61" x2="706.403" y2="398.61" stroke="white" stroke-width="3.09606"/>
<path d="M786.127 421.831L706.403 421.831" stroke="white" stroke-width="3.09606"/>
<line x1="813.99" y1="486.848" x2="706.402" y2="486.848" stroke="white" stroke-width="3.09606"/>
<line x1="822.504" y1="514.713" x2="776.063" y2="514.713" stroke="white" stroke-width="3.09606"/>
<line x1="741.232" y1="514.713" x2="706.402" y2="514.713" stroke="white" stroke-width="3.09606"/>
<path d="M786.125 537.933L706.401 537.933" stroke="white" stroke-width="3.09606"/>
<rect x="680.859" y="365.328" width="17.0283" height="59.5992" fill="white"/>
<rect x="680.859" y="481.43" width="17.0283" height="59.5992" fill="white"/>
<g filter="url(#filter2_b_1583_57931)">
<path d="M836.341 497.044C836.973 498.905 906.183 552.71 929.096 568.699L972.809 568.699L972.81 413.79L940.343 378.765C930.095 379.694 902.968 388.653 876.439 417.048C843.277 452.541 835.55 494.717 836.341 497.044Z" fill="url(#paint5_linear_1583_57931)"/>
</g>
<g filter="url(#filter3_b_1583_57931)">
<path d="M872.645 420.546L852.184 450.62L821.619 420.546L791.791 392.197L758.759 369.025L723.015 352.509L690.969 321.449L658.429 273.873L643.885 246.017L637.723 224.571L639.695 213.724L646.351 206.576L654.239 212.985L646.351 185.869L648.816 167.627L654.239 162.204L667.797 185.869L658.676 153.082L667.057 133.362L686.285 164.916L684.067 149.139L686.285 134.595L694.173 126.706L763.936 242.566L766.154 212.985L776.015 198.441L793.024 196.222L793.024 216.189L799.68 276.091L799.68 297.291L796.968 307.891L914.551 386.774L872.645 420.546Z" fill="url(#paint6_linear_1583_57931)"/>
</g>
<path d="M836.34 497.044C836.972 498.905 904.953 553.344 927.865 569.333L972.809 569.332L972.809 413.79L946.932 385.874C942.776 381.391 936.736 379.012 930.888 380.794C917.735 384.8 896.909 395.138 876.438 417.048C843.276 452.541 835.55 494.717 836.34 497.044Z" stroke="white" stroke-width="2.4651"/>
<path d="M797.707 308.631C798.94 309.864 861.8 351.77 861.8 351.77L915.783 387.513" stroke="white" stroke-width="2.4651"/>
<path d="M787.207 326.477C794.172 320.213 806.309 298.722 799.139 262.876C791.968 227.03 792.645 202.608 793.879 194.878C785.096 194.507 767.42 197.885 766.984 214.364C766.549 230.844 764.66 240.097 763.77 242.663L694.407 126.311C688.551 129.603 679.09 142.207 688.088 166.289C697.086 190.371 715.5 214.94 723.582 224.214" stroke="white" stroke-width="2.4651"/>
<path d="M690.492 172.167L667.839 133.678C662.258 138.38 653.966 154.171 665.44 179.726C676.914 205.28 697.392 234.618 706.196 246.092" stroke="white" stroke-width="2.4651"/>
<path d="M674.724 198.229L653.882 162.407C648.124 166.524 639.929 181.955 653.206 210.74C666.484 239.526 679.39 259.09 684.184 265.274" stroke="white" stroke-width="2.4651"/>
<path d="M655.865 216.561L647.127 206.365C640.915 209.069 631.618 220.94 644.123 246.795C659.755 279.115 659.167 273.874 684.475 311.38C693.222 324.343 714.682 351.902 743.222 361.485C766.054 369.152 800.881 399.525 815.441 413.753L852.431 450.742" stroke="white" stroke-width="2.4651"/>
<path d="M795.282 152.33L795.38 152.569L795.632 152.625L798.375 153.231C798.456 153.252 798.53 153.271 798.6 153.288L798.602 153.288C798.676 153.307 798.747 153.324 798.823 153.345L798.826 153.345C812.48 156.866 810.807 176.866 796.713 178.156L796.713 178.156L771.916 180.439L769.967 155.588L769.967 155.588C768.856 141.5 788.278 136.464 794.041 149.323L794.049 149.342L794.059 149.359C794.105 149.442 794.147 149.552 794.205 149.705L794.205 149.705L794.21 149.718L795.282 152.33Z" stroke="white" stroke-width="0.98604"/>
<path d="M528.096 88.9819L528.354 88.975L528.495 88.7594L530.035 86.4093C530.083 86.3418 530.127 86.2791 530.168 86.2193L530.169 86.2182C530.213 86.1551 530.254 86.0951 530.3 86.0308L530.302 86.0287C538.435 74.5102 556.543 83.1673 552.75 96.8024L552.75 96.8027L546.092 120.797L522.164 113.807L522.164 113.807C508.598 109.85 510.777 89.9041 524.844 89.0761L524.864 89.0749L524.884 89.072C524.978 89.0586 525.096 89.0577 525.259 89.0578L525.259 89.058L525.273 89.0576L528.096 88.9819Z" stroke="white" stroke-width="0.98604"/>
<path d="M515.206 159.738C509.043 151.193 493.809 132.277 482.174 124.98" stroke="white" stroke-width="2.4651"/>
<path d="M448.895 197.948C452.264 200.577 463.389 204.258 480.941 197.948" stroke="white" stroke-width="2.4651"/>
<path d="M615.043 110.436C616.851 103.37 623.128 85.6868 633.778 71.4878" stroke="white" stroke-width="2.4651"/>
<path d="M735.092 164.915C739.365 162.943 748.403 154.611 750.375 137.06" stroke="white" stroke-width="2.4651"/>
<path d="M722.494 100.997C716.024 101.54 712.307 102.039 710.026 103.688C707.344 105.619 706.708 109.156 706.003 116.23C705.273 108.896 704.615 105.38 701.674 103.493C699.392 102.017 695.699 101.54 689.512 101.019C695.958 100.476 699.698 99.9771 701.956 98.3496C704.662 96.3967 705.297 92.8813 706.003 85.7854C706.661 92.3171 707.25 95.8108 709.437 97.8289C711.625 99.8469 715.436 100.411 722.494 100.997Z" fill="white"/>
<path d="M561.56 242.776C558.077 243.047 556.075 243.297 554.847 244.122C553.403 245.087 553.061 246.856 552.681 250.393C552.288 246.726 551.933 244.968 550.35 244.024C549.121 243.286 547.132 243.047 543.801 242.787C547.272 242.516 549.286 242.266 550.502 241.453C551.959 240.476 552.301 238.718 552.681 235.17C553.035 238.436 553.352 240.183 554.53 241.192C555.708 242.201 557.76 242.483 561.56 242.776Z" fill="white"/>
<path d="M882.33 334.408C875.86 334.951 872.143 335.45 869.861 337.099C867.18 339.03 866.544 342.568 865.839 349.642C865.109 342.307 864.451 338.792 861.51 336.904C859.228 335.428 855.535 334.951 849.348 334.43C855.794 333.888 859.534 333.389 861.792 331.761C864.498 329.808 865.133 326.293 865.839 319.197C866.497 325.728 867.086 329.222 869.273 331.24C871.461 333.258 875.272 333.823 882.33 334.408Z" fill="white"/>
<path d="M278.505 151.739C272.036 152.281 268.319 152.78 266.037 154.43C263.355 156.361 262.72 159.898 262.014 166.972C261.285 159.638 260.626 156.122 257.686 154.234C255.404 152.759 251.711 152.281 245.523 151.76C251.969 151.218 255.71 150.719 257.968 149.091C260.674 147.138 261.309 143.623 262.014 136.527C262.673 143.059 263.261 146.552 265.449 148.571C267.637 150.589 271.448 151.153 278.505 151.739Z" fill="white"/>
<path d="M231.175 304.614C224.706 305.157 220.989 305.656 218.707 307.305C216.025 309.236 215.39 312.773 214.684 319.848C213.955 312.513 213.296 308.998 210.356 307.11C208.074 305.634 204.38 305.157 198.193 304.636C204.639 304.093 208.38 303.594 210.638 301.967C213.343 300.014 213.979 296.498 214.684 289.403C215.343 295.934 215.931 299.428 218.119 301.446C220.307 303.464 224.118 304.028 231.175 304.614Z" fill="white"/>
<path d="M933.072 145.395C926.603 145.983 922.886 146.523 920.604 148.31C917.922 150.402 917.287 154.234 916.581 161.898C915.852 153.952 915.193 150.143 912.252 148.098C909.97 146.5 906.277 145.983 900.09 145.418C906.536 144.831 910.276 144.29 912.535 142.527C915.24 140.411 915.875 136.603 916.581 128.916C917.24 135.992 917.828 139.776 920.016 141.963C922.203 144.149 926.014 144.76 933.072 145.395Z" fill="white"/>
<path d="M1090.37 224.044C1083.9 224.632 1080.18 225.173 1077.9 226.959C1075.22 229.052 1074.59 232.884 1073.88 240.547C1073.15 232.601 1072.49 228.793 1069.55 226.748C1067.27 225.149 1063.58 224.632 1057.39 224.068C1063.83 223.48 1067.57 222.94 1069.83 221.176C1072.54 219.061 1073.17 215.252 1073.88 207.565C1074.54 214.641 1075.13 218.426 1077.31 220.612C1079.5 222.799 1083.31 223.41 1090.37 224.044Z" fill="white"/>
<defs>
<filter id="filter0_b_1583_57931" x="247.428" y="377.584" width="114.025" height="188.964" filterUnits="userSpaceOnUse" color-interpolation-filters="sRGB">
<feFlood flood-opacity="0" result="BackgroundImageFix"/>
<feGaussianBlur in="BackgroundImageFix" stdDeviation="5.7041"/>
<feComposite in2="SourceAlpha" operator="in" result="effect1_backgroundBlur_1583_57931"/>
<feBlend mode="normal" in="SourceGraphic" in2="effect1_backgroundBlur_1583_57931" result="shape"/>
</filter>
<filter id="filter1_b_1583_57931" x="311.273" y="128.116" width="311.48" height="398.744" filterUnits="userSpaceOnUse" color-interpolation-filters="sRGB">
<feFlood flood-opacity="0" result="BackgroundImageFix"/>
<feGaussianBlur in="BackgroundImageFix" stdDeviation="5.7041"/>
<feComposite in2="SourceAlpha" operator="in" result="effect1_backgroundBlur_1583_57931"/>
<feBlend mode="normal" in="SourceGraphic" in2="effect1_backgroundBlur_1583_57931" result="shape"/>
</filter>
<filter id="filter2_b_1583_57931" x="824.879" y="367.356" width="159.34" height="212.75" filterUnits="userSpaceOnUse" color-interpolation-filters="sRGB">
<feFlood flood-opacity="0" result="BackgroundImageFix"/>
<feGaussianBlur in="BackgroundImageFix" stdDeviation="5.7041"/>
<feComposite in2="SourceAlpha" operator="in" result="effect1_backgroundBlur_1583_57931"/>
<feBlend mode="normal" in="SourceGraphic" in2="effect1_backgroundBlur_1583_57931" result="shape"/>
</filter>
<filter id="filter3_b_1583_57931" x="626.314" y="115.298" width="299.645" height="346.73" filterUnits="userSpaceOnUse" color-interpolation-filters="sRGB">
<feFlood flood-opacity="0" result="BackgroundImageFix"/>
<feGaussianBlur in="BackgroundImageFix" stdDeviation="5.7041"/>
<feComposite in2="SourceAlpha" operator="in" result="effect1_backgroundBlur_1583_57931"/>
<feBlend mode="normal" in="SourceGraphic" in2="effect1_backgroundBlur_1583_57931" result="shape"/>
</filter>
<linearGradient id="paint0_linear_1583_57931" x1="640" y1="0" x2="640" y2="671" gradientUnits="userSpaceOnUse">
<stop stop-color="#E7F1F4"/>
<stop offset="0.541667" stop-color="#FEEDDB"/>
<stop offset="1" stop-color="#FDFCE6"/>
</linearGradient>
<linearGradient id="paint1_linear_1583_57931" x1="423.996" y1="334.76" x2="423.996" y2="607.4" gradientUnits="userSpaceOnUse">
<stop stop-color="#A5FCF6"/>
<stop offset="1" stop-color="#16DBBE" stop-opacity="0"/>
</linearGradient>
<linearGradient id="paint2_linear_1583_57931" x1="262.587" y1="532.608" x2="331.819" y2="532.608" gradientUnits="userSpaceOnUse">
<stop stop-color="white" stop-opacity="0.14"/>
<stop offset="1" stop-color="white" stop-opacity="0.6"/>
</linearGradient>
<linearGradient id="paint3_linear_1583_57931" x1="334.442" y1="464.838" x2="551.494" y2="464.838" gradientUnits="userSpaceOnUse">
<stop stop-color="white" stop-opacity="0.14"/>
<stop offset="1" stop-color="white" stop-opacity="0.6"/>
</linearGradient>
<linearGradient id="paint4_linear_1583_57931" x1="166.641" y1="2.00942e-07" x2="161.125" y2="300.441" gradientUnits="userSpaceOnUse">
<stop stop-color="#FAADBF"/>
<stop offset="1" stop-color="#FFFCB7" stop-opacity="0"/>
</linearGradient>
<linearGradient id="paint5_linear_1583_57931" x1="912.609" y1="525.512" x2="850.717" y2="494.489" gradientUnits="userSpaceOnUse">
<stop stop-color="white" stop-opacity="0.14"/>
<stop offset="1" stop-color="white" stop-opacity="0.6"/>
</linearGradient>
<linearGradient id="paint6_linear_1583_57931" x1="649.001" y1="407.009" x2="857.154" y2="407.009" gradientUnits="userSpaceOnUse">
<stop stop-color="white" stop-opacity="0.14"/>
<stop offset="1" stop-color="white" stop-opacity="0.6"/>
</linearGradient>
</defs>
</svg>
