<svg fill="none" height="33" viewBox="0 0 153 33" width="153" xmlns="http://www.w3.org/2000/svg"><g stroke="#2b3330" stroke-width="1.3"><path d="m20.559 12.0952-.3686 1.9793c-.293 1.5731-.293 3.1868 0 4.7599l.3507 1.8831c.7632 4.0985-1.2617 8.2107-4.9757 10.1045-.0059.003-.0129.003-.0187 0-3.7141-1.8938-5.73896-6.006-4.9757-10.1045l.3524-1.892c.2918-1.5672.2918-3.1749 0-4.7422l-.3567-1.9151c-.75509-4.05462 1.3086-8.11171 5.0298-9.89062 3.6781 1.77965 5.7106 5.80051 4.9625 9.81762z"/><path d="m20.0174 21.5591-1.9793-.3686c-1.5731-.293-3.1868-.293-4.7599 0l-1.8831.3507c-4.09854.7633-8.21066-1.2617-10.10447-4.9757-.003-.0059-.003-.0128 0-.0187 1.89381-3.714 6.00592-5.7389 10.10447-4.9757l1.892.3524c1.5672.2918 3.1749.2918 4.7422 0l1.9151-.3567c4.0546-.7551 8.1117 1.3086 9.8906 5.0298-1.7796 3.6781-5.8005 5.7106-9.8176 4.9625z"/><path d="m22.2484 16.9393-1.6603 1.139c-1.3195.9052-2.4605 2.0462-3.3657 3.3657l-1.0836 1.5796c-2.3584 3.4378-6.69794 4.9137-10.66329 3.6266-.00627-.0021-.01119-.007-.01322-.0132-1.2871-3.9654.18879-8.3049 3.6266-10.6633l1.58701-1.0887c1.3146-.9018 2.4514-2.0386 3.3532-3.3533l1.102-1.6063c2.3331-3.401 6.6612-4.81055 10.5503-3.43717 1.3424 3.85927-.0636 8.13957-3.433 10.45107z"/><path d="m15.1735 23.2484-1.1389-1.6603c-.9052-1.3195-2.0463-2.4605-3.3658-3.3657l-1.57954-1.0836c-3.43782-2.3584-4.9137-6.6979-3.6266-10.6633.00204-.00627.00695-.01118.01322-.01322 3.96535-1.28709 8.30492.1888 10.66322 3.62662l1.0887 1.587c.9019 1.3146 2.0387 2.4514 3.3533 3.3532l1.6063 1.102c3.401 2.3331 4.8106 6.6612 3.4372 10.5503-3.8592 1.3424-8.1396-.0636-10.4511-3.433z"/></g><path d="m54.32 25v-2.6h-5.8v-4.22h5.54v-2.56h-5.54v-3.1h5.76v-2.6h-8.76v15.08zm6.1206 0 3.14-5.68 3.04 5.68h3.42l-4.76-7.94 4.46-7.14h-3.46l-2.68 4.96-2.6-4.96h-3.42l4.28 7.14-4.88 7.94zm15.4794 0v-5.7h1.2c3.16 0 5.36-1.72 5.36-4.72 0-3.4-2.42-4.66-5.94-4.66h-3.62v15.08zm0-12.5h.74c1.86 0 2.88.64 2.88 2.08 0 1.48-.98 2.16-2.8 2.16h-.82zm17.3402 12.5v-2.78h-4.48v-12.3h-3v15.08zm9.8698.28c4.4 0 8.06-3.36 8.06-7.8s-3.64-7.84-7.96-7.84c-4.3803 0-8.0203 3.44-8.0203 7.78 0 4.6 3.68 7.86 7.9203 7.86zm.02-2.78c-2.58 0-4.9003-2.1-4.9003-5.06 0-2.8 2.2203-5.02 4.9403-5.02 2.78 0 4.94 2.18 4.94 5.04s-2.18 5.04-4.98 5.04zm18.109-3.68c2.1-.88 3.14-2.36 3.14-4.28 0-3.26-2.46-4.62-5.9-4.62h-3.62v15.08h3v-5.86h.44l3.78 5.86h3.6zm-2.64-6.3c1.84 0 2.82.64 2.82 2.08 0 1.5-1.08 2.18-2.9 2.18h-.66v-4.26zm18.565 12.48v-2.6h-5.8v-4.22h5.54v-2.56h-5.54v-3.1h5.76v-2.6h-8.76v15.08zm10.421-6.18c2.1-.88 3.14-2.36 3.14-4.28 0-3.26-2.46-4.62-5.9-4.62h-3.62v15.08h3v-5.86h.44l3.78 5.86h3.6zm-2.64-6.3c1.84 0 2.82.64 2.82 2.08 0 1.5-1.08 2.18-2.9 2.18h-.66v-4.26z" fill="#000"/></svg>