<svg width="264" height="32" viewBox="0 0 264 32" fill="none" xmlns="http://www.w3.org/2000/svg">
    <path d="M21.8557 18.7623L23.5991 17.4628C27.2982 14.7058 28.7664 9.85856 27.219 5.51232C27.1664 5.36437 27.0502 5.24773 26.9025 5.19437C22.5241 3.61257 17.6252 5.08331 14.8432 8.81593L13.5856 10.5032C12.8108 11.5427 11.8893 12.4642 10.8498 13.239L9.18513 14.4797C5.41972 17.2862 3.87821 22.1909 5.36105 26.6469C5.41521 26.8096 5.54292 26.9373 5.70568 26.9915C10.1617 28.4743 15.0663 26.9328 17.8729 23.1674L19.1089 21.5091C19.8868 20.4654 20.812 19.5402 21.8557 18.7623Z" fill="#F5DA59"/>
    <path d="M13.5423 21.5557L14.8417 23.2991C17.5987 26.9982 22.4459 28.4664 26.7922 26.919C26.9401 26.8663 27.0568 26.7502 27.1101 26.6025C28.6919 22.2241 27.2212 17.3252 23.4886 14.5432L21.8013 13.2856C20.7618 12.5108 19.8403 11.5893 19.0655 10.5498L17.8248 8.88512C15.0183 5.11971 10.1136 3.57821 5.65765 5.06104C5.49488 5.1152 5.36717 5.24292 5.31301 5.40568C3.83016 9.86169 5.37167 14.7663 9.13709 17.5728L10.7954 18.8089C11.8391 19.5868 12.7644 20.512 13.5423 21.5557Z" fill="#F5DA59"/>
    <path d="M13.4976 10.9628L11.8853 10.5864C7.53251 9.57024 3.06005 11.7254 1.14261 15.7631C1.0614 15.9341 1.06096 16.1325 1.14138 16.3039C3.05714 20.3868 7.56841 22.5747 11.9604 21.5494L13.5073 21.1883C15.229 20.7864 17.0202 20.7864 18.7419 21.1883L20.266 21.5441C24.6965 22.5784 29.258 20.4384 31.2947 16.3702C31.3872 16.1854 31.3872 15.9679 31.2947 15.7832C29.258 11.7149 24.6965 9.57496 20.266 10.6093L18.7516 10.9628C17.0235 11.3662 15.2257 11.3662 13.4976 10.9628Z" fill="#8C65F7"/>
    <path d="M21.6783 13.6663L22.0346 11.788C22.8739 7.36294 20.6216 2.92887 16.5532 0.996789C16.3749 0.91214 16.1681 0.911687 15.9894 0.995507C11.8751 2.92601 9.58907 7.39853 10.436 11.8637L10.7796 13.6752C11.0677 15.1938 11.0677 16.7529 10.7796 18.2715L10.4402 20.0612C9.58616 24.5636 11.8244 29.0858 15.9222 31.1372C16.1148 31.2336 16.3415 31.2336 16.534 31.1372C20.6318 29.0858 22.8701 24.5636 22.0161 20.0612L21.6783 18.2804C21.3891 16.756 21.3891 15.1908 21.6783 13.6663Z" fill="#02E2AC"/>
    <circle cx="16.2759" cy="16.0767" r="5.14269" transform="rotate(-180 16.2759 16.0767)" fill="#F5DA59"/>
    <path d="M49.172 15.56H56.952C56.952 16.36 56.9187 17.0867 56.852 17.74C56.7853 18.3933 56.652 19 56.452 19.56C56.172 20.3467 55.792 21.0467 55.312 21.66C54.832 22.26 54.2653 22.7667 53.612 23.18C52.972 23.58 52.2653 23.8867 51.492 24.1C50.7187 24.3133 49.9053 24.42 49.052 24.42C47.8787 24.42 46.8053 24.2267 45.832 23.84C44.872 23.4533 44.0453 22.9133 43.352 22.22C42.6587 21.5133 42.1187 20.6733 41.732 19.7C41.3453 18.7133 41.152 17.6267 41.152 16.44C41.152 15.2667 41.3387 14.1933 41.712 13.22C42.0987 12.2333 42.6387 11.3933 43.332 10.7C44.0387 10.0067 44.8853 9.46667 45.872 9.08C46.8587 8.69333 47.9587 8.5 49.172 8.5C50.7453 8.5 52.1253 8.84 53.312 9.52C54.4987 10.2 55.4387 11.2533 56.132 12.68L52.412 14.22C52.0653 13.3933 51.612 12.8 51.052 12.44C50.5053 12.08 49.8787 11.9 49.172 11.9C48.5853 11.9 48.052 12.0133 47.572 12.24C47.092 12.4533 46.6787 12.7667 46.332 13.18C45.9987 13.58 45.732 14.0667 45.532 14.64C45.3453 15.2133 45.252 15.8533 45.252 16.56C45.252 17.2 45.332 17.7933 45.492 18.34C45.6653 18.8867 45.9187 19.36 46.252 19.76C46.5853 20.16 46.9987 20.4733 47.492 20.7C47.9853 20.9133 48.5587 21.02 49.212 21.02C49.5987 21.02 49.972 20.98 50.332 20.9C50.692 20.8067 51.012 20.6667 51.292 20.48C51.5853 20.28 51.8253 20.0267 52.012 19.72C52.1987 19.4133 52.3253 19.04 52.392 18.6H49.172V15.56ZM64.5497 15.66H65.2897C66.063 15.66 66.6563 15.5 67.0697 15.18C67.483 14.86 67.6897 14.4 67.6897 13.8C67.6897 13.2 67.483 12.74 67.0697 12.42C66.6563 12.1 66.063 11.94 65.2897 11.94H64.5497V15.66ZM73.1697 24H68.2897L64.5497 18.2V24H60.6297V8.92H66.7297C67.5697 8.92 68.303 9.04667 68.9297 9.3C69.5563 9.54 70.0697 9.87333 70.4697 10.3C70.883 10.7267 71.1897 11.22 71.3897 11.78C71.603 12.34 71.7097 12.94 71.7097 13.58C71.7097 14.7267 71.4297 15.66 70.8697 16.38C70.323 17.0867 69.5097 17.5667 68.4297 17.82L73.1697 24ZM84.2094 18.4L82.4494 13.38L80.6894 18.4H84.2094ZM85.2494 21.38H79.6494L78.7494 24H74.5694L80.3094 8.92H84.5894L90.3294 24H86.1494L85.2494 21.38ZM93.2445 24V8.92H97.1645L104.405 18.14V8.92H108.305V24H104.405L97.1645 14.78V24H93.2445ZM118.387 12.24V24H114.467V12.24H111.247V8.92H121.607V12.24H118.387ZM132.85 12.78C132.424 12.4333 131.997 12.18 131.57 12.02C131.144 11.8467 130.73 11.76 130.33 11.76C129.824 11.76 129.41 11.88 129.09 12.12C128.77 12.36 128.61 12.6733 128.61 13.06C128.61 13.3267 128.69 13.5467 128.85 13.72C129.01 13.8933 129.217 14.0467 129.47 14.18C129.737 14.3 130.03 14.4067 130.35 14.5C130.684 14.5933 131.01 14.6933 131.33 14.8C132.61 15.2267 133.544 15.8 134.13 16.52C134.73 17.2267 135.03 18.1533 135.03 19.3C135.03 20.0733 134.897 20.7733 134.63 21.4C134.377 22.0267 133.997 22.5667 133.49 23.02C132.997 23.46 132.384 23.8 131.65 24.04C130.93 24.2933 130.11 24.42 129.19 24.42C127.284 24.42 125.517 23.8533 123.89 22.72L125.57 19.56C126.157 20.08 126.737 20.4667 127.31 20.72C127.884 20.9733 128.45 21.1 129.01 21.1C129.65 21.1 130.124 20.9533 130.43 20.66C130.75 20.3667 130.91 20.0333 130.91 19.66C130.91 19.4333 130.87 19.24 130.79 19.08C130.71 18.9067 130.577 18.7533 130.39 18.62C130.204 18.4733 129.957 18.34 129.65 18.22C129.357 18.1 128.997 17.9667 128.57 17.82C128.064 17.66 127.564 17.4867 127.07 17.3C126.59 17.1 126.157 16.84 125.77 16.52C125.397 16.2 125.09 15.8 124.85 15.32C124.624 14.8267 124.51 14.2067 124.51 13.46C124.51 12.7133 124.63 12.04 124.87 11.44C125.124 10.8267 125.47 10.3067 125.91 9.88C126.364 9.44 126.91 9.1 127.55 8.86C128.204 8.62 128.93 8.5 129.73 8.5C130.477 8.5 131.257 8.60667 132.07 8.82C132.884 9.02 133.664 9.32 134.41 9.72L132.85 12.78ZM155.277 12.24H150.617V14.76H155.017V18.08H150.617V20.68H155.277V24H146.697V8.92H155.277V12.24ZM163.623 15.96L158.923 8.92H163.763L165.803 12.82L168.323 8.92H173.163L168.183 15.96L173.803 24H169.023L166.003 19.08L162.463 24H157.723L163.623 15.96ZM180.497 15.84H181.797C183.237 15.84 183.957 15.2133 183.957 13.96C183.957 12.7067 183.237 12.08 181.797 12.08H180.497V15.84ZM180.497 24H176.577V8.92H182.817C184.511 8.92 185.804 9.36 186.697 10.24C187.604 11.12 188.057 12.36 188.057 13.96C188.057 15.56 187.604 16.8 186.697 17.68C185.804 18.56 184.511 19 182.817 19H180.497V24ZM195.252 8.92V20.68H199.952V24H191.332V8.92H195.252ZM206.304 16.46C206.304 17.06 206.417 17.6133 206.644 18.12C206.87 18.6267 207.177 19.0667 207.564 19.44C207.95 19.8133 208.397 20.1067 208.904 20.32C209.424 20.52 209.97 20.62 210.544 20.62C211.117 20.62 211.657 20.52 212.164 20.32C212.684 20.1067 213.137 19.8133 213.524 19.44C213.924 19.0667 214.237 18.6267 214.464 18.12C214.69 17.6133 214.804 17.06 214.804 16.46C214.804 15.86 214.69 15.3067 214.464 14.8C214.237 14.2933 213.924 13.8533 213.524 13.48C213.137 13.1067 212.684 12.82 212.164 12.62C211.657 12.4067 211.117 12.3 210.544 12.3C209.97 12.3 209.424 12.4067 208.904 12.62C208.397 12.82 207.95 13.1067 207.564 13.48C207.177 13.8533 206.87 14.2933 206.644 14.8C206.417 15.3067 206.304 15.86 206.304 16.46ZM202.204 16.46C202.204 15.34 202.41 14.3 202.824 13.34C203.237 12.3667 203.81 11.52 204.544 10.8C205.277 10.08 206.15 9.52 207.164 9.12C208.19 8.70667 209.317 8.5 210.544 8.5C211.757 8.5 212.877 8.70667 213.904 9.12C214.93 9.52 215.81 10.08 216.544 10.8C217.29 11.52 217.87 12.3667 218.284 13.34C218.697 14.3 218.904 15.34 218.904 16.46C218.904 17.58 218.697 18.6267 218.284 19.6C217.87 20.56 217.29 21.4 216.544 22.12C215.81 22.84 214.93 23.4067 213.904 23.82C212.877 24.22 211.757 24.42 210.544 24.42C209.317 24.42 208.19 24.22 207.164 23.82C206.15 23.4067 205.277 22.84 204.544 22.12C203.81 21.4 203.237 20.56 202.824 19.6C202.41 18.6267 202.204 17.58 202.204 16.46ZM226.5 15.66H227.24C228.013 15.66 228.606 15.5 229.02 15.18C229.433 14.86 229.64 14.4 229.64 13.8C229.64 13.2 229.433 12.74 229.02 12.42C228.606 12.1 228.013 11.94 227.24 11.94H226.5V15.66ZM235.12 24H230.24L226.5 18.2V24H222.58V8.92H228.68C229.52 8.92 230.253 9.04667 230.88 9.3C231.506 9.54 232.02 9.87333 232.42 10.3C232.833 10.7267 233.14 11.22 233.34 11.78C233.553 12.34 233.66 12.94 233.66 13.58C233.66 14.7267 233.38 15.66 232.82 16.38C232.273 17.0867 231.46 17.5667 230.38 17.82L235.12 24ZM246.539 12.24H241.879V14.76H246.279V18.08H241.879V20.68H246.539V24H237.959V8.92H246.539V12.24ZM254.486 15.66H255.226C255.999 15.66 256.592 15.5 257.006 15.18C257.419 14.86 257.626 14.4 257.626 13.8C257.626 13.2 257.419 12.74 257.006 12.42C256.592 12.1 255.999 11.94 255.226 11.94H254.486V15.66ZM263.106 24H258.226L254.486 18.2V24H250.566V8.92H256.666C257.506 8.92 258.239 9.04667 258.866 9.3C259.492 9.54 260.006 9.87333 260.406 10.3C260.819 10.7267 261.126 11.22 261.326 11.78C261.539 12.34 261.646 12.94 261.646 13.58C261.646 14.7267 261.366 15.66 260.806 16.38C260.259 17.0867 259.446 17.5667 258.366 17.82L263.106 24Z" fill="#0E0333"/>
</svg>
