<svg width="338" height="32" viewBox="0 0 338 32" fill="none" xmlns="http://www.w3.org/2000/svg">
    <path fill-rule="evenodd" clip-rule="evenodd" d="M21.4258 12.5673C22.4611 14.0184 23.0231 15.7806 23.0083 17.5575C23.0083 19.3049 22.4463 21.0522 21.4258 22.4738L23.5851 24.1175C24.9606 22.222 25.7148 19.912 25.7148 17.5723C25.7296 15.0994 24.9162 12.6709 23.4224 10.7163L22.1841 11.8325L21.4258 12.5673Z" fill="#02E2AC"/>
    <path fill-rule="evenodd" clip-rule="evenodd" d="M25.5078 25.5733L18.246 20.05C18.7637 19.3688 19.0595 18.5396 19.1038 17.6807C19.1334 16.8218 18.9116 15.9778 18.4531 15.2522L21.9287 12.1129L25.567 8.70708C25.8036 8.48496 25.8184 8.09995 25.5818 7.86303L25.0789 7.35956C22.4907 4.73855 19.0003 3.21333 15.3324 3.09486L15.3472 1.09579C15.362 0.962517 15.3472 0.829246 15.3176 0.695974C15.2732 0.562703 15.2141 0.444239 15.1254 0.340583C15.0366 0.236927 14.9331 0.162888 14.8 0.103656C14.6817 0.044424 14.5485 0.0148077 14.4154 0.0148077C14.2823 0.0148077 14.1492 0.044424 14.0309 0.103656C13.9126 0.162888 13.7943 0.236927 13.7055 0.340583C13.6168 0.444239 13.5428 0.562702 13.5133 0.681166C13.4689 0.814438 13.4541 0.947709 13.4837 1.08098L13.4689 3.13929C12.5963 3.22814 11.7237 3.39102 10.8807 3.64276L10.8955 1.08098C10.9102 0.947709 10.8955 0.814438 10.8659 0.681166C10.8215 0.547894 10.7623 0.429431 10.6736 0.325775C10.5849 0.222119 10.4813 0.148079 10.3482 0.0888475C10.2299 0.0296157 10.0968 0 9.9637 0C9.83059 0 9.69748 0.0296157 9.57916 0.0888475C9.46084 0.148079 9.34252 0.222119 9.25378 0.325775C9.16504 0.429431 9.09109 0.547894 9.06151 0.666358C9.01715 0.79963 9.00236 0.932902 9.03194 1.06617L8.98757 4.33873C6.00002 5.67145 3.5449 7.9963 2.05113 10.9135C0.557355 13.8306 0.0840806 17.1772 0.734834 20.3906C1.38559 23.6039 3.116 26.5062 5.63027 28.609C8.14455 30.7117 11.3096 31.8963 14.5781 31.9556L25.1529 32C25.4782 32 25.7445 31.7335 25.7445 31.4077V26.062C25.7445 25.8695 25.6557 25.6918 25.5078 25.5733ZM14.7852 29.379C12.1822 29.3642 9.65311 28.4905 7.59732 26.9061C5.54153 25.3068 4.06255 23.0708 3.39701 20.5534C2.73146 18.0361 2.92373 15.3559 3.91465 12.957C4.92036 10.5581 6.68035 8.54419 8.9432 7.24109L8.92841 11.1356C8.91362 11.2689 8.92841 11.4021 8.95799 11.5354C9.00236 11.6687 9.06152 11.7871 9.15026 11.8908C9.23899 11.9944 9.34252 12.0685 9.47563 12.1277C9.59395 12.1869 9.72706 12.2166 9.86017 12.2166C9.99328 12.2166 10.1264 12.1869 10.2447 12.1277C10.363 12.0685 10.4813 11.9944 10.5701 11.8908C10.6588 11.7871 10.7328 11.6687 10.7623 11.5502C10.8067 11.4169 10.8215 11.2837 10.7919 11.1504L10.8067 6.36742C12.1082 5.89357 13.4837 5.67145 14.8739 5.67145C17.4326 5.67145 19.9173 6.5155 21.9435 8.05553C22.0914 8.17399 22.1062 8.3813 21.9731 8.51458L16.4416 13.5937C15.9388 13.3864 15.3916 13.2679 14.8443 13.2679C14.238 13.2679 13.6316 13.3864 13.0696 13.6381C12.5075 13.8899 12.0195 14.2601 11.6202 14.7191C11.2208 15.1782 10.925 15.7261 10.7476 16.3036C10.5701 16.8959 10.5257 17.503 10.6144 18.1101C10.7032 18.7173 10.9102 19.2948 11.2356 19.813C11.561 20.3313 12.0047 20.7608 12.5075 21.1013C13.0252 21.4271 13.602 21.6492 14.2084 21.7381C14.8148 21.8269 15.4359 21.7825 16.0127 21.6048L23.0823 26.9801C23.1562 27.0393 23.2006 27.1282 23.2006 27.217L23.1858 29.1124C23.1858 29.2753 23.0527 29.4086 22.89 29.4086L14.7852 29.379ZM16.5156 17.5326C16.5156 17.8584 16.4121 18.1842 16.2346 18.4655C16.0423 18.7469 15.7909 18.9542 15.4803 19.0875C15.1697 19.2207 14.8296 19.2503 14.519 19.1763C14.2084 19.1023 13.8978 18.9542 13.6612 18.7173C13.4245 18.4803 13.2618 18.1842 13.2027 17.8584C13.1435 17.5326 13.1731 17.192 13.3062 16.8959C13.4393 16.5849 13.6464 16.3332 13.9274 16.1407C14.2084 15.963 14.5338 15.8593 14.8591 15.8593C15.3028 15.8593 15.7317 16.037 16.0423 16.3628C16.3381 16.659 16.5156 17.0736 16.5156 17.5326Z" fill="#0E0333"/>
    <rect x="49.752" y="8" width="1" height="16" fill="#757087"/>
    <path d="M96.3557 18.7623L98.0991 17.4628C101.798 14.7058 103.266 9.85856 101.719 5.51232C101.666 5.36437 101.55 5.24773 101.403 5.19437C97.0241 3.61257 92.1252 5.08331 89.3432 8.81593L88.0856 10.5032C87.3108 11.5427 86.3893 12.4642 85.3498 13.239L83.6851 14.4797C79.9197 17.2862 78.3782 22.1909 79.861 26.6469C79.9152 26.8096 80.0429 26.9373 80.2057 26.9915C84.6617 28.4743 89.5663 26.9328 92.3729 23.1674L93.6089 21.5091C94.3868 20.4654 95.312 19.5402 96.3557 18.7623Z" fill="#F5DA59"/>
    <path d="M88.0423 21.5557L89.3417 23.2991C92.0987 26.9982 96.9459 28.4664 101.292 26.919C101.44 26.8663 101.557 26.7502 101.61 26.6025C103.192 22.2241 101.721 17.3252 97.9886 14.5432L96.3013 13.2856C95.2618 12.5108 94.3403 11.5893 93.5655 10.5498L92.3248 8.88512C89.5183 5.11971 84.6136 3.57821 80.1576 5.06104C79.9949 5.1152 79.8672 5.24292 79.813 5.40568C78.3302 9.86169 79.8717 14.7663 83.6371 17.5728L85.2954 18.8089C86.3391 19.5868 87.2644 20.512 88.0423 21.5557Z" fill="#F5DA59"/>
    <path d="M87.9976 10.9628L86.3853 10.5864C82.0325 9.57024 77.5601 11.7254 75.6426 15.7631C75.5614 15.9341 75.561 16.1325 75.6414 16.3039C77.5571 20.3868 82.0684 22.5747 86.4604 21.5494L88.0073 21.1883C89.729 20.7864 91.5202 20.7864 93.2419 21.1883L94.766 21.5441C99.1965 22.5784 103.758 20.4384 105.795 16.3702C105.887 16.1854 105.887 15.9679 105.795 15.7832C103.758 11.7149 99.1965 9.57496 94.766 10.6093L93.2516 10.9628C91.5235 11.3662 89.7257 11.3662 87.9976 10.9628Z" fill="#8C65F7"/>
    <path d="M96.1783 13.6663L96.5346 11.788C97.3739 7.36294 95.1216 2.92887 91.0532 0.996789C90.8749 0.91214 90.6681 0.911687 90.4894 0.995507C86.3751 2.92601 84.0891 7.39853 84.936 11.8637L85.2796 13.6752C85.5677 15.1938 85.5677 16.7529 85.2796 18.2715L84.9402 20.0612C84.0862 24.5636 86.3244 29.0858 90.4222 31.1372C90.6148 31.2336 90.8415 31.2336 91.034 31.1372C95.1318 29.0858 97.3701 24.5636 96.5161 20.0612L96.1783 18.2804C95.8891 16.756 95.8891 15.1908 96.1783 13.6663Z" fill="#02E2AC"/>
    <circle cx="90.7759" cy="16.0767" r="5.14269" transform="rotate(-180 90.7759 16.0767)" fill="#F5DA59"/>
    <path d="M123.672 15.56H131.452C131.452 16.36 131.419 17.0867 131.352 17.74C131.285 18.3933 131.152 19 130.952 19.56C130.672 20.3467 130.292 21.0467 129.812 21.66C129.332 22.26 128.765 22.7667 128.112 23.18C127.472 23.58 126.765 23.8867 125.992 24.1C125.219 24.3133 124.405 24.42 123.552 24.42C122.379 24.42 121.305 24.2267 120.332 23.84C119.372 23.4533 118.545 22.9133 117.852 22.22C117.159 21.5133 116.619 20.6733 116.232 19.7C115.845 18.7133 115.652 17.6267 115.652 16.44C115.652 15.2667 115.839 14.1933 116.212 13.22C116.599 12.2333 117.139 11.3933 117.832 10.7C118.539 10.0067 119.385 9.46667 120.372 9.08C121.359 8.69333 122.459 8.5 123.672 8.5C125.245 8.5 126.625 8.84 127.812 9.52C128.999 10.2 129.939 11.2533 130.632 12.68L126.912 14.22C126.565 13.3933 126.112 12.8 125.552 12.44C125.005 12.08 124.379 11.9 123.672 11.9C123.085 11.9 122.552 12.0133 122.072 12.24C121.592 12.4533 121.179 12.7667 120.832 13.18C120.499 13.58 120.232 14.0667 120.032 14.64C119.845 15.2133 119.752 15.8533 119.752 16.56C119.752 17.2 119.832 17.7933 119.992 18.34C120.165 18.8867 120.419 19.36 120.752 19.76C121.085 20.16 121.499 20.4733 121.992 20.7C122.485 20.9133 123.059 21.02 123.712 21.02C124.099 21.02 124.472 20.98 124.832 20.9C125.192 20.8067 125.512 20.6667 125.792 20.48C126.085 20.28 126.325 20.0267 126.512 19.72C126.699 19.4133 126.825 19.04 126.892 18.6H123.672V15.56ZM139.05 15.66H139.79C140.563 15.66 141.156 15.5 141.57 15.18C141.983 14.86 142.19 14.4 142.19 13.8C142.19 13.2 141.983 12.74 141.57 12.42C141.156 12.1 140.563 11.94 139.79 11.94H139.05V15.66ZM147.67 24H142.79L139.05 18.2V24H135.13V8.92H141.23C142.07 8.92 142.803 9.04667 143.43 9.3C144.056 9.54 144.57 9.87333 144.97 10.3C145.383 10.7267 145.69 11.22 145.89 11.78C146.103 12.34 146.21 12.94 146.21 13.58C146.21 14.7267 145.93 15.66 145.37 16.38C144.823 17.0867 144.01 17.5667 142.93 17.82L147.67 24ZM158.709 18.4L156.949 13.38L155.189 18.4H158.709ZM159.749 21.38H154.149L153.249 24H149.069L154.809 8.92H159.089L164.829 24H160.649L159.749 21.38ZM167.745 24V8.92H171.665L178.905 18.14V8.92H182.805V24H178.905L171.665 14.78V24H167.745ZM192.887 12.24V24H188.967V12.24H185.747V8.92H196.107V12.24H192.887ZM207.35 12.78C206.924 12.4333 206.497 12.18 206.07 12.02C205.644 11.8467 205.23 11.76 204.83 11.76C204.324 11.76 203.91 11.88 203.59 12.12C203.27 12.36 203.11 12.6733 203.11 13.06C203.11 13.3267 203.19 13.5467 203.35 13.72C203.51 13.8933 203.717 14.0467 203.97 14.18C204.237 14.3 204.53 14.4067 204.85 14.5C205.184 14.5933 205.51 14.6933 205.83 14.8C207.11 15.2267 208.044 15.8 208.63 16.52C209.23 17.2267 209.53 18.1533 209.53 19.3C209.53 20.0733 209.397 20.7733 209.13 21.4C208.877 22.0267 208.497 22.5667 207.99 23.02C207.497 23.46 206.884 23.8 206.15 24.04C205.43 24.2933 204.61 24.42 203.69 24.42C201.784 24.42 200.017 23.8533 198.39 22.72L200.07 19.56C200.657 20.08 201.237 20.4667 201.81 20.72C202.384 20.9733 202.95 21.1 203.51 21.1C204.15 21.1 204.624 20.9533 204.93 20.66C205.25 20.3667 205.41 20.0333 205.41 19.66C205.41 19.4333 205.37 19.24 205.29 19.08C205.21 18.9067 205.077 18.7533 204.89 18.62C204.704 18.4733 204.457 18.34 204.15 18.22C203.857 18.1 203.497 17.9667 203.07 17.82C202.564 17.66 202.064 17.4867 201.57 17.3C201.09 17.1 200.657 16.84 200.27 16.52C199.897 16.2 199.59 15.8 199.35 15.32C199.124 14.8267 199.01 14.2067 199.01 13.46C199.01 12.7133 199.13 12.04 199.37 11.44C199.624 10.8267 199.97 10.3067 200.41 9.88C200.864 9.44 201.41 9.1 202.05 8.86C202.704 8.62 203.43 8.5 204.23 8.5C204.977 8.5 205.757 8.60667 206.57 8.82C207.384 9.02 208.164 9.32 208.91 9.72L207.35 12.78ZM229.777 12.24H225.117V14.76H229.517V18.08H225.117V20.68H229.777V24H221.197V8.92H229.777V12.24ZM238.123 15.96L233.423 8.92H238.263L240.303 12.82L242.823 8.92H247.663L242.683 15.96L248.303 24H243.523L240.503 19.08L236.963 24H232.223L238.123 15.96ZM254.997 15.84H256.297C257.737 15.84 258.457 15.2133 258.457 13.96C258.457 12.7067 257.737 12.08 256.297 12.08H254.997V15.84ZM254.997 24H251.077V8.92H257.317C259.011 8.92 260.304 9.36 261.197 10.24C262.104 11.12 262.557 12.36 262.557 13.96C262.557 15.56 262.104 16.8 261.197 17.68C260.304 18.56 259.011 19 257.317 19H254.997V24ZM269.752 8.92V20.68H274.452V24H265.832V8.92H269.752ZM280.804 16.46C280.804 17.06 280.917 17.6133 281.144 18.12C281.37 18.6267 281.677 19.0667 282.064 19.44C282.45 19.8133 282.897 20.1067 283.404 20.32C283.924 20.52 284.47 20.62 285.044 20.62C285.617 20.62 286.157 20.52 286.664 20.32C287.184 20.1067 287.637 19.8133 288.024 19.44C288.424 19.0667 288.737 18.6267 288.964 18.12C289.19 17.6133 289.304 17.06 289.304 16.46C289.304 15.86 289.19 15.3067 288.964 14.8C288.737 14.2933 288.424 13.8533 288.024 13.48C287.637 13.1067 287.184 12.82 286.664 12.62C286.157 12.4067 285.617 12.3 285.044 12.3C284.47 12.3 283.924 12.4067 283.404 12.62C282.897 12.82 282.45 13.1067 282.064 13.48C281.677 13.8533 281.37 14.2933 281.144 14.8C280.917 15.3067 280.804 15.86 280.804 16.46ZM276.704 16.46C276.704 15.34 276.91 14.3 277.324 13.34C277.737 12.3667 278.31 11.52 279.044 10.8C279.777 10.08 280.65 9.52 281.664 9.12C282.69 8.70667 283.817 8.5 285.044 8.5C286.257 8.5 287.377 8.70667 288.404 9.12C289.43 9.52 290.31 10.08 291.044 10.8C291.79 11.52 292.37 12.3667 292.784 13.34C293.197 14.3 293.404 15.34 293.404 16.46C293.404 17.58 293.197 18.6267 292.784 19.6C292.37 20.56 291.79 21.4 291.044 22.12C290.31 22.84 289.43 23.4067 288.404 23.82C287.377 24.22 286.257 24.42 285.044 24.42C283.817 24.42 282.69 24.22 281.664 23.82C280.65 23.4067 279.777 22.84 279.044 22.12C278.31 21.4 277.737 20.56 277.324 19.6C276.91 18.6267 276.704 17.58 276.704 16.46ZM301 15.66H301.74C302.513 15.66 303.106 15.5 303.52 15.18C303.933 14.86 304.14 14.4 304.14 13.8C304.14 13.2 303.933 12.74 303.52 12.42C303.106 12.1 302.513 11.94 301.74 11.94H301V15.66ZM309.62 24H304.74L301 18.2V24H297.08V8.92H303.18C304.02 8.92 304.753 9.04667 305.38 9.3C306.006 9.54 306.52 9.87333 306.92 10.3C307.333 10.7267 307.64 11.22 307.84 11.78C308.053 12.34 308.16 12.94 308.16 13.58C308.16 14.7267 307.88 15.66 307.32 16.38C306.773 17.0867 305.96 17.5667 304.88 17.82L309.62 24ZM321.039 12.24H316.379V14.76H320.779V18.08H316.379V20.68H321.039V24H312.459V8.92H321.039V12.24ZM328.986 15.66H329.726C330.499 15.66 331.092 15.5 331.506 15.18C331.919 14.86 332.126 14.4 332.126 13.8C332.126 13.2 331.919 12.74 331.506 12.42C331.092 12.1 330.499 11.94 329.726 11.94H328.986V15.66ZM337.606 24H332.726L328.986 18.2V24H325.066V8.92H331.166C332.006 8.92 332.739 9.04667 333.366 9.3C333.992 9.54 334.506 9.87333 334.906 10.3C335.319 10.7267 335.626 11.22 335.826 11.78C336.039 12.34 336.146 12.94 336.146 13.58C336.146 14.7267 335.866 15.66 335.306 16.38C334.759 17.0867 333.946 17.5667 332.866 17.82L337.606 24Z" fill="#0E0333"/>
</svg>
