<svg width="123" height="32" viewBox="0 0 123 32" fill="none" xmlns="http://www.w3.org/2000/svg">
<path d="M9.12535 28.1768C7.98358 28.1768 6.84819 28.0065 5.75669 27.6715C5.58977 27.6201 5.43792 27.5288 5.31436 27.4053C5.1908 27.2819 5.09928 27.1301 5.04774 26.9633C4.35351 24.6881 4.378 22.2542 5.11787 19.9935C5.85775 17.7327 7.27698 15.7553 9.18201 14.3308L10.9467 13.0155C12.0482 12.1942 13.0248 11.2176 13.8461 10.1162L15.1782 8.32847C16.5845 6.43578 18.5537 5.0366 20.8037 4.33125C23.0537 3.6259 25.4691 3.65055 27.7043 4.40168C27.8621 4.45464 28.0055 4.54367 28.123 4.66168C28.2404 4.77969 28.3288 4.92342 28.3811 5.08153C29.1133 7.30013 29.1284 9.69301 28.4241 11.9206C27.7198 14.1483 26.3319 16.0976 24.4573 17.492L22.6099 18.8701C21.5044 19.6938 20.5244 20.6738 19.7007 21.7794L18.3907 23.5364C17.3136 24.9772 15.9153 26.1468 14.3068 26.9524C12.6984 27.7579 10.9242 28.1772 9.12535 28.1768ZM6.94108 25.7789C8.73032 26.207 10.6058 26.1015 12.3357 25.4757C14.0657 24.8498 15.5745 23.7309 16.6757 22.2571L17.9857 20.4962C18.9336 19.2242 20.0611 18.0965 21.3329 17.1482L23.1811 15.7702C24.6209 14.6991 25.7071 13.2213 26.2996 11.5274C26.892 9.83348 26.9637 8.00096 26.5053 6.26593C24.754 5.79242 22.9007 5.85714 21.1867 6.45169C19.4727 7.04624 17.9774 8.14308 16.8955 9.59938L15.5626 11.3878C14.618 12.6556 13.494 13.7792 12.226 14.7235L10.4652 16.0389C8.99001 17.1402 7.87003 18.6497 7.2437 20.3808C6.61736 22.1119 6.51215 23.9887 6.94108 25.7789Z" fill="black"/>
<path d="M24.174 28.2035C22.44 28.2031 20.7301 27.7974 19.1808 27.0187C17.6316 26.24 16.2858 25.1099 15.2509 23.7186L13.8728 21.8712C13.0486 20.7661 12.0686 19.7861 10.9635 18.9619L9.20642 17.6519C7.3014 16.2275 5.88216 14.25 5.14229 11.9893C4.40241 9.72856 4.37792 7.29463 5.07216 5.01948C5.12369 4.85261 5.21521 4.70089 5.33877 4.57746C5.46233 4.45403 5.61418 4.36265 5.78111 4.31129C8.05626 3.61706 10.4902 3.64155 12.7509 4.38142C15.0116 5.1213 16.9891 6.54053 18.4136 8.44556L19.7289 10.2064C20.5497 11.3083 21.5264 12.2849 22.6282 13.1058L24.4159 14.4379C26.309 15.8448 27.7083 17.8147 28.4134 20.0654C29.1185 22.3162 29.0932 24.7323 28.3412 26.9678C28.2882 27.1257 28.1992 27.269 28.0812 27.3865C27.9632 27.504 27.8194 27.5924 27.6613 27.6446C26.536 28.0151 25.3587 28.2038 24.174 28.2035ZM6.9655 6.20082C6.53744 7.99006 6.64287 9.86549 7.26875 11.5955C7.89462 13.3255 9.01352 14.8343 10.4873 15.9355L12.2443 17.2454C13.5165 18.1934 14.6443 19.3212 15.5923 20.5934L16.9704 22.4408C18.0415 23.8807 19.5191 24.967 21.2131 25.5596C22.907 26.1522 24.7395 26.224 26.4746 25.7658C26.9483 24.0144 26.8837 22.1609 26.2891 20.4468C25.6946 18.7326 24.5976 17.2372 23.1412 16.1552L21.3527 14.8223C20.0851 13.8778 18.9615 12.7541 18.017 11.4866L16.7017 9.72185C15.6003 8.24796 14.0912 7.12899 12.3609 6.50325C10.6306 5.8775 8.75489 5.77236 6.9655 6.20082Z" fill="black"/>
<path d="M23.3969 22.0756C22.5979 22.0758 21.8015 21.9841 21.0235 21.8023L19.2151 21.3789C17.5215 20.9854 15.7601 20.9854 14.0665 21.3789L12.229 21.8077C10.0056 22.3265 7.67203 22.0785 5.6073 21.104C3.54256 20.1294 1.86788 18.4855 0.855183 16.4392C0.781658 16.2911 0.743408 16.128 0.743408 15.9626C0.743408 15.7973 0.781658 15.6342 0.855183 15.486C1.86871 13.463 3.534 11.8403 5.58255 10.8794C7.6311 9.91854 9.94354 9.67556 12.1471 10.1896L14.0657 10.6375C15.7594 11.031 17.5207 11.031 19.2144 10.6375L21.0289 10.2141C23.2748 9.68982 25.6312 9.92537 27.7289 10.8838C29.8266 11.8423 31.5471 13.4695 32.6209 15.5106C32.7014 15.6641 32.7434 15.8349 32.7434 16.0082C32.7434 16.1816 32.7014 16.3523 32.6209 16.5059C31.7365 18.1863 30.4098 19.5932 28.7842 20.5748C27.1587 21.5564 25.2958 22.0754 23.3969 22.0756ZM16.6381 18.9451C17.669 18.9446 18.6965 19.0622 19.7005 19.2957L21.515 19.7191C23.2044 20.1134 24.975 19.9674 26.5769 19.3016C28.1789 18.6358 29.5313 17.4838 30.4435 16.0082C29.5312 14.5319 28.1783 13.3795 26.5757 12.7136C24.9731 12.0478 23.2018 11.9021 21.512 12.2973L19.6975 12.7207C17.684 13.1885 15.59 13.1885 13.5765 12.7207L11.6579 12.2728C10.0129 11.8841 8.28664 12.0331 6.73264 12.698C5.17864 13.3629 3.87883 14.5086 3.02415 15.9669C3.88346 17.443 5.19351 18.6046 6.76185 19.2811C8.33019 19.9575 10.0741 20.1132 11.7375 19.7252L13.5749 19.2957C14.5793 19.0622 15.607 18.9445 16.6381 18.9451Z" fill="black"/>
<path d="M16.7339 32.0017C16.5614 32.0016 16.3915 31.9598 16.2386 31.88C14.1735 30.7999 12.5105 29.0843 11.4953 26.9866C10.4801 24.8888 10.1664 22.5202 10.6007 20.2305L11.0217 18.0103C11.2874 16.6162 11.2874 15.1844 11.0217 13.7903L10.5961 11.5447C10.1705 9.27671 10.4982 6.93177 11.529 4.86721C12.5598 2.80264 14.2373 1.13167 16.3059 0.108945C16.4534 0.0361565 16.6157 -0.00170898 16.7802 -0.00170898C16.9447 -0.00170898 17.107 0.0361565 17.2545 0.108945C19.303 1.12835 20.9623 2.78925 21.9796 4.83876C22.997 6.88826 23.3167 9.21409 22.8901 11.4621L22.4491 13.788C22.1835 15.1821 22.1835 16.6139 22.4491 18.008L22.8702 20.2283C23.3047 22.518 22.9911 24.8868 21.9759 26.9847C20.9606 29.0826 19.2976 30.7983 17.2323 31.8785C17.0786 31.9593 16.9076 32.0016 16.7339 32.0017ZM16.7745 2.28172C15.2609 3.15475 14.0557 4.47626 13.3254 6.06369C12.5951 7.65112 12.3758 9.42614 12.6977 11.1436L13.1233 13.3891C13.4395 15.0465 13.4395 16.7487 13.1233 18.4061L12.7022 20.6264C12.372 22.3697 12.581 24.1723 13.3013 25.7938C14.0216 27.4154 15.219 28.7789 16.7339 29.7026C18.2494 28.7794 19.4472 27.416 20.1677 25.7943C20.8882 24.1726 21.0971 22.3698 20.7663 20.6264L20.3453 18.4061C20.0291 16.7487 20.0291 15.0465 20.3453 13.3891L20.7863 11.064C21.1036 9.36515 20.8886 7.60978 20.1705 6.03782C19.4524 4.46586 18.2664 3.15405 16.7745 2.28172Z" fill="black"/>
<path d="M54.0154 24.5H42.5434V7.964H53.6314V10.46H45.3754V14.948H52.4074V17.372H45.3754V22.004H54.0154V24.5ZM56.6048 24.5H53.5808L58.1168 18.428L54.1088 12.74H57.3008L59.8208 16.676L62.3888 12.74H65.3168L61.3328 18.308L65.8448 24.5H62.5568L59.6048 20.156L56.6048 24.5ZM72.754 12.476C75.49 12.476 77.482 14.612 77.482 18.596C77.482 22.436 75.466 24.788 72.61 24.788C70.642 24.788 69.394 23.684 68.794 22.292V29.18H66.058V12.74H68.722V15.14C69.346 13.604 70.738 12.476 72.754 12.476ZM71.746 22.772C73.57 22.772 74.698 21.284 74.698 18.668C74.698 15.98 73.618 14.492 71.77 14.492C69.898 14.492 68.746 16.172 68.746 18.62C68.746 21.212 69.922 22.772 71.746 22.772ZM81.3987 24.5H78.6627V7.964H81.3987V24.5ZM88.198 24.764C84.958 24.764 82.534 22.46 82.534 18.572C82.534 14.708 84.982 12.38 88.198 12.38C91.438 12.38 93.91 14.732 93.91 18.572C93.91 22.484 91.438 24.764 88.198 24.764ZM88.198 22.652C89.998 22.652 91.102 21.236 91.102 18.572C91.102 15.932 89.998 14.516 88.198 14.516C86.422 14.516 85.318 15.908 85.318 18.572C85.318 21.236 86.422 22.652 88.198 22.652ZM97.7715 24.5H95.0595V12.74H97.7235V15.956C98.4195 13.796 99.8355 12.404 101.972 12.404C102.14 12.404 102.284 12.404 102.452 12.428V15.236C102.236 15.188 102.02 15.188 101.732 15.188C99.3315 15.188 97.7715 16.484 97.7715 19.508V24.5ZM113.254 18.668V19.148H104.83C104.902 21.236 105.91 22.676 107.974 22.676C109.462 22.676 110.422 21.812 110.95 20.42L113.206 21.356C112.486 23.204 110.734 24.764 107.878 24.764C104.182 24.764 102.142 22.316 102.142 18.572C102.142 14.66 104.59 12.38 107.806 12.38C111.286 12.38 113.254 14.828 113.254 18.668ZM107.782 14.396C106.15 14.396 105.094 15.452 104.902 17.276H110.518C110.422 15.356 109.366 14.396 107.782 14.396ZM117.145 24.5H114.433V12.74H117.097V15.956C117.793 13.796 119.209 12.404 121.345 12.404C121.513 12.404 121.657 12.404 121.825 12.428V15.236C121.609 15.188 121.393 15.188 121.105 15.188C118.705 15.188 117.145 16.484 117.145 19.508V24.5Z" fill="black"/>
</svg>
