<svg width="366" height="36" viewBox="0 0 366 36" fill="none" xmlns="http://www.w3.org/2000/svg">
<path fill-rule="evenodd" clip-rule="evenodd" d="M21.4258 14.5673C22.4611 16.0185 23.0231 17.7806 23.0083 19.5576C23.0083 21.3049 22.4463 23.0522 21.4258 24.4738L23.5851 26.1175C24.9606 24.2221 25.7148 21.912 25.7148 19.5724C25.7296 17.0994 24.9162 14.6709 23.4224 12.7163L22.1841 13.8326L21.4258 14.5673Z" fill="#02E2AC"/>
<path fill-rule="evenodd" clip-rule="evenodd" d="M25.5078 27.5733L18.246 22.05C18.7637 21.3688 19.0595 20.5396 19.1038 19.6807C19.1334 18.8218 18.9116 17.9778 18.4531 17.2522L21.9287 14.1129L25.567 10.7071C25.8036 10.485 25.8184 10.1 25.5818 9.86303L25.0789 9.35956C22.4907 6.73855 19.0003 5.21333 15.3324 5.09486L15.3472 3.09579C15.362 2.96252 15.3472 2.82925 15.3176 2.69597C15.2732 2.5627 15.2141 2.44424 15.1254 2.34058C15.0366 2.23693 14.9331 2.16289 14.8 2.10366C14.6817 2.04442 14.5485 2.01481 14.4154 2.01481C14.2823 2.01481 14.1492 2.04442 14.0309 2.10366C13.9126 2.16289 13.7943 2.23693 13.7055 2.34058C13.6168 2.44424 13.5428 2.5627 13.5133 2.68117C13.4689 2.81444 13.4541 2.94771 13.4837 3.08098L13.4689 5.13929C12.5963 5.22814 11.7237 5.39102 10.8807 5.64276L10.8955 3.08098C10.9102 2.94771 10.8955 2.81444 10.8659 2.68117C10.8215 2.54789 10.7623 2.42943 10.6736 2.32578C10.5849 2.22212 10.4813 2.14808 10.3482 2.08885C10.2299 2.02962 10.0968 2 9.9637 2C9.83059 2 9.69748 2.02962 9.57916 2.08885C9.46084 2.14808 9.34252 2.22212 9.25378 2.32578C9.16504 2.42943 9.09109 2.54789 9.06152 2.66636C9.01715 2.79963 9.00236 2.9329 9.03194 3.06617L8.98757 6.33873C6.00002 7.67145 3.5449 9.9963 2.05113 12.9135C0.557355 15.8306 0.0840806 19.1772 0.734834 22.3906C1.38559 25.6039 3.116 28.5062 5.63027 30.609C8.14455 32.7117 11.3096 33.8963 14.5781 33.9556L25.1529 34C25.4782 34 25.7445 33.7335 25.7445 33.4077V28.062C25.7445 27.8695 25.6557 27.6918 25.5078 27.5733ZM14.7852 31.379C12.1822 31.3642 9.65311 30.4905 7.59732 28.9061C5.54153 27.3068 4.06255 25.0708 3.39701 22.5534C2.73146 20.0361 2.92373 17.3559 3.91465 14.957C4.92036 12.5581 6.68035 10.5442 8.9432 9.24109L8.92841 13.1356C8.91362 13.2689 8.92841 13.4021 8.95799 13.5354C9.00236 13.6687 9.06152 13.7871 9.15026 13.8908C9.23899 13.9944 9.34252 14.0685 9.47563 14.1277C9.59395 14.1869 9.72706 14.2166 9.86017 14.2166C9.99328 14.2166 10.1264 14.1869 10.2447 14.1277C10.363 14.0685 10.4813 13.9944 10.5701 13.8908C10.6588 13.7871 10.7328 13.6687 10.7623 13.5502C10.8067 13.4169 10.8215 13.2837 10.7919 13.1504L10.8067 8.36742C12.1082 7.89357 13.4837 7.67145 14.8739 7.67145C17.4326 7.67145 19.9173 8.5155 21.9435 10.0555C22.0914 10.174 22.1062 10.3813 21.9731 10.5146L16.4416 15.5937C15.9388 15.3864 15.3916 15.2679 14.8443 15.2679C14.238 15.2679 13.6316 15.3864 13.0696 15.6381C12.5075 15.8899 12.0195 16.2601 11.6202 16.7191C11.2208 17.1782 10.925 17.7261 10.7476 18.3036C10.5701 18.8959 10.5257 19.503 10.6144 20.1101C10.7032 20.7173 10.9102 21.2948 11.2356 21.813C11.561 22.3313 12.0047 22.7608 12.5075 23.1013C13.0252 23.4271 13.602 23.6492 14.2084 23.7381C14.8148 23.8269 15.4359 23.7825 16.0127 23.6048L23.0823 28.9801C23.1562 29.0393 23.2006 29.1282 23.2006 29.217L23.1858 31.1124C23.1858 31.2753 23.0527 31.4086 22.89 31.4086L14.7852 31.379ZM16.5156 19.5326C16.5156 19.8584 16.4121 20.1842 16.2346 20.4655C16.0423 20.7469 15.7909 20.9542 15.4803 21.0875C15.1697 21.2207 14.8296 21.2503 14.519 21.1763C14.2084 21.1023 13.8978 20.9542 13.6612 20.7173C13.4245 20.4803 13.2618 20.1842 13.2027 19.8584C13.1435 19.5326 13.1731 19.192 13.3062 18.8959C13.4393 18.5849 13.6464 18.3332 13.9274 18.1407C14.2084 17.963 14.5338 17.8593 14.8591 17.8593C15.3028 17.8593 15.7317 18.037 16.0423 18.3628C16.3381 18.659 16.5156 19.0736 16.5156 19.5326Z" fill="white"/>
<rect x="49.752" y="10" width="1" height="16" fill="#757087"/>
<path d="M96.3557 20.7623L98.0991 19.4628C101.798 16.7058 103.266 11.8586 101.719 7.51232C101.666 7.36437 101.55 7.24773 101.403 7.19437C97.0241 5.61257 92.1252 7.08331 89.3432 10.8159L88.0856 12.5032C87.3108 13.5427 86.3893 14.4642 85.3498 15.239L83.6851 16.4797C79.9197 19.2862 78.3782 24.1909 79.861 28.6469C79.9152 28.8096 80.0429 28.9373 80.2057 28.9915C84.6617 30.4743 89.5663 28.9328 92.3729 25.1674L93.6089 23.5091C94.3868 22.4654 95.312 21.5402 96.3557 20.7623Z" fill="#F5DA59"/>
<path d="M88.0423 23.5557L89.3417 25.2991C92.0987 28.9982 96.9459 30.4664 101.292 28.919C101.44 28.8664 101.557 28.7502 101.61 28.6025C103.192 24.2241 101.721 19.3252 97.9886 16.5432L96.3013 15.2856C95.2618 14.5108 94.3403 13.5893 93.5655 12.5498L92.3248 10.8851C89.5183 7.11973 84.6136 5.57822 80.1576 7.06106C79.9949 7.11522 79.8672 7.24293 79.813 7.40569C78.3302 11.8617 79.8717 16.7664 83.6371 19.5729L85.2954 20.8089C86.3391 21.5868 87.2644 22.512 88.0423 23.5557Z" fill="#F5DA59"/>
<path d="M87.9976 12.9628L86.3853 12.5864C82.0325 11.5702 77.5601 13.7254 75.6426 17.7631C75.5614 17.9341 75.561 18.1325 75.6414 18.3039C77.5571 22.3868 82.0684 24.5747 86.4604 23.5494L88.0073 23.1883C89.729 22.7863 91.5202 22.7863 93.2419 23.1883L94.766 23.5441C99.1965 24.5784 103.758 22.4384 105.795 18.3701C105.887 18.1854 105.887 17.9679 105.795 17.7832C103.758 13.7149 99.1965 11.5749 94.766 12.6092L93.2516 12.9628C91.5235 13.3662 89.7257 13.3662 87.9976 12.9628Z" fill="#8C65F7"/>
<path d="M96.1783 15.6663L96.5346 13.788C97.3739 9.36294 95.1216 4.92887 91.0532 2.99679C90.8749 2.91214 90.6681 2.91169 90.4894 2.99551C86.3751 4.92601 84.0891 9.39853 84.936 13.8637L85.2796 15.6752C85.5677 17.1938 85.5677 18.7529 85.2796 20.2715L84.9402 22.0612C84.0862 26.5636 86.3244 31.0858 90.4222 33.1372C90.6148 33.2336 90.8415 33.2336 91.034 33.1372C95.1318 31.0858 97.3701 26.5636 96.5161 22.0612L96.1783 20.2804C95.8891 18.756 95.8891 17.1908 96.1783 15.6663Z" fill="#02E2AC"/>
<circle cx="90.7759" cy="18.0767" r="5.14269" transform="rotate(-180 90.7759 18.0767)" fill="#F5DA59"/>
<path d="M125.456 16.872H134.792C134.792 17.832 134.752 18.704 134.672 19.488C134.592 20.272 134.432 21 134.192 21.672C133.856 22.616 133.4 23.456 132.824 24.192C132.248 24.912 131.568 25.52 130.784 26.016C130.016 26.496 129.168 26.864 128.24 27.12C127.312 27.376 126.336 27.504 125.312 27.504C123.904 27.504 122.616 27.272 121.448 26.808C120.296 26.344 119.304 25.696 118.472 24.864C117.64 24.016 116.992 23.008 116.528 21.84C116.064 20.656 115.832 19.352 115.832 17.928C115.832 16.52 116.056 15.232 116.504 14.064C116.968 12.88 117.616 11.872 118.448 11.04C119.296 10.208 120.312 9.56 121.496 9.096C122.68 8.632 124 8.4 125.456 8.4C127.344 8.4 129 8.808 130.424 9.624C131.848 10.44 132.976 11.704 133.808 13.416L129.344 15.264C128.928 14.272 128.384 13.56 127.712 13.128C127.056 12.696 126.304 12.48 125.456 12.48C124.752 12.48 124.112 12.616 123.536 12.888C122.96 13.144 122.464 13.52 122.048 14.016C121.648 14.496 121.328 15.08 121.088 15.768C120.864 16.456 120.752 17.224 120.752 18.072C120.752 18.84 120.848 19.552 121.04 20.208C121.248 20.864 121.552 21.432 121.952 21.912C122.352 22.392 122.848 22.768 123.44 23.04C124.032 23.296 124.72 23.424 125.504 23.424C125.968 23.424 126.416 23.376 126.848 23.28C127.28 23.168 127.664 23 128 22.776C128.352 22.536 128.64 22.232 128.864 21.864C129.088 21.496 129.24 21.048 129.32 20.52H125.456V16.872ZM143.909 16.992H144.797C145.725 16.992 146.437 16.8 146.933 16.416C147.429 16.032 147.677 15.48 147.677 14.76C147.677 14.04 147.429 13.488 146.933 13.104C146.437 12.72 145.725 12.528 144.797 12.528H143.909V16.992ZM154.253 27H148.397L143.909 20.04V27H139.205V8.904H146.525C147.533 8.904 148.413 9.056 149.165 9.36C149.917 9.648 150.533 10.048 151.013 10.56C151.509 11.072 151.877 11.664 152.117 12.336C152.373 13.008 152.501 13.728 152.501 14.496C152.501 15.872 152.165 16.992 151.493 17.856C150.837 18.704 149.861 19.28 148.565 19.584L154.253 27ZM167.501 20.28L165.389 14.256L163.277 20.28H167.501ZM168.749 23.856H162.029L160.949 27H155.933L162.821 8.904H167.957L174.845 27H169.829L168.749 23.856ZM178.343 27V8.904H183.047L191.735 19.968V8.904H196.415V27H191.735L183.047 15.936V27H178.343ZM208.514 12.888V27H203.81V12.888H199.946V8.904H212.378V12.888H208.514ZM235.803 12.888H230.211V15.912H235.491V19.896H230.211V23.016H235.803V27H225.507V8.904H235.803V12.888ZM245.818 17.352L240.178 8.904H245.986L248.434 13.584L251.458 8.904H257.266L251.29 17.352L258.034 27H252.298L248.674 21.096L244.426 27H238.738L245.818 17.352ZM266.067 17.208H267.627C269.355 17.208 270.219 16.456 270.219 14.952C270.219 13.448 269.355 12.696 267.627 12.696H266.067V17.208ZM266.067 27H261.363V8.904H268.851C270.883 8.904 272.435 9.432 273.507 10.488C274.595 11.544 275.139 13.032 275.139 14.952C275.139 16.872 274.595 18.36 273.507 19.416C272.435 20.472 270.883 21 268.851 21H266.067V27ZM283.773 8.904V23.016H289.413V27H279.069V8.904H283.773ZM297.035 17.952C297.035 18.672 297.171 19.336 297.443 19.944C297.715 20.552 298.083 21.08 298.547 21.528C299.011 21.976 299.547 22.328 300.155 22.584C300.779 22.824 301.435 22.944 302.123 22.944C302.811 22.944 303.459 22.824 304.067 22.584C304.691 22.328 305.235 21.976 305.699 21.528C306.179 21.08 306.555 20.552 306.827 19.944C307.099 19.336 307.235 18.672 307.235 17.952C307.235 17.232 307.099 16.568 306.827 15.96C306.555 15.352 306.179 14.824 305.699 14.376C305.235 13.928 304.691 13.584 304.067 13.344C303.459 13.088 302.811 12.96 302.123 12.96C301.435 12.96 300.779 13.088 300.155 13.344C299.547 13.584 299.011 13.928 298.547 14.376C298.083 14.824 297.715 15.352 297.443 15.96C297.171 16.568 297.035 17.232 297.035 17.952ZM292.115 17.952C292.115 16.608 292.363 15.36 292.859 14.208C293.355 13.04 294.043 12.024 294.923 11.16C295.803 10.296 296.851 9.624 298.067 9.144C299.299 8.648 300.651 8.4 302.123 8.4C303.579 8.4 304.923 8.648 306.155 9.144C307.387 9.624 308.443 10.296 309.323 11.16C310.219 12.024 310.915 13.04 311.411 14.208C311.907 15.36 312.155 16.608 312.155 17.952C312.155 19.296 311.907 20.552 311.411 21.72C310.915 22.872 310.219 23.88 309.323 24.744C308.443 25.608 307.387 26.288 306.155 26.784C304.923 27.264 303.579 27.504 302.123 27.504C300.651 27.504 299.299 27.264 298.067 26.784C296.851 26.288 295.803 25.608 294.923 24.744C294.043 23.88 293.355 22.872 292.859 21.72C292.363 20.552 292.115 19.296 292.115 17.952ZM321.27 16.992H322.158C323.086 16.992 323.798 16.8 324.294 16.416C324.79 16.032 325.038 15.48 325.038 14.76C325.038 14.04 324.79 13.488 324.294 13.104C323.798 12.72 323.086 12.528 322.158 12.528H321.27V16.992ZM331.614 27H325.758L321.27 20.04V27H316.566V8.904H323.886C324.894 8.904 325.774 9.056 326.526 9.36C327.278 9.648 327.894 10.048 328.374 10.56C328.87 11.072 329.238 11.664 329.478 12.336C329.734 13.008 329.862 13.728 329.862 14.496C329.862 15.872 329.526 16.992 328.854 17.856C328.198 18.704 327.222 19.28 325.926 19.584L331.614 27ZM345.318 12.888H339.726V15.912H345.006V19.896H339.726V23.016H345.318V27H335.022V8.904H345.318V12.888ZM354.853 16.992H355.741C356.669 16.992 357.381 16.8 357.877 16.416C358.373 16.032 358.621 15.48 358.621 14.76C358.621 14.04 358.373 13.488 357.877 13.104C357.381 12.72 356.669 12.528 355.741 12.528H354.853V16.992ZM365.197 27H359.341L354.853 20.04V27H350.149V8.904H357.469C358.477 8.904 359.357 9.056 360.109 9.36C360.861 9.648 361.477 10.048 361.957 10.56C362.453 11.072 362.821 11.664 363.061 12.336C363.317 13.008 363.445 13.728 363.445 14.496C363.445 15.872 363.109 16.992 362.437 17.856C361.781 18.704 360.805 19.28 359.509 19.584L365.197 27Z" fill="white"/>
</svg>
