<svg width="20" height="18" viewBox="0 0 20 18" fill="none" xmlns="http://www.w3.org/2000/svg">
<path d="M17.8986 4.91089C17.9107 5.08587 17.9107 5.26086 17.9107 5.43745C17.9107 10.8184 13.8139 17.0242 6.32282 17.0242V17.021C4.10992 17.0242 1.94298 16.3904 0.0800781 15.1954C0.401852 15.2341 0.725239 15.2534 1.04943 15.2542C2.8833 15.2558 4.66476 14.6406 6.1075 13.5076C4.36476 13.4746 2.83653 12.3384 2.30266 10.6797C2.91314 10.7974 3.54217 10.7732 4.14137 10.6095C2.24137 10.2257 0.874433 8.5565 0.874433 6.61798V6.56637C1.44056 6.88167 2.07443 7.05665 2.72282 7.076C0.933304 5.88015 0.381691 3.49974 1.46234 1.63863C3.53008 4.18274 6.58088 5.72936 9.85588 5.89305C9.52766 4.47868 9.97605 2.99656 11.0341 2.00231C12.6744 0.460522 15.2543 0.539547 16.7962 2.1789C17.7083 1.99908 18.5825 1.66444 19.3825 1.19029C19.0785 2.13294 18.4422 2.93367 17.5922 3.44249C18.3994 3.34734 19.1881 3.13123 19.9309 2.80142C19.3841 3.6207 18.6954 4.33434 17.8986 4.91089Z" fill="#1D9BF0"/>
</svg>