<svg width="141" height="15" viewBox="0 0 282 30" fill="none" xmlns="http://www.w3.org/2000/svg">
<path d="M15.2971 13.2321H29.6484C29.6484 14.7079 29.5869 16.0483 29.4639 17.2535C29.3409 18.4586 29.095 19.5777 28.726 20.6107C28.2095 22.0618 27.5086 23.3531 26.6232 24.4844C25.7377 25.5912 24.6924 26.5258 23.4873 27.2883C22.3067 28.0262 21.0032 28.5918 19.5766 28.9854C18.1501 29.3789 16.6498 29.5757 15.0757 29.5757C12.9113 29.5757 10.9314 29.219 9.13597 28.5058C7.36511 27.7925 5.84021 26.7964 4.56126 25.5174C3.28231 24.2139 2.2862 22.6644 1.57294 20.869C0.859682 19.0489 0.503052 17.0444 0.503052 14.8554C0.503052 12.691 0.847385 10.7111 1.53605 8.91568C2.24931 7.09564 3.24542 5.54614 4.52437 4.26719C5.82791 2.98824 7.38971 1.99214 9.20975 1.27887C11.0298 0.565615 13.0589 0.208984 15.2971 0.208984C18.1993 0.208984 20.7449 0.836162 22.9339 2.09052C25.1228 3.34487 26.8568 5.28789 28.1358 7.91958L21.2737 10.7603C20.6342 9.23542 19.798 8.14094 18.765 7.47687C17.7566 6.8128 16.6006 6.48076 15.2971 6.48076C14.2149 6.48076 13.2311 6.68982 12.3456 7.10794C11.4602 7.50146 10.6978 8.07945 10.0583 8.8419C9.44341 9.57976 8.9515 10.4775 8.58257 11.5351C8.23824 12.5927 8.06608 13.7732 8.06608 15.0768C8.06608 16.2574 8.21365 17.3518 8.50879 18.3602C8.82853 19.3686 9.29584 20.2418 9.91072 20.9796C10.5256 21.7175 11.288 22.2955 12.1981 22.7136C13.1081 23.1071 14.1657 23.3039 15.3708 23.3039C16.0841 23.3039 16.7728 23.2301 17.4368 23.0825C18.1009 22.9104 18.6912 22.6521 19.2077 22.3078C19.7488 21.9388 20.1915 21.4715 20.5358 20.9058C20.8802 20.3402 21.1138 19.6515 21.2368 18.8398H15.2971V13.2321Z" fill="#0E0303"/>
<path d="M43.6633 13.4166H45.0283C46.4549 13.4166 47.5493 13.1215 48.3118 12.5312C49.0742 11.9409 49.4555 11.0924 49.4555 9.98557C49.4555 8.87879 49.0742 8.03026 48.3118 7.43997C47.5493 6.84969 46.4549 6.55455 45.0283 6.55455H43.6633V13.4166ZM59.5641 28.8009H50.5623L43.6633 18.102V28.8009H36.4323V0.983734H47.6846C49.2341 0.983734 50.5868 1.21739 51.7428 1.6847C52.8988 2.12741 53.8457 2.74229 54.5836 3.52934C55.346 4.31638 55.9117 5.2264 56.2806 6.2594C56.6742 7.2924 56.8709 8.39919 56.8709 9.57976C56.8709 11.6949 56.3544 13.4166 55.3214 14.7447C54.313 16.0483 52.8127 16.9337 50.8205 17.401L59.5641 28.8009Z" fill="#0E0303"/>
<path d="M79.9283 18.4709L76.6818 9.21083L73.4352 18.4709H79.9283ZM81.8468 23.9679H71.5168L69.8566 28.8009H62.146L72.7342 0.983734H80.6293L91.2175 28.8009H83.5069L81.8468 23.9679Z" fill="#0E0303"/>
<path d="M96.595 28.8009V0.983734H103.826L117.181 17.9913V0.983734H124.375V28.8009H117.181L103.826 11.7933V28.8009H96.595Z" fill="#0E0303"/>
<path d="M142.974 7.10794V28.8009H135.743V7.10794H129.803V0.983734H148.914V7.10794H142.974Z" fill="#0E0303"/>
<path d="M169.653 8.10404C168.866 7.46457 168.079 6.99726 167.292 6.70212C166.505 6.38238 165.743 6.22251 165.005 6.22251C164.07 6.22251 163.308 6.44387 162.718 6.88658C162.127 7.32929 161.832 7.90728 161.832 8.62054C161.832 9.11245 161.98 9.51827 162.275 9.83801C162.57 10.1577 162.951 10.4406 163.418 10.6865C163.91 10.9079 164.451 11.1047 165.042 11.2768C165.657 11.449 166.259 11.6335 166.85 11.8302C169.211 12.6173 170.932 13.6749 172.015 15.003C173.121 16.3065 173.675 18.0159 173.675 20.1311C173.675 21.5576 173.429 22.8489 172.937 24.0048C172.47 25.1608 171.769 26.1569 170.834 26.9932C169.924 27.8048 168.793 28.432 167.44 28.8747C166.112 29.342 164.599 29.5757 162.902 29.5757C159.385 29.5757 156.126 28.5304 153.125 26.4398L156.224 20.6107C157.307 21.5699 158.376 22.2832 159.434 22.7505C160.492 23.2178 161.537 23.4514 162.57 23.4514C163.751 23.4514 164.624 23.1809 165.189 22.6398C165.78 22.0987 166.075 21.4838 166.075 20.7952C166.075 20.377 166.001 20.0204 165.853 19.7253C165.706 19.4055 165.46 19.1227 165.116 18.8767C164.771 18.6062 164.316 18.3602 163.751 18.1389C163.209 17.9175 162.545 17.6716 161.758 17.401C160.824 17.1059 159.901 16.7861 158.991 16.4418C158.106 16.0729 157.307 15.5933 156.593 15.003C155.905 14.4127 155.339 13.6749 154.896 12.7894C154.478 11.8794 154.269 10.7357 154.269 9.3584C154.269 7.98107 154.49 6.73901 154.933 5.63223C155.4 4.50085 156.04 3.54163 156.852 2.75459C157.688 1.94295 158.696 1.31577 159.877 0.873055C161.082 0.430341 162.422 0.208984 163.898 0.208984C165.275 0.208984 166.714 0.405746 168.215 0.799268C169.715 1.1682 171.154 1.72159 172.531 2.45944L169.653 8.10404Z" fill="#0E0303"/>
<path d="M202.426 11.7195H212.867V0.983734H220.098V28.8009H212.867V17.3272H202.426V28.8009H195.195V0.983734H202.426V11.7195Z" fill="#0E0303"/>
<path d="M235.372 0.983734V16.1098C235.372 16.9214 235.396 17.7577 235.446 18.6185C235.519 19.4547 235.704 20.2172 235.999 20.9058C236.319 21.5945 236.811 22.1602 237.475 22.6029C238.139 23.021 239.073 23.2301 240.279 23.2301C241.484 23.2301 242.406 23.021 243.046 22.6029C243.71 22.1602 244.201 21.5945 244.521 20.9058C244.841 20.2172 245.025 19.4547 245.075 18.6185C245.148 17.7577 245.185 16.9214 245.185 16.1098V0.983734H252.379V17.1059C252.379 21.4346 251.383 24.5951 249.391 26.5873C247.423 28.5795 244.386 29.5757 240.279 29.5757C236.171 29.5757 233.121 28.5795 231.129 26.5873C229.137 24.5951 228.141 21.4346 228.141 17.1059V0.983734H235.372Z" fill="#0E0303"/>
<path d="M267.669 23.1932H269.255C271.075 23.1932 272.379 22.9595 273.166 22.4922C273.953 22.0249 274.346 21.2748 274.346 20.2418C274.346 19.2088 273.953 18.4586 273.166 17.9913C272.379 17.524 271.075 17.2903 269.255 17.2903H267.669V23.1932ZM267.669 11.904H268.997C271.26 11.904 272.391 11.0063 272.391 9.21083C272.391 7.41538 271.26 6.51765 268.997 6.51765H267.669V11.904ZM260.438 0.983734H271.211C273.769 0.983734 275.711 1.59861 277.04 2.82837C278.368 4.05813 279.032 5.82899 279.032 8.14094C279.032 9.54286 278.774 10.7111 278.257 11.6458C277.765 12.5558 277.003 13.3305 275.97 13.97C277.003 14.1668 277.876 14.4742 278.589 14.8923C279.327 15.2858 279.917 15.7777 280.36 16.368C280.827 16.9583 281.159 17.6224 281.356 18.3602C281.553 19.0981 281.651 19.8851 281.651 20.7214C281.651 22.0249 281.418 23.1809 280.95 24.1893C280.508 25.1977 279.868 26.0462 279.032 26.7349C278.22 27.4236 277.224 27.9401 276.044 28.2844C274.863 28.6287 273.535 28.8009 272.059 28.8009H260.438V0.983734Z" fill="#0E0303"/>
</svg>
