<svg width="40" height="40" viewBox="0 0 40 40" fill="none" xmlns="http://www.w3.org/2000/svg">
<circle cx="20" cy="20" r="20" fill="#F3F3F5"/>
<path d="M11 11H13L13.4 13M15 21H25L29 13H13.4M15 21L13.4 13M15 21L12.7071 23.2929C12.0771 23.9229 12.5233 25 13.4142 25H25M25 25C23.8954 25 23 25.8954 23 27C23 28.1046 23.8954 29 25 29C26.1046 29 27 28.1046 27 27C27 25.8954 26.1046 25 25 25ZM17 27C17 28.1046 16.1046 29 15 29C13.8954 29 13 28.1046 13 27C13 25.8954 13.8954 25 15 25C16.1046 25 17 25.8954 17 27Z" stroke="#0E0333" stroke-width="2" stroke-linecap="round" stroke-linejoin="round"/>
</svg>