<svg width="20" height="20" viewBox="0 0 20 20" fill="none" xmlns="http://www.w3.org/2000/svg">
<path fill-rule="evenodd" clip-rule="evenodd" d="M10 20C15.5229 20 20 15.5229 20 10C20 4.47716 15.5229 0 10 0C4.47716 0 0 4.47716 0 10C0 15.5229 4.47716 20 10 20Z" fill="currentColor"/>
<path fill-rule="evenodd" clip-rule="evenodd" d="M10 20C15.5229 20 20 15.5229 20 10C20 4.47716 15.5229 0 10 0C4.47716 0 0 4.47716 0 10C0 15.5229 4.47716 20 10 20Z" fill="url(#paint0_linear_1880_8435)" fill-opacity="0.3"/>
<path d="M5.84961 10.5505L9.99961 13.0058L14.1488 10.5505L9.99961 16.3994L5.84961 10.5505Z" fill="url(#paint1_linear_1880_8435)"/>
<path d="M9.99961 12.0913L5.84961 9.63604L9.99961 3.09998L14.1496 9.63604L9.99961 12.0913Z" fill="white"/>
<defs>
<linearGradient id="paint0_linear_1880_8435" x1="0" y1="0" x2="10" y2="20" gradientUnits="userSpaceOnUse">
<stop stop-color="white"/>
<stop offset="1" stop-color="white" stop-opacity="0"/>
</linearGradient>
<linearGradient id="paint1_linear_1880_8435" x1="9.99921" y1="10.5505" x2="9.99921" y2="16.3994" gradientUnits="userSpaceOnUse">
<stop stop-color="white"/>
<stop offset="1" stop-color="white" stop-opacity="0.9"/>
</linearGradient>
</defs>
</svg>
