<svg width="16" height="16" viewBox="0 0 16 16" fill="none" xmlns="http://www.w3.org/2000/svg">
<path fill-rule="evenodd" clip-rule="evenodd" d="M2.08296 7H4.02863C4.11783 5.45361 4.41228 4.02907 4.86644 2.88228C3.41752 3.77135 2.37513 5.25848 2.08296 7ZM8 0C3.58172 0 0 3.58172 0 8C0 12.4183 3.58172 16 8 16C12.4183 16 16 12.4183 16 8C16 3.58172 12.4183 0 8 0ZM8 2C7.92395 2 7.76787 2.03173 7.5347 2.26184C7.29723 2.4962 7.03751 2.8849 6.79782 3.44417C6.40914 4.3511 6.12491 5.58559 6.03237 7H9.96763C9.87509 5.58559 9.59086 4.3511 9.20218 3.44417C8.96249 2.8849 8.70277 2.4962 8.4653 2.26184C8.23213 2.03173 8.07605 2 8 2ZM11.9714 7C11.8822 5.45361 11.5877 4.02907 11.1336 2.88228C12.5825 3.77135 13.6249 5.25848 13.917 7H11.9714ZM9.96763 9H6.03237C6.12491 10.4144 6.40914 11.6489 6.79782 12.5558C7.03751 13.1151 7.29723 13.5038 7.5347 13.7382C7.76787 13.9683 7.92395 14 8 14C8.07605 14 8.23213 13.9683 8.4653 13.7382C8.70277 13.5038 8.96249 13.1151 9.20218 12.5558C9.59086 11.6489 9.87509 10.4144 9.96763 9ZM11.1336 13.1177C11.5877 11.9709 11.8822 10.5464 11.9714 9H13.917C13.6249 10.7415 12.5825 12.2287 11.1336 13.1177ZM4.86644 13.1177C4.41228 11.9709 4.11783 10.5464 4.02863 9H2.08296C2.37513 10.7415 3.41752 12.2287 4.86644 13.1177Z" fill="currentColor"/>
</svg>
