<svg width="941" height="839" viewBox="0 0 941 839" fill="none" xmlns="http://www.w3.org/2000/svg">
    <g filter="url(#filter0_f_737_3512)">
        <path
            d="M702 418.271C702 538.819 369.62 772 249.351 772C129.081 772 266.465 538.819 266.465 418.271C266.465 297.723 363.963 200 484.232 200C604.502 200 702 297.723 702 418.271Z"
            fill="#D3EDFE"
        />
    </g>
    <g filter="url(#filter0_f_737_3511)">
        <path
            d="M705 393.5C705 500.367 618.275 587 511.294 587C404.313 587 200 500.367 200 393.5C200 286.633 404.313 200 511.294 200C618.275 200 705 286.633 705 393.5Z"
            fill="#FFEFBE"
        />
    </g>
    <g filter="url(#filter0_f_737_3510)">
        <path
            d="M710.077 272.5C710.077 393.727 611.666 492 490.271 492C368.875 492 200 305.506 200 184.28C200 63.0534 368.875 53 490.271 53C862.574 115.489 710.077 151.273 710.077 272.5Z"
            fill="#D9D6FF"
        />
    </g>
    <defs>
        <filter id="filter0_f_737_3512" x="0" y="0" width="902" height="972"
            filterUnits="userSpaceOnUse" colorInterpolationFilters="sRGB">
            <feFlood floodOpacity="0" result="BackgroundImageFix" />
            <feBlend mode="normal" in="SourceGraphic" in2="BackgroundImageFix" result="shape" />
            <feGaussianBlur stdDeviation="100" result="effect1_foregroundBlur_737_3512" />
        </filter>
        <filter id="filter0_f_737_3511" x="0" y="0" width="905" height="787"
            filterUnits="userSpaceOnUse" colorInterpolationFilters="sRGB">
            <feFlood floodOpacity="0" result="BackgroundImageFix" />
            <feBlend mode="normal" in="SourceGraphic" in2="BackgroundImageFix" result="shape" />
            <feGaussianBlur stdDeviation="100" result="effect1_foregroundBlur_737_3511" />
        </filter>
        <filter id="filter0_f_737_3510" x="0" y="-147" width="941" height="839"
            filterUnits="userSpaceOnUse" colorInterpolationFilters="sRGB">
            <feFlood floodOpacity="0" result="BackgroundImageFix" />
            <feBlend mode="normal" in="SourceGraphic" in2="BackgroundImageFix" result="shape" />
            <feGaussianBlur stdDeviation="100" result="effect1_foregroundBlur_737_3510" />
        </filter>
    </defs>
</svg>