<svg width="79" height="14" viewBox="0 0 79 14" fill="none" xmlns="http://www.w3.org/2000/svg">
<path d="M7.136 6.248H13.36C13.36 6.888 13.3333 7.46933 13.28 7.992C13.2267 8.51467 13.12 9 12.96 9.448C12.736 10.0773 12.432 10.6373 12.048 11.128C11.664 11.608 11.2107 12.0133 10.688 12.344C10.176 12.664 9.61067 12.9093 8.992 13.08C8.37333 13.2507 7.72267 13.336 7.04 13.336C6.10133 13.336 5.24267 13.1813 4.464 12.872C3.696 12.5627 3.03467 12.1307 2.48 11.576C1.92533 11.0107 1.49333 10.3387 1.184 9.56C0.874667 8.77067 0.72 7.90133 0.72 6.952C0.72 6.01333 0.869333 5.15467 1.168 4.376C1.47733 3.58667 1.90933 2.91467 2.464 2.36C3.02933 1.80533 3.70667 1.37333 4.496 1.064C5.28533 0.754666 6.16533 0.599999 7.136 0.599999C8.39467 0.599999 9.49867 0.871999 10.448 1.416C11.3973 1.96 12.1493 2.80267 12.704 3.944L9.728 5.176C9.45067 4.51467 9.088 4.04 8.64 3.752C8.20267 3.464 7.70133 3.32 7.136 3.32C6.66667 3.32 6.24 3.41067 5.856 3.592C5.472 3.76267 5.14133 4.01333 4.864 4.344C4.59733 4.664 4.384 5.05333 4.224 5.512C4.07467 5.97067 4 6.48267 4 7.048C4 7.56 4.064 8.03467 4.192 8.472C4.33067 8.90933 4.53333 9.288 4.8 9.608C5.06667 9.928 5.39733 10.1787 5.792 10.36C6.18667 10.5307 6.64533 10.616 7.168 10.616C7.47733 10.616 7.776 10.584 8.064 10.52C8.352 10.4453 8.608 10.3333 8.832 10.184C9.06667 10.024 9.25867 9.82133 9.408 9.576C9.55733 9.33067 9.65867 9.032 9.712 8.68H7.136V6.248ZM19.4381 0.936V13H16.3021V0.936H19.4381ZM27.4944 3.592V13H24.3584V3.592H21.7824V0.936H30.0704V3.592H27.4944ZM41.0039 4.968C40.2785 4.08267 39.3825 3.64 38.3159 3.64C37.8465 3.64 37.4092 3.72533 37.0039 3.896C36.6092 4.06667 36.2679 4.30133 35.9799 4.6C35.6919 4.888 35.4625 5.23467 35.2919 5.64C35.1319 6.04533 35.0519 6.48267 35.0519 6.952C35.0519 7.432 35.1319 7.87467 35.2919 8.28C35.4625 8.68533 35.6919 9.03733 35.9799 9.336C36.2785 9.63467 36.6252 9.86933 37.0199 10.04C37.4145 10.2107 37.8412 10.296 38.2999 10.296C39.3025 10.296 40.2039 9.86933 41.0039 9.016V12.728L40.6839 12.84C40.2039 13.0107 39.7559 13.1333 39.3399 13.208C38.9239 13.2933 38.5132 13.336 38.1079 13.336C37.2759 13.336 36.4759 13.1813 35.7079 12.872C34.9505 12.552 34.2785 12.1093 33.6919 11.544C33.1159 10.968 32.6519 10.2907 32.2999 9.512C31.9479 8.72267 31.7719 7.864 31.7719 6.936C31.7719 6.008 31.9425 5.16 32.2839 4.392C32.6359 3.61333 33.0999 2.94667 33.6759 2.392C34.2625 1.82667 34.9399 1.38933 35.7079 1.08C36.4759 0.759999 37.2812 0.599999 38.1239 0.599999C38.6039 0.599999 39.0732 0.653333 39.5319 0.759999C40.0012 0.855999 40.4919 1.01067 41.0039 1.224V4.968ZM62.8406 0.936V13H59.7046V0.936H62.8406ZM66.3209 13V0.936H69.4569L75.2489 8.312V0.936H78.3689V13H75.2489L69.4569 5.624V13H66.3209Z" fill="#0E0333"/>
<path d="M46.6838 6.968C46.6838 7.448 46.7744 7.89067 46.9558 8.296C47.1371 8.70133 47.3824 9.05333 47.6918 9.352C48.0011 9.65067 48.3584 9.88533 48.7638 10.056C49.1798 10.216 49.6171 10.296 50.0758 10.296C50.5344 10.296 50.9664 10.216 51.3718 10.056C51.7878 9.88533 52.1504 9.65067 52.4598 9.352C52.7798 9.05333 53.0304 8.70133 53.2118 8.296C53.3931 7.89067 53.4838 7.448 53.4838 6.968C53.4838 6.488 53.3931 6.04533 53.2118 5.64C53.0304 5.23467 52.7798 4.88267 52.4598 4.584C52.1504 4.28533 51.7878 4.056 51.3718 3.896C50.9664 3.72533 50.5344 3.64 50.0758 3.64C49.6171 3.64 49.1798 3.72533 48.7638 3.896C48.3584 4.056 48.0011 4.28533 47.6918 4.584C47.3824 4.88267 47.1371 5.23467 46.9558 5.64C46.7744 6.04533 46.6838 6.488 46.6838 6.968ZM43.4038 6.968C43.4038 6.072 43.5691 5.24 43.8998 4.472C44.2304 3.69333 44.6891 3.016 45.2758 2.44C45.8624 1.864 46.5611 1.416 47.3718 1.096C48.1931 0.765333 49.0944 0.599999 50.0758 0.599999C51.0464 0.599999 51.9424 0.765333 52.7638 1.096C53.5851 1.416 54.2891 1.864 54.8758 2.44C55.4731 3.016 55.9371 3.69333 56.2678 4.472C56.5984 5.24 56.7638 6.072 56.7638 6.968C56.7638 7.864 56.5984 8.70133 56.2678 9.48C55.9371 10.248 55.4731 10.92 54.8758 11.496C54.2891 12.072 53.5851 12.5253 52.7638 12.856C51.9424 13.176 51.0464 13.336 50.0758 13.336C49.0944 13.336 48.1931 13.176 47.3718 12.856C46.5611 12.5253 45.8624 12.072 45.2758 11.496C44.6891 10.92 44.2304 10.248 43.8998 9.48C43.5691 8.70133 43.4038 7.864 43.4038 6.968Z" fill="#02E2AC"/>
</svg>
