<svg width="79" height="14" viewBox="0 0 79 14" fill="none" xmlns="http://www.w3.org/2000/svg">
<path d="M7.136 6.248H13.36C13.36 6.888 13.3333 7.46933 13.28 7.992C13.2267 8.51467 13.12 9 12.96 9.448C12.736 10.0773 12.432 10.6373 12.048 11.128C11.664 11.608 11.2107 12.0133 10.688 12.344C10.176 12.664 9.61067 12.9093 8.992 13.08C8.37333 13.2507 7.72267 13.336 7.04 13.336C6.10133 13.336 5.24267 13.1813 4.464 12.872C3.696 12.5627 3.03467 12.1307 2.48 11.576C1.92533 11.0107 1.49333 10.3387 1.184 9.56C0.874667 8.77067 0.72 7.90133 0.72 6.952C0.72 6.01333 0.869333 5.15467 1.168 4.376C1.47733 3.58667 1.90933 2.91467 2.464 2.36C3.02933 1.80533 3.70667 1.37333 4.496 1.064C5.28533 0.754666 6.16533 0.599999 7.136 0.599999C8.39467 0.599999 9.49867 0.871999 10.448 1.416C11.3973 1.96 12.1493 2.80267 12.704 3.944L9.728 5.176C9.45067 4.51467 9.088 4.04 8.64 3.752C8.20267 3.464 7.70133 3.32 7.136 3.32C6.66667 3.32 6.24 3.41067 5.856 3.592C5.472 3.76267 5.14133 4.01333 4.864 4.344C4.59733 4.664 4.384 5.05333 4.224 5.512C4.07467 5.97067 4 6.48267 4 7.048C4 7.56 4.064 8.03467 4.192 8.472C4.33067 8.90933 4.53333 9.288 4.8 9.608C5.06667 9.928 5.39733 10.1787 5.792 10.36C6.18667 10.5307 6.64533 10.616 7.168 10.616C7.47733 10.616 7.776 10.584 8.064 10.52C8.352 10.4453 8.608 10.3333 8.832 10.184C9.06667 10.024 9.25867 9.82133 9.408 9.576C9.55733 9.33067 9.65867 9.032 9.712 8.68H7.136V6.248ZM19.4381 0.936V13H16.3021V0.936H19.4381ZM27.4944 3.592V13H24.3584V3.592H21.7824V0.936H30.0704V3.592H27.4944ZM41.0039 4.968C40.2785 4.08267 39.3825 3.64 38.3159 3.64C37.8465 3.64 37.4092 3.72533 37.0039 3.896C36.6092 4.06667 36.2679 4.30133 35.9799 4.6C35.6919 4.888 35.4625 5.23467 35.2919 5.64C35.1319 6.04533 35.0519 6.48267 35.0519 6.952C35.0519 7.432 35.1319 7.87467 35.2919 8.28C35.4625 8.68533 35.6919 9.03733 35.9799 9.336C36.2785 9.63467 36.6252 9.86933 37.0199 10.04C37.4145 10.2107 37.8412 10.296 38.2999 10.296C39.3025 10.296 40.2039 9.86933 41.0039 9.016V12.728L40.6839 12.84C40.2039 13.0107 39.7559 13.1333 39.3399 13.208C38.9239 13.2933 38.5132 13.336 38.1079 13.336C37.2759 13.336 36.4759 13.1813 35.7079 12.872C34.9505 12.552 34.2785 12.1093 33.6919 11.544C33.1159 10.968 32.6519 10.2907 32.2999 9.512C31.9479 8.72267 31.7719 7.864 31.7719 6.936C31.7719 6.008 31.9425 5.16 32.2839 4.392C32.6359 3.61333 33.0999 2.94667 33.6759 2.392C34.2625 1.82667 34.9399 1.38933 35.7079 1.08C36.4759 0.759999 37.2812 0.599999 38.1239 0.599999C38.6039 0.599999 39.0732 0.653333 39.5319 0.759999C40.0012 0.855999 40.4919 1.01067 41.0039 1.224V4.968ZM46.8556 6.968C46.8556 7.448 46.9463 7.89067 47.1276 8.296C47.309 8.70133 47.5543 9.05333 47.8636 9.352C48.173 9.65067 48.5303 9.88533 48.9356 10.056C49.3516 10.216 49.789 10.296 50.2476 10.296C50.7063 10.296 51.1383 10.216 51.5436 10.056C51.9596 9.88533 52.3223 9.65067 52.6316 9.352C52.9516 9.05333 53.2023 8.70133 53.3836 8.296C53.565 7.89067 53.6556 7.448 53.6556 6.968C53.6556 6.488 53.565 6.04533 53.3836 5.64C53.2023 5.23467 52.9516 4.88267 52.6316 4.584C52.3223 4.28533 51.9596 4.056 51.5436 3.896C51.1383 3.72533 50.7063 3.64 50.2476 3.64C49.789 3.64 49.3516 3.72533 48.9356 3.896C48.5303 4.056 48.173 4.28533 47.8636 4.584C47.5543 4.88267 47.309 5.23467 47.1276 5.64C46.9463 6.04533 46.8556 6.488 46.8556 6.968ZM43.5756 6.968C43.5756 6.072 43.741 5.24 44.0716 4.472C44.4023 3.69333 44.861 3.016 45.4476 2.44C46.0343 1.864 46.733 1.416 47.5436 1.096C48.365 0.765333 49.2663 0.599999 50.2476 0.599999C51.2183 0.599999 52.1143 0.765333 52.9356 1.096C53.757 1.416 54.461 1.864 55.0476 2.44C55.645 3.016 56.109 3.69333 56.4396 4.472C56.7703 5.24 56.9356 6.072 56.9356 6.968C56.9356 7.864 56.7703 8.70133 56.4396 9.48C56.109 10.248 55.645 10.92 55.0476 11.496C54.461 12.072 53.757 12.5253 52.9356 12.856C52.1143 13.176 51.2183 13.336 50.2476 13.336C49.2663 13.336 48.365 13.176 47.5436 12.856C46.733 12.5253 46.0343 12.072 45.4476 11.496C44.861 10.92 44.4023 10.248 44.0716 9.48C43.741 8.70133 43.5756 7.864 43.5756 6.968ZM63.0125 0.936V13H59.8765V0.936H63.0125ZM66.4928 13V0.936H69.6288L75.4208 8.312V0.936H78.5408V13H75.4208L69.6288 5.624V13H66.4928Z" fill="#0E0333"/>
</svg>