
<svg clip-rule="evenodd" fill-rule="evenodd" stroke-linejoin="round" stroke-miterlimit="2" viewBox="0 0 560 400" xmlns="http://www.w3.org/2000/svg"><g fill-rule="nonzero" transform="matrix(.284211 0 0 .284211 145 65)"><path d="m375 850c151.9 0 275-123.1 275-275s-123.1-275-275-275-275 123.1-275 275 123.1 275 275 275zm0 100c-207.1 0-375-167.9-375-375s167.9-375 375-375 375 167.9 375 375-167.9 375-375 375z" fill="#fbcc5c"/><path d="m575 650c151.9 0 275-123.1 275-275s-123.1-275-275-275-275 123.1-275 275 123.1 275 275 275zm0 100c-207.1 0-375-167.9-375-375s167.9-375 375-375 375 167.9 375 375-167.9 375-375 375z" fill="#35d07f"/><path d="m587.4 750c26-31.5 44.6-68.4 54.5-108.1 39.6-9.9 76.5-28.5 108.1-54.5-1.4 45.9-11.3 91.1-29.2 133.5-42.3 17.8-87.5 27.7-133.4 29.1zm-279.3-441.9c-39.6 9.9-76.5 28.5-108.1 54.5 1.4-45.9 11.3-91.1 29.2-133.4 42.3-17.8 87.6-27.7 133.4-29.2-26 31.5-44.6 68.4-54.5 108.1z" fill="#5ea33b"/></g></svg>