<svg width="56" height="56" viewBox="0 0 56 56" fill="none" xmlns="http://www.w3.org/2000/svg">
<path d="M35.0047 1.4C35.0047 1.4 35.0049 1.26403 35.0051 0.993673C35.0054 0.723317 34.8953 0.464565 34.7003 0.277179C34.5053 0.0897938 34.2423 -0.0100187 33.972 0.000795574C23.108 0.537804 14.4471 9.26736 14.0013 20.1297C14.0001 20.3653 14.0959 20.591 14.2663 20.7537C14.4367 20.9165 14.6666 21.002 14.902 20.9902H16.5577C17.0688 20.9948 17.4945 20.5998 17.5279 20.09C17.997 11.1376 25.1539 3.98441 34.1111 3.51558C34.7932 3.42953 35.0047 3.05555 35.0047 2.60213C35.0047 2.14872 35.0047 1.4 35.0047 1.4ZM20.7667 21.007C21.1765 21.007 21.3129 21.0053 21.8161 21.0068C22.3192 21.0082 22.7382 20.6212 22.7764 20.1198C23.2113 14.0186 28.084 9.17399 34.1906 8.77121C34.6703 8.73759 35.0336 8.32432 35.0051 7.84452V6.24599C34.9992 5.97788 34.885 5.72356 34.6886 5.54091C34.4921 5.35826 34.2301 5.26281 33.9621 5.27628C26.0735 5.79808 19.7902 12.0766 19.2663 19.9609C19.2529 20.2288 19.3484 20.4907 19.5311 20.687C19.7138 20.8834 19.9683 21.0011 20.2366 21.007C20.5048 21.0129 20.5596 21.007 20.7667 21.007ZM35.0052 11.5182V13.1233C35.0007 13.6032 34.6353 14.0027 34.1574 14.05C30.9682 14.4403 28.4523 16.9468 28.0513 20.133C27.9905 20.6231 27.5785 20.994 27.0844 21.0035H25.697C24.942 21.0035 24.4883 20.5136 24.5446 19.9477C25.048 14.9787 28.9803 11.0499 33.9521 10.5485C34.2235 10.5252 34.4921 10.6171 34.6924 10.8015C34.8926 10.9859 35.0061 11.246 35.0052 11.5182ZM53.4096 34.9666C52.9559 34.9666 52.5818 34.7482 52.4957 34.0664C52.0324 25.1028 44.8643 17.94 35.8959 17.4787C35.3859 17.4454 34.9906 17.0199 34.9952 16.509V14.8542C34.9834 14.619 35.0689 14.3892 35.2318 14.2189C35.3947 14.0486 35.6205 13.9528 35.8562 13.954C46.7256 14.3979 55.4616 23.0547 55.9991 33.9142C56.0107 34.1814 55.9139 34.4421 55.7307 34.6371C55.5474 34.8321 55.2932 34.945 55.0255 34.9501L53.4096 34.9666ZM35.0051 20.2092C35.011 19.9404 35.1257 19.6856 35.3229 19.5028C35.5201 19.3201 35.783 19.225 36.0515 19.2394C43.9377 19.7626 50.2187 26.0389 50.744 33.9208C50.7584 34.1892 50.6633 34.452 50.4804 34.6491C50.2976 34.8461 50.0426 34.9607 49.7737 34.9666H48.1744C47.6907 34.9949 47.2756 34.6259 47.2472 34.1425C46.8412 28.0429 41.9966 23.1769 35.8959 22.741C35.3942 22.7028 35.007 22.2841 35.0085 21.7812L35.0051 20.2092ZM44.1 34.9673C44.1 34.9673 43.3663 34.9718 42.8861 34.9673C42.406 34.9629 42.0063 34.5936 41.959 34.1161C41.5681 30.9274 39.0586 28.4125 35.8694 28.0132C35.379 27.9523 35.0079 27.5405 34.9985 27.0468V25.4846C34.9975 25.2118 35.1114 24.9512 35.3124 24.7666C35.5135 24.5821 35.783 24.4907 36.0548 24.5149C41.0267 25.0163 44.959 28.9452 45.4624 33.9142C45.4856 34.1854 45.3937 34.4538 45.2092 34.654C45.0247 34.8542 44.7645 34.9676 44.4921 34.9666L44.1 34.9673ZM2.58048 21.0001C3.03413 21.0001 3.40831 21.2186 3.49441 21.9004C3.95814 30.8675 11.1318 38.0317 20.1041 38.488C20.6141 38.5214 21.0094 38.9469 21.0048 39.4577V41.1125C21.0166 41.3478 20.9311 41.5776 20.7682 41.7479C20.6053 41.9181 20.3795 42.0139 20.1438 42.0127C9.27444 41.5688 0.538365 32.912 0.000942009 22.0526C-0.0107061 21.7853 0.0860639 21.5246 0.269329 21.3296C0.452594 21.1346 0.706843 21.0218 0.974477 21.0167L2.58048 21.0001ZM20.9949 35.7444C20.989 36.0131 20.8743 36.2679 20.6771 36.4507C20.4799 36.6334 20.217 36.7285 19.9485 36.7141C12.0671 36.1899 5.78918 29.9195 5.25935 22.0427C5.24495 21.7743 5.34003 21.5115 5.52288 21.3144C5.70573 21.1173 5.96072 21.0027 6.22958 20.9968H7.82896C8.31265 20.9686 8.7277 21.3375 8.75613 21.8209C9.16031 27.9206 14.0035 32.7881 20.1041 33.2258C20.6058 33.2639 20.993 33.6827 20.9915 34.1856L20.9949 35.7444ZM11.4946 21.0001H13.1006C13.5808 21.0046 13.9805 21.3698 14.0278 21.8474C14.4187 25.036 16.9281 27.551 20.1173 27.9503C20.6077 28.0111 20.9788 28.4229 20.9882 28.9167V30.4821C20.9864 30.7519 20.8721 31.0088 20.6729 31.1909C20.4737 31.3731 20.2076 31.464 19.9385 31.4419C14.9667 30.9405 11.0344 27.0117 10.531 22.0427C10.5108 21.7743 10.6031 21.5095 10.7858 21.3118C10.9686 21.1141 11.2253 21.0012 11.4946 21.0001ZM20.9915 53.411C20.9915 52.9575 21.2101 52.5836 21.8922 52.4975C30.8607 52.0363 38.0287 44.8734 38.492 35.9098C38.5253 35.4001 38.9511 35.005 39.4622 35.0096H41.1179C41.3533 34.9978 41.5832 35.0833 41.7536 35.2461C41.9239 35.4089 42.0198 35.6346 42.0186 35.8701C41.5727 46.7337 32.9098 55.4637 22.0446 55.9991C21.7771 56.0107 21.5163 55.914 21.3212 55.7308C21.1261 55.5476 21.0132 55.2935 21.0081 55.026L20.9915 53.411ZM35.7568 35.0063C36.0257 35.0122 36.2807 35.1268 36.4635 35.3239C36.6464 35.521 36.7415 35.7838 36.727 36.0522C36.2018 43.934 29.9208 50.2103 22.0346 50.7335C21.7661 50.7479 21.5032 50.6529 21.306 50.4701C21.1088 50.2874 20.9941 50.0325 20.9882 49.7638V48.1653C20.96 47.6818 21.3291 47.267 21.8128 47.2386C27.9157 46.8346 32.7857 41.994 33.2236 35.8966C33.2618 35.3952 33.6808 35.0082 34.1839 35.0096L35.7568 35.0063ZM20.9982 44.4916V42.8865C21.0026 42.4066 21.368 42.0071 21.8459 41.9598C25.0351 41.5694 27.551 39.063 27.952 35.8768C28.0128 35.3866 28.4249 35.0157 28.9189 35.0063H30.3064C31.0613 35.0063 31.515 35.4961 31.4587 36.0621C30.9553 41.0311 27.023 44.9599 22.0512 45.4613C21.7798 45.4846 21.5112 45.3927 21.311 45.2083C21.1107 45.0239 20.9972 44.7638 20.9982 44.4916ZM20.9982 53.411C20.9982 52.9575 21.2167 52.5836 21.8989 52.4975C30.8673 52.0363 38.0353 44.8734 38.4986 35.9098C38.532 35.4001 38.9577 35.005 39.4688 35.0096H41.1245C41.3599 34.9978 41.5898 35.0833 41.7602 35.2461C41.9306 35.4089 42.0264 35.6346 42.0252 35.8701C41.5793 46.7337 32.9164 55.4637 22.0512 55.9991C21.7837 56.0107 21.5229 55.914 21.3278 55.7308C21.1327 55.5476 21.0198 55.2935 21.0147 55.026L20.9982 53.411ZM35.7634 35.0063C36.0323 35.0122 36.2873 35.1268 36.4701 35.3239C36.653 35.521 36.7481 35.7838 36.7337 36.0522C36.2084 43.934 29.9274 50.2103 22.0412 50.7335C21.7727 50.7479 21.5098 50.6529 21.3126 50.4701C21.1154 50.2874 21.0007 50.0325 20.9949 49.7638V48.1653C20.9666 47.6818 21.3357 47.267 21.8194 47.2386C27.9223 46.8346 32.7924 41.994 33.2303 35.8966C33.2684 35.3952 33.6874 35.0082 34.1906 35.0096L35.7634 35.0063ZM20.9982 44.4916V42.8865C21.0026 42.4066 21.368 42.0071 21.8459 41.9598C25.0351 41.5694 27.551 39.063 27.952 35.8768C28.0128 35.3866 28.4249 35.0157 28.9189 35.0063H30.3064C31.0613 35.0063 31.515 35.4961 31.4587 36.0621C30.9553 41.0311 27.023 44.9599 22.0512 45.4613C21.7798 45.4846 21.5112 45.3927 21.311 45.2083C21.1107 45.0239 20.9972 44.7638 20.9982 44.4916Z" fill="#FF5C00"/>
</svg>
