<svg width="1562" height="1614" viewBox="0 0 1562 1614" fill="none" xmlns="http://www.w3.org/2000/svg">
<ellipse cx="781" cy="807" rx="781" ry="807" fill="#67DFB0"/>
<path d="M1156.61 808.337C1156.61 866.026 1143.61 920.66 1120.39 969.511L1069.86 937.92L1046.18 923.118C1061.42 887.93 1069.86 849.109 1069.86 808.337C1069.86 767.564 1061.42 728.744 1046.18 693.556L1069.86 678.754L1120.39 647.163C1143.61 696.014 1156.61 750.648 1156.61 808.337Z" fill="#0D0332"/>
<path d="M1069.85 937.916L1046.18 923.114L955.362 866.365C950.067 863.058 947.482 856.696 949 850.642C952.38 837.105 954.187 822.936 954.187 808.351C954.187 793.767 952.398 779.597 949 766.061C947.482 759.988 950.067 753.645 955.362 750.337L1046.18 693.588L1120.39 647.195L1171.33 615.351C1184.51 607.109 1188.9 589.886 1181.09 576.44C1178.49 571.94 1175.8 567.512 1173.05 563.12C1165.35 550.83 1157.09 538.92 1148.31 527.444C1065.12 418.735 934.777 347.998 787.844 345.757C783.868 345.703 780.669 342.504 780.669 338.528V273.375C780.669 249.428 761.241 230 737.294 230C713.348 230 693.919 249.428 693.919 273.375V347.89C693.919 351.342 691.479 354.287 688.1 354.974C663.629 359.944 639.845 366.848 616.947 375.523C612.23 377.312 607.169 373.824 607.169 368.764V273.375C607.169 249.428 587.741 230 563.794 230C539.848 230 520.419 249.428 520.419 273.375V418.211C520.419 422.946 518.07 427.356 514.202 430.085C395.915 513.564 318.527 651.117 318.003 806.761C317.153 1062.1 528.751 1271 784.085 1271H1127.67C1143.65 1271 1156.59 1258.06 1156.59 1242.08V1012.18C1156.59 999.707 1150.17 988.123 1139.6 981.526L1120.37 969.508L1069.84 937.916H1069.85ZM1055.4 1184.25H784.031C577.06 1184.25 404.59 1014.92 404.789 807.972C404.879 704.631 446.682 611.067 514.256 543.167C516.534 540.872 520.455 542.481 520.455 545.716V591.458C520.455 615.405 539.884 634.833 563.83 634.833C587.777 634.833 607.205 615.405 607.205 591.458V483.69C607.205 478.177 610.35 473.117 615.302 470.695C665.219 446.188 721.354 432.417 780.705 432.417C893.444 432.417 994.598 482.045 1063.49 560.644C1069.37 567.349 1067.83 577.723 1060.28 582.458L1000.16 620.032L918.041 671.359C907.866 677.72 894.836 677.106 885.257 669.877C855.961 647.701 819.399 634.635 779.766 634.851C685.768 635.357 608.597 711.77 607.223 805.767C605.814 902.764 684.033 981.851 780.705 981.851C820.05 981.851 856.322 968.767 885.42 946.681C894.926 939.47 907.921 939 918.041 945.326L1000.16 996.653L1061.38 1034.91C1066.66 1038.22 1069.87 1044 1069.87 1050.24V1169.81C1069.87 1177.8 1063.4 1184.27 1055.41 1184.27L1055.4 1184.25ZM867.383 805.297V811.37C866.841 827.111 862.106 841.786 854.262 854.311C846.22 867.179 834.87 877.788 821.424 884.944C809.279 891.415 795.417 895.083 780.687 895.083C732.776 895.083 693.937 856.245 693.937 808.333C693.937 760.422 732.776 721.583 780.687 721.583C795.417 721.583 809.279 725.252 821.424 731.722C834.87 738.879 846.22 749.488 854.262 762.356C862.106 774.88 866.841 789.556 867.383 805.297Z" fill="#0D0332"/>
</svg>
