<svg width="424" height="424" viewBox="0 0 424 424" fill="none" xmlns="http://www.w3.org/2000/svg">
<g clip-path="url(#clip0_1954_639)">
<mask id="mask0_1954_639" style="mask-type:luminance" maskUnits="userSpaceOnUse" x="0" y="0" width="424" height="424">
<path d="M424 0H0V424H424V0Z" fill="white"/>
</mask>
<g mask="url(#mask0_1954_639)">
<path d="M415.52 272.717C393.133 349.885 328.854 407.888 249.821 422.134V361.757C264.067 356.33 276.957 347.68 287.472 336.486C293.238 330.211 298.326 323.258 302.227 315.795C309.69 301.549 313.76 285.776 313.76 269.664C313.76 269.494 313.76 269.325 313.76 269.155C313.76 215.901 275.261 194.531 239.136 178.758L220.819 170.618C201.315 161.798 186.39 153.997 186.39 140.768C186.39 122.282 202.502 112.445 217.597 112.445C233.709 112.445 242.867 118.381 252.534 135.171L259.997 148.23L308.333 117.194L302.058 105.491C291.034 84.4608 272.208 68.1792 249.821 60.3776V5.08801C254.57 5.93601 259.149 6.95361 263.898 8.14081C264.406 8.31041 264.915 8.31041 265.424 8.48001C265.933 8.64961 266.442 8.64961 266.95 8.81921C267.12 8.81921 267.29 8.81921 267.459 8.98881C268.646 9.32801 270.003 9.66721 271.36 10.0064C361.926 36.2944 424.17 119.229 424.17 213.526C424.17 233.539 421.286 253.552 415.69 272.717H415.52Z" fill="#745DDF"/>
<path d="M254.4 272.038C254.4 296.291 232.522 311.386 212.17 311.386C187.747 311.386 173.84 291.203 171.126 272.547L168.752 256.266L110.24 272.717L112.954 285.776C121.264 326.989 149.418 356.669 187.747 365.488V423.83C177.402 422.643 167.056 420.608 157.05 417.894C155.693 417.555 154.166 417.216 152.81 416.707C62.4128 390.419 0 307.485 0 213.187V9.49766C0 4.91846 3.7312 1.18726 8.3104 1.18726H187.747V59.5297C166.717 65.6353 148.909 79.5424 137.715 98.1985C130.592 110.579 126.861 124.486 126.861 138.733C126.861 138.902 126.861 139.072 126.861 139.242V140.429C127.37 187.917 162.307 207.93 195.379 222.854L211.83 229.978L213.187 230.656C239.306 242.698 254.061 250.499 254.061 271.869L254.4 272.038Z" fill="#2EB6EA"/>
<path d="M313.59 269.155C313.59 269.325 313.59 269.495 313.59 269.664C313.59 285.776 309.69 301.549 302.058 315.795C298.157 323.258 293.069 330.381 287.302 336.487C276.787 347.68 263.898 356.33 249.651 361.757V422.304L232.691 423.831C232.691 423.831 196.397 424.848 187.747 423.831L187.578 365.658C149.418 356.669 121.264 327.159 112.784 285.946L110.07 272.887L168.582 256.435L170.957 272.717C173.67 291.373 187.578 311.555 212 311.555C232.352 311.555 254.23 296.461 254.23 272.208C254.23 250.839 239.475 243.037 213.187 230.995L211.83 230.317L195.379 223.194C162.307 208.269 127.37 188.426 126.861 140.768V139.581C126.861 139.411 126.861 139.242 126.861 139.072C126.861 124.826 130.592 110.918 137.715 98.5377C148.909 79.7121 166.717 65.8049 187.747 59.8689V1.52649C225.907 1.18729 228.96 1.35689 249.821 5.08809V60.5473C272.378 68.3489 291.034 84.4609 302.058 105.661L308.333 117.363L259.997 148.4L252.534 135.341C242.867 118.55 233.709 112.614 217.597 112.614C202.333 112.614 186.39 122.451 186.39 140.938C186.39 154.336 201.315 162.138 220.819 170.787L239.136 178.928C275.261 194.701 313.76 216.071 313.76 269.325L313.59 269.155Z" fill="white"/>
</g>
</g>
<defs>
<clipPath id="clip0_1954_639">
<rect width="424" height="424" fill="white"/>
</clipPath>
</defs>
</svg>
