<svg width="31" height="18" viewBox="0 0 31 18" fill="none" xmlns="http://www.w3.org/2000/svg">
<path fill-rule="evenodd" clip-rule="evenodd" d="M2.45226 12.8466C2.22369 13.6307 2.40712 14.2703 2.83832 14.7343C3.29148 15.222 4.10345 15.5994 5.24286 15.5994C6.38002 15.5994 7.53966 15.219 8.48202 14.5959C9.43139 13.9681 10.0853 13.1463 10.3247 12.3249C10.5532 11.5409 10.3698 10.9013 9.93835 10.437C9.48499 9.94914 8.67283 9.57163 7.53352 9.57163C6.39669 9.57163 5.2372 9.952 4.29492 10.5752C3.34562 11.203 2.69172 12.0249 2.45226 12.8466ZM1.59203 12.5858C2.22456 10.4153 4.88476 8.65625 7.53352 8.65625C10.1823 8.65625 11.8174 10.4159 11.1849 12.5858C10.5524 14.7557 7.89218 16.5148 5.24286 16.5148C2.59412 16.5148 0.95949 14.7557 1.59203 12.5858Z" fill="#8E81F0"/>
<path fill-rule="evenodd" clip-rule="evenodd" d="M8.88781 4.831C8.65923 5.61512 8.84267 6.25465 9.27386 6.71869C9.72703 7.20636 10.539 7.58377 11.6784 7.58377C12.8156 7.58377 13.9752 7.20338 14.9176 6.58028C15.8669 5.95253 16.5208 5.13068 16.7603 4.3093C16.9888 3.5253 16.8053 2.88567 16.3739 2.42139C15.9205 1.93352 15.1084 1.55601 13.9691 1.55601C12.8322 1.55601 11.6728 1.93637 10.7305 2.55954C9.78119 3.18734 9.12727 4.00933 8.88781 4.831ZM8.02757 4.57019C8.66011 2.39969 11.3203 0.640625 13.9691 0.640625C16.6178 0.640625 18.253 2.40029 17.6205 4.57019C16.9879 6.74011 14.3277 8.49915 11.6784 8.49915C9.02967 8.49915 7.39504 6.74011 8.02757 4.57019Z" fill="#8E81F0"/>
<path d="M25.142 0.640625C22.4932 0.640625 19.833 2.39969 19.2004 4.57019C18.5679 6.74011 20.2025 8.49915 22.8513 8.49915C25.5005 8.49915 28.1607 6.74011 28.7934 4.57019C29.4259 2.40029 27.7908 0.640625 25.142 0.640625Z" fill="#8E81F0"/>
<path fill-rule="evenodd" clip-rule="evenodd" d="M19.8046 4.75335C19.5499 5.62704 19.7533 6.3686 20.2528 6.90616C20.7678 7.46033 21.6568 7.8563 22.8513 7.8563C24.0442 7.8563 25.2537 7.45825 26.2357 6.80897C27.2227 6.15643 27.927 5.28682 28.1892 4.38697C28.4439 3.51337 28.2404 2.77168 27.7407 2.23392C27.2256 1.67956 26.3363 1.28347 25.142 1.28347C23.9493 1.28347 22.7398 1.68152 21.758 2.33086C20.7712 2.98346 20.0669 3.85319 19.8046 4.75335ZM19.2004 4.57019C19.833 2.39969 22.4932 0.640625 25.142 0.640625C27.7908 0.640625 29.4259 2.40029 28.7934 4.57019C28.1607 6.74011 25.5005 8.49915 22.8513 8.49915C20.2025 8.49915 18.5679 6.74011 19.2004 4.57019Z" fill="#8E81F0"/>
<path fill-rule="evenodd" clip-rule="evenodd" d="M12.9542 13.0751C12.7256 13.8593 12.9091 14.4988 13.3403 14.9628C13.7934 15.4505 14.6054 15.8279 15.7448 15.8279C16.882 15.8279 18.0416 15.4475 18.984 14.8244C19.9334 14.1967 20.5872 13.3748 20.8267 12.5534C21.0552 11.7694 20.8717 11.1298 20.4403 10.6655C19.987 10.1777 19.1748 9.80015 18.0355 9.80015C16.8986 9.80015 15.7392 10.1805 14.7969 10.8037C13.8476 11.4315 13.1937 12.2534 12.9542 13.0751ZM12.094 12.8143C12.7265 10.6438 15.3867 8.88477 18.0355 8.88477C20.6842 8.88477 22.3194 10.6444 21.6869 12.8143C21.0543 14.9842 18.3941 16.7433 15.7448 16.7433C13.0961 16.7433 11.4614 14.9842 12.094 12.8143Z" fill="#8E81F0"/>
</svg>
