<svg
  width="70"
  height="62"
  viewBox="0 0 70 62"
  fill="none"
  xmlns="http://www.w3.org/2000/svg"
>
  <g clip-path="url(#clip0_866_358)">
    <path
      fill-rule="evenodd"
      clip-rule="evenodd"
      d="M40.0395 34.382C35.4794 34.382 31.2093 32.6246 28.0185 29.4338C24.8276 26.243 23.0703 21.9748 23.0703 17.4127C23.0703 12.8506 24.8276 8.58242 28.0185 5.39161C33.6297 -0.219613 42.5504 -1.18025 49.2277 3.1087C49.7532 3.44586 49.9058 4.14467 49.5668 4.6702C49.2296 5.19572 48.5308 5.34829 48.0053 5.00924C42.217 1.28915 34.4829 2.12169 29.6176 6.98702C26.8544 9.75025 25.3324 13.4515 25.3324 17.4089C25.3324 21.3664 26.8544 25.0676 29.6176 27.8309C32.3809 30.5941 36.0821 32.116 40.0395 32.116C43.997 32.116 47.6982 30.5941 50.4615 27.8309C55.8071 22.4852 56.197 13.7529 51.3468 7.9533C50.9456 7.47487 51.0096 6.76099 51.488 6.36166C51.9665 5.96046 52.6803 6.0245 53.0797 6.50293C55.7977 9.75213 57.1897 13.8942 56.9994 18.1624C56.8092 22.4306 55.0556 26.4314 52.0588 29.4282C48.868 32.619 44.5997 34.3764 40.0377 34.3764L40.0395 34.382ZM41.1471 16.3146L41.0816 16.2976C41.0381 16.2863 40.9946 16.275 40.9493 16.2637C40.0885 16.0603 39.433 15.8719 38.9395 15.676C37.8546 15.2466 37.5476 14.7794 37.5476 14.0241V13.9827C37.5476 13.2669 38.0486 12.6585 38.9395 12.4118C39.2145 12.3364 39.5235 12.2931 39.87 12.2931C40.3033 12.2931 40.7271 12.3496 41.1471 12.457C41.8158 12.6284 42.4751 12.9354 43.1494 13.3724C43.3528 13.4948 43.5562 13.5551 43.8011 13.5551C44.4528 13.5551 44.9821 13.0465 44.9821 12.3948C44.9821 11.9051 44.7165 11.5604 44.4321 11.3965C43.4583 10.7467 42.3884 10.321 41.1452 10.1533V9.08722C41.1452 8.47693 40.6517 7.98343 40.0414 7.98343C39.4312 7.98343 38.9377 8.47693 38.9377 9.08722V10.142C36.6227 10.483 35.0405 12.052 35.0405 14.2068V14.2483C35.0405 16.6197 36.4344 17.5803 38.9377 18.2848C39.207 18.3601 39.4914 18.4336 39.7872 18.5052C40.3202 18.6276 40.7685 18.7482 41.1452 18.8706C42.6408 19.3566 43.0062 19.8708 43.0062 20.6845V20.7259C43.0062 21.6244 42.3018 22.2856 41.1452 22.4664C40.9362 22.4984 40.7158 22.5172 40.4803 22.5172C39.9341 22.5172 39.4236 22.4494 38.9395 22.3232C38.0524 22.0915 37.2518 21.6564 36.489 21.0499C36.3251 20.9275 36.101 20.8258 35.7563 20.8258C35.1045 20.8258 34.5753 21.3343 34.5753 21.9861C34.5753 22.3929 34.7787 22.7395 35.065 22.9429C36.2422 23.8188 37.5551 24.3801 38.9414 24.6118V25.7193C38.9414 26.3296 39.4349 26.8231 40.0452 26.8231C40.6555 26.8231 41.149 26.3296 41.149 25.7193V24.7003C43.7502 24.4611 45.5152 22.9241 45.5152 20.4773V20.4359C45.5152 18.1266 44.0309 17.0435 41.149 16.3108L41.1471 16.3146ZM12.5881 33.653C12.5881 33.169 12.1944 32.7734 11.7084 32.7734H2.29233V54.8096C2.29233 55.2937 2.686 55.6892 3.17197 55.6892H11.7084C12.1925 55.6892 12.5881 55.2955 12.5881 54.8096V33.653ZM0 30.4811H11.7084C13.4602 30.4811 14.8804 31.9013 14.8804 33.653V52.5191H20.7195C22.9338 52.5191 26.4713 54.6385 29.8908 56.6872L29.8945 56.6894L29.9141 56.7012C31.7263 57.7869 34.1952 59.2663 34.8503 59.3001H41.5031C43.6485 58.573 63.3453 47.3788 66.8619 45.3276C68.318 44.4781 67.5607 42.7998 67.395 42.4702C66.7866 41.2684 65.4417 40.2758 63.9254 40.935C59.6553 42.7923 52.3432 46.1639 52.2697 46.1997C51.7028 46.4615 51.0322 46.2147 50.7704 45.6478C50.5086 45.0808 50.7553 44.4103 51.3223 44.1484C51.3957 44.1145 58.7286 40.7316 63.0232 38.865C65.7544 37.6764 68.3029 39.268 69.4085 41.4511C70.5613 43.7265 69.9812 46.1243 67.9977 47.2827C66.8864 47.9307 60.7591 51.4398 54.6525 54.851C42.6351 61.5641 42.0738 61.5641 41.6218 61.5641L41.6274 61.5604H34.8465C33.6805 61.5604 31.8572 60.5018 28.7342 58.6295L28.7132 58.6169C26.0045 56.9943 22.3071 54.7794 20.7195 54.7794H14.8804V54.8096C14.8804 56.5613 13.4602 57.9815 11.7084 57.9815H3.17197C1.42023 57.9815 0 56.5613 0 54.8096V30.4811ZM31.6444 49.8821H41.488H41.4899C44.2645 49.8821 46.6246 47.8553 46.9787 45.1693C47.1012 44.2313 46.9693 43.3762 46.5869 42.6265C45.6093 40.7128 43.6598 39.5223 41.5012 39.5223L32.8857 39.5186C31.6406 38.7953 26.182 35.8945 23.8915 34.6815C23.3566 34.3971 22.7538 34.2483 22.1492 34.2483H19.5913C18.9678 34.2483 18.4611 34.7549 18.4611 35.3784C18.4611 36.0019 18.9678 36.5086 19.5913 36.5086H22.1492C22.3865 36.5086 22.6238 36.567 22.8329 36.6781C24.611 37.6199 30.5048 40.7504 31.7517 41.4737C32.1002 41.6753 32.4976 41.7826 32.9007 41.7826H41.5012C42.8066 41.7826 43.9838 42.5003 44.5734 43.6549C44.7467 43.9959 44.8013 44.3952 44.7372 44.8755C44.53 46.4408 43.1343 47.6218 41.488 47.6218H31.6444C31.0209 47.6218 30.5142 48.1285 30.5142 48.7519C30.5142 49.3754 31.0209 49.8821 31.6444 49.8821Z"
      fill="url(#paint0_linear_866_358)"
    />
  </g>
  <defs>
    <linearGradient
      id="paint0_linear_866_358"
      x1="67.5976"
      y1="3.36898"
      x2="11.4791"
      y2="66.6777"
      gradientUnits="userSpaceOnUse"
    >
      <stop stop-color="#6F3FF5" />
      <stop
        offset="1"
        stop-color="#6F3FF5"
        stop-opacity="0.65"
      />
    </linearGradient>
    <clipPath id="clip0_866_358">
      <rect
        width="70"
        height="61.1207"
        fill="white"
        transform="translate(0 0.439636)"
      />
    </clipPath>
  </defs>
</svg>