<svg width="20" height="20" viewBox="0 0 20 20" fill="none" xmlns="http://www.w3.org/2000/svg">
<path d="M5.23905 17.6097C4.52544 17.6098 3.81583 17.5033 3.13364 17.2939C3.02931 17.2618 2.9344 17.2048 2.85718 17.1276C2.77996 17.0505 2.72275 16.9557 2.69055 16.8514C2.25665 15.4296 2.27196 13.9085 2.73438 12.4957C3.1968 11.0829 4.08382 9.84713 5.27446 8.95692L6.37741 8.13493C7.06583 7.62169 7.67621 7.0114 8.1895 6.32305L9.02209 5.20586C9.90104 4.02306 11.1317 3.14866 12.538 2.70787C13.9442 2.26707 15.4539 2.28247 16.8509 2.75188C16.9495 2.78498 17.0391 2.84062 17.1126 2.91436C17.186 2.98811 17.2412 3.07794 17.2739 3.17674C17.7315 4.56322 17.7409 6.05861 17.3007 7.45073C16.8606 8.84285 15.9931 10.061 14.8215 10.9324L13.6669 11.7937C12.9759 12.3084 12.3634 12.9209 11.8486 13.6118L11.0299 14.7098C10.3567 15.6102 9.48274 16.3411 8.47747 16.8445C7.4722 17.348 6.36334 17.61 5.23905 17.6097ZM3.87388 16.1112C4.99216 16.3787 6.1643 16.3128 7.24555 15.9217C8.3268 15.5306 9.26979 14.8313 9.95805 13.9103L10.7768 12.8099C11.3692 12.015 12.0739 11.3102 12.8688 10.7176L14.0239 9.85642C14.9238 9.18706 15.6026 8.26358 15.9729 7.20499C16.3432 6.14639 16.388 5.00119 16.1015 3.91692C15.007 3.621 13.8486 3.66145 12.7774 4.033C11.7061 4.40456 10.7716 5.09001 10.0954 6.0001L9.2623 7.11775C8.67193 7.91002 7.96948 8.61223 7.17699 9.20236L6.07643 10.0243C5.15446 10.7126 4.45447 11.656 4.06302 12.7378C3.67156 13.8196 3.6058 14.9924 3.87388 16.1112Z" fill="url(#paint0_linear_673_501)"/>
<path d="M14.6438 17.6264C13.5601 17.6262 12.4914 17.3726 11.5231 16.886C10.5548 16.3994 9.71369 15.6931 9.06688 14.8237L8.20558 13.6692C7.69046 12.9785 7.078 12.3661 6.38727 11.8511L5.28911 11.0324C4.09847 10.1422 3.21145 8.90642 2.74903 7.49362C2.2866 6.08082 2.2713 4.55978 2.70519 3.13796C2.7374 3.03368 2.7946 2.93886 2.87183 2.86173C2.94905 2.7846 3.04396 2.72749 3.14829 2.69539C4.57026 2.26155 6.09146 2.27685 7.50441 2.73922C8.91737 3.20159 10.1533 4.08852 11.0436 5.27903L11.8656 6.37947C12.3787 7.06804 12.9891 7.67839 13.6777 8.19137L14.795 9.02387C15.9782 9.90305 16.8528 11.1341 17.2935 12.5407C17.7342 13.9472 17.7184 15.4572 17.2483 16.8542C17.2152 16.9529 17.1596 17.0425 17.0858 17.1159C17.0121 17.1893 16.9222 17.2445 16.8234 17.2772C16.1201 17.5087 15.3843 17.6266 14.6438 17.6264ZM3.88853 3.87622C3.621 4.99438 3.68689 6.1664 4.07806 7.24753C4.46923 8.32866 5.16855 9.27154 6.08964 9.95973L7.1878 10.7784C7.98294 11.3708 8.68779 12.0756 9.28029 12.8706L10.1416 14.0251C10.811 14.925 11.7346 15.6038 12.7933 15.9742C13.852 16.3445 14.9973 16.3894 16.0817 16.103C16.3778 15.0085 16.3374 13.8502 15.9658 12.779C15.5942 11.7078 14.9086 10.7732 13.9983 10.097L12.8805 9.26406C12.0883 8.6738 11.386 7.97161 10.7957 7.17945L9.97364 6.07663C9.28526 5.15555 8.34209 4.45627 7.26065 4.06522C6.17922 3.67417 5.0069 3.60846 3.88853 3.87622Z" fill="url(#paint1_linear_673_501)"/>
<path d="M14.1584 13.7966C13.6591 13.7967 13.1613 13.7394 12.6751 13.6258L11.5448 13.3612C10.4863 13.1153 9.38545 13.1153 8.32691 13.3612L7.1785 13.6292C5.78885 13.9534 4.33039 13.7984 3.03993 13.1894C1.74947 12.5804 0.702796 11.5531 0.0698595 10.2743C0.023906 10.1817 0 10.0798 0 9.97643C0 9.87309 0.023906 9.77115 0.0698595 9.67859C0.703315 8.41434 1.74412 7.40023 3.02446 6.79975C4.30481 6.19927 5.75008 6.04743 7.1273 6.36868L8.32643 6.64858C9.38497 6.89451 10.4858 6.89451 11.5444 6.64858L12.6784 6.38398C14.0821 6.05634 15.5548 6.20354 16.8659 6.80251C18.177 7.40148 19.2523 8.41838 19.9234 9.69392C19.9737 9.78986 20 9.89658 20 10.0049C20 10.1132 19.9737 10.22 19.9234 10.3159C19.3707 11.3661 18.5415 12.2453 17.5255 12.8587C16.5095 13.4722 15.3453 13.7965 14.1584 13.7966ZM9.9342 11.8402C10.5785 11.8399 11.2207 11.9135 11.8482 12.0594L12.9823 12.324C14.0381 12.5704 15.1447 12.4792 16.1459 12.0631C17.1472 11.647 17.9924 10.9271 18.5626 10.0049C17.9924 9.08233 17.1468 8.36214 16.1452 7.94603C15.1435 7.52991 14.0365 7.43889 12.9803 7.68585L11.8463 7.95044C10.5878 8.24278 9.27912 8.24278 8.02067 7.95044L6.82154 7.67054C5.79344 7.4276 4.71452 7.52072 3.74327 7.93624C2.77202 8.35175 1.95964 9.06776 1.42546 9.97907C1.96253 10.9015 2.78132 11.6275 3.76153 12.0502C4.74174 12.473 5.8317 12.5703 6.8713 12.3278L8.01971 12.0594C8.64741 11.9134 9.28976 11.8399 9.9342 11.8402Z" fill="url(#paint2_linear_673_501)"/>
<path d="M9.99419 20C9.88637 19.9999 9.78017 19.9738 9.6846 19.9239C8.39392 19.249 7.35456 18.1768 6.72004 16.8659C6.08553 15.5549 5.88949 14.0747 6.1609 12.6438L6.42408 11.2563C6.59011 10.3851 6.59011 9.4903 6.42408 8.61907L6.15803 7.21576C5.89207 5.79839 6.09684 4.33296 6.74111 3.04275C7.38538 1.75253 8.43383 0.708288 9.7267 0.0691512C9.8189 0.0236634 9.92033 0 10.0231 0C10.1259 0 10.2274 0.0236634 10.3196 0.0691512C11.5999 0.706213 12.6369 1.74416 13.2727 3.02497C13.9086 4.30577 14.1084 5.75926 13.8418 7.16411L13.5662 8.61764C13.4002 9.48888 13.4002 10.3836 13.5662 11.2549L13.8294 12.6424C14.1009 14.0733 13.9049 15.5537 13.2704 16.8647C12.6359 18.1758 11.5965 19.248 10.3057 19.923C10.2096 19.9735 10.1027 19.9999 9.99419 20ZM10.0196 1.42699C9.07353 1.97258 8.32028 2.79843 7.86385 3.79047C7.40742 4.78251 7.27034 5.89178 7.47152 6.96507L7.73756 8.36837C7.93519 9.40413 7.93519 10.4679 7.73756 11.5037L7.47439 12.8912C7.268 13.9806 7.3986 15.1071 7.84879 16.1205C8.29897 17.1338 9.04736 17.986 9.99419 18.5632C10.9413 17.9863 11.69 17.1342 12.1403 16.1208C12.5906 15.1073 12.7211 13.9807 12.5145 12.8912L12.2513 11.5037C12.0537 10.4679 12.0537 9.40413 12.2513 8.36837L12.5269 6.91531C12.7253 5.85366 12.5909 4.75667 12.1421 3.7743C11.6933 2.79193 10.952 1.97214 10.0196 1.42699Z" fill="url(#paint3_linear_673_501)"/>
<defs>
<linearGradient id="paint0_linear_673_501" x1="12.9819" y1="30.6733" x2="1.02075" y2="5.99259" gradientUnits="userSpaceOnUse">
<stop offset="0.5625" stop-color="#25BDCE"/>
<stop offset="1" stop-color="#9BE9E9"/>
</linearGradient>
<linearGradient id="paint1_linear_673_501" x1="12.9784" y1="30.7106" x2="0.974084" y2="6.0219" gradientUnits="userSpaceOnUse">
<stop offset="0.5625" stop-color="#25BDCE"/>
<stop offset="1" stop-color="#9BE9E9"/>
</linearGradient>
<linearGradient id="paint2_linear_673_501" x1="13.911" y1="20.3128" x2="11.2013" y2="5.60996" gradientUnits="userSpaceOnUse">
<stop offset="0.5625" stop-color="#25BDCE"/>
<stop offset="1" stop-color="#9BE9E9"/>
</linearGradient>
<linearGradient id="paint3_linear_673_501" x1="11.5472" y1="37.1646" x2="-8.06438" y2="21.1781" gradientUnits="userSpaceOnUse">
<stop offset="0.5625" stop-color="#25BDCE"/>
<stop offset="1" stop-color="#9BE9E9"/>
</linearGradient>
</defs>
</svg>
