<svg width="20" height="20" viewBox="0 0 20 20" fill="currentColor" xmlns="http://www.w3.org/2000/svg">
<path d="M5.23881 17.6095C4.5252 17.6096 3.81558 17.5031 3.13339 17.2938C3.02907 17.2617 2.93416 17.2046 2.85694 17.1274C2.77971 17.0503 2.72251 16.9555 2.6903 16.8512C2.25641 15.4294 2.27171 13.9083 2.73413 12.4955C3.19655 11.0827 4.08357 9.84694 5.27421 8.95673L6.37717 8.13475C7.06559 7.62151 7.67597 7.01121 8.18926 6.32287L9.02185 5.20568C9.9008 4.02287 11.1315 3.14848 12.5377 2.70768C13.944 2.26689 15.4537 2.28229 16.8506 2.7517C16.9493 2.7848 17.0389 2.84043 17.1123 2.91418C17.1857 2.98793 17.241 3.07775 17.2736 3.17656C17.7313 4.56304 17.7407 6.05842 17.3005 7.45055C16.8603 8.84267 15.9929 10.0608 14.8213 10.9323L13.6667 11.7935C12.9757 12.3083 12.3632 12.9207 11.8484 13.6116L11.0296 14.7096C10.3565 15.61 9.48249 16.341 8.47723 16.8444C7.47196 17.3478 6.3631 17.6098 5.23881 17.6095ZM3.87364 16.111C4.99191 16.3785 6.16406 16.3127 7.2453 15.9215C8.32655 15.5304 9.26955 14.8312 9.9578 13.9102L10.7765 12.8097C11.369 12.0148 12.0736 11.31 12.8685 10.7175L14.0236 9.85624C14.9235 9.18688 15.6024 8.26339 15.9727 7.2048C16.343 6.14621 16.3878 5.00101 16.1013 3.91673C15.0067 3.62081 13.8484 3.66126 12.7771 4.03282C11.7059 4.40437 10.7713 5.08982 10.0951 5.99991L9.26206 7.11757C8.67169 7.90984 7.96923 8.61205 7.17674 9.20217L6.07619 10.0242C5.15422 10.7124 4.45423 11.6558 4.06277 12.7376C3.67131 13.8194 3.60555 14.9922 3.87364 16.111Z" />
<path d="M14.6443 17.6264C13.5606 17.6261 12.4919 17.3725 11.5236 16.8859C10.5553 16.3993 9.71418 15.693 9.06737 14.8236L8.20607 13.6691C7.69095 12.9784 7.07849 12.366 6.38776 11.851L5.2896 11.0323C4.09896 10.1421 3.21193 8.90633 2.74951 7.49353C2.28709 6.08073 2.27179 4.55969 2.70568 3.13787C2.73789 3.03359 2.79509 2.93877 2.87232 2.86164C2.94954 2.78451 3.04445 2.7274 3.14878 2.6953C4.57075 2.26145 6.09195 2.27676 7.5049 2.73913C8.91785 3.2015 10.1538 4.08843 11.0441 5.27894L11.8661 6.37938C12.3792 7.06795 12.9896 7.6783 13.6782 8.19128L14.7955 9.02378C15.9787 9.90296 16.8533 11.134 17.294 12.5406C17.7347 13.9472 17.7189 15.4571 17.2488 16.8541C17.2157 16.9528 17.1601 17.0424 17.0863 17.1158C17.0126 17.1892 16.9227 17.2444 16.8239 17.2771C16.1206 17.5086 15.3848 17.6265 14.6443 17.6264ZM3.88902 3.87613C3.62149 4.99428 3.68738 6.1663 4.07855 7.24744C4.46972 8.32857 5.16904 9.27145 6.09013 9.95964L7.18829 10.7783C7.98343 11.3707 8.68828 12.0755 9.28078 12.8706L10.1421 14.025C10.8115 14.9249 11.7351 15.6037 12.7937 15.9741C13.8524 16.3444 14.9978 16.3893 16.0822 16.1029C16.3783 15.0084 16.3379 13.8501 15.9663 12.7789C15.5947 11.7077 14.9091 10.7731 13.9988 10.097L12.881 9.26397C12.0888 8.67371 11.3865 7.97152 10.7962 7.17936L9.97413 6.07654C9.28574 5.15545 8.34258 4.45618 7.26114 4.06513C6.17971 3.67408 5.00739 3.60837 3.88902 3.87613Z" />
<path d="M14.1584 13.7968C13.6591 13.7969 13.1613 13.7396 12.6751 13.626L11.5448 13.3614C10.4863 13.1155 9.38545 13.1155 8.32691 13.3614L7.1785 13.6294C5.78885 13.9536 4.33039 13.7986 3.03993 13.1896C1.74947 12.5806 0.702796 11.5533 0.0698595 10.2745C0.023906 10.1819 0 10.08 0 9.97662C0 9.87328 0.023906 9.77134 0.0698595 9.67877C0.703315 8.41452 1.74412 7.40041 3.02446 6.79993C4.30481 6.19945 5.75008 6.04761 7.1273 6.36886L8.32643 6.64876C9.38497 6.89469 10.4858 6.89469 11.5444 6.64876L12.6784 6.38416C14.0821 6.05652 15.5548 6.20372 16.8659 6.80269C18.177 7.40166 19.2523 8.41857 19.9234 9.6941C19.9737 9.79005 20 9.89676 20 10.0051C20 10.1134 19.9737 10.2201 19.9234 10.3161C19.3707 11.3662 18.5415 12.2455 17.5255 12.8589C16.5095 13.4723 15.3453 13.7967 14.1584 13.7968ZM9.9342 11.8404C10.5785 11.8401 11.2207 11.9137 11.8482 12.0596L12.9823 12.3241C14.0381 12.5706 15.1447 12.4793 16.1459 12.0633C17.1472 11.6472 17.9924 10.9273 18.5626 10.0051C17.9924 9.08251 17.1468 8.36232 16.1452 7.94621C15.1435 7.5301 14.0365 7.43908 12.9803 7.68603L11.8463 7.95063C10.5878 8.24296 9.27912 8.24296 8.02067 7.95063L6.82154 7.67073C5.79344 7.42778 4.71452 7.5209 3.74327 7.93642C2.77202 8.35194 1.95964 9.06794 1.42546 9.97926C1.96253 10.9017 2.78132 11.6277 3.76153 12.0504C4.74174 12.4732 5.8317 12.5704 6.8713 12.328L8.01971 12.0596C8.64741 11.9136 9.28976 11.8401 9.9342 11.8404Z" />
<path d="M9.99419 20C9.88637 19.9999 9.78017 19.9738 9.6846 19.9239C8.39392 19.249 7.35456 18.1768 6.72004 16.8659C6.08553 15.5549 5.88949 14.0747 6.1609 12.6438L6.42408 11.2563C6.59011 10.3851 6.59011 9.4903 6.42408 8.61907L6.15803 7.21576C5.89207 5.79839 6.09684 4.33296 6.74111 3.04275C7.38538 1.75253 8.43383 0.708288 9.7267 0.0691512C9.8189 0.0236634 9.92033 0 10.0231 0C10.1259 0 10.2274 0.0236634 10.3196 0.0691512C11.5999 0.706213 12.6369 1.74416 13.2727 3.02497C13.9086 4.30577 14.1084 5.75926 13.8418 7.16411L13.5662 8.61764C13.4002 9.48888 13.4002 10.3836 13.5662 11.2549L13.8294 12.6424C14.1009 14.0733 13.9049 15.5537 13.2704 16.8647C12.6359 18.1758 11.5965 19.248 10.3057 19.923C10.2096 19.9735 10.1027 19.9999 9.99419 20ZM10.0196 1.42699C9.07353 1.97258 8.32028 2.79843 7.86385 3.79047C7.40742 4.78251 7.27034 5.89178 7.47152 6.96507L7.73756 8.36837C7.93519 9.40413 7.93519 10.4679 7.73756 11.5037L7.47439 12.8912C7.268 13.9806 7.3986 15.1071 7.84879 16.1205C8.29897 17.1338 9.04736 17.986 9.99419 18.5632C10.9413 17.9863 11.69 17.1342 12.1403 16.1208C12.5906 15.1073 12.7211 13.9807 12.5145 12.8912L12.2513 11.5037C12.0537 10.4679 12.0537 9.40413 12.2513 8.36837L12.5269 6.91531C12.7253 5.85366 12.5909 4.75667 12.1421 3.7743C11.6933 2.79193 10.952 1.97214 10.0196 1.42699Z" />
</svg>