<svg width="110" height="32" fill="none" xmlns="http://www.w3.org/2000/svg"><path d="M38.891 17.16h5.82c0 .596-.03 1.147-.075 1.638a5.457 5.457 0 01-.297 1.354 5.53 5.53 0 01-.849 1.578 5.082 5.082 0 01-1.265 1.131 5.661 5.661 0 01-1.592.685c-.58.164-1.191.238-1.831.238a6.618 6.618 0 01-2.411-.432 5.652 5.652 0 01-1.86-1.205 5.552 5.552 0 01-1.206-1.89 6.78 6.78 0 01-.432-2.441c0-.878.134-1.682.417-2.411a5.49 5.49 0 011.205-1.89 5.477 5.477 0 011.905-1.206 6.886 6.886 0 012.471-.432c1.176 0 2.203.253 3.096.76.893.505 1.593 1.294 2.113 2.366l-2.783 1.146c-.253-.625-.595-1.057-1.012-1.325a2.486 2.486 0 00-1.399-.402c-.431 0-.833.09-1.19.253-.358.164-.67.387-.923.7-.253.297-.447.67-.596 1.086a4.798 4.798 0 00-.208 1.43c0 .475.06.922.178 1.324.134.402.313.759.566 1.056.253.298.566.536.923.7.372.164.804.238 1.28.238.283 0 .565-.03.833-.09.268-.073.506-.178.715-.312.223-.148.402-.342.536-.565.133-.224.238-.506.282-.834h-2.41v-2.247zm20.287-2.604v9.228h-3.126v-9.228h-2.53v-2.679h8.186v2.68h-2.53zm13.395 1.4c-.685-.834-1.518-1.251-2.515-1.251-.447 0-.849.074-1.236.238a3.364 3.364 0 00-.967.655 2.811 2.811 0 00-.64.982 3.373 3.373 0 00-.223 1.236c0 .446.074.863.223 1.25.164.387.372.714.64.997.283.283.61.506.982.655.372.164.774.238 1.206.238.938 0 1.786-.402 2.53-1.205v3.482l-.298.105a7.685 7.685 0 01-1.265.342c-.387.074-.774.119-1.16.119a6.096 6.096 0 01-2.248-.432 5.978 5.978 0 01-1.89-1.25 6.384 6.384 0 01-1.31-1.905 5.92 5.92 0 01-.491-2.411c0-.863.163-1.667.476-2.382.328-.729.76-1.354 1.31-1.875a6.004 6.004 0 011.905-1.235 5.843 5.843 0 012.262-.447c.447 0 .893.045 1.325.15.446.088.908.237 1.384.43v3.513zm6.132 1.875c0 .446.09.863.253 1.25.164.387.402.714.685.997.283.283.625.506 1.012.655.387.149.804.223 1.235.223.432 0 .834-.074 1.22-.223.388-.164.73-.387 1.028-.655a2.95 2.95 0 00.7-.997c.163-.387.252-.789.252-1.25 0-.462-.089-.864-.253-1.25a2.95 2.95 0 00-.7-.998 2.797 2.797 0 00-1.026-.64 3.077 3.077 0 00-1.22-.238c-.432 0-.834.074-1.236.238a3.25 3.25 0 00-1.012.64c-.283.283-.521.61-.685.997a3.18 3.18 0 00-.253 1.25zm-3.066 0c0-.834.149-1.623.462-2.337.312-.73.744-1.37 1.294-1.905a5.873 5.873 0 011.965-1.265c.774-.313 1.622-.462 2.53-.462.908 0 1.757.15 2.516.462a5.579 5.579 0 011.98 1.265 5.66 5.66 0 011.309 1.905c.313.714.461 1.503.461 2.337 0 .833-.149 1.622-.461 2.351a5.75 5.75 0 01-1.31 1.89 6.053 6.053 0 01-1.98 1.28 6.928 6.928 0 01-2.515.447c-.922 0-1.77-.149-2.53-.447-.759-.312-1.414-.729-1.965-1.28a5.94 5.94 0 01-1.294-1.89 5.868 5.868 0 01-.462-2.351zm18.664-5.954v11.907h-3.125V11.877h3.125zm-43.758 0v11.907H47.42V11.877h3.125zm47.033 11.907V11.877h2.976l5.805 7.278v-7.278h3.126v11.907h-3.007l-5.775-7.278v7.278h-3.125z" fill="#0E0333"/><path fill-rule="evenodd" clip-rule="evenodd" d="M20.976 12.567a8.516 8.516 0 011.583 4.99 8.5 8.5 0 01-1.583 4.917l2.16 1.643a11.197 11.197 0 002.13-6.545 11.22 11.22 0 00-2.293-6.856l-1.239 1.117-.758.734z" fill="#757087"/><path fill-rule="evenodd" clip-rule="evenodd" d="M25.058 25.573l-7.262-5.523c.518-.681.814-1.51.858-2.37a4.26 4.26 0 00-.65-2.428l3.475-3.14 3.638-3.405a.59.59 0 00.015-.844l-.503-.503a14.353 14.353 0 00-9.746-4.265l.015-2c.014-.132 0-.266-.03-.399a1.034 1.034 0 00-.192-.355.881.881 0 00-.326-.237.862.862 0 00-.384-.09.862.862 0 00-.385.09c-.118.059-.236.133-.325.237a.877.877 0 00-.192.34.74.74 0 00-.03.4l-.015 2.058a14.03 14.03 0 00-2.588.504l.015-2.562a1.22 1.22 0 00-.03-.4 1.036 1.036 0 00-.192-.355.882.882 0 00-.325-.237A.862.862 0 009.514 0a.862.862 0 00-.385.089c-.118.06-.236.133-.325.237a.877.877 0 00-.192.34.74.74 0 00-.03.4L8.538 4.34A14.39 14.39 0 001.6 10.914 14.502 14.502 0 00.285 20.39a14.468 14.468 0 004.896 8.218 14.375 14.375 0 008.947 3.347L24.703 32a.594.594 0 00.592-.592v-5.346a.625.625 0 00-.237-.489zM14.335 29.38a11.899 11.899 0 01-7.187-2.473 11.917 11.917 0 01-4.2-6.353 11.948 11.948 0 01.517-7.596 11.897 11.897 0 015.028-5.716l-.014 3.895c-.015.133 0 .266.03.4.044.133.103.251.192.355a.882.882 0 00.325.237.863.863 0 00.77 0c.117-.06.236-.134.324-.237a.877.877 0 00.193-.34.74.74 0 00.03-.4l.014-4.784a11.865 11.865 0 014.067-.696c2.559 0 5.044.845 7.07 2.385a.303.303 0 01.03.459l-5.532 5.079a4.218 4.218 0 00-1.597-.326c-.607 0-1.213.118-1.775.37a4.186 4.186 0 00-1.45 1.081c-.399.46-.695 1.007-.872 1.585a4.153 4.153 0 00-.133 1.806 4.38 4.38 0 00.62 1.703c.326.518.77.948 1.273 1.288a4.394 4.394 0 001.7.637 4.122 4.122 0 001.805-.133l7.07 5.375a.31.31 0 01.118.237l-.015 1.895a.297.297 0 01-.296.297l-8.105-.03zm1.73-11.846c0 .325-.103.651-.28.932a1.717 1.717 0 01-.754.622c-.311.134-.651.163-.962.09a1.8 1.8 0 01-.858-.46 1.643 1.643 0 01-.355-1.821c.134-.311.34-.563.622-.755a1.76 1.76 0 01.931-.282c.444 0 .873.178 1.184.504.295.296.473.71.473 1.17z" fill="#0E0333"/></svg>