<svg width="16" height="16" viewBox="0 0 16 16" fill="none" xmlns="http://www.w3.org/2000/svg">
    <path d="M10.8019 9.38113L11.6736 8.73142C13.5231 7.35289 14.2572 4.92928 13.4835 2.75616C13.4572 2.68219 13.3991 2.62386 13.3253 2.59718C11.1361 1.80628 8.68664 2.54165 7.2956 4.40797L6.6668 5.25161C6.27943 5.77134 5.81867 6.2321 5.29894 6.61948L4.46659 7.23986C2.58388 8.64311 1.81313 11.0954 2.55455 13.3234C2.58163 13.4048 2.64548 13.4687 2.72687 13.4957C4.95487 14.2372 7.4072 13.4664 8.81045 11.5837L9.42845 10.7546C9.8174 10.2327 10.28 9.77008 10.8019 9.38113Z" fill="#F5DA59"/>
    <path d="M6.64512 10.7778L7.29483 11.6495C8.67335 13.4991 11.097 14.2332 13.2701 13.4595C13.3441 13.4332 13.4024 13.3751 13.4291 13.3012C14.22 11.112 13.4846 8.66259 11.6183 7.27155L10.7746 6.64275C10.2549 6.25538 9.79414 5.79462 9.40677 5.27489L8.78639 4.44254C7.38314 2.55983 4.93082 1.78908 2.70282 2.5305C2.62144 2.55758 2.55758 2.62144 2.5305 2.70282C1.78907 4.93082 2.55983 7.38315 4.44254 8.7864L5.27169 9.4044C5.79354 9.79335 6.25617 10.256 6.64512 10.7778Z" fill="#F5DA59"/>
    <path d="M6.62274 5.48137L5.81657 5.29317C3.64019 4.7851 1.40396 5.86269 0.445237 7.88151C0.40463 7.96702 0.404412 8.06623 0.444621 8.15193C1.4025 10.1934 3.65814 11.2873 5.85411 10.7747L6.62757 10.5941C7.48844 10.3932 8.38403 10.3932 9.24489 10.5941L10.0069 10.772C12.2222 11.2892 14.5029 10.2192 15.5213 8.18506C15.5675 8.0927 15.5675 7.98394 15.5213 7.89158C14.5029 5.85744 12.2222 4.78746 10.0069 5.3046L9.24973 5.48137C8.38568 5.68308 7.48678 5.68308 6.62274 5.48137Z" fill="#8C65F7"/>
    <path d="M10.7131 6.83314L10.8913 5.89395C11.311 3.68144 10.1848 1.4644 8.15057 0.498364C8.06144 0.45604 7.95803 0.455813 7.86871 0.497723C5.81154 1.46297 4.66853 3.69923 5.092 5.9318L5.26381 6.83757C5.40783 7.59685 5.40783 8.37644 5.26381 9.13572L5.09407 10.0306C4.66707 12.2817 5.78619 14.5428 7.83509 15.5686C7.93137 15.6168 8.04473 15.6168 8.14101 15.5686C10.1899 14.5428 11.309 12.2817 10.882 10.0306L10.7131 9.14016C10.5686 8.37795 10.5686 7.59535 10.7131 6.83314Z" fill="#02E2AC"/>
    <circle cx="8.01191" cy="8.03833" r="2.57135" transform="rotate(-180 8.01191 8.03833)" fill="#F5DA59"/>
</svg>
