<svg
  width="157"
  height="33"
  viewBox="0 0 157 33"
  fill="none"
  xmlns="http://www.w3.org/2000/svg"
>
  <path
    d="M22.8807 25.123C22.8807 29.0817 19.7778 32.2499 15.9999 32.2499C12.222 32.2499 9.11914 29.0817 9.11914 25.123C9.11914 21.1643 12.222 17.9961 15.9999 17.9961C19.7778 17.9961 22.8807 21.1643 22.8807 25.123Z"
    stroke="#2B3330"
    stroke-width="1.5"
  />
  <circle
    cx="15.9998"
    cy="21.9231"
    r="10.3269"
    stroke="#2B3330"
    stroke-width="1.5"
  />
  <circle
    cx="16"
    cy="17"
    r="15.25"
    stroke="#2B3330"
    stroke-width="1.5"
  />
  <path
    d="M53.86 25L57.62 16.14L58.94 25H61.98L59.38 9.92H57.52L53.32 19.84L49.26 9.92H47.38L44.54 25H47.54L49 16.12L52.62 25H53.86ZM78.7156 25L72.3156 9.92H70.1956L63.5956 25H66.7756L68.1156 21.74H74.1556L75.4156 25H78.7156ZM70.0356 17.08C70.4356 16.08 70.8356 15.08 71.2156 14.08C71.5756 15.08 71.9556 16.08 72.3356 17.08L73.1756 19.26H69.1356L70.0356 17.08ZM92.1584 20L83.3784 9.92H81.3384V25H84.2984L84.2384 14.94L93.0184 25H95.0384V9.92H92.0784L92.1584 20ZM112.756 25L106.356 9.92H104.236L97.6362 25H100.816L102.156 21.74H108.196L109.456 25H112.756ZM104.076 17.08C104.476 16.08 104.876 15.08 105.256 14.08C105.616 15.08 105.996 16.08 106.376 17.08L107.216 19.26H103.176L104.076 17.08ZM121.877 25.28C126.377 25.28 129.217 22.2 129.217 17.46V16.88H122.457V19.38H125.917V19.4C125.697 21.18 124.117 22.62 121.937 22.62C119.437 22.62 117.097 20.48 117.097 17.52C117.097 14.6 119.217 12.38 122.077 12.38C123.697 12.38 125.017 13.1 126.057 14.52L128.517 12.9C126.757 10.62 124.617 9.64 122.037 9.64C117.617 9.64 114.057 12.94 114.057 17.52C114.057 21.92 117.537 25.28 121.877 25.28ZM141.726 25V22.4H135.926V18.18H141.466V15.62H135.926V12.52H141.686V9.92H132.926V25H141.726ZM152.147 18.82C154.247 17.94 155.287 16.46 155.287 14.54C155.287 11.28 152.827 9.92 149.387 9.92H145.767V25H148.767V19.14H149.207L152.987 25H156.587L152.147 18.82ZM149.507 12.52C151.347 12.52 152.327 13.16 152.327 14.6C152.327 16.1 151.247 16.78 149.427 16.78H148.767V12.52H149.507Z"
    fill="black"
  />
</svg>