<svg width="131" height="32" viewBox="0 0 131 32" fill="none" xmlns="http://www.w3.org/2000/svg">
<path d="M16.7434 32C7.92115 32 0.743347 24.8222 0.743347 16C0.743347 7.1778 7.92115 0 16.7434 0C25.5656 0 32.7433 7.1778 32.7433 16C32.7433 24.8222 25.5656 32 16.7434 32ZM15.6823 29.192C15.6646 29.212 15.6524 29.2362 15.647 29.2624C15.6416 29.2885 15.6431 29.3156 15.6513 29.341C15.6596 29.3664 15.6744 29.3891 15.6942 29.407C15.714 29.4249 15.7381 29.4374 15.7642 29.4431C16.412 29.5681 17.0777 29.5681 17.7255 29.4431C17.7516 29.4374 17.7758 29.4249 17.7956 29.407C17.8154 29.3891 17.8301 29.3664 17.8384 29.341C17.8467 29.3156 17.8482 29.2885 17.8428 29.2624C17.8373 29.2362 17.8252 29.212 17.8075 29.192C17.6738 29.0424 17.5101 28.9226 17.327 28.8406C17.1439 28.7587 16.9455 28.7163 16.7449 28.7163C16.5443 28.7163 16.3459 28.7587 16.1628 28.8406C15.9797 28.9226 15.8159 29.0424 15.6823 29.192ZM16.7441 18.2584C13.7699 18.2584 11.3508 20.7847 11.3508 23.8974C11.3468 24.7034 11.5127 25.5011 11.8378 26.2386C12.1628 26.9761 12.6396 27.6368 13.2371 28.1776C13.2692 28.2068 13.3071 28.2287 13.3484 28.2417C13.3897 28.2548 13.4334 28.2588 13.4764 28.2534C13.5194 28.2481 13.5607 28.2334 13.5975 28.2106C13.6343 28.1877 13.6657 28.1571 13.6896 28.121C14.0234 27.6161 14.4772 27.2018 15.0103 26.9152C15.5434 26.6286 16.1392 26.4786 16.7445 26.4786C17.3498 26.4786 17.9456 26.6286 18.4787 26.9152C19.0118 27.2018 19.4656 27.6161 19.7994 28.121C19.8235 28.157 19.855 28.1875 19.8918 28.2103C19.9287 28.2331 19.97 28.2477 20.0131 28.2531C20.0561 28.2584 20.0997 28.2545 20.1411 28.2415C20.1824 28.2285 20.2205 28.2067 20.2526 28.1776C20.8495 27.6367 21.3257 26.9761 21.6503 26.2389C21.9749 25.5017 22.1406 24.7044 22.1367 23.899C22.1367 20.7878 19.7175 18.2584 16.7441 18.2584ZM16.6676 10.6986C11.4205 10.7384 7.17473 15.086 7.25128 20.3323C7.27395 22.0157 7.74655 23.6624 8.62009 25.1016C8.65562 25.1608 8.71034 25.2059 8.77512 25.2296C8.83991 25.2532 8.91084 25.254 8.97611 25.2317C9.04138 25.2094 9.09704 25.1654 9.13381 25.1071C9.17058 25.0487 9.18623 24.9795 9.17818 24.911C9.13635 24.5748 9.11539 24.2363 9.11541 23.8974C9.11541 19.5537 12.5382 16.0199 16.7464 16.0199C20.9546 16.0199 24.3767 19.5537 24.3767 23.8974C24.3769 24.2342 24.3562 24.5707 24.3146 24.9049C24.3068 24.9733 24.3226 25.0424 24.3595 25.1006C24.3963 25.1587 24.452 25.2025 24.5172 25.2247C24.5824 25.2469 24.6532 25.2461 24.7179 25.2225C24.7826 25.1988 24.8372 25.1538 24.8727 25.0948C25.7448 23.6492 26.2156 21.9971 26.2366 20.309C26.2576 18.6208 25.8279 16.9576 24.992 15.4908C24.1561 14.024 22.9441 12.8067 21.481 11.9643C20.0179 11.122 18.3565 10.685 16.6683 10.6986H16.6676ZM16.8574 8.46086C23.2115 8.52287 28.3958 13.6965 28.4731 20.0475C28.4829 20.8257 28.4154 21.603 28.2718 22.3679C28.2581 22.4386 28.2701 22.5118 28.3058 22.5744C28.3414 22.637 28.3983 22.6847 28.466 22.7091C28.5338 22.7334 28.6081 22.7327 28.6754 22.707C28.7426 22.6814 28.7985 22.6325 28.8329 22.5692C29.9224 20.5728 30.497 18.3363 30.5049 16.062C30.5378 8.47694 24.356 2.25456 16.7709 2.23849C9.16976 2.22318 2.98028 8.4027 2.98028 16.0008C2.97749 18.2949 3.55165 20.5528 4.64994 22.5669C4.68436 22.63 4.74018 22.6787 4.80733 22.7043C4.87449 22.7299 4.94859 22.7307 5.01626 22.7065C5.08394 22.6823 5.14074 22.6347 5.17647 22.5724C5.21219 22.51 5.22447 22.4369 5.2111 22.3663C5.07675 21.6499 5.00934 20.9226 5.00976 20.1937C5.01052 13.685 10.3372 8.39809 16.8582 8.46086H16.8574Z" fill="black"/>
<path d="M51.4233 20.636L55.8873 7.964H60.3033V24.5H57.5433V10.604L52.5273 24.5H50.0793L45.2313 10.628V24.5H42.5433V7.964H47.1513L51.4233 20.636ZM72.9937 22.724C73.2337 22.724 73.4977 22.7 73.7617 22.58V24.332C73.3777 24.572 72.7537 24.716 72.1537 24.716C70.5217 24.716 69.6337 23.828 69.5377 22.292C68.9377 23.78 67.5697 24.836 65.5777 24.836C63.3457 24.836 61.7377 23.54 61.7377 21.236C61.7377 18.236 64.2577 17.156 67.4017 17.108C68.1217 17.108 68.7217 17.156 69.2977 17.204V16.556C69.2977 15.068 68.5777 14.252 66.8737 14.252C65.4817 14.252 64.5697 14.924 64.4737 16.148V16.364L61.9057 15.932C62.0257 13.82 64.0417 12.38 66.8737 12.38C70.1377 12.38 71.9377 13.988 71.9377 16.964V21.38C71.9377 22.412 72.2737 22.724 72.9937 22.724ZM66.4657 22.82C68.1697 22.82 69.2977 21.644 69.2977 19.652V18.812C68.9137 18.788 68.5057 18.764 68.0497 18.764C65.8177 18.812 64.4257 19.412 64.4257 21.044C64.4257 22.148 65.1937 22.82 66.4657 22.82ZM80.8164 12.476C83.3844 12.476 84.7764 14.276 84.7764 16.94V24.5H82.0164V17.612C82.0164 15.716 81.2964 14.78 79.8084 14.78C78.0804 14.78 76.8564 16.22 76.8564 18.62V24.5H74.1204V12.74H76.7844V15.5C77.3844 13.748 78.7764 12.476 80.8164 12.476ZM97.125 22.724C97.365 22.724 97.629 22.7 97.893 22.58V24.332C97.509 24.572 96.885 24.716 96.285 24.716C94.653 24.716 93.765 23.828 93.669 22.292C93.069 23.78 91.701 24.836 89.709 24.836C87.477 24.836 85.869 23.54 85.869 21.236C85.869 18.236 88.389 17.156 91.533 17.108C92.253 17.108 92.853 17.156 93.429 17.204V16.556C93.429 15.068 92.709 14.252 91.005 14.252C89.613 14.252 88.701 14.924 88.605 16.148V16.364L86.037 15.932C86.157 13.82 88.173 12.38 91.005 12.38C94.269 12.38 96.069 13.988 96.069 16.964V21.38C96.069 22.412 96.405 22.724 97.125 22.724ZM90.597 22.82C92.301 22.82 93.429 21.644 93.429 19.652V18.812C93.045 18.788 92.637 18.764 92.181 18.764C89.949 18.812 88.557 19.412 88.557 21.044C88.557 22.148 89.325 22.82 90.597 22.82ZM100.724 20.852C100.172 21.044 99.6677 21.452 99.6677 21.98C99.6677 22.604 100.172 22.892 101.3 22.892H105.692C108.044 22.892 109.46 23.924 109.46 25.772C109.46 28.124 107.42 29.516 102.788 29.516C99.1877 29.516 97.2917 28.604 97.2917 26.9C97.2917 25.796 98.1797 25.148 99.2357 24.836C98.2517 24.572 97.6037 23.9 97.6037 22.772C97.6037 21.548 98.6357 20.684 99.7157 20.348C98.5877 19.58 97.8677 18.404 97.8677 16.868C97.8677 14.348 99.9557 12.428 103.052 12.428C105.212 12.428 106.892 13.316 107.612 14.756C107.708 12.908 108.524 11.972 110.42 11.996L110.612 14.228H110.228C108.98 14.228 108.284 14.756 108.188 16.22V16.82C108.044 19.436 106.172 21.236 103.028 21.236C102.188 21.236 101.42 21.092 100.724 20.852ZM103.028 14.3C101.54 14.3 100.508 15.116 100.508 16.868C100.508 18.596 101.54 19.412 103.028 19.412C104.516 19.412 105.572 18.596 105.572 16.844C105.572 15.092 104.516 14.3 103.028 14.3ZM105.404 25.148H101.18C100.076 25.148 99.4277 25.652 99.4277 26.348C99.4277 27.308 100.604 27.716 102.908 27.716C105.86 27.716 106.988 27.212 106.988 26.18C106.988 25.484 106.436 25.148 105.404 25.148ZM120.922 18.668V19.148H112.498C112.57 21.236 113.578 22.676 115.642 22.676C117.13 22.676 118.09 21.812 118.618 20.42L120.874 21.356C120.154 23.204 118.402 24.764 115.546 24.764C111.85 24.764 109.81 22.316 109.81 18.572C109.81 14.66 112.258 12.38 115.474 12.38C118.954 12.38 120.922 14.828 120.922 18.668ZM115.45 14.396C113.818 14.396 112.762 15.452 112.57 17.276H118.186C118.09 15.356 117.034 14.396 115.45 14.396ZM124.814 24.5H122.102V12.74H124.766V15.956C125.462 13.796 126.878 12.404 129.014 12.404C129.182 12.404 129.326 12.404 129.494 12.428V15.236C129.278 15.188 129.062 15.188 128.774 15.188C126.374 15.188 124.814 16.484 124.814 19.508V24.5Z" fill="black"/>
</svg>
