<svg
  width="70"
  height="70"
  viewBox="0 0 70 70"
  fill="none"
  xmlns="http://www.w3.org/2000/svg"
>
  <path
    fill-rule="evenodd"
    clip-rule="evenodd"
    d="M0 10.1386C0 15.7281 4.54724 20.2771 10.1386 20.2771C15.7299 20.2771 20.2771 15.7299 20.2771 10.1386C20.2771 4.54724 15.7299 0 10.1386 0C4.54724 0 0 4.54905 0 10.1386ZM1.72987 10.1386C1.72987 5.50265 5.50265 1.72987 10.1386 1.72987C14.7745 1.72987 18.5472 5.50265 18.5472 10.1386C18.5472 14.7745 14.7745 18.5472 10.1386 18.5472C5.50265 18.5472 1.72987 14.7745 1.72987 10.1386ZM59.8632 20.2771C54.2737 20.2771 49.7247 15.7299 49.7247 10.1386C49.7247 4.54724 54.2719 0 59.8632 0C65.4546 0 70.0018 4.54724 70.0018 10.1386C70.0018 15.7299 65.4546 20.2771 59.8632 20.2771ZM59.8632 1.72987C55.2273 1.72987 51.4546 5.50265 51.4546 10.1386C51.4546 14.7745 55.2273 18.5472 59.8632 18.5472C64.4991 18.5472 68.2719 14.7745 68.2719 10.1386C68.2719 5.50265 64.4991 1.72987 59.8632 1.72987ZM19.718 38.3213C20.311 41.0451 21.6155 43.4831 23.4082 45.4555L19.1263 49.7374C18.7879 50.0757 18.7879 50.6222 19.1263 50.9606C19.2946 51.1289 19.5171 51.2139 19.7379 51.2139C19.9586 51.2139 20.1812 51.1289 20.3495 50.9606L24.6399 46.6701C27.4274 49.1339 31.0748 50.6114 34.972 50.6114V50.6095C38.8155 50.6095 42.4598 49.2069 45.3315 46.6398L49.6523 50.9606C49.8206 51.1289 50.0432 51.2139 50.2639 51.2139C50.4847 51.2139 50.7073 51.1289 50.8755 50.9606C51.2139 50.6222 51.2139 50.0758 50.8755 49.7374L46.5579 45.4198C49.1598 42.5401 50.5824 38.8698 50.5824 34.9991C50.5824 31.1283 49.1597 27.4596 46.5578 24.5786L50.8737 20.2627C51.2121 19.9243 51.2121 19.3778 50.8737 19.0394C50.5354 18.7011 49.9889 18.7011 49.6505 19.0394L45.3315 23.3585C42.4598 20.7914 38.8155 19.3887 34.972 19.3887C31.1637 19.3887 27.5061 20.7849 24.6365 23.3265L20.3495 19.0394C20.0111 18.7011 19.4647 18.7011 19.1263 19.0394C18.7879 19.3778 18.7879 19.9243 19.1263 20.2627L23.4057 24.5421C21.1239 27.0557 19.7232 30.2259 19.4212 33.613C19.3706 34.183 19.7904 34.6879 20.3622 34.7385C20.934 34.7928 21.437 34.3676 21.4877 33.7976C22.1047 26.8836 28.0271 21.466 34.9701 21.466C42.4325 21.466 48.5051 27.5386 48.5051 35.0009C48.5051 42.4632 42.4343 48.5359 34.9701 48.5359C28.6514 48.5359 23.089 44.0538 21.7446 37.8798C21.6234 37.3207 21.0715 36.966 20.5105 37.0872C19.9514 37.2085 19.5967 37.7604 19.718 38.3213ZM35.9473 33.946C35.9771 33.9537 36.007 33.9614 36.0377 33.9695L36.0395 33.9659C38.6868 34.6372 40.0494 35.6324 40.0494 37.7531V37.7911C40.0494 40.0385 38.4281 41.4517 36.0395 41.6707V42.6062C36.0395 43.1653 35.5854 43.6195 35.0262 43.6195C34.4671 43.6195 34.0129 43.1653 34.0129 42.6062V41.5893C32.7372 41.3757 31.5339 40.86 30.4518 40.0566C30.1895 39.8702 30.0031 39.5518 30.0031 39.1772C30.0031 38.5783 30.4898 38.1114 31.0888 38.1114C31.4073 38.1114 31.6117 38.2055 31.7619 38.3177C32.464 38.875 33.1968 39.2731 34.0129 39.4866C34.458 39.6024 34.9267 39.664 35.4279 39.664C35.6451 39.664 35.8477 39.6477 36.0395 39.6169C37.1017 39.4504 37.7477 38.8443 37.7477 38.0191V37.9811C37.7477 37.2356 37.4129 36.7615 36.0395 36.3164C35.6939 36.2042 35.2832 36.092 34.7928 35.9798C34.5214 35.9147 34.2608 35.8478 34.0129 35.7772C31.7149 35.1294 30.4338 34.2482 30.4338 32.0695V32.0315C30.4338 30.052 31.8868 28.6116 34.0129 28.2986V27.3287C34.0129 26.7696 34.4671 26.3154 35.0262 26.3154C35.5854 26.3154 36.0395 26.7696 36.0395 27.3287V28.3076C37.1813 28.4614 38.1621 28.8523 39.0578 29.4494C39.3201 29.5996 39.5626 29.9181 39.5626 30.3668C39.5626 30.9658 39.0759 31.4326 38.4769 31.4326C38.2525 31.4326 38.0644 31.3765 37.878 31.2643C37.2573 30.8608 36.6511 30.5803 36.0377 30.4229C35.6523 30.3234 35.2633 30.2727 34.8652 30.2727C34.5485 30.2727 34.2626 30.3125 34.0111 30.3831C33.1932 30.6111 32.7336 31.1684 32.7336 31.8271V31.8651C32.7336 32.5599 33.0159 32.9888 34.0111 33.3832C34.4653 33.5624 35.066 33.7343 35.8568 33.9225L35.9155 33.9378L35.9469 33.9459L35.9473 33.946ZM57.2087 7.65412C57.2087 9.11799 58.3994 10.3086 59.8632 10.3086C61.3271 10.3086 62.5178 9.11799 62.5178 7.65412C62.5178 6.19024 61.3271 4.9996 59.8632 4.9996C58.3994 4.9996 57.2087 6.19024 57.2087 7.65412ZM58.2456 7.65412C58.2456 6.76204 58.9712 6.03643 59.8632 6.03643C60.7553 6.03643 61.4809 6.76204 61.4809 7.65412C61.4809 8.54619 60.7553 9.2718 59.8632 9.2718C58.9712 9.2718 58.2456 8.54619 58.2456 7.65412ZM54.3624 15.0658C54.2556 15.0658 54.1471 15.0332 54.0548 14.9644C53.825 14.7944 53.7761 14.4686 53.9462 14.2388C55.3287 12.3696 57.5399 11.2532 59.8632 11.2532C62.1866 11.2532 64.3978 12.3696 65.7803 14.2388C65.9504 14.4686 65.9015 14.7944 65.6717 14.9644C65.4419 15.1345 65.1162 15.0857 64.9461 14.8559C63.7591 13.249 61.8591 12.29 59.8651 12.29C57.871 12.29 55.971 13.249 54.784 14.8559C54.6827 14.9934 54.5253 15.0658 54.366 15.0658H54.3624ZM10.1386 10.3086C8.67468 10.3086 7.48403 9.11799 7.48403 7.65412C7.48403 6.19024 8.67468 4.9996 10.1386 4.9996C11.6024 4.9996 12.7931 6.19024 12.7931 7.65412C12.7931 9.11799 11.6024 10.3086 10.1386 10.3086ZM10.1386 6.03643C9.24647 6.03643 8.52087 6.76204 8.52087 7.65412C8.52087 8.54619 9.24647 9.2718 10.1386 9.2718C11.0306 9.2718 11.7562 8.54619 11.7562 7.65412C11.7562 6.76204 11.0306 6.03643 10.1386 6.03643ZM15.2196 14.8559C15.3209 14.9934 15.4783 15.0658 15.6376 15.0658H15.6412C15.748 15.0658 15.8565 15.0332 15.9488 14.9645C16.1786 14.7944 16.2275 14.4687 16.0574 14.2388C14.6749 12.3696 12.4637 11.2532 10.1404 11.2532C7.81698 11.2532 5.60578 12.3696 4.22334 14.2388C4.05325 14.4687 4.1021 14.7944 4.33191 14.9645C4.56171 15.1345 4.88742 15.0857 5.05751 14.8559C6.24453 13.2491 8.14449 12.29 10.1385 12.29C12.1326 12.29 14.0326 13.2491 15.2196 14.8559ZM59.8632 70C54.2737 70 49.7247 65.4528 49.7247 59.8615C49.7247 54.2701 54.2719 49.7229 59.8632 49.7229C65.4546 49.7229 70.0018 54.2701 70.0018 59.8615C70.0018 65.4528 65.4546 70 59.8632 70ZM59.8632 51.4528C55.2273 51.4528 51.4546 55.2255 51.4546 59.8615C51.4546 64.4974 55.2273 68.2701 59.8632 68.2701C64.4991 68.2701 68.2719 64.4974 68.2719 59.8615C68.2719 55.2255 64.4991 51.4528 59.8632 51.4528ZM57.2088 57.3788C57.2088 58.8427 58.3994 60.0333 59.8633 60.0333C61.3271 60.0333 62.5178 58.8427 62.5178 57.3788C62.5178 55.915 61.3271 54.7243 59.8633 54.7243C58.3994 54.7243 57.2088 55.915 57.2088 57.3788ZM58.2456 57.3788C58.2456 56.4868 58.9712 55.7612 59.8633 55.7612C60.7553 55.7612 61.4809 56.4868 61.4809 57.3788C61.4809 58.2709 60.7553 58.9965 59.8633 58.9965C58.9712 58.9965 58.2456 58.2709 58.2456 57.3788ZM54.3624 64.7887C54.2556 64.7887 54.1471 64.7561 54.0548 64.6873C53.825 64.5173 53.7761 64.1916 53.9462 63.9618C55.3287 62.0926 57.5399 60.9761 59.8632 60.9761C62.1866 60.9761 64.3978 62.0926 65.7803 63.9618C65.9504 64.1916 65.9015 64.5173 65.6717 64.6873C65.4419 64.8574 65.1162 64.8086 64.9461 64.5788C63.7591 62.972 61.8591 62.0129 59.8651 62.0129C57.871 62.0129 55.971 62.972 54.784 64.5788C54.6827 64.7163 54.5253 64.7887 54.366 64.7887H54.3624ZM0 59.8615C0 65.4528 4.54905 70 10.1386 70C15.7299 70 20.2771 65.4528 20.2771 59.8615C20.2771 54.2701 15.7299 49.7229 10.1386 49.7229C4.54724 49.7229 0 54.2701 0 59.8615ZM1.72987 59.8615C1.72987 55.2255 5.50265 51.4528 10.1386 51.4528C14.7745 51.4528 18.5472 55.2255 18.5472 59.8615C18.5472 64.4974 14.7745 68.2701 10.1386 68.2701C5.50265 68.2701 1.72987 64.4974 1.72987 59.8615ZM10.1386 60.0333C8.67468 60.0333 7.48403 58.8427 7.48403 57.3788C7.48403 55.915 8.67468 54.7243 10.1386 54.7243C11.6024 54.7243 12.7931 55.915 12.7931 57.3788C12.7931 58.8427 11.6024 60.0333 10.1386 60.0333ZM10.1386 55.7612C9.24647 55.7612 8.52087 56.4868 8.52087 57.3788C8.52087 58.2709 9.24647 58.9965 10.1386 58.9965C11.0306 58.9965 11.7562 58.2709 11.7562 57.3788C11.7562 56.4868 11.0306 55.7612 10.1386 55.7612ZM15.2196 64.5788C15.3209 64.7163 15.4783 64.7887 15.6376 64.7887H15.6412C15.748 64.7887 15.8565 64.7561 15.9488 64.6873C16.1786 64.5173 16.2275 64.1916 16.0574 63.9618C14.6749 62.0926 12.4637 60.9761 10.1404 60.9761C7.81698 60.9761 5.60578 62.0926 4.22334 63.9618C4.05325 64.1916 4.1021 64.5173 4.33191 64.6873C4.56171 64.8574 4.88742 64.8086 5.05751 64.5788C6.24453 62.972 8.14449 62.0129 10.1385 62.0129C12.1326 62.0129 14.0326 62.972 15.2196 64.5788Z"
    fill="url(#paint0_linear_362_2019)"
  />
  <defs>
    <linearGradient
      id="paint0_linear_362_2019"
      x1="67.6027"
      y1="3.35616"
      x2="2.87671"
      y2="67.1233"
      gradientUnits="userSpaceOnUse"
    >
      <stop stop-color="#6F3FF5" />
      <stop
        offset="1"
        stop-color="#6F3FF5"
        stop-opacity="0.65"
      />
    </linearGradient>
  </defs>
</svg>