<svg width="18" height="19" viewBox="0 0 18 19" fill="none" xmlns="http://www.w3.org/2000/svg">
<path d="M5 2H3C1.89543 2 1 2.89543 1 4V16C1 17.1046 1.89543 18 3 18H15C16.1046 18 17 17.1046 17 16V4C17 2.89543 16.1046 2 15 2H13M9 1V9M9 9L12 6M9 9L6 6M1 11H3.58579C3.851 11 4.10536 11.1054 4.29289 11.2929L6.70711 13.7071C6.89464 13.8946 7.149 14 7.41421 14H10.5858C10.851 14 11.1054 13.8946 11.2929 13.7071L13.7071 11.2929C13.8946 11.1054 14.149 11 14.4142 11H17" stroke="#6F3FF5" stroke-width="2" stroke-linecap="round" stroke-linejoin="round"/>
</svg>
